<svg id="Layer_1" enable-background="new 0 0 497 497" height="512" viewBox="0 0 497 497" width="512" xmlns="http://www.w3.org/2000/svg"><g><path d="m248.5 0c-137.243 0-248.5 111.257-248.5 248.5s111.257 248.5 248.5 248.5 248.5-111.257 248.5-248.5-111.257-248.5-248.5-248.5zm15 466.478v-51.978c0-4.142-3.358-7.5-7.5-7.5h-15c-4.142 0-7.5 3.358-7.5 7.5v51.978c-108.718-7.374-195.605-94.26-202.978-202.978h51.978c4.142 0 7.5-3.358 7.5-7.5v-15c0-4.142-3.358-7.5-7.5-7.5h-51.978c7.373-108.718 94.26-195.604 202.978-202.978v51.978c0 4.142 3.358 7.5 7.5 7.5h15c4.142 0 7.5-3.358 7.5-7.5v-51.978c108.718 7.373 195.605 94.26 202.978 202.978h-51.978c-4.142 0-7.5 3.358-7.5 7.5v15c0 4.142 3.358 7.5 7.5 7.5h51.978c-7.373 108.718-94.26 195.604-202.978 202.978z" fill="#1b74d6"/><circle cx="248.5" cy="248.5" fill="#ffeac3" r="128.5"/><path d="m248.5 150v90c24.853 0 45-20.147 45-45s-20.147-45-45-45z" fill="#1b74d6"/><path d="m263.5 195c0-24.853-6.716-45-15-45-24.853 0-45 20.147-45 45s20.147 45 45 45c8.284 0 15-20.147 15-45z" fill="#1e8aff"/><path d="m195.996 270c-16.5 0-30 13.5-30 30v2.316c7.756 11.867 18.005 21.955 30 29.529l30-61.845z" fill="#54a5ff"/><path d="m301.004 270h-30l30 61.845c11.995-7.574 22.244-17.662 30-29.529v-2.316c0-16.5-13.5-30-30-30z" fill="#1b74d6"/><path d="m271.004 270h-45.009c-16.5 0-30 13.5-30 30v31.845c15.199 9.597 33.201 15.155 52.505 15.155s37.306-5.558 52.504-15.155v-31.845c0-16.5-13.5-30-30-30z" fill="#1e8aff"/></g></svg>