<svg id="Layer_1" enable-background="new 0 0 496.999 496.999" height="512" viewBox="0 0 496.999 496.999" width="512" xmlns="http://www.w3.org/2000/svg"><g><path d="m106.265 358.913-95.282 127.102c14.644 14.644 38.389 14.644 53.033 0l84.675-84.675z" fill="#1b74d6"/><path d="m127.478 380.126-84.675 84.675c-14.644 14.644-28.892 24.141-31.82 21.213-14.644-14.644-14.644-38.389 0-53.033l84.675-84.675z" fill="#1e8aff"/><path d="m111.193 325.807h75v45h-75z" fill="#ffeac3" transform="matrix(.707 -.707 .707 .707 -202.739 207.159)"/><path d="m143.335 279.419-13.86 32.403c-1.205 2.818-.575 6.086 1.592 8.253l45.858 45.857c2.167 2.167 5.435 2.798 8.253 1.592l32.403-13.86z" fill="#ffd17e"/><path d="m159.299 390.734-21.213-21.213-21.213 21.213 21.213 21.213c5.858 5.858 15.355 5.858 21.213 0s5.858-15.355 0-21.213z" fill="#ffb739"/><path d="m138.086 390.734c5.858-5.858 5.858-15.355 0-21.213l-31.82-31.82c-5.858-5.858-15.355-5.858-21.213 0s-5.858 15.355 0 21.213l31.82 31.82c5.858 5.858 15.355 5.858 21.213 0z" fill="#ffd17e"/><circle cx="308.499" cy="188.501" fill="#ffb739" r="188.5"/><circle cx="308.499" cy="188.501" fill="#b8d8ff" r="158.5"/><circle cx="308.499" cy="188.501" fill="#fff" r="128.5"/><path d="m308.499 90.001v90c24.853 0 45-20.147 45-45s-20.147-45-45-45z" fill="#1b74d6"/><path d="m323.499 135.001c0-24.853-6.716-45-15-45-24.853 0-45 20.147-45 45s20.147 45 45 45c8.284 0 15-20.147 15-45z" fill="#1e8aff"/><path d="m255.995 210.001c-16.5 0-30 13.5-30 30v2.316c7.756 11.867 18.005 21.955 30 29.529l30-61.845z" fill="#54a5ff"/><path d="m361.003 210.001h-30l30 61.845c11.995-7.574 22.244-17.662 30-29.529v-2.316c0-16.5-13.5-30-30-30z" fill="#1b74d6"/><path d="m331.003 210.001h-45.009c-16.5 0-30 13.5-30 30v31.845c15.198 9.597 33.201 15.155 52.504 15.155 19.304 0 37.306-5.558 52.504-15.155v-31.845c.001-16.5-13.499-30-29.999-30z" fill="#1e8aff"/></g></svg>