<svg id="Layer_1" enable-background="new 0 0 497 497" height="512" viewBox="0 0 497 497" width="512" xmlns="http://www.w3.org/2000/svg"><g><path d="m307.353 178.587h44.899v77.413h-44.899z" fill="#ffeac3"/><path d="m307.252 256v98.511c0 12.427 10.074 22.5 22.5 22.5s22.5-10.073 22.5-22.5v-98.511z" fill="#1b74d6"/><path d="m197.415 180h-30l30 152.511c0 8.28 6.71 14.5 15 14.5 8.28 0 15-6.22 15-14.5v-122.511c0-16.5-13.5-30-30-30z" fill="#8c98a7"/><path d="m91.748 180h30l-30 152.011c0 8.28-6.72 15-15 15s-15-6.72-15-15v-122.011c0-16.5 13.5-30 30-30z" fill="#c0c8d2"/><path d="m197.415 210c0-16.5-13.5-30-30-30h-45.667c-16.5 0-30 13.5-30 30v268.084c0 10.447 8.469 18.916 18.917 18.916 10.447 0 18.917-8.469 18.917-18.916v-146.073h30v146.073c0 10.447 8.469 18.916 18.917 18.916 10.447 0 18.916-8.469 18.916-18.916z" fill="#a6b0bd"/><path d="m144.252 60v90c24.853 0 45-20.147 45-45s-20.147-45-45-45z" fill="#8c98a7"/><path d="m159.252 105c0-24.853-6.716-45-15-45-24.853 0-45 20.147-45 45s20.147 45 45 45c8.285 0 15-20.147 15-45z" fill="#a6b0bd"/><path d="m352.252 241h-30v30h30c8.284 0 15-6.716 15-15s-6.716-15-15-15z" fill="#ffb739"/><path d="m337.252 256c0-8.284-6.716-15-15-15h-15c-8.284 0-15 6.716-15 15s6.716 15 15 15h15c8.284 0 15-6.716 15-15z" fill="#ffd17e"/><path d="m329.752 0v211c58.266 0 105.5-47.234 105.5-105.5s-47.234-105.5-105.5-105.5z" fill="#b8d8ff"/><path d="m405.252 105.5c0-58.266-33.802-105.5-75.5-105.5-58.266 0-105.5 47.234-105.5 105.5s47.234 105.5 105.5 105.5c41.697 0 75.5-47.234 75.5-105.5z" fill="#dbebff"/></g></svg>