<svg id="Layer_1" enable-background="new 0 0 489.886 489.886" height="512" viewBox="0 0 489.886 489.886" width="512" xmlns="http://www.w3.org/2000/svg"><g><path d="m455.869 34.018s-53.033 53.033-53.033 53.033l79.567 15.928c1.252-24.802-7.591-50.018-26.534-68.961z" fill="#b8d8ff"/><path d="m455.869 34.018c-18.942-18.943-44.159-27.786-68.96-26.534l15.928 79.567 58.354-5.286c6.482-19.57 5.205-37.22-5.322-47.747z" fill="#dbebff"/><path d="m471.779 92.354-116.673 31.82 95.459 31.82 37.123-37.123c2.929-2.929 2.929-7.678 0-10.607z" fill="#ffb739"/><path d="m371.016 2.198-37.123 37.123 63.64 127.279 74.246-74.246-90.156-90.156c-2.929-2.929-7.678-2.929-10.607 0z" fill="#ffd17e"/><path d="m429.353 134.781-231.835 83.342 95.459 95.46 157.589-157.589z" fill="#f0224e"/><path d="m191.397 98.345h222.864v135h-222.864z" fill="#ff4c50" transform="matrix(.707 -.707 .707 .707 -28.574 262.707)"/><path d="m165.698 186.303c-5.858 5.858-5.858 15.355 0 21.213l116.673 116.673c5.858 5.858 15.355 5.858 21.213 0s5.858-15.355 0-21.213l-116.673-116.673c-5.858-5.857-15.355-5.857-21.213 0z" fill="#ff4c50"/><path d="m57.968 355.632h120v75h-120z" fill="#ff9441" transform="matrix(.707 -.707 .707 .707 -243.434 198.562)"/><path d="m36.755 334.419h120v75h-120z" fill="#ffb739" transform="matrix(.707 -.707 .707 .707 -234.648 177.349)"/><path d="m153.428 281.386h120v75h-120z" fill="#ff9441" transform="matrix(.707 -.707 .707 .707 -162.975 244.316)"/><path d="m121.608 234.566h120v105h-120z" fill="#ffb739" transform="matrix(.707 -.707 .707 .707 -149.795 212.496)"/><path d="m112.665 451.468-21.213-21.213v42.426l15.001 15.001c3.648 3.648 9.831 2.62 12.06-2.033 5.347-11.156 3.397-24.935-5.848-34.181z" fill="#ffb739"/><path d="m91.452 430.255-53.033-53.033c-9.246-9.245-23.024-11.195-34.181-5.848-4.653 2.23-5.686 8.407-2.037 12.056l89.252 89.252c11.714-11.716 11.714-30.711-.001-42.427z" fill="#ffd17e"/><path d="m303.584 302.976-21.213-21.213-21.213 21.213 21.213 21.213c5.858 5.858 15.355 5.858 21.213 0s5.857-15.355 0-21.213z" fill="#ffb739"/><path d="m282.37 302.976c5.858-5.858 5.858-15.355 0-21.213l-95.46-95.46c-5.858-5.858-15.355-5.858-21.213 0s-5.858 15.355 0 21.213l95.46 95.46c5.858 5.858 15.356 5.858 21.213 0z" fill="#ffd17e"/><path d="m208.124 377.222-21.213-21.213-21.213 21.213 21.213 21.213c5.858 5.858 15.355 5.858 21.213 0s5.858-15.355 0-21.213z" fill="#ffb739"/><path d="m186.911 377.222c5.858-5.858 5.858-15.355 0-21.213l-74.246-74.246c-5.858-5.858-15.355-5.858-21.213 0s-5.858 15.355 0 21.213l74.246 74.246c5.858 5.858 15.355 5.858 21.213 0z" fill="#ffd17e"/></g></svg>