<svg id="Layer_1" enable-background="new 0 0 497 497" height="512" viewBox="0 0 497 497" width="512" xmlns="http://www.w3.org/2000/svg"><g><path d="m135.667 150h-30l30 152.511c0 8.28 6.71 14.5 15 14.5 8.28 0 15-6.22 15-14.5v-122.511c0-16.5-13.5-30-30-30z" fill="#1b74d6"/><path d="m30 150h30l-30 152.011c0 8.28-6.72 15-15 15s-15-6.72-15-15v-122.011c0-16.5 13.5-30 30-30z" fill="#54a5ff"/><path d="m135.667 180c0-16.5-13.5-30-30-30h-45.667c-16.5 0-30 13.5-30 30v268.083c0 10.448 8.469 18.917 18.917 18.917 10.447 0 18.917-8.469 18.917-18.916v-146.073h30v146.073c0 10.447 8.469 18.916 18.917 18.916 10.447 0 18.916-8.469 18.916-18.916z" fill="#1e8aff"/><path d="m82.504 30v90c24.853 0 45-20.147 45-45s-20.147-45-45-45z" fill="#1b74d6"/><path d="m97.504 75c0-24.853-6.716-45-15-45-24.853 0-45 20.147-45 45s20.147 45 45 45c8.285 0 15-20.147 15-45z" fill="#1e8aff"/><path d="m483.82 141.18c-17.574-17.574-46.066-17.574-63.64 0l-119.18 119.18-28.513-28.513c-17.574-17.574-46.066-17.574-63.64 0s-17.574 46.066 0 63.64l60.333 60.333c17.574 17.574 46.066 17.574 63.64 0l151-151c17.573-17.574 17.573-46.066 0-63.64z" fill="#ffeac3"/><path d="m441.393 162.394-21.213 21.213 21.213 21.213 21.213-21.213c5.849-5.849 5.849-15.365 0-21.214-5.848-5.848-15.364-5.848-21.213.001z" fill="#53a143"/><path d="m441.394 183.607c-5.848-5.848-15.365-5.848-21.214 0l-119.18 119.18-49.727-49.727c-5.848-5.849-15.365-5.849-21.213 0-5.848 5.848-5.848 15.365 0 21.213l60.333 60.333c5.858 5.858 15.355 5.858 21.213 0l129.787-129.786c5.849-5.849 5.849-15.365.001-21.213z" fill="#60ba4d"/></g></svg>