<svg id="Layer_1" enable-background="new 0 0 497 497" height="512" viewBox="0 0 497 497" width="512" xmlns="http://www.w3.org/2000/svg"><g><path d="m135.667 150h-30l30 152.511c0 8.28 6.71 14.5 15 14.5 8.28 0 15-6.22 15-14.5v-122.511c0-16.5-13.5-30-30-30z" fill="#1b74d6"/><path d="m30 150h30l-30 152.011c0 8.28-6.72 15-15 15s-15-6.72-15-15v-122.011c0-16.5 13.5-30 30-30z" fill="#54a5ff"/><path d="m135.667 180c0-16.5-13.5-30-30-30h-45.667c-16.5 0-30 13.5-30 30v268.083c0 10.448 8.469 18.917 18.917 18.917 10.447 0 18.917-8.469 18.917-18.916v-146.073h30v146.073c0 10.447 8.469 18.916 18.917 18.916 10.447 0 18.916-8.469 18.916-18.916z" fill="#1e8aff"/><path d="m82.504 30v90c24.853 0 45-20.147 45-45s-20.147-45-45-45z" fill="#1b74d6"/><path d="m97.504 75c0-24.853-6.716-45-15-45-24.853 0-45 20.147-45 45s20.147 45 45 45c8.285 0 15-20.147 15-45z" fill="#1e8aff"/><path d="m420.18 111.014-73.847 73.847-73.847-73.847c-17.574-17.574-46.066-17.574-63.64 0s-17.574 46.066 0 63.64l73.847 73.847-73.847 73.847c-17.574 17.574-17.574 46.066 0 63.64s46.066 17.574 63.64 0l73.847-73.847 73.847 73.847c17.574 17.574 46.066 17.574 63.64 0s17.574-46.066 0-63.64l-73.847-73.848 73.847-73.847c17.574-17.574 17.574-46.066 0-63.64s-46.066-17.573-63.64.001z" fill="#ffeac3"/><path d="m420.18 343.56 21.213 21.213c5.848 5.848 15.365 5.848 21.213 0s5.848-15.365 0-21.213l-21.213-21.213z" fill="#f0224e"/><path d="m441.393 132.227-21.213 21.213 21.213 21.213 21.213-21.213c5.849-5.849 5.849-15.365 0-21.214-5.848-5.848-15.364-5.848-21.213.001z" fill="#f0224e"/><path d="m441.394 153.44c-5.848-5.848-15.365-5.848-21.214 0l-73.846 73.846-95.06-95.06c-5.848-5.848-15.365-5.848-21.213 0s-5.848 15.365 0 21.213l95.06 95.06-95.06 95.06c-5.848 5.848-5.848 15.365 0 21.213s15.365 5.848 21.213 0l95.06-95.06 73.847 73.847c5.848 5.848 15.365 5.848 21.213 0s5.848-15.365 0-21.213l-73.847-73.846 73.846-73.846c5.849-5.849 5.849-15.365.001-21.214z" fill="#ff4c50"/></g></svg>