<svg id="Layer_1" enable-background="new 0 0 497 497" height="512" viewBox="0 0 497 497" width="512" xmlns="http://www.w3.org/2000/svg"><g><path d="m210.667 136-45 135h165.666l-45-135h-30.333l-7.5 7.5-7.5-7.5z" fill="#fff7e8"/><path d="m241 136h15v135h-15z" fill="#728192"/><path d="m316.333 136h-30v135h60v-105c0-16.5-13.5-30-30-30z" fill="#3d5168"/><path d="m180.667 136c-16.5 0-30 13.5-30 30v105h60v-135z" fill="#728192"/><path d="m180.667 166v105h30v-135c-16.5 0-30 13.5-30 30z" fill="#57697d"/><path d="m316.333 166c0-16.5-13.5-30-30-30-.001 0-.001 135-.001 135h30z" fill="#57697d"/><path d="m248.171 16v90c24.853 0 45-20.147 45-45s-20.147-45-45-45z" fill="#8c98a7"/><path d="m263.171 61c0-24.853-6.716-45-15-45-24.853 0-45 20.147-45 45s20.147 45 45 45c8.284 0 15-20.147 15-45z" fill="#a6b0bd"/><path d="m30 256h218.5v210h-218.5z" fill="#ff4c50"/><path d="m15.333 345.667h120v30.666h-120z" fill="#ffd17e" transform="matrix(0 1 -1 0 436.333 285.667)"/><path d="m405.675 256h61.324v210h-61.324z" fill="#f0224e"/><path d="m437 466h-188.5v-210h188.5v45l-16.325 60 16.325 60z" fill="#ff4c50"/><path d="m120.667 256v210h255.667v-210z" fill="#f0224e"/><path d="m150.667 301h195.667v120h-195.667z" fill="#ffd17e"/><path d="m467 226-30 22.5 30 22.5h22.5c4.142 0 7.5-3.358 7.5-7.5v-30c0-4.142-3.358-7.5-7.5-7.5z" fill="#ff4c50"/><path d="m0 233.5v30c0 4.142 3.358 7.5 7.5 7.5h459.5v-45h-459.5c-4.142 0-7.5 3.358-7.5 7.5z" fill="#ff7149"/><path d="m467 451h-30l30 30h21.215c5.16 0 8.804-5.099 7.091-9.965-4.109-11.67-15.231-20.035-28.306-20.035z" fill="#ff4c50"/><path d="m437 451h-407c-13.075 0-24.197 8.365-28.305 20.035-1.713 4.866 1.931 9.965 7.091 9.965h458.214c0-16.569-13.431-30-30-30z" fill="#ff7149"/><path d="m361.009 345.667h120v30.666h-120z" fill="#ffd17e" transform="matrix(0 1 -1 0 782.009 -60.009)"/></g></svg>