<svg id="Layer_1" enable-background="new 0 0 497 497" height="512" viewBox="0 0 497 497" width="512" xmlns="http://www.w3.org/2000/svg"><g><path d="m112.833 136-45 135h165.666l-45-135h-30.333l-7.499 7.5-7.501-7.5z" fill="#fff7e8"/><path d="m143.166 136h15v135h-15z" fill="#728192"/><path d="m308.5 136-45 135h165.666l-45-135h-30.333l-7.5 7.5-7.5-7.5z" fill="#fff7e8"/><path d="m338.833 136h15v135h-15z" fill="#728192"/><path d="m414.167 136h-30v135h60v-105c0-16.5-13.5-30-30-30z" fill="#3d5168"/><path d="m278.5 136c-16.5 0-30 13.5-30 30l-30 105h90v-135z" fill="#728192"/><path d="m278.5 166v105h30v-135c-16.5 0-30 13.5-30 30z" fill="#57697d"/><path d="m414.167 166c0-16.5-13.5-30-30-30-.001 0-.001 135-.001 135h30z" fill="#57697d"/><path d="m346.004 16v90c24.853 0 45-20.147 45-45s-20.147-45-45-45z" fill="#8c98a7"/><path d="m361.004 61c0-24.853-6.716-45-15-45-24.853 0-45 20.147-45 45s20.147 45 45 45c8.285 0 15-20.147 15-45z" fill="#a6b0bd"/><path d="m218.5 136h-30v135h60v-105c0-16.5-13.5-30-30-30z" fill="#3d5168"/><path d="m82.833 136c-16.5 0-30 13.5-30 30v105h60v-135z" fill="#728192"/><path d="m82.833 166v105h30v-135c-16.5 0-30 13.5-30 30z" fill="#57697d"/><path d="m218.5 166c0-16.5-13.5-30-30-30-.001 0-.001 135-.001 135h30z" fill="#57697d"/><path d="m150.338 16v90c24.853 0 45-20.147 45-45s-20.147-45-45-45z" fill="#8c98a7"/><path d="m165.338 61c0-24.853-6.716-45-15-45-24.853 0-45 20.147-45 45s20.147 45 45 45c8.284 0 15-20.147 15-45z" fill="#a6b0bd"/><path d="m406.998 331 90-75v-22.5c0-4.142-3.358-7.5-7.5-7.5h-22.5z" fill="#ffb739"/><path d="m466.998 406-466.998-150v-22.5c0-4.142 3.358-7.5 7.5-7.5h459.498z" fill="#ffd17e"/><path d="m467 256-90 112.5 90 112.5h22.5c4.142 0 7.5-3.358 7.5-7.5v-217.5z" fill="#ff9441"/><path d="m0 256v217.5c0 4.142 3.358 7.5 7.5 7.5h22.489l437.009-150 .002-75z" fill="#ffb739"/><path d="m437 331-90 75 90 75h30v-150z" fill="#ff4c50"/><path d="m29.994 331h407v150h-407z" fill="#ff7149"/></g></svg>