<svg id="Layer_1" enable-background="new 0 0 497 497" height="512" viewBox="0 0 497 497" width="512" xmlns="http://www.w3.org/2000/svg"><g><path d="m301.334 120h-30l30 60h22.5c4.142 0 7.5-3.358 7.5-7.5v-22.5c0-16.5-13.5-30-30-30z" fill="#8c98a7"/><path d="m195.667 120c-16.5 0-30 13.5-30 30v22.5c0 4.142 3.358 7.5 7.5 7.5h22.5l30-60z" fill="#c0c8d2"/><path d="m271.334 120h-45.667c-16.5 0-30 13.5-30 30v30h105.666l.001-30c0-16.5-13.5-30-30-30z" fill="#a6b0bd"/><path d="m248.171 0v90c24.853 0 45-20.147 45-45s-20.147-45-45-45z" fill="#8c98a7"/><path d="m263.171 45c0-24.853-6.716-45-15-45-24.853 0-45 20.147-45 45s20.147 45 45 45c8.284 0 15-20.147 15-45z" fill="#a6b0bd"/><path d="m135.667 437h-30l30 60h30l15-15-15-15c0-16.5-13.5-30-30-30z" fill="#1b74d6"/><path d="m30 437c-16.5 0-30 13.5-30 30v22.5c0 4.142 3.358 7.5 7.5 7.5h22.5l30-60z" fill="#54a5ff"/><path d="m105.667 437h-45.667c-16.5 0-30 13.5-30 30v30h105.666l.001-30c0-16.5-13.5-30-30-30z" fill="#1e8aff"/><path d="m82.504 317v90c24.853 0 45-20.147 45-45s-20.147-45-45-45z" fill="#1b74d6"/><path d="m97.504 362c0-24.853-6.716-45-15-45-24.853 0-45 20.147-45 45s20.147 45 45 45c8.285 0 15-20.147 15-45z" fill="#1e8aff"/><path d="m301.334 437h-30l30 60h30l15-15-15-15c0-16.5-13.5-30-30-30z" fill="#ffb739"/><path d="m195.667 437c-16.5 0-30 13.5-30 30v30h30l30-60z" fill="#ffeac3"/><path d="m271.334 437h-45.667c-16.5 0-30 13.5-30 30v30h105.666l.001-30c0-16.5-13.5-30-30-30z" fill="#ffd17e"/><path d="m248.171 317v90c24.853 0 45-20.147 45-45s-20.147-45-45-45z" fill="#ffb739"/><path d="m263.171 362c0-24.853-6.716-45-15-45-24.853 0-45 20.147-45 45s20.147 45 45 45c8.284 0 15-20.147 15-45z" fill="#ffd17e"/><path d="m467 437h-30l30 60h22.5c4.142 0 7.5-3.358 7.5-7.5v-22.5c0-16.5-13.5-30-30-30z" fill="#f0224e"/><path d="m361.334 437c-16.5 0-30 13.5-30 30v30h30l30-60z" fill="#ff7149"/><path d="m437 437h-45.667c-16.5 0-30 13.5-30 30v30h105.667v-30c0-16.5-13.5-30-30-30z" fill="#ff4c50"/><path d="m413.838 317v90c24.853 0 45-20.147 45-45s-20.147-45-45-45z" fill="#f0224e"/><path d="m428.838 362c0-24.853-6.716-45-15-45-24.853 0-45 20.147-45 45s20.147 45 45 45c8.284 0 15-20.147 15-45z" fill="#ff4c50"/><path d="m414.167 210h-30l15 30v32c0 8.284 6.716 15 15 15s15-6.716 15-15v-47c0-8.284-6.716-15-15-15z" fill="#c0c8d2"/><path d="m384.167 210h-301.334c-8.284 0-15 6.716-15 15v47c0 8.284 6.716 15 15 15s15-6.716 15-15v-32h135.667v32c0 8.284 6.716 15 15 15s15-6.716 15-15v-32h135.667v-15c0-8.284-6.716-15-15-15z" fill="#dae0e7"/></g></svg>