<svg id="Layer_1" enable-background="new 0 0 497.498 497.498" height="512" viewBox="0 0 497.498 497.498" width="512" xmlns="http://www.w3.org/2000/svg"><g><path d="m316.746 67.998h-60.498v-60.498c0-4.142-3.358-7.5-7.5-7.5s-7.5 3.358-7.5 7.5v60.498h-60.498c-4.142 0-7.5 3.358-7.5 7.5s3.358 7.5 7.5 7.5h60.498v60.498c0 4.142 3.358 7.5 7.5 7.5s7.5-3.358 7.5-7.5v-60.498h60.498c4.142 0 7.5-3.358 7.5-7.5s-3.357-7.5-7.5-7.5z" fill="#b8d8ff"/><circle cx="248.749" cy="75.498" fill="#dbebff" r="45"/><path d="m482.742 67.998h-60.498v-60.498c0-4.142-3.358-7.5-7.5-7.5s-7.5 3.358-7.5 7.5v60.498h-60.498c-4.142 0-7.5 3.358-7.5 7.5s3.358 7.5 7.5 7.5h60.498v60.498c0 4.142 3.358 7.5 7.5 7.5s7.5-3.358 7.5-7.5v-60.498h60.498c4.142 0 7.5-3.358 7.5-7.5s-3.358-7.5-7.5-7.5z" fill="#b8d8ff"/><circle cx="414.745" cy="75.498" fill="#dbebff" r="45"/><path d="m150.751 67.998h-60.498v-60.498c0-4.142-3.358-7.5-7.5-7.5s-7.5 3.358-7.5 7.5v60.498h-60.498c-4.142 0-7.5 3.358-7.5 7.5s3.358 7.5 7.5 7.5h60.498v60.498c0 4.142 3.358 7.5 7.5 7.5s7.5-3.358 7.5-7.5v-60.498h60.498c4.142 0 7.5-3.358 7.5-7.5s-3.358-7.5-7.5-7.5z" fill="#b8d8ff"/><path d="m135.916 180.498h-30l30 152.511c0 8.28 6.71 14.5 15 14.5 8.28 0 15-6.22 15-14.5l30-69.005-30-53.505c0-16.501-13.5-30.001-30-30.001z" fill="#1b74d6"/><path d="m30.249 180.498h30l-30 152.011c0 8.28-6.72 15-15 15s-15-6.72-15-15v-122.011c0-16.5 13.5-30 30-30z" fill="#54a5ff"/><path d="m135.916 210.498c0-16.5-13.5-30-30-30h-45.667c-16.5 0-30 13.5-30 30v268.084c0 10.447 8.469 18.916 18.917 18.916 10.447 0 18.917-8.469 18.917-18.916v-146.073h30v146.073c0 10.447 8.469 18.916 18.917 18.916 10.447 0 18.916-8.469 18.916-18.916z" fill="#1e8aff"/><path d="m301.582 180.498h-30l30 152.511c0 8.28 6.71 14.5 15 14.5 8.28 0 15-6.22 15-14.5l30-69.005-30-53.505c0-16.501-13.5-30.001-30-30.001z" fill="#ffb739"/><path d="m195.916 180.498h30l-30 152.011c0 8.28-6.72 15-15 15s-15-6.72-15-15v-122.011c0-16.5 13.5-30 30-30z" fill="#ffeac3"/><path d="m301.582 210.498c0-16.5-13.5-30-30-30h-45.667c-16.5 0-30 13.5-30 30v268.084c0 10.447 8.469 18.916 18.917 18.916 10.447 0 18.917-8.469 18.917-18.916v-146.073h30v146.073c0 10.447 8.469 18.916 18.917 18.916 10.447 0 18.916-8.469 18.916-18.916z" fill="#ffd17e"/><path d="m467.249 180.498h-30l30 152.511c0 8.28 6.71 14.5 15 14.5 8.28 0 15-6.22 15-14.5v-122.511c0-16.5-13.5-30-30-30z" fill="#f0224e"/><path d="m361.582 180.498h30l-30 152.011c0 8.28-6.72 15-15 15s-15-6.72-15-15v-122.011c0-16.5 13.5-30 30-30z" fill="#ff7149"/><path d="m467.249 210.498c0-16.5-13.5-30-30-30h-45.667c-16.5 0-30 13.5-30 30v268.084c0 10.447 8.469 18.916 18.917 18.916 10.447 0 18.917-8.469 18.917-18.916v-146.073h30v146.073c0 10.447 8.469 18.916 18.917 18.916 10.447 0 18.916-8.469 18.916-18.916z" fill="#ff4c50"/><circle cx="414.745" cy="75.498" fill="#1e8aff" r="15"/><circle cx="248.749" cy="75.498" fill="#1e8aff" r="15"/><circle cx="82.753" cy="75.498" fill="#dbebff" r="45"/><circle cx="82.753" cy="75.498" fill="#1e8aff" r="15"/></g></svg>