<svg id="Layer_1" enable-background="new 0 0 497.011 497.011" height="512" viewBox="0 0 497.011 497.011" width="512" xmlns="http://www.w3.org/2000/svg"><g><path d="m135.672 120h-30l30 152.511c0 8.28 6.71 14.5 15 14.5 8.28 0 15-6.22 15-14.5l30-69.005-30-53.505c0-16.501-13.5-30.001-30-30.001z" fill="#1b74d6"/><path d="m30.005 120h30l-30 152.011c0 8.28-6.72 15-15 15s-15-6.72-15-15v-122.011c0-16.5 13.5-30 30-30z" fill="#54a5ff"/><path d="m135.672 150c0-16.5-13.5-30-30-30h-45.667c-16.5 0-30 13.5-30 30v268.084c0 10.447 8.469 18.916 18.917 18.916 10.447 0 18.917-8.469 18.917-18.916v-146.073h30v146.073c0 10.447 8.469 18.916 18.917 18.916 10.447 0 18.916-8.469 18.916-18.916z" fill="#1e8aff"/><path d="m301.339 120h-30l30 152.511c0 8.28 6.71 14.5 15 14.5 8.28 0 15-6.22 15-14.5l30-69.005-30-53.505c0-16.501-13.5-30.001-30-30.001z" fill="#89c1ff"/><path d="m195.672 120h30l-30 152.011c0 8.28-6.72 15-15 15s-15-6.72-15-15v-122.011c0-16.5 13.5-30 30-30z" fill="#dbebff"/><path d="m301.339 150c0-16.5-13.5-30-30-30h-45.667c-16.5 0-30 13.5-30 30v268.084c0 10.447 8.469 18.916 18.917 18.916 10.447 0 18.917-8.469 18.917-18.916v-146.073h30v146.073c0 10.447 8.469 18.916 18.917 18.916 10.447 0 18.916-8.469 18.916-18.916z" fill="#b8d8ff"/><path d="m467.005 120h-30l30 152.511c0 8.28 6.71 14.5 15 14.5 8.28 0 15-6.22 15-14.5v-122.511c0-16.5-13.5-30-30-30z" fill="#89c1ff"/><path d="m361.339 120h30l-30 152.011c0 8.28-6.72 15-15 15s-15-6.72-15-15v-122.011c0-16.5 13.5-30 30-30z" fill="#dbebff"/><path d="m467.005 150c0-16.5-13.5-30-30-30h-45.667c-16.5 0-30 13.5-30 30v268.084c0 10.447 8.469 18.916 18.917 18.916 10.447 0 18.917-8.469 18.917-18.916v-146.073h30v146.073c0 10.447 8.469 18.916 18.917 18.916 10.447 0 18.916-8.469 18.916-18.916z" fill="#b8d8ff"/><path d="m82.51 0v90c24.853 0 45-20.147 45-45s-20.147-45-45-45z" fill="#1b74d6"/><path d="m97.51 45c0-24.853-6.716-45-15-45-24.853 0-45 20.147-45 45s20.147 45 45 45c8.284 0 15-20.147 15-45z" fill="#1e8aff"/><path d="m413.843 0v90c24.853 0 45-20.147 45-45s-20.147-45-45-45z" fill="#89c1ff"/><path d="m428.843 45c0-24.853-6.716-45-15-45-24.853 0-45 20.147-45 45s20.147 45 45 45c8.284 0 15-20.147 15-45z" fill="#b8d8ff"/><path d="m248.505 0v90c24.853 0 45-20.147 45-45s-20.147-45-45-45z" fill="#89c1ff"/><path d="m263.505 45c0-24.853-6.716-45-15-45-24.853 0-45 20.147-45 45s20.147 45 45 45c8.285 0 15-20.147 15-45z" fill="#b8d8ff"/><path d="m150.672 467.011h-30v30h30c8.284 0 15-6.716 15-15s-6.716-15-15-15z" fill="#ffb739"/><path d="m135.672 482.011c0-8.284-6.716-15-15-15h-105.667c-8.284 0-15 6.716-15 15s6.716 15 15 15h105.667c8.284 0 15-6.716 15-15z" fill="#ffd17e"/></g></svg>