<svg id="Layer_1" enable-background="new 0 0 497 497" height="512" viewBox="0 0 497 497" width="512" xmlns="http://www.w3.org/2000/svg"><g><path d="m98.5 121h180l-75-121h-30z" fill="#1b74d6"/><path d="m173.5 121-120-60v-53.5c0-4.142 3.358-7.5 7.5-7.5h112.5z" fill="#1e8aff"/><path d="m98.5 271h135v-211h-60z" fill="#b8d8ff"/><path d="m173.5 271-120-60v-151h120z" fill="#dbebff"/><path d="m173.5 211h-120v278.5c0 4.142 3.358 7.5 7.5 7.5h112.5l60-143z" fill="#ffd17e"/><path d="m173.5 211h165l-135 286h-30z" fill="#ffb739"/><path d="m278.5 165 16.82-151.82 135 135z" fill="#ffd17e"/><path d="m413.5 497-45-362h30c24.853 0 45 20.147 45 45v309.5c0 4.142-3.358 7.5-7.5 7.5z" fill="#ffe8be"/><path d="m413.5 180-30 16 30 15v120l-30 15 30 15v136h-210v-497h60c24.853 0 45 20.147 45 45v90h60c24.853 0 45 20.147 45 45z" fill="#fff7e8"/><path d="m128.5 91v90c24.853 0 45-20.147 45-45s-20.147-45-45-45z" fill="#1b74d6"/><path d="m143.5 136c0-24.853-6.716-45-15-45-24.853 0-45 20.147-45 45s20.147 45 45 45c8.284 0 15-20.147 15-45z" fill="#1e8aff"/><path d="m173.5 248.5h-90c-4.143 0-7.5-3.358-7.5-7.5s3.357-7.5 7.5-7.5h90c4.143 0 7.5 3.358 7.5 7.5s-3.357 7.5-7.5 7.5z" fill="#ffb739"/><path d="m383.5 181-30 15 30 15h30v-30z" fill="#1b74d6"/><path d="m233.5 181h150v30h-150z" fill="#1e8aff"/><path d="m383.5 331-30 15 30 15h30v-30z" fill="#1b74d6"/><path d="m233.5 331h150v30h-150z" fill="#1e8aff"/><g fill="#ffeac3"><path d="m413.5 248.5h-90c-4.143 0-7.5-3.358-7.5-7.5s3.357-7.5 7.5-7.5h90c4.143 0 7.5 3.358 7.5 7.5s-3.357 7.5-7.5 7.5z"/><path d="m413.5 278.5h-90c-4.143 0-7.5-3.358-7.5-7.5s3.357-7.5 7.5-7.5h90c4.143 0 7.5 3.358 7.5 7.5s-3.357 7.5-7.5 7.5z"/><path d="m413.5 308.5h-90c-4.143 0-7.5-3.358-7.5-7.5s3.357-7.5 7.5-7.5h90c4.143 0 7.5 3.358 7.5 7.5s-3.357 7.5-7.5 7.5z"/><path d="m413.5 398.5h-90c-4.143 0-7.5-3.358-7.5-7.5s3.357-7.5 7.5-7.5h90c4.143 0 7.5 3.358 7.5 7.5s-3.357 7.5-7.5 7.5z"/><path d="m413.5 428.5h-90c-4.143 0-7.5-3.358-7.5-7.5s3.357-7.5 7.5-7.5h90c4.143 0 7.5 3.358 7.5 7.5s-3.357 7.5-7.5 7.5z"/><path d="m413.5 458.5h-90c-4.143 0-7.5-3.358-7.5-7.5s3.357-7.5 7.5-7.5h90c4.143 0 7.5 3.358 7.5 7.5s-3.357 7.5-7.5 7.5z"/></g></g></svg>