<svg id="Layer_1" enable-background="new 0 0 497 497" height="512" viewBox="0 0 497 497" width="512" xmlns="http://www.w3.org/2000/svg"><g><path d="m271.333 150-75 143.5 75 143.5h22.5c4.142 0 7.5-3.358 7.5-7.5v-272c0-4.142-3.358-7.5-7.5-7.5z" fill="#53a143"/><path d="m165.667 157.5v272c0 4.142 3.358 7.5 7.5 7.5h98.167v-287h-98.167c-4.142 0-7.5 3.358-7.5 7.5z" fill="#60ba4d"/><path d="m105.667 301-75 68 75 68h22.5c4.142 0 7.5-3.358 7.5-7.5v-121c0-4.142-3.358-7.5-7.5-7.5z" fill="#53a143"/><path d="m0 308.5v121c0 4.142 3.358 7.5 7.5 7.5h98.167v-136h-98.167c-4.142 0-7.5 3.358-7.5 7.5z" fill="#60ba4d"/><path d="m482 467h-30v30h30c8.284 0 15-6.716 15-15s-6.716-15-15-15z" fill="#c0c8d2"/><path d="m467 482c0-8.284-6.716-15-15-15h-435.79c-8.284 0-15 6.716-15 15s6.716 15 15 15h435.79c8.284 0 15-6.716 15-15z" fill="#dae0e7"/><path d="m467 120h-30l30 152.511c0 8.28 6.71 14.5 15 14.5 8.28 0 15-6.22 15-14.5v-122.511c0-16.5-13.5-30-30-30z" fill="#1b74d6"/><path d="m361.333 120h30l-30 152.011c0 8.28-6.72 15-15 15s-15-6.72-15-15v-122.011c0-16.5 13.5-30 30-30z" fill="#54a5ff"/><path d="m467 150c0-16.5-13.5-30-30-30h-45.667c-16.5 0-30 13.5-30 30v268.083c0 10.447 8.469 18.916 18.917 18.916 10.447 0 18.917-8.469 18.917-18.916v-146.072h30v146.073c0 10.447 8.469 18.916 18.917 18.916 10.447 0 18.916-8.469 18.916-18.916z" fill="#1e8aff"/><path d="m413.838 0v90c24.853 0 45-20.147 45-45s-20.147-45-45-45z" fill="#1b74d6"/><path d="m428.838 45c0-24.853-6.716-45-15-45-24.853 0-45 20.147-45 45s20.147 45 45 45c8.284 0 15-20.147 15-45z" fill="#1e8aff"/></g></svg>