<svg id="Layer_1" enable-background="new 0 0 497 497" height="512" viewBox="0 0 497 497" width="512" xmlns="http://www.w3.org/2000/svg"><g><g fill="#fff4e1"><path d="m467 120h-241.333c-16.569 0-30-13.431-30-30v-30c0-16.569 13.431-30 30-30h241.333c16.569 0 30 13.431 30 30v30c0 16.569-13.431 30-30 30z"/><path d="m467 240h-241.333c-16.569 0-30-13.431-30-30v-30c0-16.569 13.431-30 30-30h241.333c16.569 0 30 13.431 30 30v30c0 16.569-13.431 30-30 30z"/><path d="m467 360h-241.333c-16.569 0-30-13.431-30-30v-30c0-16.569 13.431-30 30-30h241.333c16.569 0 30 13.431 30 30v30c0 16.569-13.431 30-30 30z"/></g><path d="m437 90-30-15 30-15h30v30z" fill="#89c1ff"/><path d="m407 90-30-15 30-15h30v30z" fill="#53a143"/><path d="m225.667 60h181.333v30h-181.333z" fill="#60ba4d"/><path d="m437 210-30-15 30-15h30v30z" fill="#89c1ff"/><path d="m377 210-30-15 30-15h60v30z" fill="#b8d8ff"/><path d="m347 210-30-15 30-15h30v30z" fill="#53a143"/><path d="m225.667 180h121.333v30h-121.333z" fill="#60ba4d"/><path d="m437 330-30-15 30-15h30v30z" fill="#89c1ff"/><path d="m407 330-30-15 30-15h30v30z" fill="#b8d8ff"/><path d="m377 330-30-15 30-15h30v30z" fill="#53a143"/><path d="m225.667 300h151.333v30h-151.333z" fill="#60ba4d"/><path d="m135.667 150h-30l30 152.511c0 8.28 6.71 14.5 15 14.5 8.28 0 15-6.22 15-14.5v-122.511c0-16.5-13.5-30-30-30z" fill="#1b74d6"/><path d="m30 150h30l-30 152.011c0 8.28-6.72 15-15 15s-15-6.72-15-15v-122.011c0-16.5 13.5-30 30-30z" fill="#54a5ff"/><path d="m135.667 180c0-16.5-13.5-30-30-30h-45.667c-16.5 0-30 13.5-30 30v268.083c0 10.448 8.469 18.917 18.917 18.917 10.447 0 18.917-8.469 18.917-18.916v-146.073h30v146.073c0 10.447 8.469 18.916 18.917 18.916 10.447 0 18.916-8.469 18.916-18.916z" fill="#1e8aff"/><path d="m82.504 30v90c24.853 0 45-20.147 45-45s-20.147-45-45-45z" fill="#1b74d6"/><path d="m97.504 75c0-24.853-6.716-45-15-45-24.853 0-45 20.147-45 45s20.147 45 45 45c8.285 0 15-20.147 15-45z" fill="#1e8aff"/></g></svg>