<svg id="Layer_1" enable-background="new 0 0 497 497" height="512" viewBox="0 0 497 497" width="512" xmlns="http://www.w3.org/2000/svg"><g><path d="m187.833 150h-30l30 152.511c0 8.28 6.71 14.5 15 14.5 8.28 0 15-6.22 15-14.5v-122.511c0-16.5-13.5-30-30-30z" fill="#1b74d6"/><path d="m82.167 150h30l-30 152.011c0 8.28-6.72 15-15 15s-15-6.72-15-15v-122.011c0-16.5 13.5-30 30-30z" fill="#54a5ff"/><path d="m187.833 180c0-16.5-13.5-30-30-30h-45.667c-16.5 0-30 13.5-30 30v268.084c0 10.447 8.469 18.916 18.917 18.916 10.447 0 18.917-8.469 18.917-18.916v-146.073h30v146.073c0 10.447 8.469 18.916 18.917 18.916 10.447 0 18.916-8.469 18.916-18.916z" fill="#1e8aff"/><path d="m134.671 30v90c24.853 0 45-20.147 45-45s-20.147-45-45-45z" fill="#1b74d6"/><path d="m149.671 75c0-24.853-6.716-45-15-45-24.853 0-45 20.147-45 45s20.147 45 45 45c8.284 0 15-20.147 15-45z" fill="#1e8aff"/><path d="m437.333 0h-22.5l-30 45 30 45h22.5c4.142 0 7.5-3.358 7.5-7.5v-75c0-4.142-3.358-7.5-7.5-7.5z" fill="#ffb739"/><path d="m414.833 0h-52.5c-4.142 0-7.5 3.358-7.5 7.5v75c0 4.142 3.358 7.5 7.5 7.5h52.5z" fill="#ffd17e"/><path d="m437.333 135.667h-22.5l-30 45 30 45h22.5c4.142 0 7.5-3.358 7.5-7.5v-75c0-4.142-3.358-7.5-7.5-7.5z" fill="#ffb739"/><path d="m414.833 135.667h-52.5c-4.142 0-7.5 3.358-7.5 7.5v75c0 4.142 3.358 7.5 7.5 7.5h52.5z" fill="#ffd17e"/><path d="m437.333 271.333h-22.5l-30 45 30 45h22.5c4.142 0 7.5-3.358 7.5-7.5v-75c0-4.142-3.358-7.5-7.5-7.5z" fill="#ffb739"/><path d="m414.833 271.333h-52.5c-4.142 0-7.5 3.358-7.5 7.5v75c0 4.142 3.358 7.5 7.5 7.5h52.5z" fill="#ffd17e"/><path d="m437.333 407h-22.5l-30 45 30 45h22.5c4.142 0 7.5-3.358 7.5-7.5v-75c0-4.142-3.358-7.5-7.5-7.5z" fill="#ffb739"/><path d="m414.833 407h-52.5c-4.142 0-7.5 3.358-7.5 7.5v75c0 4.142 3.358 7.5 7.5 7.5h52.5z" fill="#ffd17e"/><g fill="#c0c8d2"><path d="m309.833 165.667h-30v30h30c8.284 0 15-6.716 15-15 0-8.285-6.715-15-15-15z"/><path d="m309.833 301.333h-30v30h30c8.284 0 15-6.716 15-15s-6.715-15-15-15z"/><path d="m309.833 437h-30v30h30c8.284 0 15-6.716 15-15s-6.715-15-15-15z"/><path d="m309.833 30h-30v30h30c8.284 0 15-6.716 15-15s-6.715-15-15-15z"/></g><path d="m279.833 195.667c8.284 0 15-6.716 15-15s-6.716-15-15-15h-2v-105.667h2c8.284 0 15-6.716 15-15s-6.716-15-15-15h-17c-8.284 0-15 6.716-15 15v407c0 8.284 6.716 15 15 15h17c8.284 0 15-6.716 15-15s-6.716-15-15-15h-2v-105.667h2v-30h-2v-105.666z" fill="#dae0e7"/><path d="m294.833 316.333c0-8.284-6.716-15-15-15v30c8.285 0 15-6.715 15-15z" fill="#dae0e7"/></g></svg>