<svg id="Layer_1" enable-background="new 0 0 497 497" height="512" viewBox="0 0 497 497" width="512" xmlns="http://www.w3.org/2000/svg"><g><path d="m308.5 210 90-60v-82.5c0-4.142-3.358-7.5-7.5-7.5h-22.5z" fill="#53a143"/><path d="m98.5 67.5v82.5l270 120v-210h-262.5c-4.142 0-7.5 3.358-7.5 7.5zm195 52.5h-90c-8.284 0-15-6.716-15-15s6.716-15 15-15h15l30-15 30 15h15c8.284 0 15 6.716 15 15s-6.716 15-15 15z" fill="#60ba4d"/><path d="m278.5 7.5v22.5l-45 30 15-60h22.5c4.142 0 7.5 3.358 7.5 7.5z" fill="#54a5ff"/><path d="m218.5 7.5v22.5l30 30v-60h-22.5c-4.142 0-7.5 3.358-7.5 7.5z" fill="#89c1ff"/><path d="m248.5 30-15 30.5 15 29.5h30v-60z" fill="#89c1ff"/><path d="m218.5 30h30v60h-30z" fill="#b8d8ff"/><path d="m368.5 150-105 173.5 105 173.5h22.5c4.142 0 7.5-3.358 7.5-7.5v-339.5z" fill="#b8d8ff"/><path d="m98.5 150v339.5c0 4.142 3.358 7.5 7.5 7.5h262.5v-30l-30-38.5 30-38.5v-240z" fill="#dbebff"/><circle cx="248.5" cy="255" fill="#fff" r="75"/><path d="m248.5 210v90c24.853 0 45-20.147 45-45s-20.147-45-45-45z" fill="#1b74d6"/><path d="m263.5 255c0-24.853-6.716-45-15-45-24.853 0-45 20.147-45 45s20.147 45 45 45c8.284 0 15-20.147 15-45z" fill="#1e8aff"/><path d="m308.5 450 60-30v-30h-30z" fill="#53a143"/><path d="m128.5 390v30l30 17h180v-47z" fill="#60ba4d"/><path d="m338.5 467h30v-47h-30l-30 23.5z" fill="#fff7e8"/><path d="m128.5 420h210v47h-210z" fill="#fff"/><path d="m323.5 367.5h-150c-4.143 0-7.5-3.358-7.5-7.5s3.357-7.5 7.5-7.5h150c4.143 0 7.5 3.358 7.5 7.5s-3.357 7.5-7.5 7.5z" fill="#c4e0ff"/><circle cx="248.5" cy="60" fill="#1b74d6" r="7.5"/></g></svg>