<svg id="Layer_1" enable-background="new 0 0 497 497" height="512" viewBox="0 0 497 497" width="512" xmlns="http://www.w3.org/2000/svg"><g><path d="m489.5 45h-22.5l-60 165 90-60v-97.5c0-4.142-3.358-7.5-7.5-7.5z" fill="#f0224e"/><path d="m0 52.5v97.5l467 112.5v-217.5h-459.5c-4.142 0-7.5 3.358-7.5 7.5z" fill="#ff4c50"/><path d="m497 150h-30l-60 90 90-60z" fill="#ffb739"/><path d="m0 150v30l467 187.5v-217.5z" fill="#ffd17e"/><path d="m467 180-120 158.5 120 158.5h22.5c4.142 0 7.5-3.358 7.5-7.5v-309.5z" fill="#ffd17e"/><path d="m0 180v309.5c0 4.142 3.358 7.5 7.5 7.5h459.5v-317z" fill="#ffeac3"/><path d="m407 75v30c0 8.284 6.716 15 15 15s15-6.716 15-15v-30z" fill="#f0224e"/><path d="m422 0c-8.284 0-15 6.716-15 15v60c0 8.284 6.716 15 15 15s15-6.716 15-15v-60c0-8.284-6.716-15-15-15z" fill="#dbebff"/><path d="m60 75v30c0 8.284 6.716 15 15 15s15-6.716 15-15v-30z" fill="#f0224e"/><path d="m75 0c-8.284 0-15 6.716-15 15v60c0 8.284 6.716 15 15 15s15-6.716 15-15v-60c0-8.284-6.716-15-15-15z" fill="#dbebff"/><path d="m146.75 75v30c0 8.284 6.716 15 15 15s15-6.716 15-15v-30z" fill="#f0224e"/><path d="m161.75 0c-8.284 0-15 6.716-15 15v60c0 8.284 6.716 15 15 15s15-6.716 15-15v-60c0-8.284-6.716-15-15-15z" fill="#dbebff"/><path d="m233.5 75v30c0 8.284 6.716 15 15 15s15-6.716 15-15v-30z" fill="#f0224e"/><path d="m248.5 0c-8.284 0-15 6.716-15 15v60c0 8.284 6.716 15 15 15s15-6.716 15-15v-60c0-8.284-6.716-15-15-15z" fill="#dbebff"/><path d="m320.25 75v30c0 8.284 6.716 15 15 15s15-6.716 15-15v-30z" fill="#f0224e"/><path d="m335.25 0c-8.284 0-15 6.716-15 15v60c0 8.284 6.716 15 15 15s15-6.716 15-15v-60c0-8.284-6.716-15-15-15z" fill="#dbebff"/><circle cx="248.5" cy="338.5" fill="#fff" r="128.5"/><path d="m248.5 240v90c24.853 0 45-20.147 45-45s-20.147-45-45-45z" fill="#1b74d6"/><path d="m263.5 285c0-24.853-6.716-45-15-45-24.853 0-45 20.147-45 45s20.147 45 45 45c8.284 0 15-20.147 15-45z" fill="#1e8aff"/><path d="m195.996 360c-16.5 0-30 13.5-30 30v2.316c7.756 11.867 18.005 21.955 30 29.529l30-61.845z" fill="#54a5ff"/><path d="m301.004 360h-30l30 61.845c11.995-7.574 22.244-17.662 30-29.529v-2.316c0-16.5-13.5-30-30-30z" fill="#1b74d6"/><path d="m271.004 360h-45.009c-16.5 0-30 13.5-30 30v31.845c15.199 9.597 33.201 15.155 52.505 15.155s37.306-5.558 52.504-15.155v-31.845c0-16.5-13.5-30-30-30z" fill="#1e8aff"/></g></svg>