<svg id="Layer_1" enable-background="new 0 0 497 497" height="512" viewBox="0 0 497 497" width="512" xmlns="http://www.w3.org/2000/svg"><g><path d="m135.667 150h-30l30 152.511c0 8.28 6.71 14.5 15 14.5 8.28 0 15-6.22 15-14.5v-122.511c0-16.5-13.5-30-30-30z" fill="#1b74d6"/><path d="m30 150h30l-30 152.011c0 8.28-6.72 15-15 15s-15-6.72-15-15v-122.011c0-16.5 13.5-30 30-30z" fill="#54a5ff"/><path d="m135.667 180c0-16.5-13.5-30-30-30h-45.667c-16.5 0-30 13.5-30 30v268.084c0 10.447 8.469 18.916 18.917 18.916 10.447 0 18.917-8.469 18.917-18.916v-146.073h30v146.073c0 10.447 8.469 18.916 18.917 18.916 10.447 0 18.916-8.469 18.916-18.916z" fill="#1e8aff"/><path d="m82.504 30v90c24.853 0 45-20.147 45-45s-20.147-45-45-45z" fill="#1b74d6"/><path d="m97.504 75c0-24.853-6.716-45-15-45-24.853 0-45 20.147-45 45s20.147 45 45 45c8.285 0 15-20.147 15-45z" fill="#1e8aff"/><path d="m346.333 30v301.333c83.211 0 150.667-67.456 150.667-150.667s-67.456-150.666-150.667-150.666z" fill="#3d5168"/><path d="m467 180.667c0-83.211-54.024-150.667-120.667-150.667-83.211 0-150.667 67.456-150.667 150.667s67.456 150.667 150.667 150.667c66.643-.001 120.667-67.457 120.667-150.667z" fill="#57697d"/><circle cx="346.333" cy="180.667" fill="#89c1ff" r="90.666"/><path d="m346.333 120v121.333c33.505 0 60.667-27.161 60.667-60.667s-27.161-60.666-60.667-60.666z" fill="#fff4e1"/><path d="m377 180.667c0-33.506-13.73-60.667-30.667-60.667-33.505 0-60.667 27.161-60.667 60.667s27.161 60.667 60.667 60.667c16.937-.001 30.667-27.162 30.667-60.667z" fill="#fff"/><path d="m319.782 203.501c-2.592 0-5.113-1.345-6.502-3.751-2.071-3.587-.842-8.174 2.745-10.245l22.808-13.168v-26.337c0-4.142 3.358-7.5 7.5-7.5s7.5 3.358 7.5 7.5v30.667c0 2.68-1.43 5.155-3.75 6.495l-26.558 15.333c-1.181.682-2.47 1.006-3.743 1.006z" fill="#57697d"/></g></svg>