<svg id="Layer_1" enable-background="new 0 0 497 497" height="512" viewBox="0 0 497 497" width="512" xmlns="http://www.w3.org/2000/svg"><g><path d="m383.5 0h-30v497h30c16.569 0 30-13.431 30-30v-437c0-16.569-13.431-30-30-30z" fill="#3d5168"/><path d="m353.5 0h-240c-16.569 0-30 13.431-30 30v437c0 16.569 13.431 30 30 30h240c16.569 0 30-13.431 30-30v-60l-90-188.5 90-188.5c0-16.569-13.431-30-30-30z" fill="#57697d"/><path d="m263.5 255 120 75v77h-30z" fill="#53a143"/><path d="m353.5 255-240 75v77h240z" fill="#60ba4d"/><path d="m353.5 330h30v-300h-30l-75 165z" fill="#b8d8ff"/><path d="m303.353 30c-7.956 0-15.587 3.161-21.213 8.787l-12.426 12.426c-5.453 5.426-12.948 8.787-21.214 8.787s-15.761-3.361-21.193-8.787c-.011 0-6.611-6.595-12.449-12.431-5.626-5.623-13.254-8.782-21.209-8.782h-80.149v300h240v-300z" fill="#dbebff"/><circle cx="248.5" cy="30" fill="#233952" r="6"/><path d="m278.5 437h-30v30h30c8.284 0 15-6.716 15-15s-6.716-15-15-15z" fill="#233952"/><path d="m263.5 452c0-8.284-6.716-15-15-15h-30c-8.284 0-15 6.716-15 15s6.716 15 15 15h30c8.284 0 15-6.716 15-15z" fill="#3d5168"/><circle cx="248.5" cy="195" fill="#fff" r="75"/><path d="m248.5 150v90c24.853 0 45-20.147 45-45s-20.147-45-45-45z" fill="#1b74d6"/><path d="m263.5 195c0-24.853-6.716-45-15-45-24.853 0-45 20.147-45 45s20.147 45 45 45c8.284 0 15-20.147 15-45z" fill="#1e8aff"/></g></svg>