<svg id="Layer_1" enable-background="new 0 0 497 497" height="512" viewBox="0 0 497 497" width="512" xmlns="http://www.w3.org/2000/svg"><g><path d="m492.607 237.894-31.894-31.894c-5.858-5.858-15.355-5.858-21.213 0s-5.858 15.355 0 21.213l6.287 6.287h-39.498c-3.052-32.509-15.914-62.165-35.607-85.968l27.928-27.928v8.891c0 8.284 6.716 15 15 15s15-6.716 15-15v-45.104c0-8.284-6.716-15-15-15h-45.104c-8.284 0-15 6.716-15 15s6.716 15 15 15h8.891l-27.928 27.928c-23.803-19.693-53.459-32.555-85.968-35.607v-39.499l6.287 6.287c5.858 5.858 15.355 5.858 21.213 0s5.858-15.355 0-21.213l-31.894-31.894c-5.858-5.858-15.355-5.858-21.213 0l-31.894 31.894c-5.858 5.858-5.858 15.355 0 21.213s15.355 5.858 21.213 0l6.287-6.287v39.498c-32.509 3.052-62.165 15.914-85.968 35.607l-27.928-27.928h8.891c8.284 0 15-6.716 15-15s-6.716-15-15-15h-45.104c-8.284 0-15 6.716-15 15v45.104c0 8.284 6.716 15 15 15s15-6.716 15-15v-8.891l27.928 27.928c-19.693 23.804-32.555 53.459-35.607 85.968h-39.499l6.287-6.287c5.858-5.858 5.858-15.355 0-21.213s-15.355-5.858-21.213 0l-31.894 31.895c-5.858 5.858-5.858 15.355 0 21.213l31.894 31.893c5.858 5.858 15.355 5.858 21.213 0s5.858-15.355 0-21.213l-6.287-6.287h39.498c3.052 32.509 15.914 62.165 35.607 85.968l-27.928 27.928v-8.891c0-8.284-6.716-15-15-15s-15 6.716-15 15v45.104c0 8.284 6.716 15 15 15h45.104c8.284 0 15-6.716 15-15s-6.716-15-15-15h-8.891l27.928-27.928c23.804 19.693 53.459 32.555 85.968 35.607v39.498l-6.287-6.287c-5.858-5.858-15.355-5.858-21.213 0s-5.858 15.355 0 21.213l31.893 31.894c5.858 5.858 15.355 5.858 21.213 0l31.895-31.893c5.858-5.858 5.858-15.355 0-21.213s-15.355-5.858-21.213 0l-6.287 6.287v-39.498c32.509-3.052 62.165-15.914 85.968-35.607l27.928 27.928h-8.891c-8.284 0-15 6.716-15 15s6.716 15 15 15h45.104c8.284 0 15-6.716 15-15v-45.104c0-8.284-6.716-15-15-15s-15 6.716-15 15v8.891l-27.928-27.928c19.693-23.804 32.555-53.459 35.607-85.968h39.498l-6.287 6.287c-5.858 5.858-5.858 15.355 0 21.213s15.355 5.858 21.213 0l31.894-31.893c5.859-5.859 5.859-15.357.001-21.214z" fill="#b8d8ff"/><circle cx="248.5" cy="248.5" fill="#fff" r="128.5"/><path d="m248.5 150v90c24.853 0 45-20.147 45-45s-20.147-45-45-45z" fill="#1b74d6"/><path d="m263.5 195c0-24.853-6.716-45-15-45-24.853 0-45 20.147-45 45s20.147 45 45 45c8.284 0 15-20.147 15-45z" fill="#1e8aff"/><path d="m195.996 270c-16.5 0-30 13.5-30 30v2.316c7.756 11.867 18.005 21.955 30 29.529l30-61.845z" fill="#54a5ff"/><path d="m301.004 270h-30l30 61.845c11.995-7.574 22.244-17.662 30-29.529v-2.316c0-16.5-13.5-30-30-30z" fill="#1b74d6"/><path d="m271.004 270h-45.009c-16.5 0-30 13.5-30 30v31.845c15.199 9.597 33.201 15.155 52.505 15.155s37.306-5.558 52.504-15.155v-31.845c0-16.5-13.5-30-30-30z" fill="#1e8aff"/></g></svg>