<svg id="Layer_1" enable-background="new 0 0 497 497" height="512" viewBox="0 0 497 497" width="512" xmlns="http://www.w3.org/2000/svg"><g><circle cx="248.5" cy="248.5" fill="#1b74d6" r="158.5"/><circle cx="248.5" cy="248.5" fill="#ffeac3" r="128.5"/><path d="m248.5 150v90c24.853 0 45-20.147 45-45s-20.147-45-45-45z" fill="#1b74d6"/><path d="m263.5 195c0-24.853-6.716-45-15-45-24.853 0-45 20.147-45 45s20.147 45 45 45c8.284 0 15-20.147 15-45z" fill="#1e8aff"/><path d="m195.996 270c-16.5 0-30 13.5-30 30v2.316c7.756 11.867 18.005 21.955 30 29.529l30-61.845z" fill="#54a5ff"/><path d="m301.004 270h-30l30 61.845c11.995-7.574 22.244-17.662 30-29.529v-2.316c0-16.5-13.5-30-30-30z" fill="#1b74d6"/><path d="m271.004 270h-45.009c-16.5 0-30 13.5-30 30v31.845c15.199 9.597 33.201 15.155 52.505 15.155s37.306-5.558 52.504-15.155v-31.845c0-16.5-13.5-30-30-30z" fill="#1e8aff"/><circle cx="93.997" cy="93.997" fill="#1e8aff" r="30"/><circle cx="159.143" cy="32.774" fill="#ffeac3" r="15"/><circle cx="32.774" cy="159.143" fill="#ffeac3" r="15"/><circle cx="32.774" cy="337.857" fill="#ffeac3" r="15"/><circle cx="159.143" cy="464.226" fill="#ffeac3" r="15"/><circle cx="337.857" cy="464.226" fill="#ffeac3" r="15"/><circle cx="464.226" cy="337.857" fill="#ffeac3" r="15"/><g fill="#1e8aff"><circle cx="30" cy="248.5" r="30"/><circle cx="93.997" cy="403.003" r="30"/><circle cx="248.5" cy="467" r="30"/><circle cx="403.003" cy="403.003" r="30"/><circle cx="467" cy="248.5" r="30"/><circle cx="403.003" cy="93.997" r="30"/><circle cx="248.5" cy="30" r="30"/></g><circle cx="176.364" cy="74.349" fill="#ffd17e" r="7.5"/><circle cx="74.349" cy="176.364" fill="#ffd17e" r="7.5"/><circle cx="74.349" cy="320.636" fill="#ffd17e" r="7.5"/><circle cx="176.364" cy="422.651" fill="#ffd17e" r="7.5"/><circle cx="320.636" cy="422.651" fill="#ffd17e" r="7.5"/><circle cx="422.651" cy="320.636" fill="#ffd17e" r="7.5"/><circle cx="464.226" cy="159.143" fill="#ffeac3" r="15"/><circle cx="337.857" cy="32.774" fill="#ffeac3" r="15"/><circle cx="422.651" cy="176.364" fill="#ffd17e" r="7.5"/><circle cx="320.636" cy="74.349" fill="#ffd17e" r="7.5"/></g></svg>