<svg id="Layer_1" enable-background="new 0 0 497 497" height="512" viewBox="0 0 497 497" width="512" xmlns="http://www.w3.org/2000/svg"><g><path d="m278.834 362h-15v-37h-30.666v37h-15v-44.5c0-4.143 3.358-7.5 7.5-7.5h45.666c4.142 0 7.5 3.357 7.5 7.5z" fill="#3d5168"/><path d="m135.667 150h-30l30 152.511c0 8.28 6.71 14.5 15 14.5 8.28 0 15-6.22 15-14.5v-122.511c0-16.5-13.5-30-30-30z" fill="#1b74d6"/><path d="m30 150h30l-30 152.011c0 8.28-6.72 15-15 15s-15-6.72-15-15v-122.011c0-16.5 13.5-30 30-30z" fill="#54a5ff"/><path d="m135.667 180c0-16.5-13.5-30-30-30h-45.667c-16.5 0-30 13.5-30 30v268.084c0 10.447 8.469 18.916 18.917 18.916 10.447 0 18.917-8.469 18.917-18.916v-146.073h30v146.073c0 10.447 8.469 18.916 18.917 18.916 10.447 0 18.916-8.469 18.916-18.916z" fill="#1e8aff"/><path d="m82.504 30v90c24.853 0 45-20.147 45-45s-20.147-45-45-45z" fill="#1b74d6"/><path d="m97.504 75c0-24.853-6.716-45-15-45-24.853 0-45 20.147-45 45s20.147 45 45 45c8.285 0 15-20.147 15-45z" fill="#1e8aff"/><path d="m467 150h-30l30 152.511c0 8.28 6.71 14.5 15 14.5 8.28 0 15-6.22 15-14.5v-122.511c0-16.5-13.5-30-30-30z" fill="#ffb739"/><path d="m361.333 150h30l-30 152.011c0 8.28-6.72 15-15 15s-15-6.72-15-15v-122.011c0-16.5 13.5-30 30-30z" fill="#ffeac3"/><path d="m467 180c0-16.5-13.5-30-30-30h-45.667c-16.5 0-30 13.5-30 30v268.084c0 10.447 8.469 18.916 18.917 18.916 10.447 0 18.917-8.469 18.917-18.916v-146.073h30v146.073c0 10.447 8.469 18.916 18.917 18.916 10.447 0 18.916-8.469 18.916-18.916z" fill="#ffd17e"/><path d="m413.838 30v90c24.853 0 45-20.147 45-45s-20.148-45-45-45z" fill="#ffb739"/><path d="m428.838 75c0-24.853-6.716-45-15-45-24.853 0-45 20.147-45 45s20.147 45 45 45c8.284 0 15-20.147 15-45z" fill="#ffd17e"/><path d="m226.335 407 74.999 60h22.5c4.142 0 7.5-3.358 7.5-7.5v-52.5z" fill="#57697d"/><path d="m165.667 407v52.5c0 4.142 3.358 7.5 7.5 7.5h128.168v-60z" fill="#728192"/><path d="m331.334 354.5v52.5c0 8.284-6.716 15-15 15h-15l-44.999-37.5 44.999-37.5h22.5c4.142 0 7.5 3.358 7.5 7.5z" fill="#3d5168"/><path d="m301.334 347v75h-120.667c-8.284 0-15-6.716-15-15v-52.5c0-4.142 3.358-7.5 7.5-7.5z" fill="#57697d"/></g></svg>