<svg id="Layer_1" enable-background="new 0 0 497 497" height="512" viewBox="0 0 497 497" width="512" xmlns="http://www.w3.org/2000/svg"><g><path d="m218.5 180h-30l30 152.511c0 8.28 6.71 14.5 15 14.5 8.28 0 15-6.22 15-14.5l30-61.255-30-61.256c0-16.5-13.5-30-30-30z" fill="#1b74d6"/><path d="m112.833 180h30l-30 152.011c0 8.28-6.72 15-15 15s-15-6.72-15-15v-122.011c0-16.5 13.5-30 30-30z" fill="#54a5ff"/><path d="m218.5 210c0-16.5-13.5-30-30-30h-45.667c-16.5 0-30 13.5-30 30v268.083c0 10.447 8.469 18.916 18.917 18.916 10.447 0 18.917-8.469 18.917-18.916v-146.072h30v146.073c0 10.447 8.469 18.916 18.917 18.916 10.447 0 18.916-8.469 18.916-18.916z" fill="#1e8aff"/><path d="m165.337 60v90c24.853 0 45-20.147 45-45s-20.147-45-45-45z" fill="#1b74d6"/><path d="m180.337 105c0-24.853-6.716-45-15-45-24.853 0-45 20.147-45 45s20.147 45 45 45c8.285 0 15-20.147 15-45z" fill="#1e8aff"/><path d="m60.338 0-30 60 30 60 17.197 17.197c4.725 4.725 12.803 1.378 12.803-5.303v-124.394c0-4.142-3.358-7.5-7.5-7.5z" fill="#ffd17e"/><path d="m0 7.5v105c0 4.142 3.358 7.5 7.5 7.5h52.838v-120h-52.838c-4.142 0-7.5 3.358-7.5 7.5z" fill="#ffeac3"/><path d="m384.166 180h-30l30 152.511c0 8.28 6.71 14.5 15 14.5 8.28 0 15-6.22 15-14.5v-122.511c0-16.5-13.5-30-30-30z" fill="#ffb739"/><path d="m278.5 180h30l-30 152.011c0 8.28-6.72 15-15 15s-15-6.72-15-15v-122.011c0-16.5 13.5-30 30-30z" fill="#ffeac3"/><path d="m384.166 210c0-16.5-13.5-30-30-30h-45.666c-16.5 0-30 13.5-30 30v268.083c0 10.447 8.469 18.916 18.917 18.916 10.447 0 18.917-8.469 18.917-18.916v-146.072h30v146.073c0 10.447 8.469 18.916 18.917 18.916 10.447 0 18.916-8.469 18.916-18.916z" fill="#ffd17e"/><path d="m331.004 60v90c24.853 0 45-20.147 45-45s-20.147-45-45-45z" fill="#ffb739"/><path d="m346.004 105c0-24.853-6.716-45-15-45-24.853 0-45 20.147-45 45s20.147 45 45 45c8.284 0 15-20.147 15-45z" fill="#ffd17e"/><path d="m466.004 0-30 60 30 60h23.496c4.142 0 7.5-3.358 7.5-7.5v-105c0-4.142-3.358-7.5-7.5-7.5z" fill="#b8d8ff"/><path d="m467 0h-53.496c-4.142 0-7.5 3.358-7.5 7.5v124.393c0 6.682 8.079 10.028 12.803 5.303l17.197-17.196h30.996z" fill="#dbebff"/></g></svg>