<svg id="Layer_1" enable-background="new 0 0 497 497" height="512" viewBox="0 0 497 497" width="512" xmlns="http://www.w3.org/2000/svg"><g><path d="m316.333 1-120.666 90h150.667v-82.5c0-4.142-3.358-7.5-7.5-7.5z" fill="#b8d8ff"/><path d="m150.667 8.5v82.5h165.667v-90h-158.167c-4.143 0-7.5 3.358-7.5 7.5z" fill="#dbebff"/><circle cx="248.5" cy="31" fill="#3d5168" r="30"/><path d="m422.254 61h-30v360.38l30-60c16.5 0 30-13.5 30-30v-240.38c0-16.5-13.5-30-30-30z" fill="#3d5168"/><path d="m75 61c-16.5 0-30 13.5-30 30v240c0 16.5 13.5 30 30 30l173.5 60 143.5-60c16.5 0 30-13.5 30-30v-240c0-16.569-13.431-30-30-30h-75.667l-67.833 15-67.833-15z" fill="#57697d"/><path d="m180.667 61c0 16.57 13.43 30 30 30l37.833 30 37.833-30c16.57 0 30-13.43 30-30z" fill="#b8d8ff"/><path d="m434.44 421v75h32.56c16.569 0 30-13.431 30-30z" fill="#3d5168"/><path d="m78.576 436-78.576 30c0 16.569 13.431 30 30 30h404.44c16.569 0 30-13.431 30-30v-30z" fill="#57697d"/><path d="m459.79 379.18c-4.72-11.03-15.57-18.18-27.57-18.18h-32.56l64.78 105h32.56z" fill="#b8d8ff"/><path d="m427.23 379.18 4.988 11.82-23.505 14.972 36.428 15.028 19.299 45h-464.44l37.21-86.82c4.72-11.03 15.57-18.18 27.57-18.18h334.88c12 0 22.84 7.15 27.57 18.18z" fill="#dbebff"/><path d="m445.141 421-12.923-30h-367.436l-12.857 30z" fill="#57697d"/><circle cx="248.5" cy="31" fill="#1e8aff" r="7.5"/><path d="m422 331h-30l-60-120 60-120h30z" fill="#ffd17e"/><path d="m75 91h317v240h-317z" fill="#ffeac3"/><path d="m301.333 241h-30l30 60h30v-30c0-16.5-13.5-30-30-30z" fill="#1b74d6"/><path d="m195.667 241c-16.5 0-30 13.5-30 30v30h30l30-60z" fill="#54a5ff"/><path d="m271.333 241h-45.667c-16.5 0-30 13.5-30 30v30h105.666l.001-30c0-16.5-13.5-30-30-30z" fill="#1e8aff"/><path d="m248.171 121v90c24.853 0 45-20.147 45-45s-20.147-45-45-45z" fill="#1b74d6"/><path d="m263.171 166c0-24.853-6.716-45-15-45-24.853 0-45 20.147-45 45s20.147 45 45 45c8.284 0 15-20.147 15-45z" fill="#1e8aff"/></g></svg>