<svg id="Layer_1" enable-background="new 0 0 497 497" height="512" viewBox="0 0 497 497" width="512" xmlns="http://www.w3.org/2000/svg"><g><path d="m210.667 143.5-45 135h165.666l-45-135h-30.662l-7.171 7.5-7.829-7.5z" fill="#fffbf3"/><path d="m316.333 143.5h-30v135h60v-105c0-16.5-13.5-30-30-30z" fill="#3d5168"/><path d="m180.667 143.5c-16.5 0-30 13.5-30 30v105h60v-135z" fill="#728192"/><path d="m180.667 173.5v105h30v-135c-16.5 0-30 13.5-30 30z" fill="#57697d"/><path d="m316.333 173.5c0-16.5-13.5-30-30-30-.001 0-.001 135-.001 135h30z" fill="#57697d"/><path d="m248.171 23.5v90c24.853 0 45-20.147 45-45s-20.147-45-45-45z" fill="#8c98a7"/><path d="m263.171 68.5c0-24.853-6.716-45-15-45-24.853 0-45 20.147-45 45s20.147 45 45 45c8.284 0 15-20.147 15-45z" fill="#a6b0bd"/><path d="m240.671 143.5h15v105h-15z" fill="#728192"/><path d="m0 241v172.5h497v-172.5c0-4.142-3.358-7.5-7.5-7.5h-482c-4.142 0-7.5 3.358-7.5 7.5z" fill="#233952"/><path d="m135.667 383.5h-30l30 90h30l15-30-15-30c0-16.5-13.5-30-30-30z" fill="#1b74d6"/><path d="m30 383.5c-16.5 0-30 13.5-30 30v52.5c0 4.142 3.358 7.5 7.5 7.5h22.5l30-90z" fill="#54a5ff"/><path d="m105.667 383.5h-45.667c-16.5 0-30 13.5-30 30v60h105.666l.001-60c0-16.5-13.5-30-30-30z" fill="#1e8aff"/><path d="m82.504 263.5v90c24.853 0 45-20.147 45-45s-20.147-45-45-45z" fill="#1b74d6"/><path d="m97.504 308.5c0-24.853-6.716-45-15-45-24.853 0-45 20.147-45 45s20.147 45 45 45c8.285 0 15-20.147 15-45z" fill="#1e8aff"/><path d="m301.334 383.5h-30l30 90h30l15-30-15-30c0-16.5-13.5-30-30-30z" fill="#ffb739"/><path d="m195.667 383.5c-16.5 0-30 13.5-30 30v60h30l30-90z" fill="#ffeac3"/><path d="m271.334 383.5h-45.667c-16.5 0-30 13.5-30 30v60h105.666l.001-60c0-16.5-13.5-30-30-30z" fill="#ffd17e"/><path d="m248.171 263.5v90c24.853 0 45-20.147 45-45s-20.147-45-45-45z" fill="#ffb739"/><path d="m263.171 308.5c0-24.853-6.716-45-15-45-24.853 0-45 20.147-45 45s20.147 45 45 45c8.284 0 15-20.147 15-45z" fill="#ffd17e"/><path d="m467 383.5h-30l30 90h22.5c4.142 0 7.5-3.358 7.5-7.5v-52.5c0-16.5-13.5-30-30-30z" fill="#f0224e"/><path d="m361.334 383.5c-16.5 0-30 13.5-30 30v60h30l30-90z" fill="#ff7149"/><path d="m437 383.5h-45.667c-16.5 0-30 13.5-30 30v60h105.667l.001-60c-.001-16.5-13.501-30-30.001-30z" fill="#ff4c50"/><path d="m413.838 263.5v90c24.853 0 45-20.147 45-45s-20.147-45-45-45z" fill="#f0224e"/><path d="m428.838 308.5c0-24.853-6.716-45-15-45-24.853 0-45 20.147-45 45s20.147 45 45 45c8.284 0 15-20.147 15-45z" fill="#ff4c50"/></g></svg>