<svg id="Layer_1" enable-background="new 0 0 497 497" height="512" viewBox="0 0 497 497" width="512" xmlns="http://www.w3.org/2000/svg"><g><path d="m437 188.128h60v301.269h-60z" fill="#dbebff"/><path d="m467 188.121h-467v301.287l467-.01z" fill="#fff4e1"/><path d="m497 489.398c0 4.147-3.353 7.5-7.49 7.5h-22.51l-45-45.21h45l18.18 13.85c7.45 5.68 11.82 14.5 11.82 23.86z" fill="#b8d8ff"/><path d="m309.78 331.898-122.56.01-175.4 133.64c-7.45 5.67-11.82 14.499-11.82 23.86 0 4.137 3.353 7.49 7.49 7.49h459.51v-45.21z" fill="#dbebff"/><path d="m489.51 180.628c4.137 0 7.49 3.353 7.49 7.49 0 9.37-4.37 18.2-11.82 23.87l-18.18 13.85h-45l45-45.21z" fill="#1e8aff"/><path d="m7.49 180.628c-4.137 0-7.49 3.353-7.49 7.49 0 9.38 4.37 18.2 11.82 23.88l63.178 48.136 347.001-.008 45.001-34.288v-45.21z" fill="#54a5ff"/><path d="m414.51.102h-332.02c-4.137 0-7.49 3.353-7.49 7.49v22.51c-.001 0-.003 230.028-.003 230.028l137.135 104.484c21.48 16.365 51.246 16.365 72.726 0l137.141-104.489.001-252.533c0-4.136-3.353-7.49-7.49-7.49z" fill="#ffd17e"/><circle cx="248.5" cy="173.502" fill="#fff4e1" r="128.5"/><path d="m248.5 75.002v90c24.853 0 45-20.147 45-45s-20.147-45-45-45z" fill="#1b74d6"/><path d="m263.5 120.002c0-24.853-6.716-45-15-45-24.853 0-45 20.147-45 45s20.147 45 45 45c8.284 0 15-20.147 15-45z" fill="#1e8aff"/><path d="m195.996 195.002c-16.5 0-30 13.5-30 30v2.316c7.756 11.867 18.005 21.955 30 29.529l30-61.845z" fill="#54a5ff"/><path d="m301.004 195.002h-30l30 61.845c11.995-7.574 22.244-17.662 30-29.529v-2.316c0-16.5-13.5-30-30-30z" fill="#1b74d6"/><path d="m271.004 195.002h-45.009c-16.5 0-30 13.5-30 30v31.845c15.198 9.597 33.201 15.155 52.504 15.155 19.304 0 37.306-5.558 52.504-15.155v-31.845c.001-16.5-13.499-30-29.999-30z" fill="#1e8aff"/></g></svg>