<svg id="Layer_1" enable-background="new 0 0 497 497" height="512" viewBox="0 0 497 497" width="512" xmlns="http://www.w3.org/2000/svg"><g><path d="m248.5 317-45 60 14.179 113.43c.469 3.753 3.66 6.57 7.442 6.57h46.758c3.782 0 6.973-2.817 7.442-6.57l14.179-113.43z" fill="#ffeac3"/><path d="m422 210-128.5 167 134.139-114.251c13.327-11.351 21.784-27.251 23.86-44.431.536-4.433-2.994-8.318-7.459-8.318z" fill="#ffb739"/><path d="m422 210h-369.04c-4.466 0-7.995 3.885-7.459 8.318 2.077 17.18 10.533 33.08 23.861 44.431l134.138 114.251h90l108.75-114.251c12.531-13.165 19.75-32.446 19.75-52.749z" fill="#ffd17e"/><path d="m301.333 120h-30l30 60h22.51c4.137 0 7.49-3.353 7.49-7.49v-22.51c0-16.5-13.5-30-30-30z" fill="#1b74d6"/><path d="m195.667 120c-16.5 0-30 13.5-30 30v22.51c0 4.137 3.353 7.49 7.49 7.49h22.51l30-60z" fill="#54a5ff"/><path d="m271.333 120h-45.667c-16.5 0-30 13.5-30 30v30h105.666l.001-30c0-16.5-13.5-30-30-30z" fill="#1e8aff"/><path d="m248.171 0v90c24.853 0 45-20.147 45-45s-20.147-45-45-45z" fill="#1b74d6"/><path d="m263.171 45c0-24.853-6.716-45-15-45-24.853 0-45 20.147-45 45s20.147 45 45 45c8.284 0 15-20.147 15-45z" fill="#1e8aff"/></g></svg>