<svg id="Layer_1" enable-background="new 0 0 497 497" height="512" viewBox="0 0 497 497" width="512" xmlns="http://www.w3.org/2000/svg"><g><path d="m398.5 45h-30v452h30c16.5 0 30-13.5 30-30v-392c0-16.5-13.5-30-30-30z" fill="#1b74d6"/><path d="m398.5 75c0-16.5-13.5-30-30-30h-86.621l-33.709 30-33.706-30h-115.964c-16.5 0-30 13.5-30 30v392c0 16.5 13.5 30 30 30h270c16.5 0 30-13.5 30-30l-150-196z" fill="#1e8aff"/><path d="m368.5 75-90 196 90 196h30v-392z" fill="#fff7e8"/><path d="m98.5 75v392h270v-392h-30l-90.33 15-89.67-15z" fill="#fff"/><path d="m368.5 105h-29.19l-30-30h29.19c16.57 0 30 13.43 30 30z" fill="#a6b0bd"/><path d="m339.31 105h-210.81c0-16.57 13.43-30 30-30h28.54l19.44-46.95c6.7-16.45 22.84-28.05 41.69-28.05 18.86 0 35 11.61 41.69 28.06l19.45 46.94c16.56 0 30 13.43 30 30zm-76.14-60c0-8.28-6.71-15-15-15-8.28 0-15 6.72-15 15s6.72 15 15 15c8.29 0 15-6.72 15-15z" fill="#c0c8d2"/><path d="m279.5 391h-30l30 45h30v-15c0-16.5-13.5-30-30-30z" fill="#ffb739"/><path d="m249.5 391h-32c-16.5 0-30 13.5-30 30v15h92v-15c0-16.5-13.5-30-30-30z" fill="#ffd17e"/><path d="m279.5 226h-30l30 45h30v-15c0-16.5-13.5-30-30-30z" fill="#ffb739"/><g fill="#ffd17e"><path d="m249.5 226h-32c-16.5 0-30 13.5-30 30v15h92v-15c0-16.5-13.5-30-30-30z"/><circle cx="248.258" cy="166" r="30"/><circle cx="248.258" cy="331" r="30"/></g></g></svg>