<svg id="Layer_1" enable-background="new 0 0 497 497" height="512" viewBox="0 0 497 497" width="512" xmlns="http://www.w3.org/2000/svg"><g><path d="m489.953 265.514c9.397-9.397 9.397-24.631 0-34.028-7.701-7.701-9.269-19.613-3.824-29.045 6.644-11.508 2.701-26.224-8.807-32.868-9.431-5.445-14.029-16.546-11.211-27.065 3.439-12.836-4.178-26.03-17.014-29.469-10.519-2.819-17.834-12.351-17.834-23.241 0-13.289-10.773-24.061-24.061-24.061-10.89 0-20.423-7.315-23.241-17.834-3.439-12.836-16.633-20.453-29.469-17.014-10.519 2.819-21.62-1.779-27.065-11.211-6.644-11.508-21.36-15.451-32.868-8.807-9.431 5.445-21.344 3.877-29.044-3.824-9.397-9.397-24.631-9.397-34.028 0-7.701 7.701-19.613 9.269-29.045 3.824-11.508-6.644-26.224-2.701-32.868 8.807-5.445 9.431-16.546 14.03-27.065 11.211-12.836-3.439-26.03 4.178-29.469 17.014-2.819 10.519-12.351 17.834-23.241 17.834-13.289 0-24.061 10.773-24.061 24.061 0 10.891-7.315 20.423-17.834 23.242-12.836 3.439-20.453 16.633-17.014 29.469 2.819 10.52-1.779 21.62-11.211 27.065-11.508 6.644-15.451 21.36-8.807 32.868 5.445 9.431 3.877 21.344-3.824 29.044-9.397 9.397-9.397 24.631 0 34.028 7.701 7.701 9.269 19.613 3.824 29.045-6.644 11.508-2.701 26.224 8.807 32.868 9.431 5.445 14.029 16.546 11.211 27.065-3.439 12.836 4.178 26.03 17.014 29.469 10.519 2.819 17.834 12.351 17.834 23.241 0 13.289 10.773 24.061 24.061 24.061 10.89 0 20.423 7.314 23.241 17.834 3.439 12.836 16.633 20.453 29.469 17.014 10.519-2.819 21.62 1.779 27.065 11.211 6.644 11.508 21.36 15.451 32.868 8.807 9.431-5.445 21.344-3.877 29.045 3.824 9.397 9.397 24.631 9.397 34.028 0 7.701-7.701 19.613-9.269 29.045-3.824 11.508 6.644 26.224 2.701 32.868-8.807 5.445-9.431 16.546-14.03 27.065-11.211 12.836 3.439 26.03-4.178 29.469-17.014 2.819-10.519 12.351-17.834 23.241-17.834 13.289 0 24.061-10.773 24.061-24.061 0-10.89 7.315-20.423 17.834-23.241 12.836-3.439 20.453-16.633 17.014-29.469-2.819-10.519 1.779-21.62 11.211-27.065 11.508-6.644 15.451-21.36 8.807-32.868-5.446-9.432-3.878-21.345 3.823-29.045z" fill="#ff7149"/><path d="m248.5 60v377c104.106 0 188.5-84.394 188.5-188.5s-84.394-188.5-188.5-188.5z" fill="#f0224e"/><path d="m407 248.5c0-104.106-70.963-188.5-158.5-188.5-104.106 0-188.5 84.394-188.5 188.5s84.394 188.5 188.5 188.5c87.537 0 158.5-84.394 158.5-188.5z" fill="#ff4c50"/><circle cx="248.5" cy="248.5" fill="#fff4e1" r="128.5"/><path d="m248.5 150v90c24.853 0 45-20.147 45-45s-20.147-45-45-45z" fill="#f0224e"/><path d="m263.5 195c0-24.853-6.716-45-15-45-24.853 0-45 20.147-45 45s20.147 45 45 45c8.284 0 15-20.147 15-45z" fill="#ff4c50"/><path d="m195.996 270c-16.5 0-30 13.5-30 30v2.316c7.756 11.867 18.005 21.955 30 29.529l30-61.845z" fill="#ff7149"/><path d="m301.004 270h-30l30 61.845c11.995-7.574 22.244-17.662 30-29.529v-2.316c0-16.5-13.5-30-30-30z" fill="#f0224e"/><path d="m271.004 270h-45.009c-16.5 0-30 13.5-30 30v31.845c15.199 9.597 33.201 15.155 52.505 15.155s37.306-5.558 52.504-15.155v-31.845c0-16.5-13.5-30-30-30z" fill="#ff4c50"/></g></svg>