<svg id="Layer_1" enable-background="new 0 0 497 497" height="512" viewBox="0 0 497 497" width="512" xmlns="http://www.w3.org/2000/svg"><g><path d="m248.5 0v497c137.243 0 248.5-111.257 248.5-248.5s-111.257-248.5-248.5-248.5z" fill="#728192"/><path d="m467 248.5c0-137.243-97.826-248.5-218.5-248.5-137.243 0-248.5 111.257-248.5 248.5s111.257 248.5 248.5 248.5c120.674 0 218.5-111.257 218.5-248.5z" fill="#8c98a7"/><path d="m248.5 60v377c104.106 0 188.5-84.394 188.5-188.5s-84.394-188.5-188.5-188.5z" fill="#dbebff"/><path d="m407 248.5c0-104.106-70.963-188.5-158.5-188.5-104.106 0-188.5 84.394-188.5 188.5s84.394 188.5 188.5 188.5c87.537 0 158.5-84.394 158.5-188.5z" fill="#fff"/><path d="m248.5 180c-8.284 0-15 6.716-15 15v83.5h30v-83.5c0-8.284-6.716-15-15-15z" fill="#728192"/><circle cx="248.5" cy="297.76" fill="#c0c8d2" r="30"/><path d="m327.76 111.21c-23.32-13.49-50.39-21.21-79.26-21.21l-30 30 30 30c17.95 0 34.77 4.8 49.26 13.19l40.981-10.981z" fill="#ffb739"/><path d="m169.25 111.235c25.002-14.435 52.305-21.284 79.246-21.262.001.022.009 60.016.009 60.016-16.744-.021-33.71 4.232-49.255 13.207l-40.981-10.981z" fill="#ffd17e"/><path d="m111.235 169.25c14.435-25.002 34.656-44.585 57.998-58.036.012.019 30.016 51.971 30.016 51.971-14.511 8.354-27.078 20.52-36.053 36.065l-40.981 10.981z" fill="#60ba4d"/><path d="m90 248.5c0-28.87 7.72-55.94 21.21-79.26.02.01 51.98 30 51.98 30-8.39 14.49-13.19 31.31-13.19 49.26l-30 30z" fill="#1e8aff"/><path d="m111.235 327.75c-14.435-25.002-21.284-52.305-21.262-79.246.022-.001 60.016-.009 60.016-.009-.021 16.744 4.232 33.71 13.207 49.255z" fill="#1b74d6"/><path d="m407 248.5c0 28.87-7.72 55.94-21.21 79.26-.02-.01-51.98-30-51.98-30 8.39-14.49 13.19-31.31 13.19-49.26l30-30z" fill="#ff4c50"/><path d="m385.765 169.25c14.435 25.002 21.284 52.305 21.262 79.246-.022.001-60.016.009-60.016.009.021-16.744-4.232-33.71-13.207-49.255l10.981-40.981z" fill="#ff7149"/><path d="m327.75 111.235-30 51.962c15.545 8.975 27.712 21.542 36.065 36.053l51.952-30.004c-13.431-23.355-33.015-43.576-58.017-58.011z" fill="#ff9441"/><circle cx="248.5" cy="297.76" fill="#728192" r="7.5"/></g></svg>