<svg id="Layer_1" enable-background="new 0 0 497 497" height="512" viewBox="0 0 497 497" width="512" xmlns="http://www.w3.org/2000/svg"><g><path d="m467 443.5h22.5c4.142 0 7.5-3.358 7.5-7.5v-22.5l-90-120z" fill="#ff9441"/><path d="m467 443.5h-459.5c-4.142 0-7.5-3.358-7.5-7.5v-22.5l467-120z" fill="#ffb739"/><path d="m467 413.5h30v-30l-90-120z" fill="#ffb739"/><path d="m467 413.5h-467v-30l467-120z" fill="#ffd17e"/><path d="m467 383.5h30v-30l-90-120z" fill="#ffd17e"/><path d="m467 383.5h-467v-30l467-120z" fill="#ffeac3"/><path d="m497 353.5h-30l-120-150 120-150h22.5c4.142 0 7.5 3.358 7.5 7.5z" fill="#ffeac3"/><path d="m467 353.5h-467v-292.5c0-4.142 3.358-7.5 7.5-7.5h459.5z" fill="#fff7e8"/><circle cx="248.5" cy="173.5" fill="#ffd17e" r="75"/><path d="m248.5 128.5v90c24.853 0 45-20.147 45-45s-20.147-45-45-45z" fill="#1b74d6"/><path d="m263.5 173.5c0-24.853-6.716-45-15-45-24.853 0-45 20.147-45 45s20.147 45 45 45c8.284 0 15-20.147 15-45z" fill="#1e8aff"/><g fill="#ffeac3"><path d="m383.5 286h-270c-4.143 0-7.5-3.357-7.5-7.5s3.357-7.5 7.5-7.5h270c4.143 0 7.5 3.357 7.5 7.5s-3.357 7.5-7.5 7.5z"/><path d="m323.5 316h-150c-4.143 0-7.5-3.357-7.5-7.5s3.357-7.5 7.5-7.5h150c4.143 0 7.5 3.357 7.5 7.5s-3.357 7.5-7.5 7.5z"/></g></g></svg>