<svg id="Layer_1" enable-background="new 0 0 497 497" height="512" viewBox="0 0 497 497" width="512" xmlns="http://www.w3.org/2000/svg"><g><path d="m218.167 467h-61.834l-30 15 30 15h31.834z" fill="#ffb739"/><path d="m158.167 467h-120.667c-8.284 0-15 6.716-15 15s6.716 15 15 15h120.667z" fill="#ffd17e"/><path d="m308.833 407-45 60h105v-60z" fill="#ffb739"/><path d="m188.167 407c-8.284 0-15 6.716-15 15s6.716 15 15 15l120.667 45v-75z" fill="#ffd17e"/><path d="m398.833 437h-90l-45 30 45 30h30z" fill="#ff7149"/><path d="m188.167 437h120.667v60h-120.667z" fill="#ff9441"/><path d="m459.5 347-45 60 75-30v-22.5c0-4.142-3.358-7.5-7.5-7.5z" fill="#ffb739"/><path d="m338.833 347c-8.284 0-15 6.716-15 15s6.716 15 15 15l120.667 45v-75z" fill="#ffd17e"/><path d="m489.5 377h-30l-45 60 45 60h22.5c4.142 0 7.5-3.358 7.5-7.5z" fill="#ff7149"/><path d="m338.833 377h120.667v120h-120.667z" fill="#ff9441"/><path d="m143.167 120h-30l30 152.511c0 8.28 6.71 14.5 15 14.5 8.28 0 15-6.22 15-14.5v-122.511c0-16.5-13.5-30-30-30z" fill="#1b74d6"/><path d="m37.5 120h30l-30 152.011c0 8.28-6.72 15-15 15s-15-6.72-15-15v-122.011c0-16.5 13.5-30 30-30z" fill="#54a5ff"/><path d="m143.167 150c0-16.5-13.5-30-30-30h-45.667c-16.5 0-30 13.5-30 30v268.084c0 10.447 8.469 18.916 18.916 18.916s18.917-8.469 18.917-18.916v-146.073h30v146.073c0 10.447 8.469 18.916 18.917 18.916 10.447 0 18.916-8.469 18.916-18.916z" fill="#1e8aff"/><path d="m90.004 0v90c24.853 0 45-20.147 45-45s-20.147-45-45-45z" fill="#1b74d6"/><path d="m105.004 45c0-24.853-6.716-45-15-45-24.853 0-45 20.147-45 45s20.147 45 45 45c8.285 0 15-20.147 15-45z" fill="#1e8aff"/></g></svg>