<svg id="Layer_1" enable-background="new 0 0 497 497" height="512" viewBox="0 0 497 497" width="512" xmlns="http://www.w3.org/2000/svg"><g><path d="m477.26 406.76-10.26 3.42-30 86.82h30c16.57 0 30-13.43 30-30v-46.01c0-10.24-10.03-17.47-19.74-14.23z" fill="#233952"/><path d="m497 248.5v76.01c0 10.24-10.03 17.47-19.74 14.23l-10.26-3.42-30-146.82z" fill="#233952"/><path d="m467 410.18v56.82c0 16.57-13.43 30-30 30h-188.5l-60-368.5h278.5v206.82l-20.51-6.84c-19.43-6.47-39.49 7.99-39.49 28.46v31.62c0 20.47 20.06 34.93 39.49 28.46z" fill="#3d5168"/><path d="m248.5 0h-218.5c-16.568 0-30 13.431-30 30v46.01c0 10.24 10.03 17.47 19.74 14.23l30.77-10.26c19.43-6.47 39.49 7.99 39.49 28.46v31.62c0 20.47-20.06 34.93-39.49 28.46l-30.77-10.26c-9.71-3.24-19.74 3.99-19.74 14.23v76.01l78.44 120h91.62l78.44-120 60-124.25z" fill="#b8d8ff"/><path d="m299.01 328.48-30.77 10.26c-9.71 3.24-19.74-3.99-19.74-14.23v-76.01h-76.01c-10.24 0-17.47 10.03-14.23 19.74l10.26 30.77c6.47 19.43-7.99 39.49-28.46 39.49h-31.62c-20.47 0-34.93-20.06-28.46-39.49l10.26-30.77c3.24-9.71-3.99-19.74-14.23-19.74h-76.01v218.5c0 16.569 13.431 30 30 30h46.01c10.24 0 17.47-10.03 14.23-19.74l-10.26-30.77c-6.47-19.43 7.99-39.49 28.46-39.49h31.62c20.47 0 34.93 20.06 28.46 39.49l-10.26 30.77c-3.24 9.71 3.99 19.74 14.23 19.74h76.01v-76.01c0-10.24 10.03-17.47 19.74-14.23l30.77 10.26c19.43 6.47 39.49-7.99 39.49-28.46v-31.62c0-20.47-20.06-34.93-39.49-28.46z" fill="#1e8aff"/><path d="m497 248.5v-218.5c0-16.569-13.431-30-30-30h-30v218.5l30 30z" fill="#54a5ff"/><path d="m467 248.5v-218.5c0-16.569-13.431-30-30-30h-16.01c-10.24 0-17.47 10.03-14.23 19.74l10.26 30.77c6.47 19.43-7.99 39.49-28.46 39.49h-31.62c-20.47 0-34.93-20.06-28.46-39.49l10.26-30.77c3.24-9.71-3.99-19.74-14.23-19.74h-76.01v76.01c0 10.24-10.03 17.47-19.74 14.23l-30.77-10.26c-19.43-6.47-39.49 7.99-39.49 28.46v31.62c0 20.47 20.06 34.93 39.49 28.46l30.77-10.26c9.71-3.24 19.74 3.99 19.74 14.23v76.01h76.01c10.24 0 17.47-10.03 14.23-19.74l-10.26-30.77c-6.47-19.43 7.99-39.49 28.46-39.49h31.62c20.47 0 34.93 20.06 28.46 39.49l-10.26 30.77c-3.24 9.71 3.99 19.74 14.23 19.74z" fill="#89c1ff"/></g></svg>