<svg id="Layer_1" enable-background="new 0 0 497 497" height="512" viewBox="0 0 497 497" width="512" xmlns="http://www.w3.org/2000/svg"><g><path d="m489.5 458.5h-482c-4.142 0-7.5-3.358-7.5-7.5v-405c0-4.142 3.358-7.5 7.5-7.5h482c4.142 0 7.5 3.358 7.5 7.5v405c0 4.142-3.358 7.5-7.5 7.5z" fill="#ffd17e"/><path d="m30 68.5v360l211-60v-240z" fill="#ff4c50"/><path d="m467 68.5-60 7.965v344.07l60 7.965z" fill="#f0224e"/><path d="m241 128.5v240l196 52.035v-344.07z" fill="#ff4c50"/><path d="m467 68.5h-437l90 90v180l-90 90h437l-90-90v-180z" fill="#ff7149"/><path d="m377 128.5-90 120 90 120h30v-240z" fill="#ffeac3"/><path d="m90 128.5v240h287v-180l-15-15 15-15v-30z" fill="#fff7e8"/><path d="m347 158.5-30 15 30 15h30v-30z" fill="#ffb739"/><path d="m120 158.5h227v30h-227z" fill="#ffd17e"/><path d="m377 226h-257c-4.142 0-7.5-3.357-7.5-7.5s3.358-7.5 7.5-7.5h257c4.143 0 7.5 3.357 7.5 7.5s-3.357 7.5-7.5 7.5z" fill="#ffeac3"/><circle cx="248.5" cy="293.5" fill="#f0224e" r="45"/><circle cx="248.5" cy="293.5" fill="#ff4c50" r="15"/></g></svg>