<svg id="Layer_1" enable-background="new 0 0 497 497" height="512" viewBox="0 0 497 497" width="512" xmlns="http://www.w3.org/2000/svg"><g><path d="m459 323.021 30 30-15 45-15 30-15-30-15-45z" fill="#ffb739"/><path d="m452.76 493.66-21.919-32.879c-1.172-1.758-1.548-3.929-1.036-5.979l14.195-56.781h30l14.195 56.781c.512 2.05.136 4.221-1.036 5.979l-21.919 32.879c-2.968 4.453-9.512 4.453-12.48 0z" fill="#ffd17e"/><path d="m233 165 16.82-151.82 135 135z" fill="#ffd17e"/><path d="m368 497-45-362h30c24.853 0 45 20.147 45 45v309.5c0 4.142-3.358 7.5-7.5 7.5z" fill="#ffe8be"/><path d="m368 180v317h-352.5c-4.142 0-7.5-3.358-7.5-7.5v-482c0-4.142 3.358-7.5 7.5-7.5h202.5c24.853 0 45 20.147 45 45v90h60c24.853 0 45 20.147 45 45z" fill="#fff7e8"/><path d="m308 195-30 15 30 15h30v-30z" fill="#ffb739"/><path d="m68 195h240v30h-240z" fill="#ffd17e"/><path d="m203 60-30 37.5 30 37.5h30v-75z" fill="#1b74d6"/><path d="m68 60h135v75h-135z" fill="#1e8aff"/><g fill="#ffeac3"><path d="m338 172.5h-270c-4.143 0-7.5-3.357-7.5-7.5s3.357-7.5 7.5-7.5h270c4.143 0 7.5 3.357 7.5 7.5s-3.357 7.5-7.5 7.5z"/><path d="m338 292.5h-270c-4.143 0-7.5-3.357-7.5-7.5s3.357-7.5 7.5-7.5h270c4.143 0 7.5 3.357 7.5 7.5s-3.357 7.5-7.5 7.5z"/><path d="m338 322.5h-270c-4.143 0-7.5-3.357-7.5-7.5s3.357-7.5 7.5-7.5h270c4.143 0 7.5 3.357 7.5 7.5s-3.357 7.5-7.5 7.5z"/><path d="m338 352.5h-270c-4.143 0-7.5-3.357-7.5-7.5s3.357-7.5 7.5-7.5h270c4.143 0 7.5 3.357 7.5 7.5s-3.357 7.5-7.5 7.5z"/><path d="m233 444.5h-165c-4.143 0-7.5-3.357-7.5-7.5s3.357-7.5 7.5-7.5h165c4.143 0 7.5 3.357 7.5 7.5s-3.357 7.5-7.5 7.5z"/></g><path d="m459 0 15 60-45-30v-22.5c0-4.142 3.358-7.5 7.5-7.5z" fill="#ffe8be"/><path d="m489 7.5v22.5l-30 30v-60h22.5c4.142 0 7.5 3.358 7.5 7.5z" fill="#ffd17e"/><path d="m459 353.021 15-60-45 30v30z" fill="#ffe8be"/><path d="m489 353.021v-30l-30-30v60z" fill="#ffd17e"/><path d="m429 30v293.021h30l15-15v-263.021l-15-15z" fill="#57697d"/><path d="m459 30h30v293.021h-30z" fill="#3d5168"/></g></svg>