<svg id="Layer_1" enable-background="new 0 0 504.5 504.5" height="512" viewBox="0 0 504.5 504.5" width="512" xmlns="http://www.w3.org/2000/svg"><g><path d="m312.93 466.78-9.32-37.28-51.36-45-51.36 45-7.5 30v37.5h148.64v-7.5c-13.77 0-25.77-9.37-29.1-22.72z" fill="#89c1ff"/><path d="m312.03 489.5v7.5h-149.56v-7.5c13.77 0 25.77-9.37 29.1-22.72l1.82-7.28h87.72l1.82 7.28c3.33 13.35 15.33 22.72 29.1 22.72z" fill="#b8d8ff"/><path d="m395.75 504.5h-287c-4.143 0-7.5-3.357-7.5-7.5s3.357-7.5 7.5-7.5h287c4.143 0 7.5 3.357 7.5 7.5s-3.357 7.5-7.5 7.5z" fill="#89c1ff"/><path d="m440.75 429.5h30c16.5 0 30-13.5 30-30v-22.5l-60-45z" fill="#b8d8ff"/><path d="m3.75 377v22.5c0 16.5 13.5 30 30 30h407c16.5 0 30-13.5 30-30v-157.5z" fill="#dbebff"/><path d="m470.75 60h-30v287l30 30h30v-287c0-16.5-13.5-30-30-30z" fill="#3d5168"/><path d="m470.749 346.988-233.499-128.494 233.5-128.494c0-16.5-13.5-30-30-30h-407c-16.5 0-30 13.5-30 30v287h467z" fill="#57697d"/><path d="m470.75 90.025-29.994-.025c-.001.007-203.506 128.5-203.506 128.5s203.502 128.497 203.5 128.5h29.999c.001 0-.002-256.97.001-256.975z" fill="#89c1ff"/><path d="m440.75 90.027h-406.912l-.088 256.973h68.5l52.5-15 52.5 15h233.49c.005 0 .01-256.973.01-256.973z" fill="#b8d8ff"/><path d="m169.75 120 7.5 167h30l19.923-29.885c6.571-9.856 10.077-21.437 10.077-33.282v-36.333c0-37.279-30.221-67.5-67.5-67.5z" fill="#1b74d6"/><path d="m207.25 223.833v-36.333c0-37.279-16.789-67.5-37.5-67.5-37.279 0-67.5 30.221-67.5 67.5v99.5h75l19.923-29.885c6.571-9.856 10.077-21.436 10.077-33.282z" fill="#1e8aff"/><path d="m102.25 317h105v30h-105z" fill="#1e8aff"/><path d="m372.25 197-22.5 90c28.995 0 52.5-23.505 52.5-52.5v-37.5z" fill="#1b74d6"/><path d="m372.25 234.5v-37.5h-75v37.5c0 28.995 23.505 52.5 52.5 52.5 12.426 0 22.5-23.505 22.5-52.5z" fill="#1e8aff"/><path d="m334.75 0 37.5 167h30v-99.5c0-37.279-30.221-67.5-67.5-67.5z" fill="#1b74d6"/><path d="m334.75 0c-37.279 0-67.5 30.221-67.5 67.5v36.333c0 11.845 3.506 23.426 10.077 33.282l19.923 29.885h75v-99.5c0-37.279-16.789-67.5-37.5-67.5z" fill="#1e8aff"/></g></svg>