<svg id="Layer_1" enable-background="new 0 0 497 497" height="512" viewBox="0 0 497 497" width="512" xmlns="http://www.w3.org/2000/svg"><g><path d="m323.504 165h-45l45 72.127c14.998-7.411 29.127-17.179 41.833-29.305 1.889-1.803 2.746-4.445 2.211-7-4.268-20.387-22.437-35.822-44.044-35.822z" fill="#1b74d6"/><path d="m173.495 165c-21.606 0-39.776 15.434-44.044 35.821-.535 2.556.322 5.198 2.211 7.001 12.706 12.126 26.835 21.895 41.833 29.305l45-72.127z" fill="#54a5ff"/><path d="m278.505 165h-60.009c-24.853 0-45 20.147-45 45v27.127c47.14 23.292 102.869 23.292 150.009 0v-27.127c0-24.853-20.147-45-45-45z" fill="#1e8aff"/><path d="m60 66.011c-16.57 0-30 13.43-30 30v205h60v-205c0-16.57-13.43-30-30-30z" fill="#ffb739"/><path d="m176.238 400.594v77.418l57.262-11.012v-30z" fill="#ffb739"/><path d="m196 369.512-136-118.434v-184.443c0-16.347-12.816-30.165-29.157-30.613-16.954-.464-30.843 13.141-30.843 29.989v220.706c0 7.415 1.832 14.714 5.333 21.25l69.667 115.045-10 55h138.5v-49.059z" fill="#ffd17e"/><path d="m203.5 467-15 15 15 15h22.5c4.142 0 7.5-3.358 7.5-7.5v-22.5z" fill="#b8d8ff"/><path d="m35.882 473.158-2.727 15c-.837 4.604 2.7 8.842 7.379 8.842h162.966v-30h-160.239c-3.624 0-6.73 2.592-7.379 6.158z" fill="#dbebff"/><path d="m437 66.011c16.57 0 30 13.43 30 30v205h-60v-205c0-16.57 13.43-30 30-30z" fill="#ffb739"/><path d="m466.157 36.023c-3.954.108-7.698 1.006-11.107 2.526v246.246l-33.05 138.217 69.667-115.044c3.501-6.536 5.333-13.835 5.333-21.25v-220.707c0-16.848-13.89-30.453-30.843-29.988z" fill="#ffb739"/><path d="m464.841 304.727c1.43-4.45 2.159-9.096 2.159-13.77v-224.946c0-12.272-4.915-22.815-11.95-27.463-10.682 4.764-18.05 15.696-18.05 28.088v184.443l-136 118.433-37.5 67.488v30l30 11.012h138.5l-10-55z" fill="#ffd17e"/><path d="m429.998 467-9.545 15 15 15h21.013c4.679 0 8.216-4.238 7.379-8.842l-2.727-15c-.648-3.566-3.754-6.158-7.379-6.158z" fill="#b8d8ff"/><path d="m263.5 467v22.5c0 4.142 3.358 7.5 7.5 7.5h164.452l-5.454-30z" fill="#dbebff"/><path d="m427.609 229.277c-11.871-11.238-30.705-10.53-42.263 1.029l-104.272 104.272c-10.858 10.858-17.573 25.858-17.573 42.427v59.995c33.135 0 59.997-26.86 60-59.995l104.714-104.713c11.912-11.914 11.711-31.356-.606-43.015z" fill="#ffeac3"/><path d="m233.5 377.005c0-16.569-6.716-31.569-17.573-42.427l-104.272-104.272 91.845 198.647c8.827 5.109 19.068 8.047 30 8.047z" fill="#ffd17e"/><path d="m190.253 334.578-78.598-104.272c-11.559-11.559-30.392-12.267-42.263-1.029-12.317 11.659-12.518 31.101-.604 43.014l104.712 104.714c.002 22.202 12.072 41.573 29.999 51.948v-51.948c.001-16.569-5.062-31.569-13.246-42.427z" fill="#ffeac3"/><path d="m248.5 0v135c37.279 0 67.5-30.221 67.5-67.5s-30.221-67.5-67.5-67.5z" fill="#1b74d6"/><path d="m286 67.5c0-37.279-16.789-67.5-37.5-67.5-37.279 0-67.5 30.221-67.5 67.5s30.221 67.5 67.5 67.5c20.711 0 37.5-30.221 37.5-67.5z" fill="#1e8aff"/></g></svg>