<svg id="Layer_1" enable-background="new 0 0 497 497" height="512" viewBox="0 0 497 497" width="512" xmlns="http://www.w3.org/2000/svg"><g><path d="m278.5 415.19 60 81.81h30l30-81.81z" fill="#89c1ff"/><path d="m295.64 375h-94.28-102.86l30 122h72.86l47.14-47.054 47.14 47.054h42.86v-122z" fill="#b8d8ff"/><path d="m68.5 380.02-46.18 26.95c-13.82 8.07-22.32 22.87-22.32 38.87v43.66c0 4.142 3.358 7.5 7.5 7.5h121z" fill="#3d5168"/><path d="m474.68 406.97-30-17.51c0 .01 22.32 107.54 22.32 107.54h22.5c4.142 0 7.5-3.358 7.5-7.5v-43.66c0-16-8.5-30.8-22.32-38.87z" fill="#233952"/><path d="m444.68 389.47-16.18-9.45-60 116.98h98.5v-68.67c0-16-8.5-30.8-22.32-38.86z" fill="#3d5168"/><path d="m338.5 300h-30l30 132.17c.37.22.75.43 1.13.63 2.77 1.43 5.87 2.2 9.06 2.2 10.94 0 19.81-8.87 19.81-19.81v-85.19c0-16.57-13.43-30-30-30z" fill="#dbebff"/><path d="m308.5 300h-150c-16.57 0-30 13.43-30 30v85.19c0 5.47 2.22 10.42 5.8 14.01 3.59 3.58 8.54 5.8 14.01 5.8 6.39 0 12.4-3.09 16.11-8.29l36.94-51.71h94.28l36.94 51.71c1.6 2.24 3.62 4.08 5.92 5.46v-102.17c0-16.57-13.43-30-30-30z" fill="#fffbf3"/><path d="m128.5 497-42-31.5c-11.33-8.5-18-21.84-18-36v-49.48l60-35.02z" fill="#57697d"/><path d="m428.5 380.02v49.48c0 14.16-6.67 27.5-18 36l-42 31.5v-152z" fill="#57697d"/><path d="m272.22 342.21c-5.47-7.66-14.31-12.21-23.72-12.21s-18.25 4.55-23.72 12.21l-23.42 32.79h94.28z" fill="#233952"/><path d="m272.22 364.07c-5.47-2.553-14.31-4.07-23.72-4.07s-18.25 1.517-23.72 4.07l-23.42 10.93 32.14 45 15 15 15-15 32.14-45z" fill="#3d5168"/><path d="m263.5 420 32.14 77h-94.28l32.14-77z" fill="#233952"/><path d="m248.5 0c-82.843 0-150 67.157-150 150s67.157 150 150 150 150-67.157 150-150-67.157-150-150-150zm15 269.068v-51.568c0-4.142-3.358-7.5-7.5-7.5h-15c-4.142 0-7.5 3.358-7.5 7.5v51.568c-54.28-6.769-97.299-49.788-104.068-104.068h51.568c4.142 0 7.5-3.358 7.5-7.5v-15c0-4.142-3.358-7.5-7.5-7.5h-51.568c6.769-54.28 49.788-97.299 104.068-104.068v51.568c0 4.142 3.358 7.5 7.5 7.5h15c4.142 0 7.5-3.358 7.5-7.5v-51.568c54.28 6.769 97.299 49.788 104.068 104.068h-51.568c-4.142 0-7.5 3.358-7.5 7.5v15c0 4.142 3.358 7.5 7.5 7.5h51.568c-6.769 54.28-49.788 97.299-104.068 104.068z" fill="#728192"/><circle cx="248.5" cy="150" fill="#89c1ff" r="30"/></g></svg>