<svg width="227" height="251" viewBox="0 0 227 251" fill="none" xmlns="http://www.w3.org/2000/svg">
<path d="M82.8386 174.111V192.674H79.2874V184.765H70.8937V192.674H67.3425V174.111H70.8937V181.536H79.2874V174.111H82.8386Z" fill="black"/>
<path d="M101.886 192.836C100.594 192.836 99.3032 192.513 98.1732 192.028C97.0433 191.544 96.0748 190.737 95.2678 189.93C94.4607 189.123 93.815 187.993 93.4922 186.863C93.0079 185.733 92.8465 184.603 92.8465 183.312C92.8465 182.021 93.0079 180.891 93.4922 179.761C93.9764 178.631 94.622 177.662 95.4291 176.694C96.2362 175.887 97.2048 175.08 98.3347 174.595C99.4646 174.111 100.594 173.788 101.886 173.788C103.177 173.788 104.469 174.111 105.598 174.595C106.728 175.08 107.697 175.887 108.504 176.694C109.311 177.501 109.957 178.631 110.28 179.761C110.602 180.891 110.925 182.021 110.925 183.151C110.925 184.442 110.764 185.572 110.28 186.702C109.795 187.832 109.15 188.8 108.343 189.607C107.535 190.414 106.567 191.221 105.437 191.706C104.307 192.513 103.177 192.836 101.886 192.836ZM96.3976 183.312C96.3976 184.119 96.5591 184.926 96.7205 185.572C97.0433 186.379 97.3661 187.024 97.8504 187.509C98.3346 188.154 98.8189 188.477 99.626 188.961C100.433 189.446 101.079 189.446 101.886 189.446C102.693 189.446 103.5 189.284 104.146 188.961C104.791 188.639 105.437 188.154 105.921 187.509C106.406 186.863 106.728 186.217 106.89 185.572C107.051 184.765 107.213 184.119 107.213 183.312C107.213 182.505 107.051 181.698 106.89 181.052C106.567 180.245 106.244 179.599 105.76 179.115C105.276 178.469 104.791 178.147 103.984 177.824C103.339 177.501 102.532 177.339 101.724 177.339C100.917 177.339 100.11 177.501 99.4646 177.824C98.8189 178.147 98.1733 178.631 97.689 179.276C97.2048 179.922 96.8819 180.568 96.7205 181.213C96.5591 181.859 96.3976 182.666 96.3976 183.312Z" fill="black"/>
<path d="M136.106 192.674V180.406L131.264 189.607H129.327L124.484 180.406V192.674H120.933V174.111H124.807L130.295 184.603L135.783 174.111H139.658V192.674H136.106Z" fill="black"/>
<path d="M163.709 189.446V192.674H150.795V174.111H163.386V177.339H154.346V181.859H162.095V184.765H154.346V189.607H163.709V189.446Z" fill="black"/>
<path d="M72.5079 216.887H75.7363L82.8386 235.45H79.1261L77.3505 230.769H70.8938L69.1182 235.45H65.4056L72.5079 216.887ZM76.7048 228.347L74.1221 221.084L71.5394 228.347H76.7048Z" fill="black"/>
<path d="M87.6811 235.45V216.887H91.2323V232.221H100.756V235.45H87.6811Z" fill="black"/>
<path d="M113.831 235.611C112.539 235.611 111.248 235.288 110.118 234.804C108.988 234.32 108.02 233.513 107.213 232.706C106.406 231.898 105.76 230.769 105.437 229.639C104.953 228.509 104.791 227.379 104.791 226.087C104.791 224.796 104.953 223.666 105.437 222.536C105.921 221.406 106.567 220.438 107.374 219.469C108.181 218.662 109.15 217.855 110.28 217.371C111.409 216.887 112.539 216.564 113.831 216.564C115.122 216.564 116.413 216.887 117.543 217.371C118.673 217.855 119.642 218.662 120.449 219.469C121.256 220.276 121.902 221.406 122.224 222.536C122.547 223.666 122.87 224.796 122.87 225.926C122.87 227.217 122.709 228.347 122.224 229.477C121.74 230.607 121.095 231.576 120.287 232.383C119.48 233.19 118.512 233.997 117.382 234.481C116.413 235.288 115.122 235.611 113.831 235.611ZM108.504 226.249C108.504 227.056 108.665 227.863 108.827 228.509C109.15 229.316 109.472 229.961 109.957 230.446C110.441 231.091 110.925 231.414 111.732 231.898C112.539 232.383 113.185 232.383 113.992 232.383C114.799 232.383 115.606 232.221 116.252 231.898C116.898 231.576 117.543 231.091 118.028 230.446C118.512 229.8 118.835 229.154 118.996 228.509C119.158 227.702 119.319 227.056 119.319 226.249C119.319 225.442 119.158 224.635 118.996 223.989C118.673 223.182 118.35 222.536 117.866 222.052C117.382 221.406 116.898 221.084 116.091 220.761C115.445 220.438 114.638 220.276 113.831 220.276C113.024 220.276 112.217 220.438 111.571 220.761C110.925 221.084 110.28 221.568 109.795 222.213C109.311 222.859 108.988 223.505 108.827 224.15C108.665 224.635 108.504 225.442 108.504 226.249Z" fill="black"/>
<path d="M132.232 223.505V235.45H128.681V216.887H131.425L141.11 228.993V216.887H144.661V235.45H141.756L132.232 223.505Z" fill="black"/>
<path d="M164.516 232.383V235.611H151.602V217.048H164.193V220.277H155.154V224.796H162.902V227.702H155.154V232.544H164.516V232.383Z" fill="black"/>
<path d="M66.6968 198.646H72.0236C73.4763 198.646 74.7677 198.646 75.5748 198.969C77.3504 199.454 77.9961 200.906 77.9961 202.198C77.9961 203.005 77.8346 203.328 77.6732 203.489C77.0275 204.942 75.7362 205.103 74.9291 205.265C75.7362 205.426 76.8661 205.587 77.6732 206.394C78.1574 206.879 78.4803 207.686 78.4803 208.493C78.4803 209.623 77.8346 211.076 76.2205 211.883C75.2519 212.367 74.122 212.367 72.5079 212.367H66.6968V198.646ZM69.9252 201.229V204.135H72.5079C73.315 204.135 74.6063 204.135 74.6063 202.682C74.6063 201.391 73.4763 201.229 72.8307 201.229H69.9252V201.229ZM69.9252 206.556V209.946H72.3464C73.4764 209.946 74.9291 209.946 74.9291 208.331C74.9291 206.717 73.6378 206.717 72.8307 206.556H69.9252Z" fill="black"/>
<path d="M95.2677 198.646V206.394C95.2677 207.686 95.2677 209.139 94.4607 210.268C93.0079 212.69 89.941 212.851 89.2953 212.851C88.3268 212.851 87.0354 212.528 86.0669 212.044C83.4843 210.753 83.4843 208.17 83.4843 206.394V198.646H87.0355V207.202C87.0355 207.847 87.0354 208.493 87.3583 208.977C87.8425 209.623 88.6496 209.946 89.6181 209.946C92.0394 209.946 92.0394 208.331 92.0394 207.202V198.646H95.2677V198.646Z" fill="black"/>
<path d="M98.8189 198.646H109.472V201.391H105.921V212.528H102.532V201.391H98.9803V198.646H98.8189Z" fill="black"/>
<path d="M120.772 198.646H124.161L127.228 203.812C128.358 205.749 128.681 206.394 129.327 207.524L129.165 198.646H132.394V212.528H129.004L126.421 208.17C125.13 206.072 124.969 205.749 124 203.812L124.161 212.528H120.772V198.646Z" fill="black"/>
<path d="M144.016 212.851C139.657 212.851 137.075 209.461 137.075 205.426C137.075 201.713 139.496 198.162 143.854 198.162C144.661 198.162 145.469 198.324 146.437 198.646C150.634 200.099 150.957 204.78 150.957 205.587C150.957 208.009 149.827 210.107 148.374 211.398C146.921 212.528 145.469 212.851 144.016 212.851ZM146.437 202.036C145.791 201.391 144.984 201.068 144.016 201.068C141.917 201.068 140.626 202.843 140.626 205.426C140.626 208.654 142.402 209.946 144.016 209.946C145.63 209.946 147.406 208.816 147.567 205.91C147.567 204.457 147.244 203.005 146.437 202.036Z" fill="black"/>
<path d="M153.701 198.646H164.354V201.391H160.803V212.528H157.413V201.391H153.862V198.646H153.701Z" fill="black"/>
<path d="M90.4253 244.166V250.139H89.6182V242.713H90.1024L94.9449 248.847V242.713H95.752V250.139H95.1063L90.4253 244.166Z" fill="#CE9D13"/>
<path d="M101.563 250.3C101.079 250.3 100.595 250.139 100.11 249.977C99.626 249.816 99.3032 249.493 98.9804 249.17C98.6575 248.847 98.4961 248.363 98.3347 248.04C98.1733 247.556 98.0118 247.072 98.0118 246.587C98.0118 246.103 98.1733 245.619 98.3347 245.135C98.4961 244.65 98.8189 244.327 99.1418 244.005C99.4646 243.682 99.7874 243.359 100.272 243.198C100.756 243.036 101.079 242.875 101.724 242.875C102.209 242.875 102.693 243.036 103.177 243.198C103.661 243.359 103.984 243.682 104.307 244.005C104.63 244.327 104.791 244.812 104.953 245.135C105.114 245.619 105.276 246.103 105.276 246.426C105.276 246.91 105.114 247.394 104.953 247.879C104.791 248.363 104.469 248.686 104.146 249.009C103.823 249.331 103.5 249.654 103.016 249.816C102.532 250.139 102.047 250.3 101.563 250.3ZM98.8189 246.426C98.8189 246.749 98.8189 247.233 98.9804 247.556C99.1418 247.879 99.3032 248.202 99.4646 248.524C99.626 248.847 99.9488 249.009 100.272 249.17C100.595 249.331 100.917 249.493 101.402 249.493C101.886 249.493 102.209 249.331 102.532 249.17C102.854 249.009 103.177 248.686 103.339 248.524C103.5 248.363 103.823 247.879 103.823 247.556C103.984 247.233 103.984 246.749 103.984 246.426C103.984 246.103 103.984 245.619 103.823 245.296C103.661 244.973 103.5 244.65 103.177 244.328C102.854 244.005 102.693 243.843 102.37 243.682C102.047 243.52 101.724 243.359 101.24 243.359C100.756 243.359 100.433 243.52 100.11 243.682C99.7875 243.843 99.4646 244.166 99.3032 244.328C99.1418 244.489 98.8189 244.973 98.8189 245.296C98.8189 245.78 98.8189 246.103 98.8189 246.426Z" fill="#CE9D13"/>
<path d="M107.213 250.139V242.713H108.02V250.139H107.213Z" fill="#CE9D13"/>
<path d="M114.154 250.139V242.713H116.736C117.382 242.713 117.866 242.875 118.35 243.036C118.835 243.198 119.158 243.52 119.48 243.843C119.803 244.166 119.965 244.489 120.126 244.973C120.287 245.457 120.287 245.942 120.287 246.426C120.287 246.91 120.126 247.556 119.965 247.879C119.803 248.363 119.48 248.686 119.319 249.009C118.996 249.331 118.673 249.654 118.189 249.816C117.705 249.977 117.221 250.139 116.736 250.139H114.154V250.139ZM119.48 246.426C119.48 245.942 119.48 245.619 119.319 245.135C119.158 244.812 118.996 244.489 118.835 244.166C118.673 243.843 118.35 243.682 118.028 243.52C117.705 243.359 117.221 243.359 116.898 243.359H115.122V249.493H116.898C117.382 249.493 117.705 249.493 118.189 249.331C118.512 249.17 118.835 249.009 118.996 248.686C119.158 248.363 119.48 248.04 119.48 247.717C119.48 247.394 119.48 246.91 119.48 246.426Z" fill="#CE9D13"/>
<path d="M124.484 242.713H125.13L128.197 250.139H127.39L126.421 247.879H123.031L122.063 250.139H121.256L124.484 242.713ZM126.26 247.233L124.807 243.52L123.354 247.233H126.26Z" fill="#CE9D13"/>
<path d="M138.366 243.359H135.783V250.139H134.976V243.359H132.394V242.713H138.366V243.359V243.359Z" fill="#CE9D13"/>
<path d="M145.146 249.493V250.139H140.142V242.713H144.984V243.359H140.787V246.103H144.339V246.749H140.787V249.493H145.146V249.493Z" fill="#CE9D13"/>
<path d="M130.134 11.8867L132.232 144.087L226.339 155.225V1.39453L130.134 11.8867ZM220.366 146.993L138.043 137.147L136.752 18.8276L220.366 10.1111V146.993Z" fill="black"/>
<path d="M138.043 137.147L220.366 146.993V10.1111L136.752 18.8276L138.043 137.147Z" fill="white"/>
<path d="M179.043 120.358L178.558 116.646C161.287 102.602 167.582 99.3741 159.027 99.8583C150.633 100.181 120.771 82.2639 113.184 77.2599C105.598 72.256 86.2276 69.8347 86.2276 69.8347L82.3536 92.5946C82.3536 92.5946 114.153 100.02 116.09 102.602" fill="#CE9D13"/>
<path d="M179.043 120.359L178.559 116.646C175.169 113.902 171.779 110.997 168.874 107.607C167.421 105.993 166.13 104.056 164.839 102.28C164.193 101.312 163.547 100.505 162.417 100.343C161.449 100.02 160.319 100.182 159.189 100.182C156.929 100.182 154.669 99.5362 152.571 98.8906C150.472 98.0835 148.374 97.2764 146.437 96.3079C142.402 94.5323 138.366 92.4339 134.492 90.3355C126.744 86.1386 118.996 81.6189 111.571 76.9378C107.697 75.0008 103.339 73.7094 99.1417 72.7409C94.7834 71.7724 90.4251 70.9653 86.0669 70.3197L86.3897 69.9969L82.5157 92.7567L82.3543 92.4339C88.0039 93.8866 93.8149 95.178 99.4645 96.7922C102.37 97.5992 105.114 98.4063 108.02 99.3748C109.472 99.859 110.764 100.343 112.217 100.828C112.862 101.15 113.669 101.312 114.315 101.635C114.961 101.958 115.606 102.28 116.252 102.765C115.768 102.28 114.961 101.958 114.315 101.635C113.669 101.312 113.024 101.15 112.217 100.828C110.764 100.343 109.472 99.859 108.02 99.5362C105.276 98.7291 102.37 97.922 99.4645 97.115C93.8149 95.6622 88.0039 94.2094 82.3543 92.9181H82.1929V92.7567L85.9054 69.9969V69.674H86.2283C90.5866 70.3197 94.9448 71.1268 99.3031 72.0953C103.661 73.0638 108.02 74.3551 111.894 76.2921C119.48 80.9732 126.905 85.6543 134.815 89.8512C138.689 91.9496 142.563 94.048 146.598 95.8236C148.535 96.7921 150.634 97.5992 152.732 98.4063C154.831 99.052 156.929 99.8591 159.028 99.8591C160.157 99.8591 161.287 99.8591 162.417 100.02C163.547 100.343 164.354 101.312 165 102.28C166.291 104.217 167.421 105.993 168.874 107.607C171.779 110.997 175.008 114.064 178.398 116.808L179.043 120.359Z" fill="white"/>
<path d="M160.964 105.669L179.365 119.713C179.365 119.713 186.629 131.012 189.05 132.787C191.633 134.563 186.629 136.661 184.208 135.209C181.787 133.756 172.424 120.358 170.165 119.228C167.743 118.26 140.787 100.827 139.334 109.543C137.881 118.26 146.759 119.067 152.893 121.327C156.283 122.618 165.161 121.972 164.354 131.012L149.342 129.236C149.342 129.236 129.972 118.744 126.259 117.776C122.547 116.807 118.673 96.9528 98.3339 87.1064" fill="#CE9D13"/>
<path d="M160.965 105.67L179.689 119.391C180.98 121.489 182.433 123.426 183.886 125.363C185.339 127.3 186.63 129.398 188.244 131.174C188.728 131.658 189.051 131.981 189.535 132.465C189.858 132.627 190.02 132.95 190.181 133.434C190.343 133.918 190.181 134.402 189.858 134.564C188.89 135.694 187.437 135.855 186.146 136.017C185.5 136.017 184.854 135.855 184.209 135.532C183.563 135.209 183.079 134.725 182.756 134.241C181.949 133.272 181.142 132.465 180.335 131.497C177.268 127.784 174.362 123.749 170.972 120.198C170.811 120.036 170.488 119.713 170.327 119.713L170.004 119.552L169.52 119.391L167.906 118.422L164.677 116.646C162.579 115.517 160.48 114.225 158.22 113.095C153.862 110.835 149.504 108.737 144.823 107.607C143.693 107.446 142.402 107.284 141.433 107.607C140.949 107.768 140.465 108.091 140.142 108.414C139.98 108.576 139.819 108.898 139.819 109.06C139.657 109.383 139.657 109.544 139.657 109.867C139.496 110.997 139.657 112.288 139.819 113.257C140.142 114.387 140.787 115.355 141.756 116.001C143.531 117.454 145.953 118.261 148.213 119.068L151.764 120.198C152.894 120.682 154.024 121.005 155.154 121.166C157.575 121.65 160.157 122.135 162.094 123.749C163.063 124.556 163.87 125.686 164.193 126.977C164.677 128.268 164.516 129.56 164.516 130.69V131.174H164.031L149.02 129.398C144.016 126.654 139.012 124.072 134.008 121.489C131.425 120.198 128.842 118.906 126.26 117.938C125.937 117.938 125.453 117.615 125.13 117.454C124.807 117.131 124.646 116.969 124.323 116.646C123.839 116.001 123.516 115.517 123.193 114.871C122.386 113.58 121.74 112.45 121.094 111.158C118.35 106.154 115.445 101.312 111.571 97.115C107.858 92.9181 103.177 89.3669 98.1732 86.9457C103.339 89.3669 108.02 92.7567 111.894 96.7921C115.768 100.828 118.996 105.67 121.74 110.674C122.386 111.965 123.031 113.095 123.839 114.387C124.161 115.032 124.646 115.517 124.969 116.162C125.13 116.485 125.453 116.646 125.614 116.808C125.937 116.969 126.098 117.131 126.421 117.131C129.165 118.099 131.587 119.391 134.169 120.682C139.173 123.265 144.339 125.847 149.343 128.591H149.181L164.193 130.367L163.709 130.69C163.87 128.43 163.386 125.847 161.449 124.394C159.673 122.942 157.252 122.457 154.831 121.973C153.701 121.812 152.409 121.328 151.28 121.005L147.728 119.875C145.469 119.068 143.047 118.261 140.949 116.646C139.98 115.839 139.173 114.709 138.85 113.418C138.528 112.127 138.366 110.835 138.528 109.544C138.528 108.898 138.689 108.253 139.173 107.607C139.657 107.123 140.303 106.639 140.949 106.477C142.24 106.154 143.531 106.316 144.823 106.477C149.665 107.607 154.185 109.706 158.543 111.965C160.642 113.095 162.902 114.225 165 115.517L168.228 117.292L169.842 118.261L170.165 118.422L170.65 118.745C170.972 118.906 171.134 119.229 171.457 119.391C174.846 122.942 177.752 126.977 180.819 130.69C181.626 131.658 182.433 132.627 183.24 133.434C183.724 133.918 184.047 134.241 184.531 134.564C185.016 134.725 185.5 134.887 186.146 134.887C187.276 134.887 188.567 134.564 189.213 133.757C189.535 133.434 189.374 133.111 188.89 132.788C188.406 132.465 187.921 131.981 187.598 131.497C184.37 127.784 181.626 123.587 179.043 119.552V119.713L160.965 105.67Z" fill="white"/>
<path d="M138.85 109.706L162.579 115.678L165.807 116.808" fill="#CE9D13"/>
<path d="M138.85 109.706L162.579 115.678L165.807 116.808" stroke="white" stroke-width="0.5" stroke-miterlimit="10"/>
<path d="M137.075 139.568L136.752 143.28C150.957 160.391 144.177 162.328 152.571 163.619C160.965 164.91 186.63 188.316 193.248 194.611C199.705 200.906 218.268 207.202 218.268 207.202L226.5 185.572C226.5 185.572 196.799 172.174 195.346 169.107" fill="#CE9D13"/>
<path d="M137.075 139.568L136.752 143.28C150.957 160.391 144.177 162.328 152.571 163.619C160.965 164.91 186.63 188.316 193.248 194.611C199.705 200.906 218.268 207.202 218.268 207.202L226.5 185.572C226.5 185.572 196.799 172.174 195.346 169.107" stroke="white" stroke-width="0.5" stroke-miterlimit="10"/>
<path d="M151.925 157.485L136.59 140.213C136.59 140.213 131.748 127.784 129.488 125.524C127.228 123.265 132.716 122.135 134.815 124.072C136.913 126.009 143.37 141.02 145.468 142.473C147.567 143.926 170.811 166.202 173.878 157.969C176.945 149.576 168.39 147.154 162.902 143.765C159.835 141.828 150.957 140.698 153.539 131.981L168.067 136.662C168.067 136.662 185.016 150.706 188.567 152.32C192.118 154.095 191.957 174.272 210.035 187.832" fill="#CE9D13"/>
<path d="M151.925 157.485L136.59 140.213C136.59 140.213 131.748 127.784 129.488 125.524C127.228 123.265 132.716 122.135 134.815 124.072C136.913 126.009 143.37 141.02 145.468 142.473C147.567 143.926 170.811 166.202 173.878 157.969C176.945 149.576 168.39 147.154 162.902 143.765C159.835 141.828 150.957 140.698 153.539 131.981L168.067 136.662C168.067 136.662 185.016 150.706 188.567 152.32C192.118 154.095 191.957 174.272 210.035 187.832" stroke="white" stroke-width="0.5" stroke-miterlimit="10"/>
<path d="M174.362 157.808L152.409 147.477L149.342 145.702" fill="#CE9D13"/>
<path d="M174.362 157.808L152.409 147.477L149.342 145.702" stroke="white" stroke-width="0.5" stroke-miterlimit="10"/>
<path d="M1 1.39453V155.225H96.2362V1.39453H1V1.39453ZM90.1024 149.737H7.45669V7.52837H90.1024V149.737Z" fill="black" stroke="black" stroke-miterlimit="10"/>
<path d="M90.1023 7.36694H7.45667V149.576H90.1023V7.36694Z" fill="white" stroke="black" stroke-miterlimit="10"/>
</svg>
