<svg xmlns="http://www.w3.org/2000/svg" version="1.1" xmlns:xlink="http://www.w3.org/1999/xlink" width="381" height="370"><svg width="381" height="370" viewBox="0 0 381 370" fill="none" xmlns="http://www.w3.org/2000/svg">
<path fill-rule="evenodd" clip-rule="evenodd" d="M170 1.19099C146.392 5.08899 129.107 11.619 111.551 23.27C94.317 34.708 73.515 56.625 64.825 72.5C57.045 86.714 50.919 107.321 46.395 134.5C44.764 144.302 44.537 145.953 43.466 155.839L42.834 161.677L36.959 160.995L31.084 160.313L23.675 162.513C17.008 164.492 9 169.604 9 171.88C9 172.267 8.184 173.46 7.186 174.531C6.188 175.602 4.36099 179.563 3.12399 183.334L0.876999 190.19L0.893997 198.246C0.913997 207.222 3.247 215.646 8.028 224C14.129 234.663 28.176 246.5 34.727 246.5H38V244.013V241.525L33.822 238.888C27.622 234.974 18.876 225.557 15.733 219.411C10.809 209.783 9.44301 199.65 11.587 188.666C11.731 187.932 13.004 184.967 14.418 182.078L16.989 176.824L21.899 174.152C26.591 171.598 30.082 170.994 38.148 171.342L41.796 171.5L41.925 183.25C42.371 224.141 49.806 257.888 65.019 288.076C80.648 319.09 103.269 343.14 129.607 356.743C140.28 362.255 154.276 367.059 164.106 368.584C171.172 369.681 193.178 369.361 200 368.062C205.466 367.022 214.154 364.461 218 362.757C219.925 361.904 221.95 361.102 222.5 360.975C225.676 360.24 231 357.442 231 356.507C231 355.905 231.583 355.545 232.295 355.706C234.622 356.234 246.709 348.386 255.698 340.51C268.109 329.636 280.5 316.059 280.5 313.332C280.5 312.834 280.953 312.106 281.506 311.714C284.842 309.347 298 286.456 298 283.02C298 282.184 298.401 281.5 298.892 281.5C299.873 281.5 301.447 276.731 301.119 274.75C301.005 274.063 301.382 273.5 301.956 273.5C302.53 273.5 303 272.839 303 272.031C303 271.223 303.902 268.83 305.005 266.714C306.108 264.598 307.55 260.597 308.209 257.824L309.407 252.781L313.938 250.39C320.835 246.752 332.905 237.448 338.565 231.406C350.78 218.368 357.001 199.702 354.197 184.502L353.183 179.005L354.335 178.293C355.005 177.879 355.789 178.401 356.211 179.541C358.151 184.786 369.313 178.451 374.677 169.061C377.136 164.755 378.838 160.896 379.554 158C380.739 153.21 380.916 146.104 379.881 144.857C379.358 144.226 379.038 143.326 379.171 142.855C379.303 142.385 378.68 140.63 377.786 138.956L376.161 135.911L365.331 131.546C359.374 129.145 352.7 126.398 350.5 125.442C337.55 119.813 317.093 111.74 316.721 112.112C316.481 112.352 315.716 111.862 315.02 111.024C314.324 110.186 313.364 109.5 312.887 109.5C312.409 109.5 299.526 104.27 284.259 97.879C268.992 91.487 254.791 85.649 252.702 84.906L248.905 83.555L235.702 84.516C228.441 85.044 218.9 85.727 214.5 86.032C204.499 86.726 202 87.872 202 91.766V94.695L211.75 104.751C217.113 110.281 223.975 117.326 227 120.405L232.5 126.004L248 133.671C256.525 137.888 267.775 143.436 273 145.999C286.148 152.451 288.698 154.161 289.411 157.002C290.092 159.713 294.201 161.367 296.263 159.758C296.943 159.228 301.008 158.21 305.295 157.498L313.09 156.202L318.795 157.469C321.933 158.166 326.156 159.576 328.18 160.603C332.087 162.585 339.339 171.358 342.56 178L344.5 182L344.687 190.633C345.062 207.914 337.913 220.207 321 231.366C317.975 233.361 315.275 235.233 315 235.525C314.725 235.817 312.585 236.9 310.244 237.932C307.904 238.964 305.486 240.414 304.872 241.154C304.258 241.895 302.945 242.5 301.955 242.5C300.111 242.5 299.882 243.022 296.467 255C295.526 258.3 293.403 264.375 291.749 268.5C290.095 272.625 288.218 277.35 287.578 279C286.938 280.65 285.083 284.403 283.457 287.34C260.667 328.492 227.8 353.795 191 358.52C171.14 361.071 151.839 357.529 132.511 347.787C123.031 343.009 121.897 342.248 111.216 333.5C82.343 309.853 61.688 271.761 53.533 227.123C50.861 212.499 50.638 209.251 50.769 187L50.898 165L52.911 154.041L54.924 143.082L60.444 135.041C67.281 125.081 70.345 121.229 75.665 115.907C77.956 113.615 81.444 109.626 83.415 107.043L87 102.347L87.001 97.173C87.004 88.874 90.8 69.561 92.871 67.319C93.217 66.944 96.2 66.363 99.5 66.028C102.8 65.693 106.532 65.198 107.794 64.929C119.408 62.451 148.477 61 186.5 61C208.281 61 233.313 62.007 234.958 62.95C235.256 63.12 238.425 63.552 242 63.909C251.851 64.892 254.815 65.572 256.122 67.147L257.315 68.585L256.158 69.742C255.521 70.379 255 71.659 255 72.586C255 73.513 254.348 75.528 253.551 77.064C251.763 80.51 252.075 81.045 256.764 82.568C260.438 83.761 294.635 97.393 300.5 100.002C306.974 102.881 313.277 105.5 313.736 105.5C315.775 105.5 301.004 74.86 293.793 64.134C281.815 46.315 263.885 27.882 248.968 18.05C240.767 12.645 229.299 6.83799 224.313 5.56599C222.216 5.03099 216.9 3.651 212.5 2.5L204.5 0.408004L191.5 0.0980061C183.543 -0.0919939 175.203 0.331993 170 1.19099ZM234.491 95.473C235.142 97.524 232.029 105.746 230.166 106.898C229.531 107.29 230.869 109.448 233.489 112.261L237.873 116.968L240.532 114.484C241.994 113.118 243.76 110.875 244.456 109.5C246.34 105.779 247.134 98.983 246.026 96.068L245.05 93.5H239.457H233.865L234.491 95.473ZM255.753 99.352C255.133 101.743 255.944 103.5 257.667 103.5C258.492 103.5 258.979 104.063 258.75 104.75C258.521 105.438 257.696 106 256.917 106C255.138 106 252.877 113.163 253.665 116.301L254.253 118.646L252.42 118.323L250.586 118L250.353 120.75L250.12 123.5H251.937C252.937 123.5 254.315 124.175 255 125C255.685 125.825 256.865 126.5 257.622 126.5C258.38 126.5 259 126.898 259 127.383C259 128.669 263.867 129.399 264.275 128.175C264.465 127.606 265.373 127.429 266.293 127.782C267.291 128.165 267.728 129.045 267.376 129.962L266.786 131.5H268.893C270.052 131.5 271 131.882 271 132.348C271 133.698 278.755 136.377 280.98 135.795C282.375 135.43 283 135.754 283 136.841C283 138.696 295.108 144.943 295.978 143.536C296.718 142.339 298.463 143.504 299.292 145.75C300.169 148.129 303.066 147.965 303.71 145.5C304.278 143.327 306.594 142.781 307.224 144.671C307.893 146.678 311.809 146.34 312.361 144.227C312.888 142.211 315 142.711 315 144.852C315 146.525 322.378 148.428 324.424 147.283L326.02 146.389L326.633 147.987C326.971 148.866 328.909 150.433 330.94 151.47C332.972 152.506 335.238 154.082 335.976 154.971C336.896 156.08 338.182 156.399 340.064 155.986C343.173 155.303 344.867 156.915 342.458 158.264L340.874 159.15L342.32 160.351L343.766 161.551L344.352 160.026C344.674 159.186 345.401 158.5 345.969 158.5C347.311 158.5 347.31 162.191 345.967 163.02C344.969 163.637 347.894 169.426 350.623 172.232C351.282 172.91 351.983 173.948 352.18 174.539C352.725 176.176 355.735 174.621 356.315 172.402C356.597 171.324 357.204 170.557 357.664 170.697C358.794 171.04 364 166.059 364 164.635C364 164.011 364.378 163.5 364.839 163.5C365.537 163.5 368 159.25 368 158.047C368 157.849 367.1 157.923 366 158.21L364 158.733V157.008V155.283L366.621 155.941L369.242 156.599L368.639 154.198C368.308 152.877 368.34 151.494 368.711 151.123C369.081 150.752 369.51 149.626 369.664 148.622C370.011 146.348 365.256 143.844 363.648 145.452C361.789 147.311 359.855 146.639 360.187 144.25L360.5 142L358.671 142.312C357.665 142.484 356.037 141.696 355.054 140.562C352.786 137.947 351 137.92 351 140.5C351 141.6 350.577 142.5 350.059 142.5C348.427 142.5 347.782 140.468 348.962 139.045C349.681 138.18 349.738 137.456 349.118 137.073C348.579 136.74 347.856 136.925 347.51 137.484C346.576 138.994 344 138.714 344 137.101C344 136.331 342.186 134.756 339.969 133.601C335.164 131.096 335 131.076 335 133C335 133.825 334.273 134.5 333.383 134.5C332.259 134.5 331.926 133.891 332.29 132.5L332.813 130.5H330.956C329.935 130.5 328.74 129.897 328.3 129.161C327.156 127.247 321.186 125.415 318.381 126.119L316 126.717V125.129C316 124.255 314.13 122.587 311.845 121.421L307.691 119.302L306.819 120.859C306.338 121.719 305.267 122.156 304.43 121.835L302.914 121.253L304.707 119.224L306.5 117.195L303.34 117.804L300.181 118.414L299.634 116.989C299.333 116.205 297.413 114.864 295.367 114.009L291.646 112.454L290.935 113.605C290.047 115.041 288 113.88 288 111.941C288 111.148 287.155 110.5 286.122 110.5C285.09 110.5 283.685 109.825 283 109C282.315 108.175 281.135 107.5 280.378 107.5C279.62 107.5 279 108.175 279 109C279 109.825 278.273 110.5 277.383 110.5H275.767L276.255 107.947L276.743 105.395L274.621 105.697C273.455 105.864 272.051 107.024 271.502 108.276C270.45 110.674 267.969 110.911 267.228 108.684C266.986 107.959 267.734 107.121 268.895 106.817C272.138 105.969 271.394 103.563 267.368 101.881L263.737 100.363L262.668 101.432C261.044 103.056 260.172 102.722 259.82 100.341C259.437 97.758 256.36 97.01 255.753 99.352ZM263.646 103.98C263.36 104.725 263.81 105.597 264.645 105.917C266.794 106.742 267 106.671 267 105.107C267 103.208 264.292 102.298 263.646 103.98ZM259.446 107.587C258.573 108.999 260.501 110.927 261.913 110.054C263.499 109.074 263.243 106.5 261.559 106.5C260.766 106.5 259.816 106.989 259.446 107.587ZM271.533 111.447C270.653 112.87 271.775 114.5 273.632 114.5C274.508 114.5 275.01 113.797 274.823 112.833C274.434 110.824 272.437 109.984 271.533 111.447ZM279.624 112.038C279.284 112.923 279.681 113.824 280.56 114.161C282.517 114.912 283.409 114.009 282.655 112.043C281.896 110.065 280.382 110.062 279.624 112.038ZM256 113.083C256 113.954 256.534 114.489 257.188 114.271C259.042 113.653 259.349 111.5 257.583 111.5C256.712 111.5 256 112.213 256 113.083ZM263.543 112.431C263.226 112.943 263.425 113.644 263.984 113.99C265.177 114.727 267 113.791 267 112.441C267 111.224 264.293 111.216 263.543 112.431ZM260.122 115.853C258.906 117.318 259.596 118.5 261.667 118.5C263.156 118.5 263.492 115.922 262.113 115.07C261.626 114.769 260.73 115.121 260.122 115.853ZM268.122 115.853C266.906 117.318 267.596 118.5 269.667 118.5C271.156 118.5 271.492 115.922 270.113 115.07C269.626 114.769 268.73 115.121 268.122 115.853ZM275.533 115.447C274.653 116.87 275.775 118.5 277.632 118.5C278.508 118.5 279.01 117.797 278.823 116.833C278.434 114.824 276.437 113.984 275.533 115.447ZM283.756 115.077C282.744 116.09 284.098 118.5 285.68 118.5C286.512 118.5 287.007 117.778 286.823 116.833C286.476 115.043 284.768 114.065 283.756 115.077ZM292.5 115.5C292.101 116.146 292.224 117.124 292.774 117.674C293.441 118.341 294.016 118.283 294.5 117.5C294.899 116.854 294.776 115.876 294.226 115.326C293.559 114.659 292.984 114.717 292.5 115.5ZM256.109 119.869L254.903 121.322L256.039 122.024C257.669 123.032 259.693 120.793 258.358 119.458C257.634 118.734 256.946 118.86 256.109 119.869ZM272.4 119.9C272.034 120.854 272.229 122.129 272.834 122.734L273.934 123.834L274.6 122.1C274.966 121.146 274.771 119.871 274.166 119.266L273.066 118.166L272.4 119.9ZM280.122 119.853C278.906 121.318 279.596 122.5 281.667 122.5C283.156 122.5 283.492 119.922 282.113 119.07C281.626 118.769 280.73 119.121 280.122 119.853ZM288.51 119.484C287.773 120.677 288.709 122.5 290.059 122.5C291.276 122.5 291.284 119.793 290.069 119.043C289.557 118.726 288.856 118.925 288.51 119.484ZM295.446 119.587C295.077 120.185 295.275 121.175 295.887 121.787L297 122.9L298.113 121.787C299.267 120.633 298.545 118.5 297 118.5C296.515 118.5 295.816 118.989 295.446 119.587ZM264 121C264 121.825 264.675 122.5 265.5 122.5C266.325 122.5 267 121.825 267 121C267 120.175 266.325 119.5 265.5 119.5C264.675 119.5 264 120.175 264 121ZM268.154 123.938C268.345 124.855 268.95 125.582 269.5 125.553C270.984 125.474 270.712 123.237 269.154 122.718C268.313 122.438 267.939 122.895 268.154 123.938ZM284 124.417C284 125.645 284.646 126.5 285.573 126.5C286.505 126.5 287.015 125.82 286.823 124.833C286.337 122.324 284 121.98 284 124.417ZM292.074 123.454C290.496 124.43 291.505 126.5 293.559 126.5C295.079 126.5 295.562 123.965 294.202 123.125C293.763 122.854 292.806 123.002 292.074 123.454ZM300.088 123.894L298.949 125.266L300.556 125.883C302.81 126.748 303 126.684 303 125.059C303 122.952 301.401 122.312 300.088 123.894ZM308.658 123.175C308.296 123.537 308 124.433 308 125.167C308 126.656 310.578 126.992 311.43 125.613C312.111 124.512 309.562 122.271 308.658 123.175ZM260 124.917C260 125.788 260.712 126.5 261.583 126.5C263.349 126.5 263.042 124.347 261.188 123.729C260.534 123.511 260 124.046 260 124.917ZM275.694 124.139C274.761 125.073 275.888 126.5 277.559 126.5C278.352 126.5 279 125.825 279 125C279 123.494 276.889 122.944 275.694 124.139ZM272.109 127.869L270.903 129.322L272.039 130.024C273.669 131.032 275.693 128.793 274.358 127.458C273.634 126.734 272.946 126.86 272.109 127.869ZM279.931 128.084C279.262 128.889 278.97 129.804 279.282 130.115C280.054 130.887 284 129.569 284 128.54C284 126.952 281.136 126.632 279.931 128.084ZM287.473 127.544C286.536 129.06 289.076 131.824 290.29 130.61C291.412 129.488 290.539 126.5 289.09 126.5C288.556 126.5 287.828 126.97 287.473 127.544ZM296.639 127.194C295.444 128.389 295.994 130.5 297.5 130.5C298.325 130.5 299 129.852 299 129.059C299 127.388 297.573 126.261 296.639 127.194ZM312.639 127.194C311.444 128.389 311.994 130.5 313.5 130.5C314.325 130.5 315 129.852 315 129.059C315 127.388 313.573 126.261 312.639 127.194ZM304 129C304 129.825 304.675 130.5 305.5 130.5C306.325 130.5 307 129.825 307 129C307 128.175 306.325 127.5 305.5 127.5C304.675 127.5 304 128.175 304 129ZM320 129C320.685 129.825 321.64 130.5 322.122 130.5C322.605 130.5 323 129.825 323 129C323 128.138 322.098 127.5 320.878 127.5H318.755L320 129ZM284.074 131.454C282.496 132.43 283.505 134.5 285.559 134.5C287.079 134.5 287.562 131.965 286.202 131.125C285.763 130.854 284.806 131.002 284.074 131.454ZM292.224 131.676L291.048 132.852L292.156 134.189L293.265 135.525L294.573 134.439C295.293 133.842 295.635 132.712 295.334 131.927C294.668 130.192 293.78 130.12 292.224 131.676ZM308.131 131.842C306.907 133.316 307.591 134.5 309.667 134.5C310.4 134.5 311 133.6 311 132.5C311 130.193 309.74 129.904 308.131 131.842ZM276 133C276 133.825 276.675 134.5 277.5 134.5C278.325 134.5 279 133.825 279 133C279 132.175 278.325 131.5 277.5 131.5C276.675 131.5 276 132.175 276 133ZM300 133C300 133.825 300.675 134.5 301.5 134.5C302.325 134.5 303 133.825 303 133C303 132.175 302.325 131.5 301.5 131.5C300.675 131.5 300 132.175 300 133ZM316 133C316 133.825 316.675 134.5 317.5 134.5C318.325 134.5 319 133.825 319 133C319 132.175 318.325 131.5 317.5 131.5C316.675 131.5 316 132.175 316 133ZM324 131.878C324 132.085 324.675 132.815 325.5 133.5L327 134.745V133.122C327 132.23 326.325 131.5 325.5 131.5C324.675 131.5 324 131.67 324 131.878ZM106.825 136.402C102.054 137.353 97.442 138.718 96.575 139.438C94.622 141.058 94.542 143.875 96.404 145.421L97.809 146.586L106.128 145.543C124.848 143.196 134.72 144.86 142.454 151.668C146.993 155.664 148.828 156.198 152.066 154.465C155.057 152.864 154.376 150.072 150.036 146.151C144.147 140.831 137.357 137.805 127.402 136.064C116.905 134.227 117.82 134.212 106.825 136.402ZM209.5 135.627C197.011 136.773 182.461 142.341 179.283 147.19L177.638 149.702L178.676 151.351C180.327 153.973 182.767 153.878 189.326 150.934C192.697 149.421 198.612 147.372 202.469 146.379L209.483 144.575L216.992 145.15C228.432 146.026 232.849 145.87 234.459 144.534L235.926 143.317L234.382 140.96C231.388 136.391 222.331 134.45 209.5 135.627ZM288.51 135.484C287.773 136.677 288.709 138.5 290.059 138.5C291.276 138.5 291.284 135.793 290.069 135.043C289.557 134.726 288.856 134.925 288.51 135.484ZM295.992 135.505L294.5 136.428L296.213 138.141L297.927 139.855L298.596 138.11C299.466 135.842 297.931 134.307 295.992 135.505ZM312.639 135.194C311.444 136.389 311.994 138.5 313.5 138.5C314.325 138.5 315 137.852 315 137.059C315 135.388 313.573 134.261 312.639 135.194ZM320.154 135.938C320.345 136.855 320.95 137.582 321.5 137.553C322.984 137.474 322.712 135.237 321.154 134.718C320.313 134.438 319.939 134.895 320.154 135.938ZM328.667 135.167C327.449 136.385 327.978 138.5 329.5 138.5C330.333 138.5 331 137.611 331 136.5C331 134.508 329.934 133.899 328.667 135.167ZM304 137C304 137.825 304.675 138.5 305.5 138.5C306.325 138.5 307 137.825 307 137C307 136.175 306.325 135.5 305.5 135.5C304.675 135.5 304 136.175 304 137ZM336 137C336 137.825 336.675 138.5 337.5 138.5C338.325 138.5 339 137.825 339 137C339 136.175 338.325 135.5 337.5 135.5C336.675 135.5 336 136.175 336 137ZM308 140.417C308 141.645 308.646 142.5 309.573 142.5C310.505 142.5 311.015 141.82 310.823 140.833C310.337 138.324 308 137.98 308 140.417ZM315.624 140.038C315.284 140.923 315.681 141.824 316.56 142.161C318.517 142.912 319.409 142.009 318.655 140.043C317.896 138.065 316.382 138.062 315.624 140.038ZM324.345 140.043C324.019 140.892 324.023 141.856 324.352 142.186C325.217 143.05 328.083 140.444 327.43 139.387C326.576 138.006 324.998 138.342 324.345 140.043ZM332.667 139.167C331.516 140.317 331.938 141.5 333.5 141.5C334.325 141.5 335 140.825 335 140C335 138.438 333.817 138.016 332.667 139.167ZM340.639 139.194C339.444 140.389 339.994 142.5 341.5 142.5C342.325 142.5 343 141.852 343 141.059C343 139.388 341.573 138.261 340.639 139.194ZM292 141.083C292 141.954 292.534 142.489 293.188 142.271C295.042 141.653 295.349 139.5 293.583 139.5C292.712 139.5 292 140.212 292 141.083ZM300.192 140.575C300.389 141.166 300.978 141.65 301.5 141.65C302.022 141.65 302.611 141.166 302.808 140.575C303.005 139.984 302.417 139.5 301.5 139.5C300.583 139.5 299.995 139.984 300.192 140.575ZM328.639 143.194C327.444 144.389 327.994 146.5 329.5 146.5C330.325 146.5 331 145.852 331 145.059C331 143.388 329.573 142.261 328.639 143.194ZM336.639 143.194C335.444 144.389 335.994 146.5 337.5 146.5C338.325 146.5 339 145.852 339 145.059C339 143.388 337.573 142.261 336.639 143.194ZM320.667 144.167C319.516 145.317 319.938 146.5 321.5 146.5C322.325 146.5 323 145.825 323 145C323 143.438 321.817 143.016 320.667 144.167ZM344 145C344 145.825 344.675 146.5 345.5 146.5C346.325 146.5 347 145.825 347 145C347 144.175 346.325 143.5 345.5 143.5C344.675 143.5 344 144.175 344 145ZM352 145C352 146.03 352.655 146.52 353.75 146.31C355.858 145.904 355.725 144.129 353.553 143.677C352.647 143.488 352 144.039 352 145ZM348.339 148.06C347.588 150.017 348.491 150.909 350.457 150.155C352.435 149.396 352.438 147.882 350.462 147.124C349.577 146.784 348.676 147.181 348.339 148.06ZM356.688 147.146C355.314 148.52 356.026 150.642 357.75 150.31C358.712 150.124 359.5 149.341 359.5 148.57C359.5 146.991 357.736 146.098 356.688 147.146ZM364.674 147.908C364.111 149.374 364.759 150.5 366.167 150.5C367.283 150.5 367.234 147.763 366.105 147.065C365.612 146.76 364.968 147.14 364.674 147.908ZM332.667 148.167C331.516 149.317 331.938 150.5 333.5 150.5C334.325 150.5 335 149.825 335 149C335 147.438 333.817 147.016 332.667 148.167ZM340 149.083C340 149.954 340.534 150.489 341.188 150.271C343.042 149.653 343.349 147.5 341.583 147.5C340.712 147.5 340 148.212 340 149.083ZM336.409 151.876C335.562 154.084 336.689 155.211 338.217 153.683L339.4 152.5L338.233 151.333L337.066 150.166L336.409 151.876ZM344.639 151.194C343.444 152.389 343.994 154.5 345.5 154.5C346.325 154.5 347 153.852 347 153.059C347 151.388 345.573 150.261 344.639 151.194ZM352.345 152.043C351.591 154.009 352.483 154.912 354.44 154.161C355.319 153.824 355.716 152.923 355.376 152.038C354.618 150.062 353.104 150.065 352.345 152.043ZM360 153.083C360 154.849 362.153 154.542 362.771 152.688C362.989 152.034 362.454 151.5 361.583 151.5C360.712 151.5 360 152.212 360 153.083ZM348.639 155.194C347.444 156.389 347.994 158.5 349.5 158.5C350.325 158.5 351 157.852 351 157.059C351 155.388 349.573 154.261 348.639 155.194ZM356 157C356 158.03 356.655 158.52 357.75 158.31C359.858 157.904 359.725 156.129 357.553 155.677C356.647 155.488 356 156.039 356 157ZM352.12 159.855L350.975 161.235L352.355 162.38L353.735 163.525L354.88 162.145L356.025 160.765L354.645 159.62L353.265 158.475L352.12 159.855ZM360 161C360 161.825 360.395 162.5 360.878 162.5C361.36 162.5 362.315 161.825 363 161L364.245 159.5H362.122C360.902 159.5 360 160.138 360 161ZM348 165.083C348 165.954 348.534 166.489 349.188 166.271C351.042 165.653 351.349 163.5 349.583 163.5C348.712 163.5 348 164.212 348 165.083ZM356 164.833C356 166.909 357.184 167.593 358.658 166.369C360.596 164.76 360.307 163.5 358 163.5C356.9 163.5 356 164.1 356 164.833ZM352.379 167.955C351.482 170.292 353.36 171.977 354.855 170.175L356.025 168.765L354.524 167.52L353.024 166.275L352.379 167.955ZM209.878 170.465C202.857 172.637 195.651 177.559 192.483 182.346C191.135 184.383 189.307 188.985 188.422 192.572L186.813 199.092L187.914 203.18C189.183 207.895 190.812 209.546 194.607 209.962L197.309 210.259L201.598 205.845L205.888 201.432L206.555 196.982C207.251 192.342 206.846 187.247 205.542 184.242L204.78 182.485L209.533 180.383L214.285 178.28L219.91 178.687C223.452 178.943 228.071 180.28 232.38 182.297C239.243 185.509 243.391 186.295 244.448 184.584C245.588 182.739 242.968 178.489 238.851 175.507C231.026 169.838 218.787 167.708 209.878 170.465ZM115.5 171.925C109.283 173.851 105.663 176.034 100.718 180.84C94.99 186.407 91.987 192.228 91.272 199.149L90.716 204.543L92.458 208.407C93.416 210.532 95.313 212.777 96.674 213.397L99.147 214.524L102.55 212.909L105.954 211.294L108.727 205.647L111.5 200L111.62 192L111.741 184L114.62 182.5C116.379 181.584 120.224 181 124.5 181H131.5L136.685 183.25C142.419 185.738 146.005 186.095 147.749 184.351L148.898 183.202L147.5 180.5C145.913 177.43 143.32 175.571 137.362 173.231C131.808 171.05 120.505 170.374 115.5 171.925ZM292.095 212.75C291.249 214.979 292.034 222.351 293.483 225.778C293.897 226.756 295.035 227.984 296.013 228.507L297.79 229.458L299.145 227.825C300.709 225.94 300.579 215.45 298.953 212.413C297.498 209.693 293.177 209.905 292.095 212.75ZM152.106 221.866C143.373 232.842 141.532 239.389 144.84 247.705C148.022 255.705 163.833 262.524 168.463 257.894L170.069 256.288L168.965 254.958C168.358 254.227 166.43 253.32 164.681 252.942C156.629 251.205 150 245.634 150 240.604C150 239.159 151.536 235.732 153.412 232.989C155.289 230.245 158.052 226.013 159.552 223.583L162.28 219.167L161.283 217.583C159.31 214.451 157.237 215.418 152.106 221.866ZM288.25 234.531L286 235.436V240.921C286 249.035 289.337 254.563 292.391 251.509C293.864 250.036 294.183 239.573 292.856 236.25C291.657 233.249 291.544 233.207 288.25 234.531ZM68.63 256.75C66.854 263.377 68.875 269.529 72.386 268.182C73.99 267.567 74.991 258.232 73.7 255.928C72.457 253.708 69.309 254.219 68.63 256.75ZM276.115 262.75C275.656 263.988 275.05 267.114 274.769 269.697L274.258 274.394L276.245 277.663L278.233 280.931L280.048 278.69C282.065 276.198 283.573 266.918 282.594 263.018L281.962 260.5H279.456C277.772 260.5 276.677 261.237 276.115 262.75ZM79.063 274.924L77.798 276.449L78.498 282.479L79.198 288.51L81.734 290.505C83.128 291.602 84.639 292.5 85.09 292.5C86.498 292.5 87.093 286.258 86.279 280L85.5 274L82.914 273.699C81.491 273.534 79.76 274.084 79.063 274.924ZM196 279.378C196 283.029 197.358 284.121 204.028 285.828C212.237 287.929 214.829 286.556 211.535 281.853C209.539 279.003 203.957 276.5 199.599 276.5H196V279.378ZM156.393 281.56C154.134 282.6 151.745 284.102 151.085 284.897L149.885 286.343L151.183 288.422C152.875 291.13 154.994 291.043 160.959 288.021C171.375 282.743 167.065 276.645 156.393 281.56ZM181.379 280.954C180.111 284.259 181.854 287.14 185.844 288.335C190.946 289.864 192.115 289.808 194.825 287.91L197.095 286.32L195.871 284.844C194.144 282.763 190.139 280.883 185.737 280.086L181.974 279.404L181.379 280.954ZM139.373 282.418C134.61 284.581 133.635 285.774 134.474 288.417C135.412 291.373 137.795 291.684 142.74 289.497C147.632 287.333 149.917 285.041 149.968 282.25L150 280.5L146.75 280.522C144.962 280.534 141.643 281.387 139.373 282.418ZM262 284.793L259.5 286.057L258.784 292.52C257.914 300.379 258.903 305 261.456 305C264.598 305 266.983 300.486 267.657 293.265L268.285 286.548L267.02 285.024C265.499 283.191 265.197 283.177 262 284.793ZM95.827 294.208C94.693 295.575 95.348 302.514 97.177 308.5C98.49 312.797 101.729 316.5 104.174 316.5H106V313.914C106 311.236 103.449 300.017 101.772 295.319C100.748 292.451 97.751 291.891 95.827 294.208ZM185.5 299.743C183.674 300.867 172.723 301.114 162 300.274L158.5 300L158.199 302.586C158.034 304.008 158.484 305.616 159.199 306.161C163.296 309.277 176.886 310.492 184.378 308.412C188.928 307.149 193.276 303.185 192.81 300.727C192.409 298.608 188.254 298.05 185.5 299.743ZM242.991 308.01C240.391 311.143 238.571 324.899 240.54 326.533C243.764 329.209 250.235 316.463 249.208 309.463L248.773 306.5H246.509C245.264 306.5 243.681 307.18 242.991 308.01ZM118.835 312.179C116.178 312.873 115.83 315.404 117.57 321.389C120.441 331.265 124.496 336.398 128.279 334.946C130.252 334.189 129.904 332.268 125.761 321.039C122.468 312.114 121.894 311.38 118.835 312.179ZM224.323 322.295C221.6 322.701 220.846 323.739 218.667 330.081L216.921 335.162L217.899 337.734C218.437 339.148 219.289 340.561 219.793 340.872C221.151 341.711 224.466 337.593 226.348 332.73C229.096 325.626 228.334 321.697 224.323 322.295ZM142 326.326C142 326.972 141.373 327.5 140.607 327.5C137.774 327.5 137.94 330.937 141.081 337.316C142.822 340.853 145.091 344.591 146.123 345.623C148.446 347.946 154 348.184 154 345.96C154 344.111 150.413 336.873 149.091 336.056C148.576 335.738 147.871 334.189 147.525 332.614C146.889 329.72 142 324.155 142 326.326ZM197.834 333.69C193.432 341.51 192.41 350.137 195.753 351.251C197.721 351.907 201.375 347.121 203.357 341.29C205.686 334.438 205.308 332.096 201.809 331.69L199.135 331.38L197.834 333.69ZM167.621 339.021C166.73 339.913 166 340.815 166 341.024C166 341.986 168.584 347.267 170.269 349.75L172.136 352.5H175.568H179L178.961 350.75C178.903 348.135 172.594 338.045 170.801 337.7C169.944 337.535 168.513 338.13 167.621 339.021Z" fill="black"></path>
</svg><style>@media (prefers-color-scheme: light) { :root { filter: none; } }
@media (prefers-color-scheme: dark) { :root { filter: none; } }
</style></svg>