<svg width="297" height="476" viewBox="0 0 297 476" fill="none" xmlns="http://www.w3.org/2000/svg">
<path d="M221.237 164.888C218.927 164.118 205.327 153.358 204.297 148.488C203.267 143.618 211.487 98.248 211.487 98.248C211.487 98.248 210.727 98.248 209.487 98.098V97.368L211.177 37.768C211.177 37.768 218.107 -2.23202 205.017 0.097978C191.927 2.42798 200.137 37.768 200.137 37.768C200.137 37.768 198.647 55.708 197.597 61.088C196.597 66.278 192.017 87.418 195.137 93.988C195.252 94.2214 195.379 94.4484 195.517 94.668V94.668C195.517 94.668 196.037 117.218 190.387 120.298C184.997 123.228 182.757 137.978 182.567 139.298L182.277 139.178C180.668 138.171 179.255 136.88 178.107 135.368C177.987 135.218 177.897 135.058 177.787 134.898C181.467 130.759 183.45 125.384 183.34 119.847C183.231 114.311 181.037 109.019 177.197 105.028C175.412 103.174 173.317 101.644 171.007 100.508C170.94 98.5972 170.488 96.7197 169.677 94.988C167.077 89.428 152.677 82.158 142.447 81.988C137.727 81.848 133.857 83.188 132.447 86.878C131.727 88.748 131.947 90.878 131.647 92.818C131.047 96.818 128.477 99.948 125.177 102.438C123.845 100.95 122.404 99.5633 120.867 98.288C117.527 95.728 110.867 87.288 110.867 87.288C110.867 87.288 90.0774 65.758 88.5374 59.858C86.9974 53.958 66.2275 18.528 61.6075 24.698C56.9875 30.868 77.5175 57.758 77.5175 57.758C77.5175 57.758 81.4174 67.528 84.4174 70.828C87.4174 74.128 110.417 107.528 110.417 107.528L111.517 109.808C106.657 112.368 102.217 115.628 100.647 120.708C98.3475 128.188 103.377 135.708 106.857 142.708C113.637 156.368 114.607 173.788 105.857 186.268C98.0175 197.288 84.4175 202.528 71.6875 207.108C77.8354 211.936 85.473 214.471 93.2874 214.278C90.3474 222.798 79.9275 225.618 71.0475 227.198C75.7075 231.678 82.3774 233.308 88.7774 234.298C91.9119 234.832 95.0881 235.083 98.2675 235.048H99.0475L99.8275 234.988C100.911 234.916 101.99 234.779 103.057 234.578C107.677 233.638 112.167 231.118 114.527 227.038C116.527 223.548 117.227 218.788 120.857 217.038C121.803 216.611 122.821 216.37 123.857 216.328H123.747C124.427 216.328 125.127 216.328 125.807 216.328L140.937 216.478C141.567 216.478 142.217 216.478 142.867 216.478C147.137 216.378 151.697 215.638 153.867 212.108C154.76 210.394 155.23 208.491 155.237 206.558C155.557 201.768 155.237 196.838 155.367 192.008C156.657 200.798 158.007 214.498 154.797 219.558C152.19 223.392 149.029 226.819 145.417 229.728C144.509 230.491 143.678 231.342 142.937 232.268C142.447 232.618 142.157 232.808 142.157 232.808L141.847 233.738C140.708 235.467 139.882 237.383 139.407 239.398C139.233 239.916 139.168 240.464 139.217 241.008C139.567 241.718 136.717 244.648 137.547 245.878C130.427 254.228 129.077 266.878 129.077 266.878L116.077 286.618C109.397 304.168 99.3975 305.968 99.3975 305.968C99.3975 305.968 75.9075 290.208 75.2675 289.438C74.6275 288.668 65.6474 284.818 65.6474 284.818C64.5887 282.961 62.9723 281.485 61.0275 280.598C57.9475 279.318 57.6875 274.598 57.6875 274.598C57.3075 263.448 50.7574 262.598 50.7574 262.598C45.4774 262.148 41.4474 263.088 38.3474 264.808L37.4075 264.878C32.8675 265.248 27.4075 265.658 21.4075 266.058C4.71745 267.158 0.74745 277.968 0.74745 277.968C0.74745 277.968 -1.30255 280.278 1.38745 282.778C4.07745 285.278 21.2974 282.778 22.0274 282.718C20.7151 282.86 19.3879 282.769 18.1075 282.448C20.8175 282.348 24.5474 282.248 27.7274 282.248H28.4974C28.2973 283.934 28.2004 285.63 28.2074 287.328C28.2074 290.528 37.0574 292.578 37.0574 292.578L64.0074 316.578C64.0074 316.578 80.9474 324.148 91.7274 335.038C102.507 345.928 112.037 336.528 112.037 336.528C123.447 333.708 156.277 294.018 156.307 293.978C156.307 295.138 156.997 333.738 158.307 341.488C158.36 341.881 158.457 342.267 158.597 342.638C160.137 345.968 158.077 355.068 157.187 358.908C156.62 362.122 156.402 365.387 156.537 368.648C156.537 368.648 144.227 415.648 145.247 419.778C146.267 423.908 138.577 443.098 138.577 443.098V459.098L139.917 459.028C139.743 459.286 139.583 459.553 139.437 459.828L139.347 459.998C139.347 459.998 147.557 461.788 153.077 461.278C158.597 460.768 168.077 465.528 168.077 465.528C168.077 465.528 171.287 467.048 181.167 467.688C191.047 468.328 191.047 463.328 191.047 463.328C189.917 456.518 174.307 454.238 173.827 454.168C172.567 453.378 171.387 452.518 170.417 451.778L170.217 451.618C170.283 451.468 170.34 451.314 170.387 451.158C172.057 444.358 162.817 441.408 162.817 441.408V439.748C168.817 436.668 170.007 415.528 170.007 415.528C170.007 415.528 179.007 389.388 180.267 385.028C181.527 380.668 180.267 374.138 180.267 374.138L181.167 368.498C181.167 368.498 183.097 364.658 183.097 363.888C183.347 361.936 184.098 360.083 185.277 358.508C186.687 356.838 183.737 352.868 183.737 352.868L186.307 346.208V338.898L192.307 312.378C192.307 312.378 198.597 281.488 196.417 271.378C194.237 261.268 198.987 256.128 198.987 256.128C198.559 256.353 198.119 256.553 197.667 256.728C198.268 255.34 198.786 253.917 199.217 252.468L212.717 254.138V254.338H217.587C217.587 254.338 216.047 235.338 216.047 227.678C216.047 220.018 221.237 192.528 221.237 192.528C221.237 192.528 223.547 165.658 221.237 164.888ZM161.307 142.708C161.307 143.458 161.237 144.238 161.187 145.038L160.917 145.448L160.417 145.028L159.807 145.978L159.627 146.068C158.307 145.388 157.627 141.498 156.677 142.338L156.547 142.448C156.337 142.208 156.127 142.138 155.907 142.338L155.707 142.508C155.707 142.218 155.707 141.918 155.707 141.618C157.537 142.089 159.418 142.327 161.307 142.328C161.317 142.458 161.307 142.588 161.307 142.708ZM206.207 231.188H206.497L206.017 232.448C206.077 232.028 206.137 231.618 206.207 231.188V231.188ZM156.917 457.958L155.077 457.498L156.077 457.328L157.007 457.938L157.117 458.018L156.917 457.958ZM175.717 455.268C175.107 454.948 174.487 454.578 173.887 454.198C174.087 454.308 174.877 454.718 175.717 455.268V455.268Z" fill="url(#paint0_linear)"/>
<path d="M212.847 212.298L200.737 243.858H203.677L192.287 252.938L212.847 255.498V212.298Z" fill="#F86D70"/>
<path opacity="0.1" d="M212.847 212.298L200.737 243.858L197.687 243.038L192.287 252.938L212.847 255.498V212.298Z" fill="black"/>
<path d="M193.857 232.488H212.847L219.817 175.138H193.857V232.488Z" fill="#F86D70"/>
<path opacity="0.1" d="M193.857 232.488H212.847L219.817 175.138H193.857V232.488Z" fill="black"/>
<path d="M156.767 188.718L160.867 188.028L170.287 186.428C170.287 186.428 198.577 180.048 204.417 179.528C207.955 179.061 211.405 178.077 214.657 176.608C216.187 175.948 217.157 175.448 217.157 175.448L206.967 156.838L191.157 145.118C191.157 145.118 181.157 142.988 176.927 137.168C175.983 135.916 175.369 134.447 175.14 132.895C174.911 131.344 175.075 129.76 175.617 128.288C178.197 120.288 160.207 135.938 160.207 135.938C160.207 135.938 160.377 139.688 160.207 144.468C160.207 145.408 160.117 146.388 160.047 147.388C160.047 148.048 159.957 148.708 159.887 149.388C159.447 154.138 158.547 159.028 156.767 161.948C152.417 169.088 156.767 188.718 156.767 188.718Z" fill="#FBBEBE"/>
<path opacity="0.1" d="M160.207 144.868H160.607C161.327 144.868 161.907 143.338 162.607 143.268C168.237 142.728 173.377 141.548 176.947 137.558C176.006 136.306 175.393 134.839 175.164 133.29C174.935 131.74 175.098 130.158 175.637 128.688C178.217 120.688 160.227 136.328 160.227 136.328C160.227 136.328 160.417 140.088 160.207 144.868Z" fill="black"/>
<path d="M138.307 122.188C138.306 125.067 138.872 127.918 139.973 130.578C141.074 133.238 142.689 135.655 144.725 137.691C146.76 139.726 149.177 141.341 151.837 142.442C154.498 143.543 157.349 144.109 160.227 144.108C160.947 144.108 161.657 144.108 162.367 144.008C166.591 143.594 170.604 141.962 173.918 139.312C177.232 136.661 179.706 133.105 181.039 129.076C182.371 125.047 182.506 120.717 181.425 116.613C180.345 112.509 178.097 108.807 174.953 105.956C171.809 103.105 167.906 101.227 163.716 100.552C159.526 99.8767 155.23 100.432 151.35 102.151C147.469 103.87 144.172 106.678 141.856 110.235C139.541 113.792 138.308 117.944 138.307 122.188Z" fill="#FBBEBE"/>
<path d="M131.577 88.918C130.857 90.778 131.077 92.858 130.787 94.828C129.717 101.938 122.487 106.198 115.947 109.178C109.407 112.158 102.027 115.688 99.9474 122.558C97.6674 129.988 102.647 137.438 106.107 144.408C112.847 157.988 113.807 175.308 105.107 187.728C97.3775 198.728 83.9074 203.948 71.2274 208.528C77.3301 213.329 84.9149 215.854 92.6775 215.668C89.7675 224.138 79.4174 226.948 70.5974 228.508C75.2274 232.968 81.8575 234.588 88.2075 235.568C92.8375 236.288 97.5875 236.758 102.207 235.828C106.827 234.898 111.207 232.388 113.587 228.328C115.587 224.858 116.267 220.128 119.877 218.378C121.507 217.737 123.263 217.48 125.007 217.628L140.007 217.788C144.677 217.788 150.207 217.428 152.617 213.438C153.506 211.733 153.973 209.84 153.977 207.918C154.627 198.078 152.737 187.678 156.787 178.698C158.007 175.988 150.177 171.698 150.997 168.828C153.817 158.958 154.527 151.188 154.497 140.918C154.497 132.968 159.667 126.118 163.937 119.408C168.207 112.698 171.777 104.228 168.407 97.028C164.607 88.998 136.067 77.328 131.577 88.918Z" fill="#3F3D56"/>
<path d="M151.547 455.078L155.367 457.608L155.957 457.998L156.067 458.068L160.597 461.068L171.177 462.848L180.477 462.208C180.477 462.208 183.157 456.608 178.947 456.738C177.599 456.669 176.285 456.289 175.107 455.628L174.527 455.338C173.917 455.018 173.307 454.658 172.707 454.278C171.457 453.488 170.277 452.628 169.327 451.898C167.927 450.818 166.997 449.998 166.997 449.998L151.547 455.078Z" fill="#FBBEBE"/>
<path opacity="0.1" d="M155.417 457.608L156.007 457.998L156.117 458.068L160.647 461.068L171.227 462.848L180.527 462.208C180.527 462.208 183.207 456.608 178.997 456.738C177.649 456.669 176.335 456.289 175.157 455.628C175.897 456.208 176.517 456.838 176.577 457.368C176.747 458.798 169.697 461.368 169.697 461.368L159.757 458.738C159.757 458.738 158.067 458.258 155.757 457.658L155.537 457.598L155.417 457.608Z" fill="black"/>
<path d="M138.417 460.048C138.417 460.048 146.567 461.828 152.047 461.318C157.527 460.808 166.967 465.528 166.967 465.528C166.967 465.528 170.157 467.028 179.967 467.668C189.777 468.308 189.777 463.328 189.777 463.328C188.657 456.558 173.157 454.328 172.677 454.228C172.867 454.328 173.677 454.738 174.497 455.288C175.597 456.008 176.787 456.948 176.877 457.708C177.047 459.128 169.997 461.708 169.997 461.708L160.057 459.088C160.057 459.088 158.367 458.598 156.057 457.998H155.837C152.412 457.065 148.932 456.347 145.417 455.848C141.137 455.388 138.947 459.028 138.497 459.848C138.465 459.912 138.438 459.979 138.417 460.048V460.048Z" fill="#3F3D56"/>
<path d="M9.95743 280.218L14.2874 283.538C14.2874 283.538 15.5474 283.478 17.4274 283.418H18.0274C20.7174 283.318 24.4274 283.218 27.5774 283.218C29.6137 283.126 31.654 283.24 33.6674 283.558C35.8274 284.318 39.6674 271.198 39.6674 271.198L35.3274 270.198L33.8874 269.858L32.8874 269.618L29.3574 268.788L18.6574 270.008L11.1374 274.848L9.95743 280.218Z" fill="#FBBEBE"/>
<path opacity="0.1" d="M9.95743 280.218L14.2874 283.538C14.2874 283.538 15.5474 283.478 17.4274 283.418C16.5647 283.085 15.8534 282.449 15.4274 281.628C12.6274 273.858 26.5174 270.538 26.5174 270.538L32.9874 270.258L34.2474 270.198H35.2474L33.8074 269.858L32.8074 269.618L29.2774 268.788L18.5774 270.008L11.0574 274.848L9.95743 280.218Z" fill="black"/>
<path d="M1.41744 283.728C4.03744 286.148 21.1974 283.728 21.9174 283.668C20.6151 283.815 19.297 283.723 18.0274 283.398C17.3989 283.285 16.8034 283.034 16.2844 282.662C15.7654 282.29 15.336 281.807 15.0274 281.248C12.2274 273.468 26.1174 270.158 26.1174 270.158L32.5874 269.878L33.8374 269.818L49.5674 269.138L50.3274 264.808C50.3274 264.808 45.2174 265.288 37.1974 265.928C32.6874 266.298 27.1975 266.708 21.2675 267.098C4.69745 268.198 0.75744 278.948 0.75744 278.948C0.75744 278.948 -1.25256 281.248 1.41744 283.728Z" fill="#3F3D56"/>
<path d="M193.867 96.028C193.974 96.2654 194.101 96.4929 194.247 96.708L198.067 102.308L208.007 103.308L208.117 99.368L209.787 40.088C209.787 40.088 216.667 0.32802 203.667 2.61802C190.667 4.90802 198.827 40.088 198.827 40.088C198.827 40.088 197.347 57.928 196.307 63.288C195.297 68.468 190.767 89.528 193.867 96.028Z" fill="#FBBEBE"/>
<path d="M171.557 243.268L174.387 248.108L180.717 258.938C180.717 258.938 192.197 263.148 195.137 259.938C196.747 258.188 198.487 252.078 199.707 246.938C200.707 242.778 201.377 239.268 201.377 239.268L171.557 243.268Z" fill="#FBBEBE"/>
<path opacity="0.1" d="M171.557 243.268L174.387 248.108C174.565 247.955 174.726 247.784 174.867 247.598C178.067 243.518 192.157 246.728 199.707 246.988C200.707 242.828 201.377 239.318 201.377 239.318L171.557 243.268Z" fill="black"/>
<path opacity="0.1" d="M27.5775 283.198C29.6137 283.106 31.654 283.22 33.6674 283.538C35.8275 284.298 39.6674 271.178 39.6674 271.178L33.8875 269.818L49.6174 269.138L50.3775 264.808C50.3775 264.808 45.2675 265.288 37.2475 265.928C35.5903 266.882 34.1116 268.117 32.8775 269.578L32.6375 269.878C29.2875 273.988 28.0475 279.288 27.5775 283.198Z" fill="black"/>
<path opacity="0.1" d="M151.547 455.078L155.957 457.998C162.537 456.808 168.547 454.938 169.257 451.998C169.261 451.951 169.261 451.905 169.257 451.858C167.857 450.778 166.927 449.958 166.927 449.958L151.547 455.078Z" fill="black"/>
<path opacity="0.1" d="M138.507 459.878C144.318 459.589 150.108 458.968 155.847 458.018C152.419 457.078 148.936 456.353 145.417 455.848C141.147 455.388 138.957 459.028 138.507 459.878Z" fill="black"/>
<path d="M28.0575 288.248C28.0575 291.438 36.8474 293.478 36.8474 293.478L63.6174 317.308C63.6174 317.308 80.4375 324.828 91.1375 335.658C101.837 346.488 111.277 337.188 111.277 337.188C122.617 334.388 155.277 294.878 155.277 294.878C155.277 294.878 156.037 339.998 157.567 343.308C159.097 346.618 157.057 355.668 156.167 359.498C155.606 362.692 155.391 365.938 155.527 369.178C155.527 369.178 143.297 415.948 144.317 420.028C145.337 424.108 137.687 443.228 137.687 443.228V459.158C137.687 459.158 167.637 458.008 169.287 451.258C170.937 444.508 161.777 441.568 161.777 441.568V439.908C167.777 436.848 168.907 415.828 168.907 415.828C168.907 415.828 177.837 389.828 179.107 385.498C180.377 381.168 179.107 374.658 179.107 374.658L179.997 369.058C179.997 369.058 181.907 365.228 181.907 364.468C182.157 362.527 182.905 360.684 184.077 359.118C185.477 357.458 182.547 353.508 182.547 353.508L185.097 346.878V339.618L191.097 313.238C191.097 313.238 197.347 282.518 195.177 272.448C193.007 262.378 197.727 257.288 197.727 257.288C187.497 262.648 182.337 250.718 180.647 245.588C180.217 244.268 180.007 243.388 180.007 243.388C180.007 243.388 165.957 238.208 152.877 239.448C150.221 239.663 147.603 240.218 145.087 241.098C130.557 246.328 128.267 267.988 128.267 267.988L115.397 287.618C108.767 305.078 98.8275 306.858 98.8275 306.858C98.8275 306.858 75.5075 291.188 74.8275 290.418C74.1475 289.648 65.2675 285.828 65.2675 285.828C64.2175 283.98 62.6113 282.51 60.6774 281.628C57.6174 280.348 57.3674 275.628 57.3674 275.628C56.9874 264.538 50.4875 263.628 50.4875 263.628C27.9275 261.748 28.0575 285.068 28.0575 288.248Z" fill="#3F3D56"/>
<path d="M157.797 225.938H171.557V183.248H157.797V225.938Z" fill="#F86D70"/>
<path opacity="0.1" d="M157.797 225.938H171.557V183.248H157.797V225.938Z" fill="black"/>
<path opacity="0.1" d="M193.857 95.938C193.855 95.968 193.855 95.9981 193.857 96.028C193.964 96.2654 194.091 96.4929 194.237 96.708L198.057 102.308L207.997 103.308L208.107 99.368C205.007 99.128 197.947 98.278 193.857 95.938Z" fill="black"/>
<path d="M194.247 96.708C194.247 96.708 194.757 119.128 189.147 122.188C183.537 125.248 181.357 141.188 181.357 141.188C181.357 141.188 198.357 152.368 202.147 157.288C205.937 162.208 214.637 173.928 212.847 176.728C211.057 179.528 217.187 192.278 217.187 192.278C217.187 192.278 205.967 215.218 208.517 223.888C211.067 232.558 211.317 255.488 211.317 255.488H216.167C216.167 255.488 214.637 236.628 214.637 228.978C214.637 221.328 219.727 194.058 219.727 194.058C219.727 194.058 222.027 167.298 219.727 166.538C217.427 165.778 203.927 155.068 202.907 150.218C201.887 145.368 210.047 100.218 210.047 100.218C210.047 100.218 199.597 99.768 194.247 96.708Z" fill="#F86D70"/>
<path opacity="0.1" d="M157.537 179.288C158.003 182.408 159.139 185.39 160.867 188.028L170.287 186.428C170.287 186.428 198.577 180.048 204.417 179.528C207.955 179.061 211.405 178.077 214.657 176.608C212.416 168.665 208.041 161.489 202.007 155.858L198.417 152.528C193.127 147.616 186.996 143.697 180.317 140.958C180.737 141.308 210.417 166.648 203.917 171.618C197.417 176.588 179.917 164.488 179.917 164.488L160.017 147.388L159.297 146.768L158.147 148.558C158.733 148.799 159.303 149.072 159.857 149.378C166.64 153.101 171.673 159.356 173.857 166.778C177.947 180.528 157.537 179.288 157.537 179.288Z" fill="black"/>
<path d="M151.417 243.008C151.417 243.008 170.277 253.458 174.857 247.598C175.857 246.308 177.967 245.748 180.597 245.598C180.167 244.278 179.957 243.398 179.957 243.398C179.957 243.398 165.907 238.218 152.827 239.458C151.967 241.618 151.417 243.008 151.417 243.008Z" fill="#444053"/>
<path d="M160.097 146.788L180.717 164.528C180.717 164.528 198.147 176.668 204.717 171.658C211.287 166.648 181.107 140.988 181.107 140.988C187.772 143.736 193.897 147.643 199.197 152.528L202.787 155.858C212.227 164.608 214.357 164.608 214.677 177.468C214.757 180.638 213.677 185.188 212.847 186.008C209.787 189.008 207.647 210.798 208.117 213.348C208.587 215.898 202.417 237.908 204.417 244.028C206.417 250.148 179.417 240.968 174.847 246.838C170.277 252.708 151.417 242.248 151.417 242.248C151.417 242.248 161.867 215.478 164.417 213.698C166.967 211.918 170.027 198.148 164.417 191.778C158.807 185.408 158.307 179.288 158.307 179.288C158.307 179.288 178.707 180.548 174.617 166.798C173.467 162.813 171.471 159.122 168.765 155.978C166.059 152.834 162.707 150.31 158.937 148.578L160.097 146.788Z" fill="#E8E8F0"/>
<path opacity="0.1" d="M187.617 191.908C187.617 191.908 179.707 206.818 169.477 210.688C169.147 210.808 168.827 210.918 168.477 211.018C157.797 214.268 188.417 196.528 187.617 191.908Z" fill="black"/>
<path d="M76.9975 59.998C76.9975 59.998 80.8174 69.688 83.8774 72.998C86.9374 76.308 109.617 109.448 109.617 109.448L111.537 113.448L113.187 116.858L127.717 115.328L128.717 109.468L128.157 108.788C126.697 107.038 122.717 102.338 120.047 100.288C116.737 97.748 110.107 89.338 110.107 89.338C110.107 89.338 89.4674 67.918 87.9374 62.058C86.4074 56.198 65.7574 21.058 61.1774 27.138C56.5974 33.218 76.9975 59.998 76.9975 59.998Z" fill="#FBBEBE"/>
<g opacity="0.1">
<path opacity="0.1" d="M119.157 217.628C117.413 217.477 115.658 217.73 114.027 218.368C110.427 220.118 109.747 224.848 107.747 228.318C105.407 232.378 100.947 234.888 96.3575 235.818C95.4451 235.995 94.5237 236.122 93.5974 236.198C96.5208 236.482 99.4697 236.355 102.357 235.818C106.947 234.888 111.407 232.378 113.747 228.318C115.747 224.848 116.427 220.118 120.027 218.368C120.973 217.943 121.992 217.705 123.027 217.668L119.157 217.628Z" fill="black"/>
<path opacity="0.1" d="M154.677 140.918C154.677 132.968 159.847 126.118 164.107 119.408C168.367 112.698 171.947 104.228 168.577 97.028C165.697 90.878 148.337 82.628 138.317 84.258C148.127 85.528 160.217 91.988 162.577 97.028C165.947 104.228 162.367 112.698 158.107 119.408C153.847 126.118 148.657 132.968 148.677 140.918C148.677 151.178 147.987 158.918 145.167 168.828C144.357 171.678 152.167 175.988 150.967 178.688C146.907 187.688 148.807 198.068 148.157 207.908C148.144 209.83 147.674 211.722 146.787 213.428C144.787 216.718 140.687 217.568 136.697 217.748H140.187C144.847 217.748 150.377 217.388 152.787 213.398C153.674 211.692 154.144 209.8 154.157 207.878C154.807 198.038 152.907 187.648 156.967 178.658C158.187 175.958 150.357 171.658 151.167 168.798C153.987 158.958 154.697 151.178 154.677 140.918Z" fill="black"/>
</g>
<path opacity="0.1" d="M111.537 113.428L113.187 116.838L127.717 115.308L128.717 109.448L128.157 108.768C126.607 109.528 114.997 115.118 111.537 113.428Z" fill="black"/>
<path opacity="0.1" d="M165.187 151.758C165.187 151.758 161.617 146.158 159.577 147.678C157.537 149.198 156.747 143.088 155.577 144.108C154.407 145.128 150.997 147.968 149.577 143.998C148.467 140.838 136.387 120.848 131.487 112.808C130.227 110.728 129.437 109.448 129.437 109.448C129.437 109.448 115.677 116.328 112.367 114.038V118.878L115.167 119.138L130.167 147.138C130.167 147.138 134.887 154.648 134.567 157.268C134.247 159.888 140.617 171.358 141.637 172.118C142.657 172.878 153.637 185.628 153.637 185.628C153.637 185.628 159.247 213.158 154.397 220.808C149.547 228.458 141.147 234.058 141.147 234.058C141.147 234.058 138.617 241.448 138.987 242.218C139.357 242.988 136.047 246.298 137.577 247.318C139.107 248.338 141.147 255.468 141.147 255.468C141.147 255.468 148.287 243.998 152.147 242.218C156.007 240.438 160.947 216.978 160.947 216.978C160.947 216.978 162.357 203.158 162.467 194.238C162.577 185.318 162.127 151.758 165.187 151.758Z" fill="black"/>
<path d="M164.417 151.758C164.417 151.758 160.857 146.158 158.817 147.678C156.777 149.198 155.977 143.088 154.817 144.108C153.657 145.128 150.247 147.968 148.817 143.998C147.697 140.838 135.617 120.848 130.727 112.808L128.677 109.448C128.677 109.448 114.917 116.328 111.597 114.038V118.878L114.407 119.138L129.407 147.138C129.407 147.138 134.137 154.648 133.807 157.268C133.477 159.888 139.807 171.358 140.877 172.118C141.947 172.878 152.877 185.628 152.877 185.628C152.877 185.628 158.487 213.158 153.647 220.808C151.091 224.65 147.98 228.094 144.417 231.028C141.425 233.497 139.318 236.874 138.417 240.648C138.244 241.162 138.182 241.708 138.237 242.248C138.607 243.008 135.297 246.328 136.827 247.348C138.357 248.368 140.417 255.528 140.417 255.528C140.417 255.528 147.557 244.058 151.417 242.278C155.277 240.498 160.227 217.038 160.227 217.038C160.227 217.038 161.627 203.218 161.747 194.298C161.867 185.378 161.417 151.758 164.417 151.758Z" fill="#F86D70"/>
<path opacity="0.1" d="M129.497 267.738C129.497 267.738 140.207 269.738 144.497 272.828C148.787 275.918 128.187 267.988 128.187 267.988L129.497 267.738Z" fill="black"/>
<path opacity="0.1" d="M155.247 294.878C155.247 294.878 166.417 304.188 164.417 312.598C162.417 321.008 157.257 342.168 157.257 342.168L155.247 294.878Z" fill="black"/>
<path opacity="0.1" d="M57.5575 276.978C57.5575 276.978 41.8175 278.698 42.8375 280.738C43.8575 282.778 57.5575 278.858 57.5575 278.858V276.978Z" fill="black"/>
<path opacity="0.1" d="M178.417 354.398C178.417 354.398 179.417 355.668 173.577 354.398C167.737 353.128 172.047 349.208 172.047 349.208L178.417 354.398Z" fill="black"/>
<path opacity="0.1" d="M176.417 371.988C176.417 371.988 168.417 373.258 164.127 371.988C159.837 370.718 176.417 371.988 176.417 371.988Z" fill="black"/>
<path opacity="0.1" d="M159.957 440.808C159.957 440.808 158.557 439.278 151.547 442.078C144.537 444.878 141.737 445.008 139.697 444.078C137.657 443.148 159.957 440.808 159.957 440.808Z" fill="black"/>
<path opacity="0.1" d="M167.737 274.808L157.797 288.638C157.797 288.638 163.147 276.528 167.737 274.808Z" fill="black"/>
<path opacity="0.1" d="M148.417 147.678C148.417 147.678 147.987 152.268 141.577 154.058C135.167 155.848 133.947 157.298 133.947 157.298" fill="black"/>
<path opacity="0.1" d="M131.757 114.408C131.757 114.408 123.297 120.408 114.467 119.138Z" fill="black"/>
<path opacity="0.1" d="M138.197 242.878C138.197 242.878 140.667 244.428 146.597 237.648Z" fill="black"/>
<path opacity="0.1" d="M199.787 170.988C200.027 169.748 199.167 168.598 198.357 167.628L196.697 165.628C196.373 165.219 196.008 164.843 195.607 164.508C194.607 163.738 193.327 163.508 192.287 162.818" fill="black"/>
<path d="M256.627 475.662C278.835 475.662 296.837 472.617 296.837 468.862C296.837 465.106 278.835 462.062 256.627 462.062C234.42 462.062 216.417 465.106 216.417 468.862C216.417 472.617 234.42 475.662 256.627 475.662Z" fill="#FFD200"/>
<path d="M273.257 455.802C275.093 454.306 276.429 452.286 277.087 450.012C277.587 447.722 276.607 445.012 274.407 444.122C271.947 443.182 269.317 444.892 267.327 446.612C265.337 448.332 263.047 450.302 260.447 449.932C261.787 448.715 262.79 447.172 263.357 445.453C263.925 443.734 264.039 441.898 263.687 440.122C263.574 439.386 263.263 438.695 262.787 438.122C261.417 436.662 258.947 437.282 257.307 438.432C252.107 442.092 250.657 449.162 250.627 455.512C250.107 453.222 250.547 450.832 250.537 448.512C250.527 446.192 249.877 443.512 247.887 442.282C246.66 441.622 245.28 441.297 243.887 441.342C241.557 441.252 238.947 441.492 237.357 443.202C235.357 445.322 235.887 448.882 237.607 451.202C239.327 453.522 241.957 455.012 244.377 456.622C246.313 457.776 247.964 459.352 249.207 461.232C249.357 461.495 249.478 461.773 249.567 462.062H264.227C267.506 460.392 270.544 458.286 273.257 455.802V455.802Z" fill="#FFD200"/>
<defs>
<linearGradient id="paint0_linear" x1="39700.8" y1="250407" x2="89092.4" y2="250407" gradientUnits="userSpaceOnUse">
<stop stop-color="#808080" stop-opacity="0.25"/>
<stop offset="0.54" stop-color="#808080" stop-opacity="0.12"/>
<stop offset="1" stop-color="#808080" stop-opacity="0.1"/>
</linearGradient>
</defs>
</svg>
