<svg width="130" height="130" viewBox="0 0 130 130" fill="none" xmlns="http://www.w3.org/2000/svg">
<circle cx="65" cy="65" r="60" fill="#9C73FF" stroke="#5E42D3" strokeWidth="10"/>
<path d="M41.7564 82.5771C43.9431 82.5771 45.7831 82.2571 47.2764 81.6171C48.8231 80.9771 50.1297 80.2571 51.1964 79.4571C52.2631 78.6571 53.1964 77.9371 53.9964 77.2971C54.8497 76.6571 55.7031 76.3371 56.5564 76.3371C57.6231 76.3371 58.1564 77.1371 58.1564 78.7371C58.1564 79.5905 58.0497 80.6305 57.8364 81.8571C57.6231 83.0305 57.3297 84.3638 56.9564 85.8571C56.7431 86.7638 56.2097 87.7505 55.3564 88.8171C54.5564 89.8838 53.4364 90.8971 51.9964 91.8571C50.5564 92.7638 48.7697 93.5371 46.6364 94.1771C44.5564 94.7638 42.1564 95.0571 39.4364 95.0571C36.7164 95.0571 33.9964 94.6571 31.2764 93.8571C28.5564 93.0571 26.1297 91.6971 23.9964 89.7771C21.8631 87.8571 20.1297 85.2705 18.7964 82.0171C17.4631 78.7638 16.7964 74.6838 16.7964 69.7771C16.7964 68.0171 16.9031 65.9905 17.1164 63.6971C17.3831 61.3505 17.8631 58.9505 18.5564 56.4971C19.2497 54.0438 20.2097 51.6438 21.4364 49.2971C22.7164 46.8971 24.3431 44.7638 26.3164 42.8971C28.2897 41.0305 30.6897 39.5371 33.5164 38.4171C36.3964 37.2438 39.8097 36.6571 43.7564 36.6571C46.9031 36.6571 49.6231 37.0305 51.9164 37.7771C54.2631 38.5238 56.1831 39.5638 57.6764 40.8971C59.2231 42.1771 60.3431 43.6971 61.0364 45.4571C61.7831 47.2171 62.1564 49.0838 62.1564 51.0571C62.1564 54.4705 61.1431 56.9771 59.1164 58.5771C57.1431 60.1238 54.3164 60.8971 50.6364 60.8971C49.4631 60.8971 48.7164 60.8171 48.3964 60.6571C48.1297 60.4438 47.9964 60.0438 47.9964 59.4571C47.9431 57.6438 47.8897 56.0705 47.8364 54.7371C47.7831 53.4038 47.5964 52.3105 47.2764 51.4571C46.9564 50.5505 46.4497 49.9105 45.7564 49.5371C45.1164 49.1105 44.2097 48.8971 43.0364 48.8971C41.3297 48.8971 39.8631 49.2705 38.6364 50.0171C37.4631 50.7105 36.4497 51.6438 35.5964 52.8171C34.7964 53.9371 34.1297 55.2171 33.5964 56.6571C33.1164 58.0971 32.7164 59.5638 32.3964 61.0571C32.1297 62.5505 31.9431 63.9905 31.8364 65.3771C31.7831 66.7638 31.7564 67.9638 31.7564 68.9771C31.7564 73.8838 32.5564 77.3771 34.1564 79.4571C35.8097 81.5371 38.3431 82.5771 41.7564 82.5771ZM87.6114 82.3371C88.7314 78.6038 89.6914 75.3238 90.4914 72.4971C91.2914 69.6705 92.0914 66.7638 92.8914 63.7771C93.6914 60.7905 94.5447 57.4305 95.4514 53.6971C96.3581 49.9638 97.5047 45.3238 98.8914 39.7771C99.1581 38.7638 99.4514 38.1238 99.7714 37.8571C100.145 37.5371 100.945 37.3771 102.171 37.3771C102.705 37.3771 103.531 37.4305 104.651 37.5371C105.825 37.5905 106.998 37.8305 108.171 38.2571C109.345 38.6305 110.385 39.2171 111.291 40.0171C112.198 40.7638 112.651 41.8571 112.651 43.2971C112.651 44.5771 112.278 46.5505 111.531 49.2171C110.838 51.8305 109.931 54.8171 108.811 58.1771C107.691 61.5371 106.438 65.0571 105.051 68.7371C103.718 72.3638 102.385 75.8038 101.051 79.0571C99.7181 82.3105 98.4914 85.1638 97.3714 87.6171C96.3047 90.0705 95.5047 91.7771 94.9714 92.7371C94.3847 93.7505 93.3447 94.2571 91.8514 94.2571H83.4514C82.1181 94.2571 80.9981 94.0171 80.0914 93.5371C79.2381 93.0038 78.5181 92.3105 77.9314 91.4571C77.3447 90.6038 76.8647 89.6438 76.4914 88.5771C76.1181 87.4571 75.7981 86.3371 75.5314 85.2171C73.7181 77.6438 72.1447 71.0838 70.8114 65.5371C69.5314 59.9371 68.4647 55.2705 67.6114 51.5371C66.7581 47.7505 66.1181 44.8438 65.6914 42.8171C65.2647 40.7905 65.0514 39.5371 65.0514 39.0571C65.0514 38.4705 65.4781 38.0438 66.3314 37.7771C67.1847 37.4571 68.6247 37.2971 70.6514 37.2971C72.7847 37.2971 74.5181 37.5105 75.8514 37.9371C77.2381 38.3638 78.3314 38.9771 79.1314 39.7771C79.9847 40.5238 80.5981 41.4305 80.9714 42.4971C81.3981 43.5105 81.6914 44.6305 81.8514 45.8571C82.0114 46.7638 82.1714 47.8571 82.3314 49.1371C82.4914 50.3638 82.7581 52.2571 83.1314 54.8171C83.5581 57.3771 84.1181 60.8438 84.8114 65.2171C85.5047 69.5371 86.4381 75.2438 87.6114 82.3371Z" fill="#FFBC00"/>
<path d="M47.2764 81.6171L46.1293 78.8451L46.1119 78.8523L46.0946 78.8597L47.2764 81.6171ZM51.1964 79.4571L49.3964 77.0571L51.1964 79.4571ZM53.9964 77.2971L52.1964 74.8971L52.1589 74.9253L52.1223 74.9545L53.9964 77.2971ZM57.8364 81.8571L60.788 82.3938L60.7901 82.3825L60.792 82.3712L57.8364 81.8571ZM56.9564 85.8571L54.046 85.1295L54.0409 85.1497L54.0361 85.17L56.9564 85.8571ZM55.3564 88.8171L53.0138 86.9431L52.9845 86.9797L52.9564 87.0171L55.3564 88.8171ZM51.9964 91.8571L53.5948 94.3958L53.6279 94.375L53.6605 94.3533L51.9964 91.8571ZM46.6364 94.1771L47.4508 97.0645L47.4747 97.0578L47.4984 97.0506L46.6364 94.1771ZM31.2764 93.8571L30.4299 96.7352L31.2764 93.8571ZM23.9964 89.7771L21.9895 92.007L23.9964 89.7771ZM18.7964 82.0171L21.5723 80.8795L18.7964 82.0171ZM17.1164 63.6971L14.1356 63.3584L14.1321 63.3888L14.1293 63.4193L17.1164 63.6971ZM18.5564 56.4971L15.6695 55.6813L18.5564 56.4971ZM21.4364 49.2971L18.7893 47.8854L18.7835 47.8964L18.7777 47.9074L21.4364 49.2971ZM26.3164 42.8971L28.378 45.0765L28.378 45.0765L26.3164 42.8971ZM33.5164 38.4171L34.6215 41.2062L34.6349 41.2009L34.6483 41.1954L33.5164 38.4171ZM51.9164 37.7771L50.9876 40.6298L50.9972 40.6329L51.0068 40.6359L51.9164 37.7771ZM57.6764 40.8971L55.6783 43.135L55.7203 43.1724L55.7637 43.2083L57.6764 40.8971ZM61.0364 45.4571L58.2452 46.5567L58.2594 46.5929L58.2746 46.6288L61.0364 45.4571ZM59.1164 58.5771L60.967 60.9383L60.9753 60.9318L59.1164 58.5771ZM48.3964 60.6571L46.5223 62.9997L46.7705 63.1983L47.0548 63.3404L48.3964 60.6571ZM47.9964 59.4571H50.9964V59.413L50.9951 59.3689L47.9964 59.4571ZM47.8364 54.7371L44.8388 54.857L44.8388 54.857L47.8364 54.7371ZM47.2764 51.4571L44.4474 52.4556L44.4571 52.4832L44.4674 52.5105L47.2764 51.4571ZM45.7564 49.5371L44.0923 52.0333L44.2098 52.1116L44.3341 52.1786L45.7564 49.5371ZM38.6364 50.0171L40.1626 52.5999L40.1795 52.5899L40.1962 52.5797L38.6364 50.0171ZM35.5964 52.8171L33.1702 51.0526L33.1626 51.063L33.1552 51.0734L35.5964 52.8171ZM33.5964 56.6571L30.7831 55.6152L30.766 55.6616L30.7503 55.7085L33.5964 56.6571ZM32.3964 61.0571L29.463 60.4286L29.4522 60.479L29.4431 60.5298L32.3964 61.0571ZM31.8364 65.3771L28.8452 65.1471L28.8408 65.2044L28.8386 65.2618L31.8364 65.3771ZM34.1564 79.4571L31.7785 81.2863L31.7931 81.3052L31.8079 81.3239L34.1564 79.4571ZM41.7564 85.5771C44.2167 85.5771 46.4862 85.2197 48.4581 84.3746L46.0946 78.8597C45.0799 79.2946 43.6694 79.5771 41.7564 79.5771V85.5771ZM48.4234 84.3892C50.1462 83.6763 51.685 82.8407 52.9964 81.8571L49.3964 77.0571C48.5744 77.6736 47.4999 78.278 46.1293 78.8451L48.4234 84.3892ZM52.9964 81.8571C54.0811 81.0436 55.0401 80.304 55.8705 79.6397L52.1223 74.9545C51.3527 75.5702 50.445 76.2707 49.3964 77.0571L52.9964 81.8571ZM55.7964 79.6971C56.2622 79.3478 56.4996 79.3371 56.5564 79.3371V73.3371C54.9066 73.3371 53.4372 73.9665 52.1964 74.8971L55.7964 79.6971ZM56.5564 79.3371C56.4463 79.3371 56.2042 79.3151 55.9148 79.1704C55.6129 79.0195 55.3941 78.802 55.2602 78.6012C55.1397 78.4205 55.1201 78.3033 55.1278 78.3379C55.1353 78.3715 55.1564 78.4944 55.1564 78.7371H61.1564C61.1564 77.6986 61.0005 76.395 60.2525 75.273C59.3615 73.9364 57.9636 73.3371 56.5564 73.3371V79.3371ZM55.1564 78.7371C55.1564 79.3595 55.0767 80.2165 54.8808 81.3431L60.792 82.3712C61.0228 81.0444 61.1564 79.8214 61.1564 78.7371H55.1564ZM54.8848 81.3205C54.6859 82.4145 54.4078 83.6823 54.046 85.1295L59.8668 86.5847C60.2517 85.0453 60.5602 83.6465 60.788 82.3938L54.8848 81.3205ZM54.0361 85.17C53.9611 85.489 53.7083 86.0749 53.0138 86.9431L57.699 90.6912C58.7111 89.4261 59.525 88.0386 59.8766 86.5443L54.0361 85.17ZM52.9564 87.0171C52.411 87.7443 51.5692 88.5364 50.3323 89.361L53.6605 94.3533C55.3036 93.2579 56.7018 92.0233 57.7564 90.6171L52.9564 87.0171ZM50.398 89.3184C49.2452 90.0443 47.7233 90.719 45.7743 91.3037L47.4984 97.0506C49.8161 96.3553 51.8676 95.4834 53.5948 94.3958L50.398 89.3184ZM45.822 91.2898C44.065 91.7853 41.9487 92.0571 39.4364 92.0571V98.0571C42.3641 98.0571 45.0478 97.7423 47.4508 97.0645L45.822 91.2898ZM39.4364 92.0571C37.0149 92.0571 34.5797 91.7016 32.1229 90.979L30.4299 96.7352C33.4131 97.6126 36.4179 98.0571 39.4364 98.0571V92.0571ZM32.1229 90.979C29.8387 90.3072 27.8074 89.171 26.0033 87.5473L21.9895 92.007C24.452 94.2233 27.274 95.807 30.4299 96.7352L32.1229 90.979ZM26.0033 87.5473C24.272 85.9891 22.7724 83.8077 21.5723 80.8795L16.0205 83.1548C17.4871 86.7333 19.4541 89.7252 21.9895 92.007L26.0033 87.5473ZM21.5723 80.8795C20.433 78.0997 19.7964 74.4371 19.7964 69.7771H13.7964C13.7964 74.9305 14.4931 79.4279 16.0205 83.1548L21.5723 80.8795ZM19.7964 69.7771C19.7964 68.1331 19.8963 66.2024 20.1035 63.975L14.1293 63.4193C13.9098 65.7786 13.7964 67.9012 13.7964 69.7771H19.7964ZM20.0972 64.0359C20.3442 61.8627 20.7907 59.6223 21.4433 57.313L15.6695 55.6813C14.9354 58.2786 14.422 60.8383 14.1356 63.3584L20.0972 64.0359ZM21.4433 57.313C22.0784 55.0658 22.9603 52.8577 24.0951 50.6869L18.7777 47.9074C17.4591 50.4299 16.4211 53.0218 15.6695 55.6813L21.4433 57.313ZM24.0835 50.7089C25.2112 48.5943 26.6403 46.7203 28.378 45.0765L24.2548 40.7177C22.0458 42.8073 20.2216 45.2 18.7893 47.8854L24.0835 50.7089ZM28.378 45.0765C30.043 43.5016 32.1073 42.2024 34.6215 41.2062L32.4113 35.6281C29.2721 36.8719 26.5365 38.5594 24.2548 40.7177L28.378 45.0765ZM34.6483 41.1954C37.0864 40.2021 40.0975 39.6571 43.7564 39.6571V33.6571C39.5219 33.6571 35.7064 34.2855 32.3845 35.6389L34.6483 41.1954ZM43.7564 39.6571C46.6782 39.6571 49.0697 40.0053 50.9876 40.6298L52.8451 34.9245C50.1765 34.0557 47.1279 33.6571 43.7564 33.6571V39.6571ZM51.0068 40.6359C53.0413 41.2833 54.5638 42.1398 55.6783 43.135L59.6744 38.6593C57.8023 36.9878 55.4849 35.7644 52.826 34.9184L51.0068 40.6359ZM55.7637 43.2083C56.9446 44.1856 57.749 45.2973 58.2452 46.5567L63.8276 44.3576C62.9371 42.097 61.5015 40.1686 59.5891 38.586L55.7637 43.2083ZM58.2746 46.6288C58.859 48.0062 59.1564 49.4731 59.1564 51.0571H65.1564C65.1564 48.6945 64.7071 46.4281 63.7981 44.2855L58.2746 46.6288ZM59.1564 51.0571C59.1564 53.8709 58.3458 55.3633 57.2575 56.2225L60.9753 60.9318C63.9403 58.591 65.1564 55.07 65.1564 51.0571H59.1564ZM57.2657 56.216C56.0174 57.1944 53.9479 57.8971 50.6364 57.8971V63.8971C54.6849 63.8971 58.2688 63.0532 60.967 60.9383L57.2657 56.216ZM50.6364 57.8971C50.1044 57.8971 49.7416 57.8784 49.516 57.8542C49.4045 57.8423 49.3639 57.8328 49.3749 57.8353C49.3824 57.837 49.4171 57.845 49.4717 57.8629C49.5243 57.8802 49.6187 57.9142 49.738 57.9739L47.0548 63.3404C47.7258 63.6759 48.4513 63.7745 48.8768 63.8201C49.3979 63.8759 49.9951 63.8971 50.6364 63.8971V57.8971ZM50.2705 58.3145C50.6844 58.6456 50.8693 59.0289 50.9424 59.2485C51.009 59.4481 50.9964 59.5444 50.9964 59.4571H44.9964C44.9964 60.3227 45.165 61.9139 46.5223 62.9997L50.2705 58.3145ZM50.9951 59.3689C50.9416 57.5485 50.8879 55.9641 50.834 54.6172L44.8388 54.857C44.8916 56.1768 44.9446 57.7391 44.9977 59.5453L50.9951 59.3689ZM50.834 54.6172C50.7733 53.0988 50.5566 51.6602 50.0854 50.4038L44.4674 52.5105C44.6362 52.9607 44.7929 53.7089 44.8388 54.857L50.834 54.6172ZM50.1054 50.4587C49.5946 49.0116 48.6668 47.697 47.1787 46.8957L44.3341 52.1786C44.3252 52.1738 44.3148 52.1668 44.3059 52.1592C44.2971 52.1518 44.2969 52.1499 44.3043 52.1593C44.3192 52.1781 44.3785 52.2603 44.4474 52.4556L50.1054 50.4587ZM47.4205 47.041C46.0918 46.1552 44.5119 45.8971 43.0364 45.8971V51.8971C43.4485 51.8971 43.7304 51.9353 43.9093 51.9774C44.0856 52.0189 44.1255 52.0554 44.0923 52.0333L47.4205 47.041ZM43.0364 45.8971C40.8841 45.8971 38.8552 46.3719 37.0766 47.4545L40.1962 52.5797C40.8709 52.1691 41.7753 51.8971 43.0364 51.8971V45.8971ZM37.1102 47.4344C35.5617 48.3494 34.2487 49.5697 33.1702 51.0526L38.0226 54.5817C38.6507 53.718 39.3644 53.0716 40.1626 52.5999L37.1102 47.4344ZM33.1552 51.0734C32.184 52.4331 31.3983 53.9542 30.7831 55.6152L36.4096 57.6991C36.8611 56.4801 37.4088 55.4411 38.0376 54.5609L33.1552 51.0734ZM30.7503 55.7085C30.2351 57.2541 29.806 58.8277 29.463 60.4286L35.3298 61.6857C35.6268 60.3 35.9977 58.9402 36.4424 57.6058L30.7503 55.7085ZM29.4431 60.5298C29.1604 62.1128 28.9602 63.6522 28.8452 65.1471L34.8276 65.6072C34.9259 64.3287 35.099 62.9882 35.3497 61.5845L29.4431 60.5298ZM28.8386 65.2618C28.7843 66.674 28.7564 67.9143 28.7564 68.9771H34.7564C34.7564 68.0133 34.7818 66.8536 34.8342 65.4924L28.8386 65.2618ZM28.7564 68.9771C28.7564 74.0467 29.5509 78.3904 31.7785 81.2863L36.5343 77.628C35.5619 76.3639 34.7564 73.7209 34.7564 68.9771H28.7564ZM31.8079 81.3239C34.1859 84.3155 37.7115 85.5771 41.7564 85.5771V79.5771C38.9746 79.5771 37.4335 78.7587 36.5049 77.5904L31.8079 81.3239ZM87.6114 82.3371L84.6516 82.8267L90.4849 83.1992L87.6114 82.3371ZM90.4914 72.4971L93.378 73.3141V73.3141L90.4914 72.4971ZM92.8914 63.7771L95.7892 64.5534L92.8914 63.7771ZM95.4514 53.6971L98.3667 54.4051L95.4514 53.6971ZM98.8914 39.7771L95.9902 39.0137L95.9855 39.0316L95.981 39.0495L98.8914 39.7771ZM99.7714 37.8571L101.692 40.1618L101.708 40.1485L101.724 40.1349L99.7714 37.8571ZM104.651 37.5371L104.367 40.5236L104.441 40.5307L104.515 40.534L104.651 37.5371ZM108.171 38.2571L107.146 41.0765L107.204 41.0974L107.262 41.1159L108.171 38.2571ZM111.291 40.0171L109.307 42.2667L109.345 42.3005L109.384 42.3329L111.291 40.0171ZM111.531 49.2171L108.643 48.4083L108.637 48.428L108.632 48.4478L111.531 49.2171ZM108.811 58.1771L105.965 57.2285L108.811 58.1771ZM105.051 68.7371L102.244 67.6793L102.24 67.6906L102.236 67.7019L105.051 68.7371ZM101.051 79.0571L103.827 80.1948L101.051 79.0571ZM97.3714 87.6171L94.6423 86.3713L94.631 86.396L94.6202 86.421L97.3714 87.6171ZM94.9714 92.7371L97.5677 94.2403L97.581 94.2173L97.5939 94.1941L94.9714 92.7371ZM80.0914 93.5371L78.5014 96.0811L78.5926 96.1382L78.6877 96.1885L80.0914 93.5371ZM77.9314 91.4571L75.4593 93.1567V93.1567L77.9314 91.4571ZM76.4914 88.5771L73.6453 89.5258L73.6524 89.5471L73.6598 89.5682L76.4914 88.5771ZM75.5314 85.2171L78.4498 84.5223L78.4489 84.5186L75.5314 85.2171ZM70.8114 65.5371L67.8868 66.2056L67.8906 66.222L67.8945 66.2383L70.8114 65.5371ZM67.6114 51.5371L64.6848 52.1967L64.6868 52.2056L67.6114 51.5371ZM65.6914 42.8171L62.7557 43.4352V43.4352L65.6914 42.8171ZM66.3314 37.7771L67.2262 40.6406L67.3062 40.6156L67.3848 40.5861L66.3314 37.7771ZM75.8514 37.9371L74.9371 40.7944L74.9531 40.7995L74.9691 40.8045L75.8514 37.9371ZM79.1314 39.7771L77.0101 41.8985L77.0807 41.9691L77.1559 42.0349L79.1314 39.7771ZM80.9714 42.4971L78.1398 43.4882L78.1705 43.5758L78.2065 43.6613L80.9714 42.4971ZM81.8514 45.8571L78.8766 46.2452L78.8853 46.3121L78.897 46.3785L81.8514 45.8571ZM82.3314 49.1371L79.3546 49.5092L79.3556 49.5172L79.3566 49.5252L82.3314 49.1371ZM83.1314 54.8171L80.1628 55.2501L80.1672 55.2802L80.1722 55.3103L83.1314 54.8171ZM84.8114 65.2171L81.8484 65.6869L81.8493 65.6925L84.8114 65.2171ZM90.4849 83.1992C91.608 79.4554 92.5726 76.1598 93.378 73.3141L87.6048 71.6802C86.8102 74.4878 85.8548 77.7522 84.7379 81.4751L90.4849 83.1992ZM93.378 73.3141C94.182 70.4732 94.9858 67.5529 95.7892 64.5534L89.9936 63.0009C89.197 65.9747 88.4007 68.8678 87.6048 71.6802L93.378 73.3141ZM95.7892 64.5534C96.5965 61.5394 97.4557 58.1561 98.3667 54.4051L92.5361 52.9891C91.6337 56.7049 90.7862 60.0416 89.9935 63.0009L95.7892 64.5534ZM98.3667 54.4051C99.2712 50.6807 100.416 46.0477 101.802 40.5047L95.981 39.0495C94.5934 44.5999 93.445 49.247 92.5361 52.9891L98.3667 54.4051ZM101.793 40.5406C101.845 40.3415 101.894 40.1792 101.938 40.0496C101.982 39.9186 102.017 39.8342 102.039 39.7871C102.062 39.737 102.059 39.7524 102.021 39.8081C101.986 39.8595 101.884 40.0018 101.692 40.1618L97.8508 35.5525C97.1869 36.1058 96.8055 36.8042 96.5842 37.2872C96.34 37.8199 96.1484 38.4124 95.9902 39.0137L101.793 40.5406ZM101.724 40.1349C101.515 40.3142 101.336 40.3955 101.267 40.4238C101.195 40.4533 101.177 40.4515 101.24 40.4389C101.299 40.427 101.405 40.4107 101.567 40.3978C101.728 40.3851 101.928 40.3771 102.171 40.3771V34.3771C101.449 34.3771 100.727 34.4225 100.063 34.5554C99.4535 34.6773 98.5738 34.9324 97.819 35.5794L101.724 40.1349ZM102.171 40.3771C102.554 40.3771 103.262 40.4184 104.367 40.5236L104.936 34.5507C103.801 34.4426 102.855 34.3771 102.171 34.3771V40.3771ZM104.515 40.534C105.366 40.5727 106.24 40.7472 107.146 41.0765L109.197 35.4378C107.756 34.9138 106.283 34.6082 104.788 34.5402L104.515 40.534ZM107.262 41.1159C108.046 41.3654 108.718 41.7473 109.307 42.2667L113.276 37.7676C112.052 36.687 110.644 35.8956 109.081 35.3984L107.262 41.1159ZM109.384 42.3329C109.444 42.382 109.651 42.5312 109.651 43.2971H115.651C115.651 41.1831 114.952 39.1456 113.199 37.7014L109.384 42.3329ZM109.651 43.2971C109.651 44.1374 109.38 45.7727 108.643 48.4083L114.42 50.026C115.176 47.3283 115.651 45.0168 115.651 43.2971H109.651ZM108.632 48.4478C107.958 50.9857 107.071 53.9107 105.965 57.2285L111.657 59.1258C112.792 55.7236 113.718 52.6752 114.431 49.9864L108.632 48.4478ZM105.965 57.2285C104.859 60.5481 103.619 64.0316 102.244 67.6793L107.859 69.795C109.258 66.0827 110.524 62.5262 111.657 59.1258L105.965 57.2285ZM102.236 67.7019C100.914 71.2975 99.5936 74.7032 98.2755 77.9195L103.827 80.1948C105.176 76.9044 106.522 73.4301 107.867 69.7723L102.236 67.7019ZM98.2755 77.9195C96.9529 81.1467 95.742 83.9625 94.6423 86.3713L100.1 88.863C101.241 86.3651 102.483 83.4743 103.827 80.1948L98.2755 77.9195ZM94.6202 86.421C93.553 88.8754 92.804 90.4611 92.3489 91.2802L97.5939 94.1941C98.2055 93.0931 99.0564 91.2656 100.123 88.8133L94.6202 86.421ZM92.3751 91.234C92.3686 91.2453 92.375 91.2318 92.3982 91.2102C92.4216 91.1883 92.4395 91.1792 92.4375 91.1802C92.4279 91.1848 92.2705 91.2571 91.8514 91.2571V97.2571C94.0744 97.2571 96.2933 96.4414 97.5677 94.2403L92.3751 91.234ZM91.8514 91.2571H83.4514V97.2571H91.8514V91.2571ZM83.4514 91.2571C82.4654 91.2571 81.8591 91.0785 81.4951 90.8858L78.6877 96.1885C80.137 96.9558 81.7708 97.2571 83.4514 97.2571V91.2571ZM81.6814 90.9932C81.1871 90.6842 80.7641 90.282 80.4035 89.7576L75.4593 93.1567C76.272 94.3389 77.289 95.3234 78.5014 96.0811L81.6814 90.9932ZM80.4035 89.7576C79.9806 89.1424 79.6164 88.4244 79.323 87.5861L73.6598 89.5682C74.1131 90.8632 74.7089 92.0652 75.4593 93.1567L80.4035 89.7576ZM79.3374 87.6285C78.9912 86.5899 78.6956 85.5545 78.4498 84.5223L72.613 85.912C72.9005 87.1198 73.2449 88.3244 73.6453 89.5258L79.3374 87.6285ZM78.4489 84.5186C76.6355 76.9447 75.0619 70.3837 73.7283 64.836L67.8945 66.2383C69.2276 71.7839 70.8007 78.343 72.6139 85.9157L78.4489 84.5186ZM73.736 64.8687C72.456 59.2687 71.3893 54.602 70.536 50.8687L64.6868 52.2056C65.5401 55.9389 66.6068 60.6056 67.8868 66.2056L73.736 64.8687ZM70.538 50.8776C69.6856 47.0951 69.0493 44.2048 68.627 42.1991L62.7557 43.4352C63.1868 45.4828 63.8305 48.4059 64.6848 52.1967L70.538 50.8776ZM68.627 42.1991C68.4174 41.2034 68.2662 40.4259 68.1689 39.8537C68.059 39.2083 68.0514 39.0099 68.0514 39.0571H62.0514C62.0514 39.5844 62.1505 40.2526 62.2539 40.8605C62.3699 41.5417 62.5387 42.4042 62.7557 43.4352L68.627 42.1991ZM68.0514 39.0571C68.0514 39.2831 68.0083 39.5452 67.8963 39.8113C67.785 40.0758 67.6336 40.2776 67.4927 40.4185C67.2377 40.6734 67.0566 40.6936 67.2262 40.6406L65.4366 34.9137C64.7528 35.1274 63.9317 35.4942 63.2501 36.1758C62.4921 36.9338 62.0514 37.9431 62.0514 39.0571H68.0514ZM67.3848 40.5861C67.6894 40.4719 68.6524 40.2971 70.6514 40.2971V34.2971C68.5971 34.2971 66.68 34.4424 65.278 34.9682L67.3848 40.5861ZM70.6514 40.2971C72.6191 40.2971 74.0112 40.4981 74.9371 40.7944L76.7657 35.0799C75.0249 34.5228 72.9503 34.2971 70.6514 34.2971V40.2971ZM74.9691 40.8045C76.0166 41.1268 76.64 41.5284 77.0101 41.8985L81.2527 37.6558C80.0227 36.4258 78.4595 35.6008 76.7337 35.0698L74.9691 40.8045ZM77.1559 42.0349C77.6206 42.4415 77.9383 42.9123 78.1398 43.4882L83.803 41.5061C83.2579 39.9486 82.3488 38.6061 81.1069 37.5194L77.1559 42.0349ZM78.2065 43.6613C78.5166 44.3978 78.7471 45.2527 78.8766 46.2452L84.8262 45.4691C84.6357 44.0083 84.2795 42.6232 83.7363 41.333L78.2065 43.6613ZM78.897 46.3785C79.0456 47.2204 79.1985 48.2611 79.3546 49.5092L85.3082 48.765C85.1442 47.4532 84.9772 46.3072 84.8057 45.3358L78.897 46.3785ZM79.3566 49.5252C79.5197 50.7755 79.7891 52.6875 80.1628 55.2501L86.1 54.3842C85.727 51.8268 85.4631 49.9521 85.3062 48.7491L79.3566 49.5252ZM80.1722 55.3103C80.597 57.859 81.1556 61.3168 81.8484 65.6869L87.7744 64.7474C87.0805 60.3709 86.5191 56.8953 86.0906 54.3239L80.1722 55.3103ZM81.8493 65.6925C82.5437 70.0193 83.4779 75.7312 84.6516 82.8267L90.5712 81.8476C89.3982 74.7564 88.4657 69.055 87.7735 64.7417L81.8493 65.6925Z" fill="#8C50FF"/>
</svg>
