<svg width="147" height="164" viewBox="0 0 147 164" fill="none" xmlns="http://www.w3.org/2000/svg">
<circle cx="75" cy="91" r="46" fill="#4A00E0"/>
<path d="M71.4232 89.7999C71.3857 86.8268 73.3717 84.2078 76.2448 83.4418V83.4418V83.4418C78.4071 81.8205 81.4947 83.3449 81.5222 86.0474L81.9472 127.809C81.9711 130.165 79.4804 131.7 77.387 130.62V130.62C74.0123 128.878 71.8735 125.417 71.8255 121.62L71.4232 89.7999Z" fill="#E5E5E5"/>
<path d="M80.5153 73.8052C80.5305 76.832 78.4763 79.4776 75.5402 80.2128V80.2128V80.2128C73.297 81.8191 70.1763 80.2203 70.1694 77.4613L70.0666 36.1969C70.0607 33.8237 72.568 32.2852 74.6811 33.3653V33.3653C78.1489 35.1378 80.3387 38.6963 80.3583 42.5908L80.5153 73.8052Z" fill="#E5E5E5"/>
<path d="M59.9746 75.1211C59.9746 75.4466 59.8118 76.5208 59.4863 78.3438C59.1608 80.1341 58.8353 82.5592 58.5098 85.6191C58.1842 88.6465 58.0215 91.804 58.0215 95.0918C58.0215 97.9238 58.2005 100.528 58.5586 102.904C58.9492 105.248 59.584 107.462 60.4629 109.545C61.3418 111.628 62.4486 113.402 63.7832 114.867C65.1178 116.299 66.7943 117.439 68.8125 118.285C70.8633 119.099 73.1908 119.506 75.7949 119.506C77.5527 119.506 79.1315 119.311 80.5312 118.92C81.9635 118.497 83.1029 118.074 83.9492 117.65C84.7956 117.227 85.3815 117.016 85.707 117.016C86.4883 117.016 86.8789 117.439 86.8789 118.285C86.8789 118.643 86.7324 119.164 86.4395 119.848C86.1465 120.499 85.6094 121.28 84.8281 122.191C84.0794 123.07 83.168 123.9 82.0938 124.682C81.0521 125.463 79.6523 126.13 77.8945 126.684C76.1693 127.237 74.265 127.514 72.1816 127.514C55.9707 127.514 47.8652 117.048 47.8652 96.1172C47.8652 87.6211 48.679 81.9082 50.3066 78.9785C51.153 77.4811 52.4225 76.1628 54.1152 75.0234C55.8079 73.8841 57.1914 73.3145 58.2656 73.3145C59.4049 73.3145 59.9746 73.9167 59.9746 75.1211ZM89.2715 98.8027H70.5703C69.1706 98.8027 68.4707 98.2982 68.4707 97.2891C68.4707 96.8333 68.7962 96.0195 69.4473 94.8477C70.0983 93.6432 70.8796 92.6341 71.791 91.8203C72.5397 91.1367 73.7441 90.7949 75.4043 90.7949H96.791C97.9954 90.7949 98.8092 90.9902 99.2324 91.3809C99.6882 91.7389 100.014 92.4388 100.209 93.4805C100.469 94.7826 100.6 96.7194 100.6 99.291C100.6 104.857 99.7533 110.001 98.0605 114.721C96.9212 117.813 95.3913 120.271 93.4707 122.094C91.5501 123.884 89.8574 124.779 88.3926 124.779C87.7741 124.779 87.4648 124.519 87.4648 123.998C87.4648 123.738 87.5137 123.51 87.6113 123.314C87.709 123.119 87.9043 122.826 88.1973 122.436C88.5228 122.045 88.8158 121.638 89.0762 121.215C91.1595 117.732 92.2012 112.589 92.2012 105.785C92.2012 104.776 92.1849 103.995 92.1523 103.441C92.1523 102.855 92.0872 102.237 91.957 101.586C91.8594 100.902 91.7129 100.382 91.5176 100.023C91.3223 99.6654 91.0293 99.3724 90.6387 99.1445C90.2806 98.9167 89.8249 98.8027 89.2715 98.8027ZM95.7656 61.791C95.7656 63.0605 94.9193 64.3464 93.2266 65.6484C91.5664 66.9505 90.1178 67.6016 88.8809 67.6016C87.9694 67.6016 86.765 67.3086 85.2676 66.7227C83.7702 66.1042 81.9798 65.502 79.8965 64.916C77.8132 64.2975 75.6159 63.9883 73.3047 63.9883C69.9518 63.9883 66.599 64.6556 63.2461 65.9902C59.8932 67.3249 56.9473 69.099 54.4082 71.3125C52.748 72.7773 51.6738 73.5098 51.1855 73.5098C50.4368 73.5098 50.0625 73.1029 50.0625 72.2891C50.0625 71.7357 50.3555 70.9544 50.9414 69.9453C51.5273 68.9036 52.1133 68.0573 52.6992 67.4062C56.1497 63.5977 59.9746 60.7493 64.1738 58.8613C68.4056 56.9408 73.4023 55.9805 79.1641 55.9805C83.1029 55.9805 86.8464 56.5501 90.3945 57.6895C93.9753 58.7962 95.7656 60.1634 95.7656 61.791Z" fill="#ECDD59"/>
</svg>
