<svg width="350" height="113" viewBox="0 0 350 113" fill="none" xmlns="http://www.w3.org/2000/svg">
<path d="M33.36 4.12C37.84 4.12 41.8933 4.73333 45.52 5.96C49.2 7.18666 51.04 8.38667 51.04 9.56V18.68C51.04 19.0533 50.9067 19.4267 50.64 19.8C50.4267 20.12 50.1333 20.28 49.76 20.28C48.8533 20.28 48.2667 19.7467 48 18.68C47.04 15.1067 45.2533 12.3067 42.64 10.28C40.0267 8.25333 36.9333 7.24 33.36 7.24C26.7467 7.24 21.4667 9.45333 17.52 13.88C13.6267 18.3067 11.68 23.9333 11.68 30.76C11.68 35.24 12.56 39.56 14.32 43.72C16.08 47.88 18.5867 51.32 21.84 54.04C25.1467 56.7067 28.7733 58.04 32.72 58.04C36.72 58.04 40.08 57.24 42.8 55.64C45.5733 53.9867 46.96 52.2533 46.96 50.44V40.52C46.96 38.4933 45.76 37.4267 43.36 37.32L39.04 37.08C38.4533 37.08 38.16 36.7333 38.16 36.04C38.16 35.2933 38.5067 34.92 39.2 34.92L50.08 35.24L58 34.92C58.7467 34.92 59.12 35.24 59.12 35.88C59.12 36.6267 58.8 37.0267 58.16 37.08L56.8 37.32C54.6667 37.6933 53.6 38.76 53.6 40.52V55.96L54.08 60.44C54.1867 61.4 53.7867 61.88 52.88 61.88C52.2933 61.88 51.8133 61.5333 51.44 60.84C50.5867 58.92 49.1733 57.96 47.2 57.96C46.7733 57.96 45.9733 58.28 44.8 58.92C41.1733 60.8933 36.9067 61.88 32 61.88C23.68 61.88 16.9333 59.1333 11.76 53.64C6.58667 48.1467 4 41.2667 4 33C4 24.68 6.72 17.8 12.16 12.36C17.6 6.86666 24.6667 4.12 33.36 4.12ZM92.7831 4.12C101.21 4.12 107.956 6.81333 113.023 12.2C118.143 17.5333 120.703 24.4133 120.703 32.84C120.703 41.2667 118.09 48.2267 112.863 53.72C107.69 59.16 100.943 61.88 92.6231 61.88C84.3565 61.88 77.6365 59.16 72.4631 53.72C67.2898 48.28 64.7031 41.4 64.7031 33.08C64.7031 24.7067 67.2898 17.8 72.4631 12.36C77.6365 6.86666 84.4098 4.12 92.7831 4.12ZM108.543 16.68C106.996 13.96 104.863 11.8 102.143 10.2C99.4231 8.6 96.2498 7.8 92.6231 7.8C86.1165 7.8 81.0765 9.8 77.5031 13.8C73.9831 17.7467 72.2231 23.1333 72.2231 29.96C72.2231 37.0533 73.8231 43.4 77.0231 49C78.5698 51.7733 80.7298 54.0133 83.5031 55.72C86.2765 57.3733 89.4498 58.2 93.0231 58.2C99.3698 58.2 104.303 56.12 107.823 51.96C111.396 47.8 113.183 42.2 113.183 35.16C113.183 28.12 111.636 21.96 108.543 16.68ZM140.768 10.28V53.64C140.768 54.76 141.114 55.6667 141.808 56.36C142.554 57 143.514 57.32 144.688 57.32H156.288C159.114 57.32 161.541 56.6533 163.568 55.32C165.594 53.9333 166.981 51.9333 167.728 49.32C167.994 48.4667 168.554 48.04 169.408 48.04C170.261 48.04 170.634 48.52 170.528 49.48L169.248 57.8C169.141 58.7067 168.768 59.48 168.128 60.12C167.488 60.7067 166.661 61 165.648 61H137.248L128.208 61.32C127.461 61.32 127.088 60.9733 127.088 60.28C127.088 59.5333 127.381 59.16 127.968 59.16L130.288 59C131.354 58.8933 132.234 58.5733 132.928 58.04C133.621 57.4533 133.968 56.68 133.968 55.72V10.28C133.968 8.36 132.741 7.29333 130.288 7.08L127.968 6.84C127.381 6.73333 127.088 6.38666 127.088 5.8C127.088 5.05333 127.461 4.68 128.208 4.68L137.248 5L145.168 4.68C145.968 4.68 146.368 5 146.368 5.64C146.368 6.38666 146.021 6.78666 145.328 6.84L143.968 7.08C141.834 7.45333 140.768 8.52 140.768 10.28ZM199.468 5C208.001 5 214.801 7.48 219.868 12.44C224.934 17.3467 227.468 23.88 227.468 32.04C227.468 40.2 224.828 47.08 219.548 52.68C214.321 58.2267 207.628 61 199.468 61H185.708L175.708 61.4C174.961 61.4 174.588 61.0533 174.588 60.36C174.588 59.6133 174.881 59.24 175.468 59.24L177.788 59.08C178.854 58.9733 179.734 58.6533 180.428 58.12C181.121 57.5333 181.468 56.76 181.468 55.8V10.28C181.468 8.36 180.241 7.29333 177.788 7.08L175.468 6.84C174.881 6.73333 174.588 6.38666 174.588 5.8C174.588 5.05333 174.961 4.68 175.708 4.68L185.708 5H199.468ZM215.228 17C213.628 14.44 211.468 12.4133 208.748 10.92C206.028 9.42666 202.908 8.68 199.388 8.68H192.188C191.014 8.68 190.054 9 189.308 9.64C188.614 10.28 188.268 11.2133 188.268 12.44V53.64C188.268 54.76 188.614 55.6667 189.308 56.36C190.054 57 191.014 57.32 192.188 57.32H199.788C205.921 57.32 210.828 55.2133 214.508 51C218.188 46.7867 220.028 41.32 220.028 34.6C220.028 27.88 218.428 22.0133 215.228 17ZM274.044 61H244.044L235.004 61.32C234.258 61.32 233.884 60.9733 233.884 60.28C233.884 59.5333 234.178 59.16 234.764 59.16L237.084 59C238.151 58.8933 239.031 58.5733 239.724 58.04C240.418 57.4533 240.764 56.68 240.764 55.72V10.28C240.764 8.36 239.538 7.29333 237.084 7.08L234.764 6.84C234.178 6.84 233.884 6.49333 233.884 5.8C233.884 5.05333 234.258 4.68 235.004 4.68L244.044 5H272.444C273.458 5 274.284 5.32 274.924 5.96C275.564 6.54666 275.938 7.29333 276.044 8.2L277.164 15.56C277.271 16.52 276.871 17 275.964 17C275.111 17 274.551 16.5733 274.284 15.72C273.484 13.16 272.284 11.3467 270.684 10.28C269.084 9.21333 266.871 8.68 264.044 8.68H251.484C250.311 8.68 249.351 9.02666 248.604 9.72C247.911 10.36 247.564 11.2667 247.564 12.44V29.24C247.564 29.9333 247.911 30.28 248.604 30.28H263.484C264.231 30.28 264.818 30.0933 265.244 29.72C265.671 29.3467 265.938 29 266.044 28.68C266.204 28.36 266.418 27.7733 266.684 26.92L267.004 25.88C267.164 25.24 267.564 24.92 268.204 24.92C268.844 24.92 269.164 25.2933 269.164 26.04L268.844 32.84L269.164 39.32C269.164 40.0133 268.818 40.4133 268.124 40.52C267.484 40.52 267.111 40.2 267.004 39.56L266.764 38.12C266.284 35.3467 265.191 33.96 263.484 33.96H248.524C247.884 33.96 247.564 34.3333 247.564 35.08V53.64C247.564 54.76 247.911 55.6667 248.604 56.36C249.351 57 250.311 57.32 251.484 57.32H264.684C267.458 57.32 269.831 56.6533 271.804 55.32C273.831 53.9333 275.244 51.9333 276.044 49.32C276.311 48.4667 276.738 48.04 277.324 48.04C277.964 48.04 278.391 48.2 278.604 48.52C278.871 48.7867 278.978 49.1067 278.924 49.48L277.644 57.8C277.538 58.7067 277.138 59.48 276.444 60.12C275.804 60.7067 275.004 61 274.044 61ZM331.228 49.08V10.28C331.228 8.41333 330.028 7.34666 327.628 7.08L325.308 6.84C324.721 6.73333 324.427 6.36 324.427 5.72C324.427 5.08 324.801 4.76 325.548 4.76L333.308 5L339.548 4.76C340.348 4.76 340.748 5.08 340.748 5.72C340.748 6.36 340.401 6.73333 339.708 6.84L338.348 7.08C336.214 7.45333 335.148 8.52 335.148 10.28V60.92C335.148 61.56 334.854 61.88 334.268 61.88H333.228C331.894 61.88 330.748 61.24 329.788 59.96L296.108 16.84C296.001 16.7333 295.841 16.68 295.628 16.68C295.414 16.68 295.308 16.9467 295.308 17.48V55.72C295.308 57.48 296.374 58.5467 298.508 58.92L299.868 59.16C300.561 59.2667 300.908 59.64 300.908 60.28C300.908 60.92 300.508 61.24 299.708 61.24L293.468 61L285.708 61.24C284.961 61.24 284.588 60.92 284.588 60.28C284.588 59.64 284.881 59.2667 285.468 59.16L287.788 58.92C290.241 58.6533 291.468 57.5867 291.468 55.72V10.28C291.468 8.41333 290.401 7.34666 288.268 7.08L286.828 6.92C286.188 6.81333 285.868 6.44 285.868 5.8C285.868 5.10666 286.268 4.76 287.068 4.76L293.468 5C295.014 5.05333 296.188 5.56 296.988 6.52L330.348 49.32C330.508 49.48 330.694 49.56 330.908 49.56C331.121 49.56 331.228 49.4 331.228 49.08Z" fill="#E6D85B"/>
<path d="M11.296 102C10.704 102 10.256 101.928 9.952 101.784C9.664 101.624 9.456 101.344 9.328 100.944C9.2 100.544 9.136 99.936 9.136 99.12V86.16H11.296V99.12C11.296 99.936 11.408 100.544 11.632 100.944C11.856 101.328 12.304 101.52 12.976 101.52H13.456V102H11.296ZM27.5238 89.4V102H26.5638V89.04C26.5638 88.272 26.3958 87.68 26.0597 87.264C25.7398 86.848 25.1878 86.64 24.4037 86.64H24.1637V86.16H25.7237C26.4598 86.16 27.0838 86.28 27.5958 86.52C28.1078 86.76 28.5638 87.12 28.9638 87.6L37.3637 98.04V86.16H38.3238V102.24H37.8438L27.5238 89.4ZM52.3774 88.968C51.9774 88.04 51.6014 87.408 51.2494 87.072C50.8974 86.72 50.3934 86.512 49.7374 86.448V85.968C49.8174 85.968 49.9374 85.96 50.0974 85.944C50.2414 85.928 50.3934 85.92 50.5534 85.92C51.3534 85.92 52.1214 86.128 52.8574 86.544C53.5934 86.944 54.2174 87.752 54.7294 88.968L58.8334 98.64L60.2494 95.352C60.9214 93.8 62.2094 90.736 64.1134 86.16H65.2654L58.3774 102.24H57.9454L52.3774 88.968ZM78.409 89.04C78.409 88.224 78.297 87.624 78.073 87.24C77.849 86.84 77.401 86.64 76.729 86.64H76.249V86.16H86.473C87.833 86.16 88.513 86.8 88.513 88.08V89.88H88.033C88.033 88.04 87.033 87.12 85.033 87.12H80.569V93.36H87.049V94.32H80.569V101.04H84.769C85.873 101.04 86.737 100.84 87.361 100.44C87.985 100.04 88.481 99.36 88.849 98.4L89.329 98.52L88.489 100.8C88.201 101.6 87.601 102 86.689 102H78.409V89.04ZM106.869 102.408C105.989 102.408 105.125 102.288 104.277 102.048C103.429 101.808 102.733 101.464 102.189 101.016C101.661 100.568 101.397 100.056 101.397 99.48V96.912H101.829C102.101 98.512 102.629 99.672 103.413 100.392C104.197 101.096 105.277 101.448 106.653 101.448C107.517 101.448 108.253 101.232 108.861 100.8C109.485 100.368 109.797 99.768 109.797 99C109.797 98.328 109.589 97.744 109.173 97.248C108.757 96.752 108.085 96.232 107.157 95.688L104.205 93.936C103.181 93.328 102.453 92.712 102.021 92.088C101.605 91.464 101.397 90.704 101.397 89.808C101.397 88.576 101.821 87.592 102.669 86.856C103.533 86.104 104.661 85.728 106.053 85.728C106.869 85.728 107.677 85.848 108.477 86.088C109.277 86.312 109.933 86.648 110.445 87.096C110.973 87.528 111.237 88.032 111.237 88.608V91.176H110.805C110.533 89.576 110.013 88.432 109.245 87.744C108.493 87.04 107.429 86.688 106.053 86.688C105.317 86.688 104.669 86.912 104.109 87.36C103.549 87.808 103.269 88.392 103.269 89.112C103.269 89.768 103.469 90.312 103.869 90.744C104.285 91.176 104.973 91.68 105.933 92.256L108.885 94.008C109.973 94.664 110.741 95.272 111.189 95.832C111.637 96.392 111.861 97.104 111.861 97.968C111.861 99.312 111.413 100.392 110.517 101.208C109.621 102.008 108.405 102.408 106.869 102.408ZM129.122 87.12H126.962C124.962 87.12 123.962 88.04 123.962 89.88H123.482V88.08C123.482 86.8 124.162 86.16 125.522 86.16H136.682V87.12H131.282V102H129.122V87.12ZM151.346 102C150.754 102 150.306 101.928 150.002 101.784C149.714 101.624 149.506 101.344 149.378 100.944C149.25 100.544 149.186 99.936 149.186 99.12V86.16H151.346V99.12C151.346 99.936 151.458 100.544 151.682 100.944C151.906 101.328 152.354 101.52 153.026 101.52H153.506V102H151.346ZM184.158 103.08C183.006 103.08 182.11 102.904 181.47 102.552C180.83 102.2 180.374 101.656 180.102 100.92C179.846 100.168 179.718 99.168 179.718 97.92V88.68L173.718 102H173.238L166.998 88.44V102H166.038V86.16H168.318L174.078 98.64L179.718 86.16H181.878V97.92C181.878 99.408 182.062 100.56 182.43 101.376C182.814 102.192 183.39 102.6 184.158 102.6V103.08ZM196.989 89.04C196.989 88.224 196.877 87.624 196.653 87.24C196.429 86.84 195.981 86.64 195.309 86.64H194.829V86.16H205.053C206.413 86.16 207.093 86.8 207.093 88.08V89.88H206.613C206.613 88.04 205.613 87.12 203.613 87.12H199.149V93.36H205.629V94.32H199.149V101.04H203.349C204.453 101.04 205.317 100.84 205.941 100.44C206.565 100.04 207.061 99.36 207.429 98.4L207.909 98.52L207.069 100.8C206.781 101.6 206.181 102 205.269 102H196.989V89.04ZM222.281 89.4V102H221.321V89.04C221.321 88.272 221.153 87.68 220.817 87.264C220.497 86.848 219.945 86.64 219.161 86.64H218.921V86.16H220.481C221.217 86.16 221.841 86.28 222.353 86.52C222.865 86.76 223.321 87.12 223.721 87.6L232.121 98.04V86.16H233.081V102.24H232.601L222.281 89.4ZM251.335 87.12H249.175C247.175 87.12 246.175 88.04 246.175 89.88H245.695V88.08C245.695 86.8 246.375 86.16 247.735 86.16H258.895V87.12H253.495V102H251.335V87.12ZM273.559 102C272.967 102 272.519 101.928 272.215 101.784C271.927 101.624 271.719 101.344 271.591 100.944C271.463 100.544 271.399 99.936 271.399 99.12V86.16H273.559V99.12C273.559 99.936 273.671 100.544 273.895 100.944C274.119 101.328 274.567 101.52 275.239 101.52H275.719V102H273.559Z" fill="#E5E5E5"/>
</svg>
