<svg width="944" height="601" viewBox="0 0 944 601" fill="none" xmlns="http://www.w3.org/2000/svg">
<rect width="944" height="601" fill="#E5E5E5"/>
<g id="undraw_logic_4ocy 1" clip-path="url(#clip0)">
<path id="q-md" d="M262 354.946H76V528.946H262V354.946Z" fill="#3F3D56"/>
<path id="Vector" d="M650 586.946H230V588.946H650V586.946Z" fill="#3F3D56"/>
<path id="q-big" d="M338 589.446H0V294.446H338V589.446ZM2 587.446H336V296.446H2V587.446Z" fill="#3F3D56"/>
<path id="Vector_2" d="M809 455.946C734.561 455.946 674 395.385 674 320.946C674 246.506 734.561 185.946 809 185.946C883.439 185.946 944 246.506 944 320.946C944 395.385 883.439 455.946 809 455.946ZM809 187.946C735.663 187.946 676 247.609 676 320.946C676 394.283 735.663 453.946 809 453.946C882.337 453.946 942 394.283 942 320.946C942 247.609 882.337 187.946 809 187.946Z" fill="#3F3D56"/>
<path id="Vector_3" d="M805 385.946C840.899 385.946 870 356.844 870 320.946C870 285.047 840.899 255.946 805 255.946C769.101 255.946 740 285.047 740 320.946C740 356.844 769.101 385.946 805 385.946Z" fill="#3F3D56"/>
<path id="Vector_4" d="M413.29 477.837L419.808 514.575L439.955 505.687V472.504L413.29 477.837Z" fill="#FFB8B8"/>
<path id="Vector_5" d="M442.325 496.799C442.325 496.799 429.289 511.02 416.253 503.909L414.476 565.534C414.476 565.534 383.663 599.902 413.29 600.495C442.918 601.087 437.585 588.051 437.585 588.051V580.348L441.14 573.83L444.103 575.015C444.103 575.015 452.399 564.942 451.806 560.201C451.214 555.461 450.621 548.943 450.621 548.943L443.51 517.538L442.325 496.799Z" fill="#2F2E41"/>
<path id="Vector_6" d="M638.459 371.178L663.938 392.51L650.902 407.916L617.72 389.547L638.459 371.178Z" fill="#FFB8B8"/>
<path id="Vector_7" d="M643.199 405.546L658.605 385.992L682.9 404.361L711.935 419.767C711.935 419.767 744.525 431.618 736.822 442.877C729.119 454.135 711.342 450.58 711.342 450.58L707.194 447.617L700.676 445.84L702.454 449.395L688.233 448.802L678.752 437.544L671.049 427.471L658.605 415.62L643.199 405.546Z" fill="#2F2E41"/>
<path id="Vector_8" d="M362.924 134.752L356.406 183.933L329.149 261.557C329.149 261.557 300.114 302.443 320.853 303.628C341.592 304.813 342.185 265.705 342.185 265.705L377.738 201.117L387.218 137.122L362.924 134.752Z" fill="#FFB8B8"/>
<path id="Vector_9" d="M493.877 150.158L498.025 206.45L532.393 271.038C532.393 271.038 556.095 292.37 542.466 299.48C528.837 306.591 516.394 270.445 516.394 270.445L475.508 212.968L468.99 153.121L493.877 150.158Z" fill="#FFB8B8"/>
<path id="Vector_10" d="M455.361 78.4596C472.051 78.4596 485.581 64.9297 485.581 48.2397C485.581 31.5496 472.051 18.0197 455.361 18.0197C438.671 18.0197 425.141 31.5496 425.141 48.2397C425.141 64.9297 438.671 78.4596 455.361 78.4596Z" fill="#FFB8B8"/>
<path id="Vector_11" d="M431.067 55.9428C431.067 55.9428 425.734 87.9404 403.217 93.2733C380.7 98.6063 442.918 116.383 460.694 99.7913C460.694 99.7913 449.436 89.1255 458.917 75.4969C468.397 61.8682 431.067 55.9428 431.067 55.9428Z" fill="#FFB8B8"/>
<path id="Vector_12" d="M488.544 112.827L458.011 96.3365C458.011 96.3365 440.217 108.565 407.792 91.7348C407.792 91.7348 367.072 95.051 367.664 100.384C368.257 105.717 349.295 135.937 355.813 141.862C362.331 147.788 366.479 136.529 372.997 147.788C379.515 159.046 382.478 156.083 382.478 156.083C382.478 156.083 380.108 195.784 384.848 197.562C389.588 199.339 466.027 188.081 466.027 188.081C466.027 188.081 476.1 189.859 471.36 185.118C466.62 180.378 466.027 179.785 468.99 176.23C471.953 172.675 476.101 173.267 471.953 170.305C470.813 169.563 469.997 168.418 469.667 167.099C469.337 165.78 469.519 164.385 470.175 163.194C470.175 163.194 489.729 154.898 497.432 155.491C505.135 156.083 494.47 114.605 488.544 112.827Z" fill="#575A89"/>
<path id="Vector_13" d="M386.626 195.784L386.033 218.301C386.033 218.301 365.887 493.243 393.144 491.466C420.401 489.688 421.586 479.615 423.364 478.43C425.141 477.245 447.066 489.688 450.028 476.652C452.991 463.616 454.769 298.888 454.769 298.888C454.769 298.888 522.912 455.32 565.575 436.359C608.239 417.397 662.161 382.437 649.717 368.808C637.274 355.18 580.389 319.627 580.389 319.627C580.389 319.627 579.204 308.961 558.465 298.888L490.914 229.559C490.914 229.559 492.692 227.189 488.544 224.227C484.396 221.264 484.396 226.597 483.211 218.894C482.026 211.19 483.804 214.153 480.248 210.598C476.693 207.043 477.286 210.005 476.693 206.45C476.101 202.895 477.286 203.487 476.101 202.302C474.915 201.117 470.175 195.784 470.175 195.784L464.25 180.378C464.25 180.378 397.292 183.933 386.626 195.784Z" fill="#2F2E41"/>
<path id="Vector_14" d="M384.256 208.228L468.397 186.303L472.545 195.784L383.663 218.301L384.256 208.228Z" fill="#575A89"/>
<path id="Vector_15" d="M394.329 212.968L388.996 240.818H396.107L401.439 211.783L394.329 212.968Z" fill="#575A89"/>
<path id="Vector_16" d="M406.18 210.005C405.901 214.19 406.301 218.392 407.365 222.449C409.143 229.559 411.513 239.633 411.513 239.633C411.513 239.633 422.771 233.707 420.994 228.374C419.216 223.041 413.883 208.228 413.883 208.228L406.18 210.005Z" fill="#575A89"/>
<path id="Vector_17" d="M451.955 46.9814C453.743 44.3695 452.96 40.7402 454.239 37.845C456.249 33.2986 462.176 32.3657 467.138 32.0666C470.429 31.725 473.75 31.8143 477.017 32.3323C478.46 32.6083 479.819 33.2157 480.987 34.1066C482.156 34.9975 483.101 36.1476 483.749 37.4662C484.446 38.9532 484.372 34.3453 484.046 28.4245C483.717 22.3826 481.478 16.6012 477.653 11.9132C473.827 7.22527 468.612 3.87287 462.758 2.33903C462.689 2.32089 462.62 2.30307 462.552 2.28556C456.556 0.748762 450.365 -0.425305 444.203 0.147775C438.04 0.720855 431.851 3.22509 427.899 7.98753C426.092 10.1642 424.789 12.751 422.783 14.7452C419.259 18.2491 414.131 19.431 409.409 20.982C404.069 22.7361 398.86 25.1937 394.716 28.9912C390.572 32.7887 387.573 38.0573 387.352 43.6737C387.094 50.225 391.099 57.0895 397.786 58.5443C398.949 58.7763 400.041 59.2794 400.974 60.0125C407.267 65.1413 399.824 70.1704 399.739 75.7707C399.668 80.4437 404.796 83.6145 409.458 83.9454C413.819 84.1296 418.109 82.7911 421.591 80.1593C425.074 77.5276 427.533 73.7664 428.547 69.5205C429.343 65.7034 428.895 61.7523 428.531 57.87C428.114 53.426 437.91 43.2229 431.421 50.7183C430.156 52.1421 429.283 53.8709 428.888 55.7345C427.691 61.8189 433.201 64.0087 436.625 67.4791C438.504 69.4407 439.795 71.8894 440.353 74.5477C440.911 77.2059 440.712 79.9673 439.78 82.5184C442.735 79.9692 444.707 76.4685 445.356 72.6205C446.005 68.7725 445.291 64.8185 443.336 61.4409C442.249 59.6814 440.83 58.1393 439.802 56.3445C438.197 53.5439 437.882 47.5292 442.556 47.8074C445.892 48.0059 449.293 50.8696 451.955 46.9814Z" fill="#2F2E41"/>
<path id="Vector_18" d="M603.418 194.557L635.001 176.322L616.767 144.74L585.184 162.974L603.418 194.557Z" fill="#FF6584"/>
<path id="Vector_19" d="M138.418 211.557L170.001 193.322L151.767 161.74L120.184 179.974L138.418 211.557Z" fill="#3F3D56"/>
<path id="Vector_20" d="M540.418 539.557L572.001 521.322L553.767 489.74L522.184 507.974L540.418 539.557Z" fill="#D0CDE1"/>
<path id="Vector_21" d="M186 424.946H152V458.946H186V424.946Z" fill="#4285F4"/>
<path id="Vector_22" d="M805 336.946C813.837 336.946 821 329.782 821 320.946C821 312.109 813.837 304.946 805 304.946C796.163 304.946 789 312.109 789 320.946C789 329.782 796.163 336.946 805 336.946Z" fill="#4285F4"/>
</g>
<defs>
<clipPath id="clip0">
<rect width="944" height="600.514" fill="white"/>
</clipPath>
</defs>
</svg>
