<svg width="103" height="32" viewBox="0 0 103 32" fill="none" xmlns="http://www.w3.org/2000/svg">
<g filter="url(#filter0_d)">
<path d="M15.5 12.5C15.5 18.8513 15.5 14.5956 15.5 24C9.14873 24 4 18.8513 4 12.5C4 6.14873 9.14873 1 15.5 1C15.5 10.66 15.5 6.14873 15.5 12.5Z" fill="#006FF2"/>
<path d="M15.5 12.5C15.5 6.14873 15.5 10.4044 15.5 1C21.8513 1 27 6.14873 27 12.5C27 18.8513 21.8513 24 15.5 24C15.5 14.34 15.5 18.8513 15.5 12.5Z" fill="#00DAFE"/>
<path d="M15.5 7.08221V11.391V16.4355H13.9162C12.1093 16.4355 10.6445 14.9707 10.6445 13.1638V13.1638C10.6445 12.2769 11.0046 11.4279 11.6422 10.8115L15.5 7.08221Z" fill="#00DAFE"/>
<path d="M15.5 7.08221V11.391V16.4355H17.0838C18.8907 16.4355 20.3555 14.9707 20.3555 13.1638V13.1638C20.3555 12.2769 19.9954 11.4279 19.3577 10.8115L15.5 7.08221Z" fill="#006FF2"/>
</g>
<g filter="url(#filter1_d)">
<path d="M52.1578 18.4805L53.3648 18.3164C53.5836 18.3164 53.7359 18.3906 53.8219 18.5391C53.9156 18.6875 53.982 18.8477 54.0211 19.0195C54.068 19.1836 54.1109 19.332 54.15 19.4648C54.1891 19.5977 54.2086 19.7422 54.2086 19.8984C54.2086 20.0547 54.1305 20.2148 53.9742 20.3789C53.8258 20.5352 53.6344 20.6758 53.4 20.8008C52.9 21.0664 52.3766 21.1992 51.8297 21.1992C51.2906 21.1992 50.8023 21.1367 50.3648 21.0117C49.9273 20.8867 49.5133 20.7148 49.1227 20.4961C48.5133 20.1523 47.8883 19.668 47.2477 19.043C46.6148 18.418 46.1109 17.8828 45.7359 17.4375L43.8023 15.0469C43.5289 14.7188 43.2828 14.4531 43.0641 14.25V20.2617C43.0641 20.5742 42.9586 20.7969 42.7477 20.9297C42.6695 20.9766 42.5797 21 42.4781 21H40.8023C40.5914 21 40.443 20.9375 40.357 20.8125C40.2164 20.6094 40.1461 20.4258 40.1461 20.2617V4.06641C40.1461 3.79297 40.2164 3.55469 40.357 3.35156C40.5055 3.14062 40.7437 3.03516 41.0719 3.03516H46.2984C50.9469 3.03516 53.2711 4.87109 53.2711 8.54297C53.2711 10.2305 52.6461 11.6484 51.3961 12.7969C50.2164 13.8828 48.8258 14.4258 47.2242 14.4258C46.943 14.4258 46.6734 14.4062 46.4156 14.3672L47.857 15.8906C48.6852 16.7578 49.3297 17.3438 49.7906 17.6484C50.6187 18.2031 51.4078 18.4805 52.1578 18.4805ZM43.0641 12.0117C43.9469 12.2148 44.7437 12.3164 45.4547 12.3164C46.1734 12.3164 46.8141 12.25 47.3766 12.1172C47.9391 11.9844 48.4391 11.7734 48.8766 11.4844C49.8453 10.8594 50.3297 9.93359 50.3297 8.70703C50.3297 7.60547 49.9117 6.78906 49.0758 6.25781C48.3727 5.8125 47.4195 5.58984 46.2164 5.58984H43.0641V12.0117ZM60.3117 3.78516C60.3117 3.58203 60.3742 3.40625 60.4992 3.25781C60.632 3.10937 60.7883 3.03516 60.968 3.03516H62.6086C62.7883 3.03516 62.9406 3.10937 63.0656 3.25781C63.1906 3.40625 63.2531 3.58203 63.2531 3.78516V20.25C63.2531 20.4531 63.1867 20.6289 63.0539 20.7773C62.9289 20.9258 62.7766 21 62.5969 21H60.9562C60.7766 21 60.6242 20.9258 60.4992 20.7773C60.3742 20.6289 60.3117 20.4531 60.3117 20.25V3.78516ZM68.5359 3.9375C68.5047 3.85937 68.4891 3.75781 68.4891 3.63281C68.4891 3.5 68.532 3.36719 68.618 3.23438C68.7117 3.10156 68.8484 3.03516 69.0281 3.03516H71.032C71.1883 3.03516 71.3211 3.08984 71.4305 3.19922C71.5477 3.30078 71.6258 3.42188 71.6648 3.5625L76.1297 18.2344C76.1453 18.2734 76.1922 18.293 76.2703 18.293C76.3562 18.293 76.4109 18.2695 76.4344 18.2227L77.7117 14.8125C79.157 10.7656 80.1648 7.09766 80.7352 3.80859C80.8133 3.29297 81.1062 3.03516 81.6141 3.03516H82.9148C83.2039 3.03516 83.4187 3.10547 83.5594 3.24609C83.7078 3.37891 83.782 3.50781 83.782 3.63281V3.89062C83.782 4.88281 83.282 6.92578 82.282 10.0195C82.032 10.793 81.7664 11.5625 81.4852 12.3281C80.7273 14.3984 80.1922 15.8047 79.8797 16.5469L79.0711 18.4688C78.6883 19.3281 78.4227 19.8867 78.2742 20.1445C78.1336 20.4023 77.993 20.582 77.8523 20.6836C77.5711 20.8945 77.1297 21 76.5281 21H75.907C75.3133 21 74.9109 20.9336 74.7 20.8008C74.3406 20.5742 74.0711 20.207 73.8914 19.6992L68.5359 3.9375ZM89.1117 3.78516C89.1117 3.58203 89.1742 3.40625 89.2992 3.25781C89.432 3.10937 89.5883 3.03516 89.768 3.03516H91.4086C91.5883 3.03516 91.7406 3.10937 91.8656 3.25781C91.9906 3.40625 92.0531 3.58203 92.0531 3.78516V20.25C92.0531 20.4531 91.9867 20.6289 91.8539 20.7773C91.7289 20.9258 91.5766 21 91.3969 21H89.7562C89.5766 21 89.4242 20.9258 89.2992 20.7773C89.1742 20.6289 89.1117 20.4531 89.1117 20.25V3.78516Z" fill="#3F3D56"/>
</g>
<defs>
<filter id="filter0_d" x="0" y="1" width="31" height="31" filterUnits="userSpaceOnUse" color-interpolation-filters="sRGB">
<feFlood flood-opacity="0" result="BackgroundImageFix"/>
<feColorMatrix in="SourceAlpha" type="matrix" values="0 0 0 0 0 0 0 0 0 0 0 0 0 0 0 0 0 0 127 0"/>
<feOffset dy="4"/>
<feGaussianBlur stdDeviation="2"/>
<feColorMatrix type="matrix" values="0 0 0 0 0 0 0 0 0 0 0 0 0 0 0 0 0 0 0.25 0"/>
<feBlend mode="normal" in2="BackgroundImageFix" result="effect1_dropShadow"/>
<feBlend mode="normal" in="SourceGraphic" in2="effect1_dropShadow" result="shape"/>
</filter>
<filter id="filter1_d" x="36.1461" y="3.03516" width="59.907" height="26.1641" filterUnits="userSpaceOnUse" color-interpolation-filters="sRGB">
<feFlood flood-opacity="0" result="BackgroundImageFix"/>
<feColorMatrix in="SourceAlpha" type="matrix" values="0 0 0 0 0 0 0 0 0 0 0 0 0 0 0 0 0 0 127 0"/>
<feOffset dy="4"/>
<feGaussianBlur stdDeviation="2"/>
<feColorMatrix type="matrix" values="0 0 0 0 0 0 0 0 0 0 0 0 0 0 0 0 0 0 0.25 0"/>
<feBlend mode="normal" in2="BackgroundImageFix" result="effect1_dropShadow"/>
<feBlend mode="normal" in="SourceGraphic" in2="effect1_dropShadow" result="shape"/>
</filter>
</defs>
</svg>
