<svg width="1440" height="1024" viewBox="0 0 1440 1024" fill="none" xmlns="http://www.w3.org/2000/svg">
<path d="M0 724H360H720H1440V813.476L1264.12 821L1088.86 807.748C1083.79 807.364 1078.7 807.368 1073.64 807.759L901.874 821L721.999 813.476L545.621 821L373.01 807.767C367.842 807.371 362.651 807.377 357.484 807.786L190.368 821L0 813.476V724Z" fill="#A2E5F6" fill-opacity="0.6"/>
<path d="M0 636H360H720H1440V797.426L1274.76 810.179C1267.69 810.725 1260.58 810.516 1253.55 809.558L1094.9 787.914C1085.84 786.679 1076.66 786.691 1067.61 787.95L912.488 809.524C905.432 810.505 898.291 810.73 891.187 810.194L729.598 797.999C724.539 797.617 719.458 797.621 714.4 798.01L556.343 810.175C549.216 810.723 542.05 810.506 534.969 809.527L379.162 787.977C369.93 786.7 360.565 786.72 351.339 788.036L200.945 809.491C193.914 810.494 186.795 810.745 179.71 810.24L0 797.426V636Z" fill="#A2E5F6" fill-opacity="0.8"/>
<path opacity="0.1" d="M605.776 738.394C608.758 740.966 611.823 743.365 614.97 745.593L925.32 487.899L929.443 498.374L748.712 765H794.41L945.228 531.702L950.725 538.368L914.023 765H965.562L1001.6 569.791H1014.65L1065.76 765H1115.24L1078.54 538.368L1084.03 531.702L1228.34 754.916C1238.86 749.016 1248.58 740.707 1257.11 730.339L1099.87 498.374L1103.99 487.899L1291.15 643.304C1291.85 636.5 1292.2 629.637 1292.2 622.764C1293.03 620.536 1293.83 618.279 1294.6 615.984C1299.26 602.25 1302.89 587.892 1305.44 573.134C1306.02 569.82 1306.53 566.468 1307 563.069L1103.99 456.475V430.765L1304.11 454.647C1297.3 420.29 1285.06 390 1269.06 366.575L1268.8 366.203L1103.99 411.72V386.962L1254.48 279.121C1247.87 237.937 1233.57 201.942 1214.29 175.604L1084.06 377.087L1078.56 370.422L1117.12 132.362C1103.12 136.262 1089.81 143.947 1077.95 154.978C1076.74 153.683 1075.52 152.388 1074.29 151.122C1071.58 148.316 1068.83 145.576 1066.04 142.904L1014.7 339.064H1001.64L953.694 79.4657C944.554 77.2057 935.254 75.5234 925.794 74.4188C918.143 73.5428 910.408 73.0698 902.588 73L950.746 370.422L945.249 377.087L773.746 111.775C736.906 135.914 705.116 170.261 680.817 211.76L925.32 386.972V411.73L571.176 313.916C570.715 314.506 570.255 315.097 569.801 315.697C541.888 352.596 524 409.416 524 473.158C524 474.996 524 476.834 524.048 478.653L925.32 430.765V456.475L553.377 651.684C563.716 687.6 582.077 717.989 605.776 738.404V738.394Z" fill="#00DAFE"/>
<path opacity="0.1" d="M1311 518.493C1311.02 537.23 1309.44 555.904 1306.29 574.128C1303.74 588.885 1300.11 603.242 1295.46 616.976C1294.68 619.27 1293.89 621.527 1293.05 623.755C1293.09 650.935 1287.53 677.565 1277.03 700.519C1258.99 739.901 1227.47 766 1191.62 766H674.209C650.369 766.033 627.001 756.796 606.761 739.339C590.283 725.149 576.296 706.045 565.818 683.418C552.194 654.025 544.969 619.813 545.007 584.878C542.809 579.355 540.775 573.642 538.906 567.739C532.899 548.747 528.798 528.705 526.718 508.171C525.568 496.92 524.994 485.57 525 474.207C525 410.469 542.864 353.653 570.793 316.756C591.576 289.276 617.932 272.851 646.596 272.851C648.974 272.851 651.33 272.975 653.673 273.194C654.965 269.608 656.305 266.053 657.692 262.53C695.962 165.408 771.058 94.5383 860.527 77.8087C874.052 75.2774 887.684 74.005 901.332 74C909.893 74 918.353 74.4856 926.712 75.4568C982.955 81.9125 1034.2 109.659 1075.16 152.107C1076.39 153.373 1077.61 154.668 1078.82 155.963C1096.3 139.862 1116.42 130.673 1137.85 130.673C1141.5 130.674 1145.16 130.944 1148.79 131.483C1201.34 139.243 1244.29 202.381 1256.17 285.42C1258.36 300.786 1259.45 316.413 1259.44 332.076C1259.44 339.18 1259.21 346.197 1258.76 353.129C1262.68 357.648 1266.39 362.49 1269.89 367.631C1295.12 404.518 1311 458.43 1311 518.493Z" fill="#00DAFE"/>
<path d="M0 576H360H720H1440V781.702L1277.65 797.67C1268.67 798.553 1259.62 798.217 1250.73 796.672L1098.54 770.216C1087.1 768.227 1075.4 768.246 1063.97 770.273L915.312 796.618C906.394 798.199 897.304 798.561 888.289 797.694L731.666 782.632C725.236 782.014 718.762 782.02 712.333 782.65L559.251 797.663C550.207 798.55 541.083 798.2 532.134 796.623L382.876 770.317C371.216 768.262 359.283 768.294 347.634 770.411L203.753 796.567C194.871 798.181 185.81 798.586 176.819 797.769L0 781.702V576Z" fill="#A2E5F6"/>
<path opacity="0.3" d="M68.1113 620.543C68.3952 619.802 68.8594 619.14 69.4632 618.617C70.067 618.094 70.7919 617.724 71.5743 617.542C72.4093 617.356 73.265 617.278 74.1204 617.308C79.3026 617.397 83.2322 619.728 87.9641 620.801C92.4832 621.858 97.6326 621.801 102.586 621.721C105.694 621.769 108.8 621.526 111.861 620.995C116.814 619.962 120.048 617.526 123.061 615.218" fill="#00DAFE"/>
<path opacity="0.3" d="M150.796 602.931C150.941 602.709 151.135 602.52 151.363 602.381C151.591 602.241 151.848 602.154 152.114 602.125C152.434 602.076 152.757 602.057 153.08 602.068C155.045 602.068 156.543 602.681 158.336 602.972C160.18 603.201 162.039 603.282 163.895 603.214C165.072 603.224 166.247 603.159 167.415 603.02C168.919 602.795 170.365 602.285 171.673 601.519" fill="#00DAFE"/>
<path opacity="0.3" d="M127.056 603.738C127.2 603.515 127.394 603.327 127.622 603.188C127.85 603.048 128.107 602.961 128.374 602.931C128.693 602.883 129.017 602.864 129.34 602.875C131.305 602.875 132.803 603.488 134.596 603.778C136.439 604.007 138.298 604.088 140.154 604.02C141.331 604.031 142.507 603.966 143.675 603.827C145.179 603.602 146.624 603.092 147.932 602.326" fill="#00DAFE"/>
<path opacity="0.3" d="M116.413 636.678C116.697 635.937 117.161 635.275 117.765 634.752C118.369 634.229 119.094 633.86 119.876 633.677C120.711 633.492 121.567 633.413 122.422 633.443C127.604 633.532 131.534 635.863 136.266 636.936C140.785 637.993 145.934 637.937 150.887 637.856C153.996 637.904 157.101 637.661 160.163 637.13C165.116 636.097 168.35 633.661 171.362 631.354" fill="#00DAFE"/>
<path opacity="0.3" d="M196.671 678.951C196.955 678.21 197.419 677.549 198.023 677.025C198.627 676.502 199.351 676.133 200.134 675.95C200.969 675.765 201.825 675.686 202.68 675.716C207.862 675.805 211.792 678.137 216.524 679.21C221.043 680.266 226.192 680.21 231.145 680.129C234.253 680.177 237.359 679.934 240.421 679.403C245.374 678.371 248.607 675.934 251.62 673.627" fill="#00DAFE"/>
<path opacity="0.3" d="M279.356 661.34C279.501 661.117 279.694 660.929 279.922 660.789C280.15 660.65 280.407 660.562 280.674 660.533C280.994 660.485 281.317 660.466 281.64 660.476C283.605 660.476 285.103 661.09 286.896 661.38C288.739 661.609 290.598 661.69 292.455 661.622C293.631 661.632 294.807 661.568 295.975 661.428C297.479 661.203 298.925 660.694 300.232 659.928" fill="#00DAFE"/>
<path opacity="0.3" d="M255.615 662.146C255.76 661.924 255.954 661.736 256.182 661.596C256.41 661.456 256.666 661.369 256.933 661.34C257.253 661.292 257.576 661.273 257.899 661.283C259.864 661.283 261.362 661.896 263.155 662.187C264.998 662.416 266.858 662.497 268.714 662.429C269.89 662.439 271.066 662.374 272.234 662.235C273.738 662.01 275.184 661.501 276.491 660.735" fill="#00DAFE"/>
<path opacity="0.3" d="M1113.64 608.412C1113.79 608.189 1113.98 608.001 1114.21 607.861C1114.44 607.722 1114.69 607.634 1114.96 607.605C1115.28 607.557 1115.6 607.538 1115.93 607.549C1117.89 607.549 1119.39 608.162 1121.18 608.452C1123.03 608.681 1124.88 608.762 1126.74 608.694C1127.92 608.705 1129.09 608.64 1130.26 608.501C1131.77 608.275 1133.21 607.766 1134.52 607" fill="#00DAFE"/>
<path opacity="0.3" d="M1103 641.352C1103.28 640.61 1103.75 639.949 1104.35 639.426C1104.96 638.903 1105.68 638.533 1106.46 638.351C1107.3 638.165 1108.15 638.087 1109.01 638.117C1114.19 638.206 1118.12 640.537 1122.85 641.61C1127.37 642.667 1132.52 642.61 1137.47 642.53C1140.58 642.578 1143.69 642.335 1146.75 641.804C1151.7 640.771 1154.94 638.335 1157.95 636.027" fill="#00DAFE"/>
<path opacity="0.3" d="M1183.26 683.625C1183.54 682.884 1184.01 682.222 1184.61 681.699C1185.21 681.176 1185.94 680.807 1186.72 680.624C1187.56 680.438 1188.41 680.36 1189.27 680.39C1194.45 680.479 1198.38 682.81 1203.11 683.883C1207.63 684.94 1212.78 684.884 1217.73 684.803C1220.84 684.851 1223.95 684.608 1227.01 684.077C1231.96 683.044 1235.19 680.608 1238.21 678.3" fill="#00DAFE"/>
<path opacity="0.3" d="M1265.94 666.013C1266.09 665.791 1266.28 665.603 1266.51 665.463C1266.74 665.323 1266.99 665.236 1267.26 665.207C1267.58 665.158 1267.9 665.14 1268.23 665.15C1270.19 665.15 1271.69 665.763 1273.48 666.054C1275.33 666.283 1277.19 666.364 1279.04 666.296C1280.22 666.306 1281.39 666.241 1282.56 666.102C1284.07 665.877 1285.51 665.368 1286.82 664.602" fill="#00DAFE"/>
<path opacity="0.3" d="M1242.2 666.82C1242.35 666.597 1242.54 666.409 1242.77 666.27C1243 666.13 1243.25 666.043 1243.52 666.013C1243.84 665.965 1244.16 665.946 1244.49 665.957C1246.45 665.957 1247.95 666.57 1249.74 666.86C1251.59 667.09 1253.44 667.17 1255.3 667.102C1256.48 667.113 1257.65 667.048 1258.82 666.909C1260.33 666.684 1261.77 666.174 1263.08 665.408" fill="#00DAFE"/>
<path opacity="0.3" d="M1092.64 683.412C1092.79 683.189 1092.98 683.001 1093.21 682.861C1093.44 682.722 1093.69 682.634 1093.96 682.605C1094.28 682.557 1094.6 682.538 1094.93 682.549C1096.89 682.549 1098.39 683.162 1100.18 683.452C1102.03 683.681 1103.88 683.762 1105.74 683.694C1106.92 683.705 1108.09 683.64 1109.26 683.501C1110.77 683.275 1112.21 682.766 1113.52 682" fill="#00DAFE"/>
<path opacity="0.3" d="M1082 716.352C1082.28 715.61 1082.75 714.949 1083.35 714.426C1083.96 713.903 1084.68 713.533 1085.46 713.351C1086.3 713.165 1087.15 713.087 1088.01 713.117C1093.19 713.206 1097.12 715.537 1101.85 716.61C1106.37 717.667 1111.52 717.61 1116.47 717.53C1119.58 717.578 1122.69 717.335 1125.75 716.804C1130.7 715.771 1133.94 713.335 1136.95 711.027" fill="#00DAFE"/>
<path opacity="0.3" d="M1162.26 758.625C1162.54 757.884 1163.01 757.222 1163.61 756.699C1164.21 756.176 1164.94 755.807 1165.72 755.624C1166.56 755.438 1167.41 755.36 1168.27 755.39C1173.45 755.479 1177.38 757.81 1182.11 758.883C1186.63 759.94 1191.78 759.884 1196.73 759.803C1199.84 759.851 1202.95 759.608 1206.01 759.077C1210.96 758.044 1214.19 755.608 1217.21 753.3" fill="#00DAFE"/>
<path opacity="0.3" d="M1244.94 741.013C1245.09 740.791 1245.28 740.603 1245.51 740.463C1245.74 740.323 1245.99 740.236 1246.26 740.207C1246.58 740.158 1246.9 740.14 1247.23 740.15C1249.19 740.15 1250.69 740.763 1252.48 741.054C1254.33 741.283 1256.19 741.364 1258.04 741.296C1259.22 741.306 1260.39 741.241 1261.56 741.102C1263.07 740.877 1264.51 740.368 1265.82 739.602" fill="#00DAFE"/>
<path opacity="0.3" d="M1221.2 741.82C1221.35 741.597 1221.54 741.409 1221.77 741.27C1222 741.13 1222.25 741.043 1222.52 741.013C1222.84 740.965 1223.16 740.946 1223.49 740.957C1225.45 740.957 1226.95 741.57 1228.74 741.86C1230.59 742.09 1232.44 742.17 1234.3 742.102C1235.48 742.113 1236.65 742.048 1237.82 741.909C1239.33 741.684 1240.77 741.174 1242.08 740.408" fill="#00DAFE"/>
<path opacity="0.3" d="M244.973 695.087C245.257 694.345 245.721 693.684 246.325 693.161C246.928 692.637 247.653 692.268 248.436 692.085C249.271 691.9 250.126 691.821 250.982 691.851C256.164 691.94 260.094 694.272 264.825 695.345C269.345 696.402 274.494 696.345 279.447 696.264C282.555 696.312 285.661 696.069 288.722 695.538C293.675 694.506 296.909 692.069 299.922 689.762" fill="#00DAFE"/>
<path opacity="0.3" d="M409.518 699.002C409.802 698.261 410.266 697.599 410.87 697.076C411.474 696.553 412.199 696.184 412.981 696.001C413.816 695.815 414.672 695.737 415.527 695.767C420.709 695.856 424.639 698.187 429.371 699.26C433.89 700.317 439.039 700.261 443.992 700.18C447.101 700.228 450.206 699.985 453.268 699.454C458.221 698.421 461.455 695.985 464.467 693.677" fill="#00DAFE"/>
<path opacity="0.3" d="M492.204 681.39C492.348 681.168 492.542 680.979 492.77 680.84C492.998 680.7 493.255 680.613 493.522 680.584C493.841 680.535 494.165 680.516 494.488 680.527C496.453 680.527 497.951 681.14 499.744 681.431C501.587 681.66 503.446 681.741 505.302 681.673C506.479 681.683 507.655 681.618 508.823 681.479C510.327 681.254 511.772 680.744 513.08 679.978" fill="#00DAFE"/>
<path opacity="0.3" d="M468.462 682.197C468.607 681.974 468.801 681.786 469.029 681.647C469.257 681.507 469.514 681.42 469.78 681.39C470.1 681.342 470.423 681.323 470.746 681.334C472.711 681.334 474.209 681.947 476.002 682.237C477.846 682.467 479.705 682.547 481.561 682.479C482.738 682.49 483.914 682.425 485.081 682.286C486.585 682.061 488.031 681.551 489.339 680.785" fill="#00DAFE"/>
<path opacity="0.3" d="M457.82 715.137C458.104 714.396 458.568 713.735 459.172 713.211C459.775 712.688 460.5 712.319 461.283 712.136C462.118 711.951 462.974 711.872 463.829 711.902C469.011 711.991 472.941 714.322 477.673 715.395C482.192 716.452 487.341 716.396 492.294 716.315C495.402 716.363 498.508 716.12 501.57 715.589C506.523 714.556 509.756 712.12 512.769 709.813" fill="#00DAFE"/>
<path opacity="0.3" d="M653.015 719.053C653.299 718.311 653.763 717.65 654.367 717.127C654.971 716.603 655.696 716.234 656.478 716.051C657.313 715.866 658.169 715.787 659.024 715.818C664.206 715.906 668.136 718.238 672.868 719.311C677.387 720.368 682.536 720.311 687.489 720.231C690.598 720.279 693.703 720.036 696.765 719.504C701.718 718.472 704.952 716.035 707.964 713.728" fill="#00DAFE"/>
<path opacity="0.3" d="M735.701 701.441C735.845 701.218 736.039 701.03 736.267 700.891C736.495 700.751 736.752 700.663 737.019 700.634C737.338 700.586 737.662 700.567 737.985 700.578C739.95 700.578 741.448 701.191 743.241 701.481C745.084 701.71 746.943 701.791 748.799 701.723C749.976 701.734 751.152 701.669 752.32 701.53C753.824 701.305 755.269 700.795 756.577 700.029" fill="#00DAFE"/>
<path opacity="0.3" d="M711.96 702.248C712.105 702.025 712.298 701.837 712.526 701.697C712.754 701.558 713.011 701.47 713.278 701.441C713.598 701.393 713.921 701.374 714.244 701.385C716.209 701.385 717.707 701.998 719.5 702.288C721.343 702.517 723.202 702.598 725.059 702.53C726.235 702.541 727.411 702.476 728.579 702.336C730.083 702.111 731.529 701.602 732.836 700.836" fill="#00DAFE"/>
<path opacity="0.3" d="M701.317 735.188C701.601 734.446 702.065 733.785 702.669 733.262C703.273 732.739 703.997 732.369 704.78 732.187C705.615 732.001 706.471 731.923 707.326 731.953C712.508 732.041 716.438 734.373 721.17 735.446C725.689 736.503 730.838 736.446 735.791 736.366C738.899 736.414 742.005 736.171 745.067 735.64C750.02 734.607 753.254 732.171 756.266 729.863" fill="#00DAFE"/>
<path opacity="0.3" d="M927.163 688.541C927.446 687.799 927.911 687.138 928.514 686.615C929.118 686.092 929.843 685.722 930.626 685.54C931.461 685.354 932.316 685.276 933.172 685.306C938.354 685.394 942.283 687.726 947.015 688.799C951.534 689.856 956.684 689.799 961.637 689.719C964.745 689.767 967.851 689.524 970.912 688.993C975.865 687.96 979.099 685.523 982.112 683.216" fill="#00DAFE"/>
<path opacity="0.3" d="M1009.85 670.929C1009.99 670.706 1010.19 670.518 1010.41 670.379C1010.64 670.239 1010.9 670.152 1011.17 670.122C1011.49 670.074 1011.81 670.055 1012.13 670.066C1014.1 670.066 1015.59 670.679 1017.39 670.969C1019.23 671.199 1021.09 671.28 1022.95 671.212C1024.12 671.222 1025.3 671.157 1026.47 671.018C1027.97 670.793 1029.42 670.283 1030.72 669.517" fill="#00DAFE"/>
<path opacity="0.3" d="M986.107 671.736C986.252 671.513 986.445 671.325 986.673 671.186C986.901 671.046 987.158 670.958 987.425 670.929C987.745 670.881 988.068 670.862 988.391 670.873C990.356 670.873 991.854 671.486 993.647 671.776C995.49 672.005 997.349 672.086 999.206 672.018C1000.38 672.029 1001.56 671.964 1002.73 671.825C1004.23 671.6 1005.68 671.09 1006.98 670.324" fill="#00DAFE"/>
<path opacity="0.3" d="M975.464 704.676C975.748 703.935 976.212 703.273 976.816 702.75C977.42 702.227 978.145 701.858 978.927 701.675C979.762 701.489 980.618 701.411 981.473 701.441C986.656 701.53 990.585 703.861 995.317 704.934C999.836 705.991 1004.99 705.934 1009.94 705.854C1013.05 705.902 1016.15 705.659 1019.21 705.128C1024.17 704.095 1027.4 701.659 1030.41 699.351" fill="#00DAFE"/>
<path opacity="0.3" d="M751.776 650.183C752.06 649.442 752.524 648.78 753.128 648.257C753.732 647.734 754.457 647.365 755.239 647.182C756.074 646.996 756.93 646.918 757.785 646.948C762.968 647.037 766.897 649.368 771.629 650.441C776.148 651.498 781.298 651.442 786.251 651.361C789.359 651.409 792.465 651.166 795.526 650.635C800.479 649.602 803.713 647.166 806.726 644.858" fill="#00DAFE"/>
<path opacity="0.3" d="M834.462 632.571C834.607 632.349 834.8 632.16 835.028 632.021C835.256 631.881 835.513 631.794 835.78 631.765C836.1 631.716 836.423 631.697 836.746 631.708C838.711 631.708 840.209 632.321 842.002 632.612C843.845 632.841 845.704 632.922 847.561 632.854C848.737 632.864 849.913 632.799 851.081 632.66C852.585 632.435 854.03 631.925 855.338 631.159" fill="#00DAFE"/>
<path opacity="0.3" d="M810.721 633.378C810.866 633.155 811.059 632.967 811.287 632.828C811.515 632.688 811.772 632.601 812.039 632.571C812.358 632.523 812.682 632.504 813.005 632.515C814.97 632.515 816.468 633.128 818.261 633.418C820.104 633.648 821.963 633.728 823.819 633.66C824.996 633.671 826.172 633.606 827.34 633.467C828.844 633.242 830.289 632.732 831.597 631.966" fill="#00DAFE"/>
<path opacity="0.3" d="M800.078 666.318C800.362 665.577 800.826 664.916 801.43 664.392C802.034 663.869 802.759 663.5 803.541 663.317C804.376 663.132 805.232 663.053 806.087 663.083C811.269 663.172 815.199 665.503 819.931 666.576C824.45 667.633 829.599 667.577 834.552 667.496C837.661 667.544 840.766 667.301 843.828 666.77C848.781 665.737 852.015 663.301 855.027 660.994" fill="#00DAFE"/>
<path opacity="0.3" d="M116.64 752.18C116.924 751.439 117.388 750.777 117.992 750.254C118.596 749.731 119.321 749.361 120.103 749.179C120.938 748.993 121.794 748.915 122.649 748.945C127.831 749.033 131.761 751.365 136.493 752.438C141.012 753.495 146.161 753.438 151.114 753.358C154.223 753.406 157.328 753.163 160.39 752.632C165.343 751.599 168.577 749.163 171.589 746.855" fill="#00DAFE"/>
<path opacity="0.3" d="M199.326 734.568C199.47 734.345 199.664 734.157 199.892 734.018C200.12 733.878 200.377 733.791 200.644 733.761C200.963 733.713 201.287 733.694 201.61 733.705C203.575 733.705 205.073 734.318 206.866 734.608C208.709 734.838 210.568 734.918 212.424 734.85C213.601 734.861 214.777 734.796 215.945 734.657C217.449 734.432 218.894 733.922 220.202 733.156" fill="#00DAFE"/>
<path opacity="0.3" d="M175.585 735.375C175.73 735.152 175.923 734.964 176.151 734.825C176.379 734.685 176.636 734.597 176.903 734.568C177.223 734.52 177.546 734.501 177.869 734.512C179.834 734.512 181.332 735.125 183.125 735.415C184.968 735.644 186.827 735.725 188.684 735.657C189.86 735.668 191.036 735.603 192.204 735.464C193.708 735.239 195.154 734.729 196.461 733.963" fill="#00DAFE"/>
<path opacity="0.3" d="M164.942 768.315C165.226 767.574 165.69 766.912 166.294 766.389C166.898 765.866 167.622 765.497 168.405 765.314C169.24 765.128 170.096 765.05 170.951 765.08C176.133 765.169 180.063 767.5 184.795 768.573C189.314 769.63 194.463 769.573 199.416 769.493C202.524 769.541 205.63 769.298 208.692 768.767C213.645 767.734 216.878 765.298 219.891 762.99" fill="#00DAFE"/>
<path opacity="0.3" d="M320.974 605.723C321.258 604.982 321.722 604.32 322.326 603.797C322.929 603.274 323.654 602.904 324.437 602.722C325.272 602.536 326.127 602.458 326.983 602.488C332.165 602.577 336.094 604.908 340.826 605.981C345.345 607.038 350.495 606.981 355.448 606.901C358.556 606.949 361.662 606.706 364.723 606.175C369.676 605.142 372.91 602.706 375.923 600.398" fill="#00DAFE"/>
<path opacity="0.3" d="M403.659 588.111C403.804 587.888 403.997 587.7 404.226 587.561C404.454 587.421 404.71 587.334 404.977 587.304C405.297 587.256 405.62 587.237 405.943 587.248C407.908 587.248 409.406 587.861 411.199 588.152C413.042 588.381 414.901 588.462 416.758 588.394C417.934 588.404 419.11 588.339 420.278 588.2C421.782 587.975 423.228 587.465 424.535 586.699" fill="#00DAFE"/>
<path opacity="0.3" d="M379.918 588.918C380.063 588.695 380.256 588.507 380.484 588.368C380.712 588.228 380.969 588.14 381.236 588.111C381.556 588.063 381.879 588.044 382.202 588.055C384.167 588.055 385.665 588.668 387.458 588.958C389.301 589.187 391.16 589.268 393.017 589.2C394.193 589.211 395.369 589.146 396.537 589.007C398.041 588.782 399.487 588.272 400.794 587.506" fill="#00DAFE"/>
<path opacity="0.3" d="M369.275 621.858C369.559 621.117 370.023 620.455 370.627 619.932C371.231 619.409 371.956 619.04 372.738 618.857C373.573 618.672 374.429 618.593 375.284 618.623C380.467 618.712 384.396 621.043 389.128 622.116C393.647 623.173 398.797 623.117 403.75 623.036C406.858 623.084 409.964 622.841 413.025 622.31C417.978 621.277 421.212 618.841 424.225 616.534" fill="#00DAFE"/>
<g clip-path="url(#clip0)">
<path d="M1024.48 521.817C1074.3 521.817 1114.69 480.412 1114.69 429.336C1114.69 378.261 1074.3 336.856 1024.48 336.856C974.657 336.856 934.269 378.261 934.269 429.336C934.269 480.412 974.657 521.817 1024.48 521.817Z" fill="#FFFFEB"/>
<path opacity="0.1" d="M1093.81 618.47H1043.65L1029.17 483.42L1028.96 481.468V481.462L1027.73 469.985L1077.91 469.634L1079.44 469.623L1079.55 470.724L1093.81 618.47Z" fill="#00DAFE"/>
<path opacity="0.1" d="M1029.96 482.624L1029.17 483.42L894.366 618.47H825.677L996.428 443.771L1028.95 481.462L1029.96 482.624Z" fill="#00DAFE"/>
<path d="M1234.74 594.157C1227.03 602.312 1217.71 608.812 1207.36 613.255C1197.02 617.698 1185.87 619.99 1174.59 619.988H750.524C723.274 619.999 697.09 609.489 677.515 590.682L678.123 590.582C740.005 580.778 837.137 574.46 946.348 574.46C1067.26 574.46 1173.35 582.202 1233.21 593.855C1233.73 593.95 1234.23 594.051 1234.74 594.157Z" fill="#E8EAF2"/>
<path opacity="0.3" d="M1235.08 594.275C1227.36 602.393 1218.04 608.863 1207.68 613.286C1197.33 617.709 1186.17 619.99 1174.88 619.988H750.434C723.159 619.998 696.951 609.533 677.359 590.811L677.968 590.711C739.905 580.929 837.125 574.662 946.435 574.662C1067.45 574.662 1173.64 582.369 1233.56 593.969C1234.07 594.064 1234.58 594.164 1235.08 594.275Z" fill="#00DAFE"/>
<path d="M1109.6 591.072L1105.02 607.716C1104.16 610.84 1102.28 613.598 1099.68 615.565C1097.07 617.532 1093.88 618.598 1090.6 618.598H806.531C803.25 618.598 800.059 617.532 797.453 615.565C794.846 613.598 792.968 610.84 792.108 607.716L787.526 591.072C783.535 576.569 793.973 561.761 809.191 561.088C809.563 561.088 809.935 561.06 810.319 561.06H1086.84C1087.22 561.06 1087.59 561.06 1087.97 561.088C1103.17 561.761 1113.61 576.569 1109.6 591.072Z" fill="#3F3D56"/>
<path opacity="0.1" d="M1082.09 568.634C1082.09 586.612 1020.25 601.187 943.966 601.187C867.685 601.187 805.844 586.612 805.844 568.634C805.844 566.02 807.146 563.485 809.603 561.06H1078.33C1080.78 563.485 1082.09 566.02 1082.09 568.634Z" fill="black"/>
<path d="M1119.69 494.525C1119.69 481.245 1107.32 470.479 1092.07 470.479C1076.82 470.479 1064.45 481.245 1064.45 494.525C1049.2 494.525 1036.83 505.296 1036.83 518.575C1036.83 531.854 1049.21 542.626 1064.45 542.626C1069.25 542.643 1073.99 541.537 1078.27 539.401C1082.55 541.52 1087.28 542.624 1092.08 542.624C1096.87 542.624 1101.6 541.52 1105.88 539.401C1110.17 541.537 1114.9 542.643 1119.7 542.626C1134.96 542.626 1147.32 531.854 1147.32 518.575C1147.32 505.296 1134.97 494.525 1119.69 494.525Z" fill="#00DAFE"/>
<path opacity="0.1" d="M1119.69 494.525C1119.69 481.245 1107.32 470.479 1092.07 470.479C1076.82 470.479 1064.45 481.245 1064.45 494.525C1049.2 494.525 1036.83 505.296 1036.83 518.575C1036.83 531.854 1049.21 542.626 1064.45 542.626C1069.25 542.643 1073.99 541.537 1078.27 539.401C1082.55 541.52 1087.28 542.624 1092.08 542.624C1096.87 542.624 1101.6 541.52 1105.88 539.401C1110.17 541.537 1114.9 542.643 1119.7 542.626C1134.96 542.626 1147.32 531.854 1147.32 518.575C1147.32 505.296 1134.97 494.525 1119.69 494.525Z" fill="black"/>
<path d="M1054.41 372.814C1054.41 369.478 1053.79 366.17 1052.58 363.055C1058.74 360.904 1063.92 356.677 1067.22 351.12C1070.52 345.563 1071.72 339.034 1070.62 332.687C1069.51 326.34 1066.17 320.582 1061.18 316.432C1056.18 312.281 1049.87 310.005 1043.34 310.005C1043.34 303.317 1040.85 296.862 1036.34 291.865C1031.84 286.868 1025.63 283.675 1018.9 282.892C1012.17 282.109 1005.38 283.79 999.82 287.617C994.262 291.444 990.319 297.15 988.741 303.654C988.487 303.654 988.233 303.654 987.98 303.654C987.986 296.85 985.417 290.289 980.777 285.257C976.136 280.224 969.758 277.082 962.893 276.446C956.027 275.81 949.168 277.726 943.659 281.818C938.15 285.911 934.388 291.886 933.111 298.571C929.028 295.406 924.125 293.437 918.962 292.891C913.798 292.344 908.583 293.242 903.913 295.482C899.243 297.721 895.305 301.212 892.551 305.555C889.796 309.898 888.336 314.919 888.336 320.042C882.383 320.05 876.591 321.952 871.82 325.466C867.05 328.98 863.555 333.918 861.854 339.547C860.153 345.176 860.338 351.196 862.381 356.713C864.423 362.23 868.214 366.95 873.192 370.173C872.835 371.94 872.656 373.737 872.656 375.539C868.409 375.537 864.219 376.499 860.41 378.351C856.6 380.203 853.274 382.895 850.687 386.218C848.101 389.542 846.325 393.408 845.496 397.517C844.667 401.626 844.807 405.869 845.906 409.916C847.005 413.963 849.034 417.707 851.834 420.857C854.634 424.007 858.132 426.479 862.056 428.081C865.98 429.684 870.225 430.374 874.462 430.099C878.7 429.823 882.816 428.59 886.493 426.493C890.701 428.89 895.474 430.152 900.333 430.152C905.192 430.152 909.965 428.89 914.173 426.493C919.301 429.415 925.245 430.637 931.129 429.978C937.014 429.32 942.529 426.816 946.863 422.834C947.342 422.834 947.821 422.873 948.306 422.873C953.167 422.877 957.943 421.613 962.149 419.209C968.33 422.744 975.663 423.771 982.597 422.072C986.934 425.23 992.111 427.071 997.492 427.367C1002.87 427.663 1008.23 426.403 1012.89 423.741C1017.1 426.137 1021.87 427.399 1026.73 427.399C1031.59 427.399 1036.36 426.137 1040.57 423.741C1044.25 425.837 1048.37 427.071 1052.6 427.346C1056.84 427.622 1061.09 426.931 1065.01 425.329C1068.93 423.726 1072.43 421.254 1075.23 418.104C1078.03 414.954 1080.06 411.211 1081.16 407.163C1082.26 403.116 1082.4 398.874 1081.57 394.764C1080.74 390.655 1078.96 386.789 1076.38 383.466C1073.79 380.142 1070.46 377.45 1066.66 375.599C1062.85 373.747 1058.66 372.785 1054.41 372.787V372.814ZM928.01 375.545C928.008 374.369 927.929 373.195 927.773 372.03C928.483 371.702 929.182 371.357 929.859 370.968C930.964 371.606 932.115 372.164 933.302 372.636C931.938 373.51 930.651 374.498 929.458 375.589C928.979 375.556 928.495 375.545 928.01 375.545V375.545Z" fill="#00DAFE"/>
<path d="M1041.8 448.064C1041.7 441.602 1039.03 435.439 1034.37 430.904C1029.7 426.369 1023.41 423.827 1016.86 423.827C1010.31 423.827 1004.03 426.369 999.36 430.904C994.694 435.439 992.023 441.602 991.925 448.064C988.098 448.062 984.322 448.928 980.889 450.597C977.457 452.265 974.459 454.69 972.129 457.685C969.798 460.68 968.197 464.163 967.45 467.866C966.703 471.569 966.83 475.392 967.82 479.039C968.81 482.686 970.638 486.059 973.161 488.897C975.685 491.735 978.836 493.963 982.372 495.407C985.908 496.851 989.733 497.472 993.552 497.224C997.37 496.976 1001.08 495.864 1004.39 493.974C1008.18 496.138 1012.48 497.277 1016.86 497.277C1021.24 497.277 1025.54 496.138 1029.33 493.974C1032.65 495.86 1036.35 496.968 1040.17 497.214C1043.98 497.46 1047.81 496.836 1051.34 495.392C1054.87 493.947 1058.02 491.721 1060.54 488.884C1063.06 486.047 1064.89 482.676 1065.88 479.032C1066.87 475.387 1067 471.567 1066.25 467.867C1065.5 464.166 1063.91 460.685 1061.58 457.691C1059.25 454.698 1056.26 452.272 1052.83 450.603C1049.4 448.934 1045.62 448.065 1041.8 448.064V448.064Z" fill="#00DAFE"/>
<path opacity="0.1" d="M1041.8 448.064C1041.7 441.602 1039.03 435.439 1034.37 430.904C1029.7 426.369 1023.41 423.827 1016.86 423.827C1010.31 423.827 1004.03 426.369 999.36 430.904C994.694 435.439 992.023 441.602 991.925 448.064C988.098 448.062 984.322 448.928 980.889 450.597C977.457 452.265 974.459 454.69 972.129 457.685C969.798 460.68 968.197 464.163 967.45 467.866C966.703 471.569 966.83 475.392 967.82 479.039C968.81 482.686 970.638 486.059 973.161 488.897C975.685 491.735 978.836 493.963 982.372 495.407C985.908 496.851 989.733 497.472 993.552 497.224C997.37 496.976 1001.08 495.864 1004.39 493.974C1008.18 496.138 1012.48 497.277 1016.86 497.277C1021.24 497.277 1025.54 496.138 1029.33 493.974C1032.65 495.86 1036.35 496.968 1040.17 497.214C1043.98 497.46 1047.81 496.836 1051.34 495.392C1054.87 493.947 1058.02 491.721 1060.54 488.884C1063.06 486.047 1064.89 482.676 1065.88 479.032C1066.87 475.387 1067 471.567 1066.25 467.867C1065.5 464.166 1063.91 460.685 1061.58 457.691C1059.25 454.698 1056.26 452.272 1052.83 450.603C1049.4 448.934 1045.62 448.065 1041.8 448.064V448.064Z" fill="black"/>
<path opacity="0.1" d="M1054.41 372.814C1054.41 369.478 1053.79 366.17 1052.58 363.055C1058.74 360.904 1063.92 356.677 1067.22 351.12C1070.52 345.563 1071.72 339.034 1070.62 332.687C1069.51 326.34 1066.17 320.582 1061.18 316.432C1056.18 312.281 1049.87 310.005 1043.34 310.005C1043.34 303.317 1040.85 296.862 1036.34 291.865C1031.84 286.868 1025.63 283.675 1018.9 282.892C1012.17 282.109 1005.38 283.79 999.82 287.617C994.262 291.444 990.319 297.15 988.741 303.654C988.487 303.654 988.233 303.654 987.98 303.654C987.986 296.85 985.417 290.289 980.777 285.257C976.136 280.224 969.758 277.082 962.893 276.446C956.027 275.81 949.168 277.726 943.659 281.818C938.15 285.911 934.388 291.886 933.111 298.571C929.028 295.406 924.125 293.437 918.962 292.891C913.798 292.344 908.583 293.242 903.913 295.482C899.243 297.721 895.305 301.212 892.551 305.555C889.796 309.898 888.336 314.919 888.336 320.042C882.383 320.05 876.591 321.952 871.82 325.466C867.05 328.98 863.555 333.918 861.854 339.547C860.153 345.176 860.338 351.196 862.381 356.713C864.423 362.23 868.214 366.95 873.192 370.173C872.835 371.94 872.656 373.737 872.656 375.539C868.409 375.537 864.219 376.499 860.41 378.351C856.6 380.203 853.274 382.895 850.687 386.218C848.101 389.542 846.325 393.408 845.496 397.517C844.667 401.626 844.807 405.869 845.906 409.916C847.005 413.963 849.034 417.707 851.834 420.857C854.634 424.007 858.132 426.479 862.056 428.081C865.98 429.684 870.225 430.374 874.462 430.099C878.7 429.823 882.816 428.59 886.493 426.493C890.701 428.89 895.474 430.152 900.333 430.152C905.192 430.152 909.965 428.89 914.173 426.493C919.301 429.415 925.245 430.637 931.129 429.978C937.014 429.32 942.529 426.816 946.863 422.834C947.342 422.834 947.821 422.873 948.306 422.873C953.167 422.877 957.943 421.613 962.149 419.209C968.33 422.744 975.663 423.771 982.597 422.072C986.934 425.23 992.111 427.071 997.492 427.367C1002.87 427.663 1008.23 426.403 1012.89 423.741C1017.1 426.137 1021.87 427.399 1026.73 427.399C1031.59 427.399 1036.36 426.137 1040.57 423.741C1044.25 425.837 1048.37 427.071 1052.6 427.346C1056.84 427.622 1061.09 426.931 1065.01 425.329C1068.93 423.726 1072.43 421.254 1075.23 418.104C1078.03 414.954 1080.06 411.211 1081.16 407.163C1082.26 403.116 1082.4 398.874 1081.57 394.764C1080.74 390.655 1078.96 386.789 1076.38 383.466C1073.79 380.142 1070.46 377.45 1066.66 375.599C1062.85 373.747 1058.66 372.785 1054.41 372.787V372.814ZM928.01 375.545C928.008 374.369 927.929 373.195 927.773 372.03C928.483 371.702 929.182 371.357 929.859 370.968C930.964 371.606 932.115 372.164 933.302 372.636C931.938 373.51 930.651 374.498 929.458 375.589C928.979 375.556 928.495 375.545 928.01 375.545V375.545Z" fill="black"/>
<path d="M1033.4 507.081C1031.24 506.236 1029.06 505.379 1026.76 505.09C1026.53 505.09 1026.3 505.046 1026.06 505.029C1026.06 504.796 1026.06 504.568 1026.09 504.34C1026.22 501.559 1027.09 498.69 1029.06 496.682C1031.03 494.675 1033.78 493.685 1035.06 491.316C1030.37 489.958 1025.5 489.238 1020.61 489.175C1019.36 489.175 1018.04 489.175 1017 489.876C1015.72 490.693 1015.16 492.239 1014.74 493.696C1013.44 498.523 1012.57 503.25 1011.09 507.96L1010.7 508.049C1005.46 509.161 998.863 508.299 996.456 503.644C997.058 501.297 997.811 498.99 998.711 496.738C1001.53 489.815 1005.85 483.592 1010.11 477.425C1012.87 473.425 1015.64 469.429 1018.41 465.436C1014.26 464.203 1010.05 463.195 1005.8 462.416C1004.89 462.249 1003.87 462.116 1003.12 462.639C1002.62 463.067 1002.24 463.631 1002.05 464.262C997.978 474.116 992.99 484.899 991.575 495.731C990.783 495.307 989.969 494.925 989.135 494.586L976.025 489.069C975.331 488.839 974.704 488.446 974.199 487.924C973.004 486.461 974.199 484.137 975.946 483.358C977.693 482.58 979.672 482.802 981.582 482.636C983.493 482.469 985.601 481.785 986.311 480.039C987.134 478.031 985.562 475.762 983.64 474.711C981.718 473.66 979.457 473.366 977.44 472.487C975.888 471.771 974.527 470.709 973.465 469.383C972.402 468.058 971.667 466.506 971.319 464.852L968.191 464.707C972.316 460.815 976.594 457.083 981.509 454.22C983.882 452.835 986.396 451.662 988.605 450.032C991.515 447.831 993.793 444.921 995.216 441.587C996.639 438.253 997.158 434.611 996.721 431.02C996.44 428.929 995.836 426.766 996.507 424.764C997.071 423.134 998.345 421.883 999.602 420.699L1010.92 410.011C1003.72 408.391 996.332 407.674 988.943 407.875C987.072 407.931 985.139 408.053 983.465 408.888C980.41 410.411 978.956 413.859 977.761 417.023C976.851 419.252 976.114 421.546 975.557 423.885C974.723 427.833 974.847 432.16 972.587 435.513C970.795 438.171 967.813 439.739 965.136 441.53C957.506 446.657 951.812 454.132 948.943 462.789C948.762 463.345 948.458 464.057 948.109 464.852C941.475 465.408 934.976 466.654 928.838 469.201C921.122 472.404 914.387 477.492 907.775 482.547C900.493 488.107 892.834 494.33 890.275 503.072C887.428 512.775 891.819 523.419 898.848 530.765C904.597 536.765 911.89 540.991 919.245 544.789C924.053 547.269 924.853 546.763 929.075 543.427L940.426 534.451C943.667 531.894 946.964 529.269 949.168 525.799C952.206 521.022 952.956 514.955 956.636 510.634C961.675 504.712 971.95 504.217 977.558 509.617C979.17 511.174 980.573 513.209 982.772 513.726C983.842 513.982 985.026 513.837 986.007 514.282C987.878 515.161 988.16 517.619 988.825 519.532C990.657 524.687 996.879 527.384 1002.35 526.611C1007.82 525.838 1012.54 522.329 1016.25 518.269C1017.25 517.157 1018.25 515.978 1019.63 515.317C1020.73 514.834 1021.92 514.584 1023.12 514.583C1027.12 514.421 1031.09 515.289 1034.64 517.102C1037.95 518.77 1040.84 521.244 1044.32 522.546C1051.2 525.115 1058.9 522.674 1065.64 519.765L1033.4 507.081Z" fill="#3F3D56"/>
<path opacity="0.1" d="M1033.4 507.081C1031.24 506.236 1029.06 505.379 1026.76 505.09C1026.53 505.09 1026.3 505.046 1026.06 505.029C1026.06 504.796 1026.06 504.568 1026.09 504.34C1026.22 501.559 1027.09 498.69 1029.06 496.682C1031.03 494.675 1033.78 493.685 1035.06 491.316C1030.37 489.958 1025.5 489.238 1020.61 489.175C1019.36 489.175 1018.04 489.175 1017 489.876C1015.72 490.693 1015.16 492.239 1014.74 493.696C1013.44 498.523 1012.57 503.25 1011.09 507.96L1010.7 508.049C1005.46 509.161 998.863 508.299 996.456 503.644C997.058 501.297 997.811 498.99 998.711 496.738C1001.53 489.815 1005.85 483.592 1010.11 477.425C1012.87 473.425 1015.64 469.429 1018.41 465.436C1014.26 464.203 1010.05 463.195 1005.8 462.416C1004.89 462.249 1003.87 462.116 1003.12 462.639C1002.62 463.067 1002.24 463.631 1002.05 464.262C997.978 474.116 992.99 484.899 991.575 495.731C990.783 495.307 989.969 494.925 989.135 494.586L976.025 489.069C975.331 488.839 974.704 488.446 974.199 487.924C973.004 486.461 974.199 484.137 975.946 483.358C977.693 482.58 979.672 482.802 981.582 482.636C983.493 482.469 985.601 481.785 986.311 480.039C987.134 478.031 985.562 475.762 983.64 474.711C981.718 473.66 979.457 473.366 977.44 472.487C975.888 471.771 974.527 470.709 973.465 469.383C972.402 468.058 971.667 466.506 971.319 464.852L968.191 464.707C972.316 460.815 976.594 457.083 981.509 454.22C983.882 452.835 986.396 451.662 988.605 450.032C991.515 447.831 993.793 444.921 995.216 441.587C996.639 438.253 997.158 434.611 996.721 431.02C996.44 428.929 995.836 426.766 996.507 424.764C997.071 423.134 998.345 421.883 999.602 420.699L1010.92 410.011C1003.72 408.391 996.332 407.674 988.943 407.875C987.072 407.931 985.139 408.053 983.465 408.888C980.41 410.411 978.956 413.859 977.761 417.023C976.851 419.252 976.114 421.546 975.557 423.885C974.723 427.833 974.847 432.16 972.587 435.513C970.795 438.171 967.813 439.739 965.136 441.53C957.506 446.657 951.812 454.132 948.943 462.789C948.762 463.345 948.458 464.057 948.109 464.852C941.475 465.408 934.976 466.654 928.838 469.201C921.122 472.404 914.387 477.492 907.775 482.547C900.493 488.107 892.834 494.33 890.275 503.072C887.428 512.775 891.819 523.419 898.848 530.765C904.597 536.765 911.89 540.991 919.245 544.789C924.053 547.269 924.853 546.763 929.075 543.427L940.426 534.451C943.667 531.894 946.964 529.269 949.168 525.799C952.206 521.022 952.956 514.955 956.636 510.634C961.675 504.712 971.95 504.217 977.558 509.617C979.17 511.174 980.573 513.209 982.772 513.726C983.842 513.982 985.026 513.837 986.007 514.282C987.878 515.161 988.16 517.619 988.825 519.532C990.657 524.687 996.879 527.384 1002.35 526.611C1007.82 525.838 1012.54 522.329 1016.25 518.269C1017.25 517.157 1018.25 515.978 1019.63 515.317C1020.73 514.834 1021.92 514.584 1023.12 514.583C1027.12 514.421 1031.09 515.289 1034.64 517.102C1037.95 518.77 1040.84 521.244 1044.32 522.546C1051.2 525.115 1058.9 522.674 1065.64 519.765L1033.4 507.081Z" fill="black"/>
<path d="M941.278 438.911C941.278 425.236 926.68 414.159 908.666 414.159C890.653 414.159 876.055 425.225 876.055 438.911C858.019 438.911 843.443 449.988 843.443 463.662C843.443 477.336 858.041 488.408 876.055 488.408C881.667 488.431 887.221 487.295 892.361 485.071C897.51 487.261 903.059 488.391 908.666 488.391C914.274 488.391 919.822 487.261 924.972 485.071C930.111 487.295 935.666 488.431 941.278 488.408C959.314 488.408 973.889 477.33 973.889 463.662C973.889 449.993 959.291 438.911 941.278 438.911Z" fill="#00DAFE"/>
<path opacity="0.1" d="M941.278 438.911C941.278 425.236 926.68 414.159 908.666 414.159C890.653 414.159 876.055 425.225 876.055 438.911C858.019 438.911 843.443 449.988 843.443 463.662C843.443 477.336 858.041 488.408 876.055 488.408C881.667 488.431 887.221 487.295 892.361 485.071C897.51 487.261 903.059 488.391 908.666 488.391C914.274 488.391 919.822 487.261 924.972 485.071C930.111 487.295 935.666 488.431 941.278 488.408C959.314 488.408 973.889 477.33 973.889 463.662C973.889 449.993 959.291 438.911 941.278 438.911Z" fill="black"/>
<path d="M1011.22 578.705L992.522 570.213C991.023 569.529 989.36 568.678 988.893 567.11C988.726 566.262 988.726 565.39 988.893 564.541C989.342 560.128 988.37 555.688 986.114 551.851C984.711 549.477 982.811 547.341 981.971 544.717C980.179 539.156 983.662 533.267 983.831 527.406C984.017 521.7 981.013 516.212 976.735 512.347C975.467 511.196 974.075 510.123 973.077 508.76C970.18 504.745 971.386 499.307 972.762 494.508L973.117 494.185C973.382 493.93 973.184 492.834 972.7 491.21C978.104 489.789 983.199 487.403 987.732 484.17C989.169 483.142 990.55 482.013 992.241 481.357C994.563 480.439 997.195 480.545 999.54 479.688C1003.91 478.081 1006.34 473.571 1008.38 469.434C1013.2 459.653 1018.1 449.543 1018.71 438.683C1014.75 435.663 1009.94 433.93 1004.94 433.722C1004.11 433.689 1003.16 433.722 1002.62 434.367C1002.31 434.777 1002.12 435.258 1002.05 435.763C1000.35 443.514 997.399 450.947 993.323 457.784C991.694 460.656 989.695 463.308 987.376 465.675C984.558 468.455 981.098 470.53 977.693 472.593C974.83 474.322 970.997 476.007 967.745 477.992C965.491 472.276 963.434 467.06 963.699 466.259C966.529 457.537 966.639 448.178 964.014 439.394C963.36 437.215 962.526 435.062 962.323 432.794C962.12 430.525 962.577 428.289 962.757 426.032C963.112 421.555 962.419 417.068 962.447 412.574C962.481 406.491 963.834 400.496 965.181 394.557C961.435 393.897 957.62 393.695 953.824 393.957C953.075 393.959 952.34 394.151 951.688 394.513C950.741 395.119 950.386 396.287 950.064 397.354C947.556 405.646 943.008 413.214 940.308 421.449C937.608 429.685 937.028 439.333 942.05 446.429C943.836 448.948 946.333 451.228 946.728 454.275C946.936 455.888 946.508 457.506 946.08 459.08C945.319 461.899 957.561 492.195 958.243 494.992C958.243 495.07 958.288 495.136 958.305 495.209C957.921 495.292 957.532 495.364 957.144 495.453C956.627 503.331 953.538 510.833 948.34 516.835C947.649 514.898 947.16 512.897 946.88 510.862C946.457 507.804 946.497 504.651 945.533 501.715C944.09 497.333 940.607 493.974 937.563 490.487C932.083 484.194 927.756 477.008 924.774 469.251C922.477 470.092 920.123 470.774 917.729 471.291C916.461 471.569 912.093 471.575 911.405 472.693C910.346 474.361 915.08 482.118 916.016 483.903C919.313 490.182 924.87 495.086 928.134 501.381C929.495 504.175 930.62 507.074 931.499 510.05C933.28 515.611 935.061 521.172 936.425 526.822C934.79 528.49 933.499 530.526 932.096 532.422C927.119 539.102 920.533 544.454 912.933 547.992C912.025 548.415 911.022 548.887 910.633 549.799C910.567 549.955 910.518 550.117 910.486 550.283C907.387 548.126 904.49 545.718 902.472 542.581C901.581 541.191 900.877 539.684 899.907 538.35C896.644 533.862 890.934 531.966 886.262 528.896C884.289 527.606 882.452 526.077 880.27 525.17C877.875 524.169 875.226 523.98 872.633 523.808C870.508 523.663 862.358 521.99 861.31 523.864C859.822 526.516 864.54 530.392 866.428 531.326C869.567 532.878 873.157 533.273 876.438 534.502C879.403 535.704 882.156 537.363 884.593 539.417C885.659 540.192 886.591 541.131 887.355 542.198C888.167 543.449 888.545 544.923 889.227 546.246C891.413 550.489 896.142 552.43 900.375 554.926C899.252 554.975 898.146 555.221 897.112 555.655C893.961 557.067 892.496 560.565 890.444 563.318C888.612 565.759 886.2 567.711 884.182 569.991C882.164 572.271 880.485 575.123 880.637 578.154C880.733 580.073 881.516 582.169 880.485 583.798C882.858 584.81 885.777 586.023 888.347 586.329C890.917 586.634 893.702 586.151 895.624 584.443C896.219 583.817 896.857 583.232 897.534 582.692C899.163 581.619 901.395 581.919 903.137 582.797C904.878 583.676 906.316 585.05 907.911 586.178C910.188 587.769 912.784 588.863 915.524 589.385C918.263 589.908 921.085 589.848 923.799 589.209C924.927 588.942 926.544 588.714 926.195 587.647C923.809 586.548 921.778 584.819 920.327 582.652C918.876 580.485 918.06 577.964 917.971 575.368C919.746 575.034 921.58 575.182 923.276 575.798C924.971 576.413 926.466 577.471 927.598 578.86C926.031 578.927 924.994 581.007 925.907 582.275C928.892 582.216 931.82 581.452 934.444 580.048C937.068 578.643 939.313 576.638 940.99 574.2C942.22 573.703 943.558 573.52 944.879 573.669C946.201 573.819 947.462 574.295 948.547 575.054C949.631 575.813 950.504 576.83 951.084 578.011C951.663 579.191 951.931 580.497 951.862 581.808L960.012 585.778C961.292 586.401 962.65 587.04 964.076 586.946C965.502 586.851 966.956 585.717 966.849 584.316C966.725 582.708 964.769 581.068 965.84 579.867C967.757 580.712 969.222 582.38 971.189 583.109C973.156 583.837 976.053 582.864 975.946 580.796C975.859 580.106 975.589 579.452 975.163 578.899C972.959 575.586 970.029 572.804 966.59 570.758C966.336 568.94 970.535 566.943 971.809 568.3L982.135 579.528C982.938 580.494 983.889 581.33 984.953 582.008C988.645 584.115 993.255 582.008 997.516 582.008C1002.13 582.008 1006.84 584.599 1011.13 582.948C1012.26 582.519 1013.39 581.468 1013.07 580.323C1012.81 579.5 1011.97 579.072 1011.22 578.705Z" fill="#3F3D56"/>
<path d="M1039.12 369.517C1039.12 366.743 1038.6 363.993 1037.6 361.403C1042.71 359.613 1047.02 356.097 1049.77 351.475C1052.51 346.854 1053.51 341.424 1052.59 336.146C1051.67 330.867 1048.89 326.079 1044.74 322.627C1040.59 319.175 1035.34 317.28 1029.91 317.278C1029.9 311.718 1027.83 306.353 1024.08 302.2C1020.34 298.046 1015.18 295.393 1009.58 294.742C1003.98 294.09 998.339 295.487 993.716 298.667C989.093 301.847 985.813 306.589 984.497 311.995C984.288 311.995 984.079 311.995 983.865 311.995C983.891 306.322 981.763 300.845 977.901 296.642C974.039 292.439 968.722 289.814 962.997 289.284C957.272 288.754 951.553 290.357 946.966 293.778C942.379 297.199 939.256 302.19 938.212 307.769C934.816 305.136 930.739 303.499 926.445 303.045C922.151 302.591 917.815 303.338 913.931 305.2C910.047 307.063 906.773 309.966 904.482 313.578C902.192 317.19 900.977 321.364 900.978 325.625C896.023 325.628 891.202 327.208 887.23 330.13C883.258 333.053 880.348 337.162 878.932 341.847C877.517 346.532 877.671 351.542 879.372 356.134C881.074 360.725 884.231 364.652 888.376 367.331C888.082 368.797 887.933 370.286 887.93 371.78C884.397 371.777 880.911 372.576 877.741 374.116C874.571 375.656 871.803 377.895 869.651 380.66C867.498 383.424 866.02 386.641 865.33 390.06C864.64 393.478 864.757 397.008 865.671 400.375C866.586 403.743 868.273 406.857 870.604 409.477C872.934 412.098 875.844 414.154 879.109 415.487C882.374 416.819 885.906 417.393 889.431 417.163C892.957 416.932 896.381 415.905 899.44 414.159C902.939 416.156 906.91 417.207 910.952 417.207C914.994 417.207 918.965 416.156 922.464 414.159C926.727 416.592 931.67 417.609 936.564 417.062C941.458 416.514 946.044 414.43 949.648 411.117C950.048 411.117 950.448 411.145 950.854 411.145C954.895 411.149 958.865 410.1 962.363 408.103C967.516 411.049 973.626 411.906 979.407 410.495C983.011 413.125 987.316 414.658 991.792 414.907C996.268 415.156 1000.72 414.109 1004.6 411.896C1008.1 413.892 1012.07 414.943 1016.11 414.943C1020.15 414.943 1024.12 413.892 1027.62 411.896C1030.68 413.637 1034.1 414.661 1037.62 414.889C1041.15 415.117 1044.67 414.542 1047.94 413.209C1051.2 411.876 1054.1 409.821 1056.43 407.202C1058.76 404.584 1060.45 401.472 1061.36 398.108C1062.27 394.743 1062.39 391.217 1061.7 387.8C1061.02 384.384 1059.54 381.17 1057.39 378.406C1055.24 375.642 1052.48 373.403 1049.31 371.861C1046.15 370.32 1042.66 369.518 1039.13 369.517H1039.12ZM933.99 371.791C933.987 370.815 933.921 369.84 933.793 368.872C934.356 368.594 934.965 368.316 935.523 367.988C936.447 368.51 937.405 368.971 938.392 369.367C937.254 370.09 936.183 370.911 935.19 371.819C934.796 371.802 934.39 371.791 933.99 371.791V371.791Z" fill="#00DAFE"/>
<path d="M1117.38 495.192C1117.38 482.652 1105.7 472.481 1091.29 472.481C1076.88 472.481 1065.21 482.652 1065.21 495.192C1050.8 495.192 1039.12 505.363 1039.12 517.908C1039.12 530.453 1050.8 540.619 1065.21 540.619C1069.74 540.63 1074.21 539.58 1078.25 537.554C1082.3 539.558 1086.77 540.602 1091.3 540.602C1095.82 540.602 1100.29 539.558 1104.34 537.554C1108.38 539.574 1112.85 540.618 1117.38 540.602C1131.79 540.602 1143.47 530.437 1143.47 517.891C1143.47 505.346 1131.79 495.192 1117.38 495.192Z" fill="#00DAFE"/>
<path d="M1039.12 449.015C1039.17 446.002 1038.61 443.01 1037.47 440.213C1036.33 437.416 1034.65 434.87 1032.5 432.723C1030.36 430.576 1027.81 428.87 1024.99 427.706C1022.17 426.543 1019.15 425.943 1016.1 425.943C1013.04 425.943 1010.02 426.543 1007.2 427.706C1004.39 428.87 1001.83 430.576 999.689 432.723C997.547 434.87 995.858 437.416 994.723 440.213C993.587 443.01 993.027 446.002 993.075 449.015C989.545 449.016 986.063 449.819 982.898 451.36C979.733 452.902 976.97 455.141 974.821 457.904C972.673 460.667 971.198 463.881 970.51 467.297C969.821 470.712 969.939 474.238 970.852 477.602C971.765 480.966 973.451 484.078 975.778 486.696C978.104 489.315 981.011 491.371 984.271 492.704C987.532 494.038 991.06 494.614 994.582 494.388C998.104 494.161 1001.53 493.139 1004.58 491.399C1008.08 493.392 1012.05 494.441 1016.09 494.441C1020.13 494.441 1024.1 493.392 1027.6 491.399C1030.66 493.141 1034.08 494.165 1037.61 494.393C1041.13 494.62 1044.66 494.045 1047.92 492.713C1051.18 491.38 1054.09 489.325 1056.42 486.706C1058.74 484.087 1060.43 480.975 1061.34 477.611C1062.26 474.247 1062.38 470.72 1061.69 467.304C1061 463.887 1059.52 460.673 1057.38 457.909C1055.23 455.145 1052.46 452.906 1049.3 451.365C1046.13 449.824 1042.65 449.021 1039.12 449.02V449.015Z" fill="#00DAFE"/>
<path d="M938.595 439.928C938.595 427.383 925.192 417.218 908.666 417.218C892.14 417.218 878.737 427.383 878.737 439.928C862.212 439.928 848.814 450.099 848.814 462.639C848.814 475.178 862.212 485.355 878.737 485.355C883.887 485.382 888.984 484.344 893.702 482.307C898.428 484.318 903.52 485.355 908.666 485.355C913.812 485.355 918.904 484.318 923.63 482.307C928.348 484.344 933.445 485.382 938.595 485.355C955.12 485.355 968.518 475.184 968.518 462.639C968.518 450.093 955.12 439.928 938.595 439.928Z" fill="#00DAFE"/>
<path d="M882.576 506.553C882.626 503.34 882.027 500.151 880.815 497.169C879.603 494.187 877.803 491.473 875.518 489.184C873.233 486.895 870.509 485.077 867.505 483.837C864.502 482.596 861.278 481.957 858.022 481.957C854.766 481.957 851.542 482.596 848.538 483.837C845.535 485.077 842.811 486.895 840.526 489.184C838.241 491.473 836.441 494.187 835.229 497.169C834.017 500.151 833.418 503.34 833.467 506.553C829.699 506.55 825.981 507.404 822.601 509.046C819.221 510.689 816.269 513.077 813.974 516.026C811.68 518.974 810.103 522.404 809.368 526.051C808.632 529.697 808.757 533.461 809.732 537.052C810.707 540.643 812.506 543.964 814.991 546.759C817.476 549.553 820.579 551.747 824.061 553.168C827.543 554.59 831.309 555.202 835.069 554.957C838.829 554.713 842.481 553.618 845.743 551.757C849.476 553.884 853.711 555.005 858.022 555.005C862.333 555.005 866.568 553.884 870.301 551.757C873.562 553.613 877.213 554.705 880.97 554.947C884.727 555.189 888.491 554.576 891.969 553.154C895.448 551.731 898.548 549.539 901.031 546.746C903.513 543.952 905.311 540.633 906.286 537.045C907.26 533.456 907.385 529.695 906.651 526.051C905.916 522.408 904.342 518.979 902.05 516.032C899.758 513.084 896.81 510.696 893.433 509.053C890.056 507.409 886.342 506.554 882.576 506.553V506.553Z" fill="#00DAFE"/>
<path opacity="0.1" d="M882.576 506.553C882.626 503.34 882.027 500.151 880.815 497.169C879.603 494.187 877.803 491.473 875.518 489.184C873.233 486.895 870.509 485.077 867.505 483.837C864.502 482.596 861.278 481.957 858.022 481.957C854.766 481.957 851.542 482.596 848.538 483.837C845.535 485.077 842.811 486.895 840.526 489.184C838.241 491.473 836.441 494.187 835.229 497.169C834.017 500.151 833.418 503.34 833.467 506.553C829.699 506.55 825.981 507.404 822.601 509.046C819.221 510.689 816.269 513.077 813.974 516.026C811.68 518.974 810.103 522.404 809.368 526.051C808.632 529.697 808.757 533.461 809.732 537.052C810.707 540.643 812.506 543.964 814.991 546.759C817.476 549.553 820.579 551.747 824.061 553.168C827.543 554.59 831.309 555.202 835.069 554.957C838.829 554.713 842.481 553.618 845.743 551.757C849.476 553.884 853.711 555.005 858.022 555.005C862.333 555.005 866.568 553.884 870.301 551.757C873.562 553.613 877.213 554.705 880.97 554.947C884.727 555.189 888.491 554.576 891.969 553.154C895.448 551.731 898.548 549.539 901.031 546.746C903.513 543.952 905.311 540.633 906.286 537.045C907.26 533.456 907.385 529.695 906.651 526.051C905.916 522.408 904.342 518.979 902.05 516.032C899.758 513.084 896.81 510.696 893.433 509.053C890.056 507.409 886.342 506.554 882.576 506.553V506.553Z" fill="black"/>
<path d="M881.043 507.309C881.091 504.296 880.531 501.304 879.395 498.507C878.26 495.71 876.572 493.164 874.429 491.017C872.287 488.87 869.733 487.165 866.916 486.001C864.099 484.837 861.076 484.237 858.022 484.237C854.968 484.237 851.945 484.837 849.128 486.001C846.311 487.165 843.757 488.87 841.614 491.017C839.472 493.164 837.784 495.71 836.648 498.507C835.513 501.304 834.953 504.296 835 507.309C831.47 507.309 827.987 508.111 824.82 509.651C821.654 511.192 818.889 513.431 816.74 516.195C814.59 518.958 813.114 522.173 812.426 525.589C811.737 529.006 811.854 532.533 812.768 535.897C813.681 539.262 815.367 542.374 817.695 544.993C820.023 547.612 822.93 549.668 826.192 551.001C829.454 552.334 832.983 552.909 836.506 552.681C840.029 552.454 843.452 551.43 846.51 549.688C850.01 551.681 853.98 552.73 858.022 552.73C862.063 552.73 866.033 551.681 869.534 549.688C872.592 551.43 876.014 552.454 879.537 552.681C883.061 552.909 886.589 552.334 889.851 551.001C893.113 549.668 896.02 547.612 898.348 544.993C900.676 542.374 902.362 539.262 903.276 535.897C904.19 532.533 904.307 529.006 903.618 525.589C902.929 522.173 901.453 518.958 899.304 516.195C897.155 513.431 894.39 511.192 891.223 509.651C888.057 508.111 884.574 507.309 881.043 507.309V507.309Z" fill="#00DAFE"/>
<path opacity="0.1" d="M953.17 322.578C958.537 322.577 963.723 324.491 967.773 327.965C971.822 331.44 974.463 336.241 975.208 341.485C975.648 338.494 975.457 335.445 974.647 332.53C973.838 329.616 972.427 326.897 970.503 324.545C968.58 322.193 966.185 320.258 963.468 318.862C960.751 317.465 957.772 316.637 954.715 316.43C951.659 316.222 948.593 316.639 945.708 317.655C942.823 318.671 940.181 320.263 937.949 322.333C935.717 324.402 933.941 326.904 932.734 329.682C931.528 332.46 930.915 335.454 930.935 338.476C930.938 339.49 931.009 340.502 931.149 341.507C931.89 336.262 934.526 331.459 938.573 327.98C942.619 324.502 947.803 322.583 953.17 322.578V322.578Z" fill="black"/>
<path opacity="0.1" d="M998.863 361.776C1003.74 363.987 1007.65 367.865 1009.86 372.693C1012.07 377.522 1012.44 382.977 1010.89 388.051C1012.53 385.514 1013.63 382.671 1014.11 379.698C1014.59 376.726 1014.45 373.688 1013.69 370.772C1012.93 367.857 1011.57 365.127 1009.69 362.752C1007.82 360.376 1005.47 358.407 1002.79 356.965C1000.12 355.523 997.165 354.64 994.127 354.371C991.088 354.101 988.026 354.452 985.13 355.399C982.234 356.347 979.567 357.872 977.294 359.88C975.02 361.887 973.19 364.335 971.916 367.07C971.49 367.992 971.129 368.941 970.834 369.912C973.725 365.447 978.154 362.165 983.306 360.669C988.457 359.174 993.983 359.567 998.863 361.776V361.776Z" fill="black"/>
<path opacity="0.1" d="M933.641 378.431C938.521 380.642 942.426 384.519 944.637 389.348C946.847 394.177 947.214 399.631 945.668 404.706C946.22 403.851 946.714 402.962 947.145 402.042C949.574 396.755 949.782 390.735 947.724 385.297C945.665 379.859 941.508 375.447 936.161 373.026C930.814 370.604 924.713 370.37 919.192 372.375C913.671 374.38 909.179 378.461 906.699 383.725C906.274 384.647 905.912 385.596 905.617 386.566C908.508 382.103 912.936 378.822 918.086 377.326C923.236 375.831 928.761 376.224 933.641 378.431Z" fill="black"/>
<path opacity="0.1" d="M910.476 448.764C912.893 450.858 914.462 453.742 914.893 456.887C915.324 460.032 914.588 463.224 912.82 465.875C913.287 465.479 913.726 465.051 914.134 464.596C916.465 461.974 917.645 458.545 917.414 455.065C917.183 451.584 915.56 448.337 912.902 446.037C911.586 444.898 910.056 444.026 908.398 443.471C906.741 442.915 904.988 442.688 903.242 442.801C899.714 443.028 896.422 444.63 894.091 447.252C893.681 447.709 893.304 448.194 892.964 448.703C895.398 446.626 898.513 445.487 901.731 445.499C904.95 445.51 908.056 446.67 910.476 448.764Z" fill="black"/>
<path opacity="0.1" d="M1119.96 509.333C1122.38 511.424 1123.95 514.306 1124.38 517.449C1124.81 520.592 1124.07 523.783 1122.31 526.433C1122.77 526.036 1123.21 525.609 1123.62 525.154C1124.77 523.856 1125.65 522.346 1126.22 520.711C1126.78 519.076 1127.01 517.348 1126.9 515.625C1126.78 513.902 1126.32 512.218 1125.55 510.67C1124.78 509.121 1123.7 507.738 1122.39 506.6C1121.07 505.461 1119.54 504.59 1117.88 504.035C1116.23 503.48 1114.47 503.252 1112.73 503.365C1110.98 503.478 1109.27 503.929 1107.71 504.692C1106.14 505.456 1104.73 506.517 1103.58 507.815C1103.17 508.27 1102.79 508.753 1102.45 509.261C1104.89 507.185 1108 506.049 1111.22 506.062C1114.44 506.076 1117.54 507.237 1119.96 509.333Z" fill="black"/>
<path opacity="0.1" d="M858.751 509.144C861.328 507.237 864.517 506.315 867.73 506.549C870.942 506.783 873.959 508.157 876.224 510.417C875.929 509.885 875.595 509.374 875.226 508.888C873.082 506.168 869.941 504.386 866.48 503.927C863.018 503.468 859.512 504.368 856.715 506.433C853.919 508.498 852.056 511.563 851.527 514.97C850.998 518.376 851.846 521.851 853.887 524.648C854.256 525.131 854.657 525.59 855.088 526.021C853.533 523.245 853.048 520.008 853.721 516.907C854.394 513.805 856.181 511.048 858.751 509.144V509.144Z" fill="black"/>
<path opacity="0.1" d="M1013.75 459.931C1016.33 458.024 1019.52 457.103 1022.73 457.337C1025.94 457.571 1028.96 458.945 1031.23 461.204C1030.93 460.672 1030.6 460.161 1030.23 459.675C1029.19 458.257 1027.88 457.057 1026.37 456.144C1024.86 455.232 1023.18 454.626 1021.43 454.361C1019.68 454.097 1017.89 454.179 1016.18 454.603C1014.46 455.028 1012.84 455.786 1011.42 456.833C1010.01 457.88 1008.81 459.195 1007.92 460.702C1007.02 462.209 1006.44 463.877 1006.2 465.609C1005.97 467.341 1006.08 469.101 1006.54 470.788C1007.01 472.475 1007.8 474.055 1008.89 475.434C1009.26 475.921 1009.66 476.382 1010.1 476.813C1008.54 474.037 1008.05 470.8 1008.73 467.697C1009.4 464.595 1011.18 461.837 1013.75 459.931Z" fill="black"/>
<path d="M989.58 558.346C988.104 557.234 988.29 554.548 988.29 554.548C988.29 554.548 990.866 553.703 992.342 554.832C993.819 555.961 994.394 557.668 993.633 558.636C992.872 559.603 991.057 559.481 989.58 558.346Z" fill="#00DAFE"/>
<path d="M994.653 587.819C993.177 586.707 993.363 584.021 993.363 584.021C993.363 584.021 995.938 583.176 997.415 584.304C998.892 585.433 999.467 587.14 998.706 588.108C997.945 589.076 996.13 588.953 994.653 587.819Z" fill="#00DAFE"/>
<path d="M989.58 590.599C988.104 589.487 988.29 586.801 988.29 586.801C988.29 586.801 990.866 585.956 992.342 587.085C993.819 588.214 994.394 589.921 993.633 590.889C992.872 591.856 991.057 591.734 989.58 590.599Z" fill="#00DAFE"/>
<path d="M1024.53 568.912C1023.05 567.8 1023.23 565.114 1023.23 565.114C1023.23 565.114 1025.81 564.269 1027.29 565.398C1028.76 566.526 1029.34 568.234 1028.58 569.201C1027.82 570.169 1026 570.047 1024.53 568.912Z" fill="#00DAFE"/>
<path d="M879.29 482.919C880.445 481.473 883.156 481.685 883.156 481.685C883.156 481.685 883.979 484.237 882.818 485.683C881.657 487.129 879.927 487.679 878.952 486.917C877.977 486.156 878.129 484.365 879.29 482.919Z" fill="#00DAFE"/>
<path opacity="0.1" d="M896.272 375.867C904.054 375.867 910.363 369.643 910.363 361.965C910.363 354.287 904.054 348.063 896.272 348.063C888.49 348.063 882.181 354.287 882.181 361.965C882.181 369.643 888.49 375.867 896.272 375.867Z" fill="#00DAFE"/>
<path opacity="0.3" d="M713.375 598.629C713.57 598.118 713.89 597.662 714.306 597.302C714.721 596.941 715.22 596.687 715.759 596.561C716.334 596.433 716.923 596.379 717.512 596.399C721.08 596.46 723.785 598.068 727.043 598.807C730.154 599.536 733.699 599.497 737.109 599.441C739.249 599.474 741.387 599.307 743.495 598.941C746.905 598.229 749.131 596.549 751.206 594.959" fill="#00DAFE"/>
<path opacity="0.3" d="M1111.3 593.068C1111.49 592.557 1111.81 592.102 1112.23 591.741C1112.64 591.38 1113.14 591.126 1113.68 591C1114.25 590.872 1114.84 590.818 1115.43 590.838C1119 590.9 1121.71 592.507 1124.96 593.246C1128.07 593.975 1131.62 593.936 1135.03 593.88C1137.17 593.913 1139.31 593.746 1141.42 593.38C1144.8 592.668 1147.05 590.989 1149.13 589.398" fill="#00DAFE"/>
<path opacity="0.3" d="M1142.86 605.302C1143.05 604.791 1143.37 604.335 1143.79 603.975C1144.2 603.614 1144.7 603.36 1145.24 603.234C1145.82 603.106 1146.41 603.052 1147 603.072C1150.56 603.133 1153.27 604.741 1156.53 605.48C1159.64 606.209 1163.18 606.17 1166.59 606.114C1168.73 606.147 1170.87 605.98 1172.98 605.614C1176.36 604.902 1178.61 603.222 1180.69 601.632" fill="#00DAFE"/>
<path opacity="0.3" d="M1116.37 602.55C1116.46 602.398 1116.59 602.269 1116.74 602.172C1116.89 602.076 1117.06 602.015 1117.24 601.993C1117.45 601.956 1117.66 601.941 1117.88 601.949C1119.18 601.949 1120.17 602.411 1121.36 602.627C1122.57 602.802 1123.8 602.863 1125.03 602.811C1125.81 602.82 1126.59 602.772 1127.36 602.666C1128.37 602.494 1129.33 602.115 1130.18 601.554" fill="#00DAFE"/>
<path opacity="0.3" d="M1122 596.433C1122.1 596.281 1122.22 596.152 1122.37 596.056C1122.52 595.959 1122.69 595.898 1122.87 595.877C1123.08 595.839 1123.3 595.824 1123.51 595.832C1124.82 595.832 1125.8 596.294 1126.99 596.511C1128.21 596.685 1129.44 596.747 1130.67 596.694C1131.45 596.703 1132.22 596.655 1133 596.549C1134 596.377 1134.96 595.998 1135.81 595.437" fill="#00DAFE"/>
<path opacity="0.3" d="M770.301 586.49C770.401 586.336 770.534 586.207 770.691 586.11C770.848 586.014 771.025 585.954 771.209 585.934C771.429 585.9 771.651 585.887 771.874 585.895C773.227 585.895 774.258 586.317 775.492 586.518C776.761 586.676 778.041 586.731 779.319 586.684C780.129 586.692 780.939 586.647 781.743 586.551C782.778 586.396 783.774 586.045 784.674 585.517" fill="#00DAFE"/>
<path opacity="0.3" d="M753.957 587.046C754.056 586.892 754.189 586.763 754.346 586.667C754.503 586.57 754.68 586.51 754.864 586.49C755.084 586.457 755.307 586.444 755.529 586.451C756.882 586.451 757.913 586.874 759.148 587.074C760.417 587.232 761.696 587.287 762.975 587.241C763.785 587.248 764.594 587.203 765.398 587.107C766.434 586.952 767.429 586.601 768.329 586.073" fill="#00DAFE"/>
<path opacity="0.3" d="M746.629 609.751C746.825 609.24 747.144 608.784 747.56 608.423C747.976 608.063 748.475 607.808 749.014 607.682C749.588 607.554 750.178 607.5 750.766 607.521C754.334 607.582 757.04 609.189 760.297 609.929C763.409 610.657 766.954 610.618 770.364 610.563C772.504 610.596 774.642 610.428 776.75 610.062C780.16 609.35 782.386 607.671 784.46 606.081" fill="#00DAFE"/>
<path d="M1072.7 578.621C1072.63 578.823 1072.62 579.041 1072.66 579.25C1072.79 579.667 1073.31 579.806 1073.76 579.861C1074.78 579.955 1075.81 579.979 1076.84 579.934L1086.12 579.756C1086.27 579.767 1086.41 579.74 1086.54 579.678C1086.66 579.593 1086.75 579.48 1086.82 579.35C1087.45 578.202 1087.86 576.948 1088.02 575.652C1088.06 575.467 1088.05 575.274 1087.98 575.096C1087.84 574.868 1087.61 574.705 1087.34 574.64C1086.03 574.148 1084.68 573.729 1083.32 573.383C1082.43 573.188 1081.55 572.937 1080.7 572.632C1079.57 572.199 1078.44 571.214 1077.31 571.008C1076.31 570.836 1076.14 571.604 1075.82 572.382C1074.92 574.54 1073.34 576.364 1072.7 578.621Z" fill="#FABDBD"/>
<path d="M1107.53 591.178C1107.29 590.115 1106.34 589.37 1105.43 588.742C1104.53 588.114 1103.55 587.48 1102.59 586.896C1104.16 586.05 1105.61 584.997 1106.89 583.765C1107.67 583.113 1108.34 582.348 1108.88 581.496C1109.43 580.634 1109.6 579.594 1109.37 578.605C1109.17 578.036 1108.85 577.519 1108.42 577.092C1107.99 576.665 1107.46 576.34 1106.89 576.141C1105.73 575.747 1104.52 575.536 1103.3 575.518C1102.43 575.463 1101.55 575.413 1100.68 575.374C1101.22 575.271 1101.77 575.139 1102.3 574.979C1104.27 574.34 1106.16 573.484 1107.94 572.426C1108.24 572.301 1108.51 572.118 1108.74 571.888C1108.97 571.658 1109.15 571.386 1109.28 571.086C1109.33 570.791 1109.3 570.486 1109.18 570.209C1109.06 569.932 1108.87 569.694 1108.62 569.524C1108.12 569.18 1107.53 568.987 1106.93 568.968C1106.1 568.926 1105.27 569.053 1104.5 569.34C1103.72 569.627 1103.01 570.068 1102.42 570.636C1102.04 571.056 1101.61 571.429 1101.14 571.748C1100.86 571.939 1100.52 572.016 1100.19 571.962C1099.86 571.908 1099.56 571.727 1099.36 571.459C1099.23 571.213 1099.16 570.94 1099.16 570.664L1099.19 570.636C1099.89 570.004 1100.43 569.214 1100.75 568.333C1101.07 567.452 1101.16 566.507 1101.03 565.581C1100.78 564.174 1100.31 562.814 1099.63 561.549C1100.59 561.206 1101.6 560.991 1102.62 560.91C1102.89 560.906 1103.17 560.859 1103.43 560.771C1103.68 560.636 1103.9 560.448 1104.07 560.219C1104.24 559.99 1104.36 559.726 1104.41 559.447C1104.51 558.902 1104.67 558.367 1104.88 557.851C1106.1 558.613 1107.56 558.909 1108.98 558.682C1110.4 558.456 1111.69 557.723 1112.6 556.623C1113.7 556.672 1114.79 556.432 1115.75 555.927C1116.91 555.26 1117.95 553.642 1117.26 552.324C1116.98 551.926 1116.65 551.567 1116.27 551.256C1115.8 550.698 1115.44 550.059 1115.21 549.371C1113.97 546.307 1111.35 545.112 1108.15 544.633C1106.72 544.38 1105.25 544.342 1103.81 544.522C1102.7 544.724 1101.62 545.033 1100.58 545.445L1100.07 545.634C1100.03 544.806 1099.89 543.966 1099.86 543.315C1099.82 543.042 1099.85 542.764 1099.94 542.504C1100.2 542.093 1100.6 541.795 1101.07 541.669L1107.44 538.989C1108.11 538.681 1108.81 538.43 1109.53 538.238C1111.61 537.749 1113.93 538.238 1115.82 537.271C1116.37 536.987 1116.85 536.593 1117.23 536.114C1117.61 535.635 1117.89 535.081 1118.04 534.49C1118.25 533.64 1118.11 532.589 1117.34 532.138C1116.58 531.688 1115.52 532.071 1114.69 532.483C1112 533.908 1109.21 535.144 1106.35 536.181C1103.61 537.093 1100.71 537.638 1098.16 538.961C1097.69 539.174 1097.27 539.457 1096.9 539.801C1096.51 540.232 1096.19 540.72 1095.95 541.247L1094.95 543.115C1094.17 544.628 1093.39 546.407 1094.03 547.953C1093.93 548.058 1093.85 548.171 1093.77 548.292C1093.49 548.748 1093.62 549.343 1093.38 549.744C1093.14 550.144 1092.21 550.539 1091.77 550.856C1091.16 551.262 1090.57 551.696 1089.99 552.14C1087.75 553.91 1085.69 555.9 1083.86 558.079C1081.13 561.39 1078.61 564.855 1076.29 568.456C1075.83 569.062 1075.48 569.736 1075.23 570.452C1075.06 571.113 1075.08 571.81 1075.29 572.46C1074.37 574.439 1072.94 576.174 1072.34 578.288L1071.97 578.349C1071.3 580.273 1071.73 582.492 1072.08 584.505C1072.28 585.65 1072.56 586.901 1073.51 587.602C1074.03 587.93 1074.6 588.158 1075.2 588.275C1075.88 588.453 1076.51 588.631 1077.12 588.831H1077.04C1076.26 588.759 1075.35 588.831 1074.89 589.431C1074.67 589.768 1074.53 590.148 1074.49 590.544L1073.02 598.724C1072.85 599.323 1072.88 599.961 1073.1 600.542C1073.42 601.024 1073.89 601.388 1074.45 601.576C1075.44 602.006 1076.49 602.293 1077.57 602.427C1078.01 602.511 1078.47 602.483 1078.9 602.344C1079.12 602.268 1079.3 602.128 1079.42 601.944C1079.55 601.76 1079.61 601.542 1079.6 601.321C1079.51 600.698 1078.72 600.403 1078.47 599.836C1078.1 599.096 1078.7 598.273 1079.26 597.667C1079.34 597.573 1079.44 597.478 1079.54 597.378C1079.76 598.013 1080.06 598.618 1080.44 599.18C1080.57 599.419 1080.77 599.617 1081.01 599.747C1081.25 599.877 1081.53 599.935 1081.8 599.914C1083.11 599.625 1084.42 599.35 1085.75 599.091L1086 599.196C1088.17 600.097 1090.41 600.824 1092.7 601.371C1093.12 601.499 1093.58 601.536 1094.02 601.482C1094.24 601.445 1094.44 601.346 1094.6 601.197C1094.76 601.047 1094.88 600.855 1094.93 600.642C1094.99 600.119 1094.53 599.686 1094.09 599.374C1093.26 598.802 1092.35 598.351 1091.39 598.034L1095.68 597.261C1097.11 596.958 1098.56 596.792 1100.02 596.766C1101.91 596.8 1103.97 597.239 1105.5 596.149C1106.36 595.42 1106.97 594.45 1107.25 593.369C1107.54 592.677 1107.64 591.919 1107.53 591.178ZM1092.7 575.174C1092.03 575.174 1091.28 575.174 1090.52 575.174C1090.6 574.617 1090.64 574.061 1090.72 573.505C1090.72 573.334 1090.79 573.168 1090.89 573.033C1091.04 572.908 1091.22 572.832 1091.41 572.816L1094.08 572.299C1094.14 572.084 1094.16 571.861 1094.13 571.641C1094.09 571.421 1094.02 571.209 1093.9 571.02C1094.11 571.167 1094.33 571.292 1094.56 571.392C1094.53 572.479 1094.72 573.562 1095.13 574.573C1095.21 574.808 1095.36 575.016 1095.55 575.179H1095.59C1094.62 575.185 1093.66 575.174 1092.7 575.174Z" fill="url(#paint0_linear)"/>
<path d="M1102.98 575.785C1104.17 575.799 1105.35 576.002 1106.48 576.386C1107.05 576.583 1107.56 576.904 1107.97 577.324C1108.39 577.744 1108.71 578.252 1108.9 578.81C1109.12 579.789 1108.95 580.815 1108.42 581.669C1107.88 582.501 1107.22 583.251 1106.46 583.893C1105.04 585.291 1103.4 586.442 1101.59 587.296C1100.7 587.68 1099.76 587.941 1098.89 588.364C1097.04 589.265 1095.61 590.827 1094.24 592.357C1092.88 593.733 1091.72 595.293 1090.8 596.989C1090.73 597.117 1090.66 597.267 1090.51 597.311C1090.38 597.331 1090.25 597.304 1090.13 597.233L1086.19 595.393C1086.07 595.365 1085.96 595.308 1085.88 595.226C1085.79 595.144 1085.73 595.041 1085.7 594.928C1085.67 594.815 1085.66 594.695 1085.7 594.581C1085.73 594.467 1085.79 594.364 1085.87 594.281C1087.8 590.711 1090.45 587.569 1093.65 585.05C1092.28 585.782 1090.75 586.182 1089.19 586.213C1087.63 586.245 1086.09 585.909 1084.69 585.233C1084.13 584.99 1083.65 584.607 1083.29 584.121C1082.59 583.059 1083.02 581.646 1083.55 580.49C1084.03 579.466 1084.57 578.474 1085.18 577.52C1086.63 575.24 1090.16 575.446 1092.59 575.44C1096.04 575.459 1099.5 575.574 1102.98 575.785Z" fill="#434175"/>
<path opacity="0.1" d="M1097.53 583.787C1096.87 583.859 1096.24 584.067 1095.67 584.399C1096.65 583.748 1098.88 583.915 1100.02 583.804C1101.48 583.751 1102.93 583.481 1104.31 583.003C1102.03 583.1 1099.76 583.362 1097.53 583.787V583.787Z" fill="black"/>
<path d="M1079.39 597.717C1078.83 598.318 1078.27 599.13 1078.62 599.858C1078.89 600.414 1079.65 600.703 1079.74 601.321C1079.75 601.538 1079.69 601.754 1079.57 601.935C1079.45 602.116 1079.27 602.254 1079.06 602.327C1078.64 602.468 1078.19 602.499 1077.76 602.416C1076.71 602.287 1075.68 602.006 1074.71 601.582C1074.17 601.401 1073.71 601.044 1073.4 600.57C1073.18 599.997 1073.15 599.369 1073.32 598.779L1074.78 590.644C1074.82 590.248 1074.95 589.867 1075.17 589.532C1075.63 588.931 1076.51 588.864 1077.28 588.937C1078.13 589.016 1078.97 589.203 1079.78 589.493C1080.34 589.645 1080.84 589.973 1081.19 590.427C1081.48 591.006 1081.58 591.659 1081.47 592.295C1081.4 593.291 1081.57 594.737 1081.2 595.665C1080.89 596.422 1079.94 597.117 1079.39 597.717Z" fill="#F86D70"/>
<path d="M1089.37 597.612C1090.99 597.828 1092.53 598.427 1093.87 599.358C1094.3 599.664 1094.75 600.092 1094.69 600.609C1094.64 600.819 1094.53 601.011 1094.37 601.158C1094.21 601.306 1094.01 601.403 1093.8 601.437C1093.36 601.492 1092.92 601.454 1092.5 601.326C1090.26 600.804 1088.07 600.101 1085.95 599.224C1085.38 599.042 1084.87 598.723 1084.47 598.296C1084.27 598.078 1084.15 597.802 1084.13 597.51C1084.11 597.219 1084.19 596.929 1084.36 596.689C1084.77 596.216 1085.54 596.232 1086.05 595.832C1086.4 595.543 1086.61 595.037 1087.05 594.953C1087.38 594.937 1087.7 595.047 1087.94 595.259C1088.32 595.515 1089.29 595.921 1089.48 596.372C1089.49 596.788 1089.45 597.204 1089.37 597.612V597.612Z" fill="#F86D70"/>
<path d="M1072.36 578.644C1075.07 578.182 1077.79 577.72 1080.54 577.531C1082.57 577.387 1084.77 577.442 1086.39 578.644C1086.87 578.999 1087.29 579.444 1087.74 579.834C1089.27 581.146 1091.25 581.802 1093.15 582.525C1097.35 584.146 1101.34 586.265 1105.02 588.837C1105.91 589.448 1106.84 590.182 1107.06 591.228C1107.16 591.962 1107.06 592.709 1106.76 593.391C1106.5 594.465 1105.91 595.435 1105.07 596.171C1103.6 597.245 1101.55 596.816 1099.71 596.794C1098.29 596.823 1096.87 596.989 1095.47 597.289C1090.93 598.118 1086.39 598.957 1081.89 599.964C1081.62 599.988 1081.35 599.932 1081.11 599.803C1080.88 599.674 1080.68 599.479 1080.56 599.241C1079.67 597.84 1079.19 596.22 1079.17 594.564C1079.16 592.915 1079.38 591.273 1079.82 589.682C1078.28 589.276 1077.04 588.876 1075.49 588.47C1074.91 588.353 1074.36 588.129 1073.86 587.808C1072.94 587.124 1072.66 585.884 1072.47 584.755C1072.11 582.731 1071.7 580.551 1072.36 578.644Z" fill="#434175"/>
<path opacity="0.1" d="M1098.9 591.723C1097.89 590.98 1096.71 590.479 1095.47 590.26C1094.74 590.05 1093.98 589.909 1093.22 589.837C1092.03 589.839 1090.84 589.954 1089.67 590.182C1086.8 590.574 1083.89 590.385 1081.1 589.626" fill="black"/>
<path d="M1118.71 526.778C1118.71 526.778 1106.27 581.274 1106.92 582.842C1107.56 584.41 1111.59 592.295 1104.26 617.252C1104.2 617.794 1103.94 618.293 1103.52 618.648C1103.1 619.002 1102.56 619.186 1102.01 619.16C1099.95 619.16 1092.8 617.097 1092.8 617.097C1092.52 616.807 1092.31 616.451 1092.21 616.062C1092.1 615.674 1092.09 615.265 1092.18 614.872C1092.44 613.404 1095 589.443 1104.15 581.474L1115.53 526.338C1115.53 526.338 1117.05 525.198 1118.71 526.778Z" fill="#AE6E79"/>
<path d="M1115.75 522.963L1119.29 523.558C1119.65 523.617 1119.99 523.782 1120.26 524.03C1120.53 524.278 1120.72 524.599 1120.81 524.954C1121.05 525.988 1120.9 527.311 1118.56 527.356C1114.72 527.428 1115.52 526.349 1115.52 526.349C1115.52 526.349 1113.63 526.349 1113.52 524.904C1113.5 524.62 1113.54 524.336 1113.65 524.073C1113.76 523.81 1113.93 523.576 1114.15 523.388C1114.37 523.201 1114.62 523.065 1114.9 522.991C1115.18 522.917 1115.47 522.908 1115.75 522.963V522.963Z" fill="#AE6E79"/>
<path d="M1101.11 553.075C1100.47 553.065 1099.85 552.928 1099.26 552.672C1098.68 552.416 1098.16 552.046 1097.73 551.584C1097.56 551.386 1097.35 551.218 1097.13 551.09C1096.91 551.014 1096.69 550.989 1096.46 551.017C1096.24 551.045 1096.03 551.125 1095.84 551.251C1094.56 551.974 1094 553.575 1094.15 555.015C1094.4 556.454 1095.01 557.807 1095.94 558.947C1096.62 559.899 1097.38 560.802 1098.19 561.65C1098.63 561.097 1099.18 560.637 1099.8 560.294C1100.42 559.951 1101.1 559.733 1101.81 559.653C1103.08 559.514 1104.24 558.541 1105.19 557.707C1105.89 557.073 1106.32 557.223 1106.09 556.317C1105.8 555.427 1105.4 554.574 1104.91 553.775C1104.65 553.305 1104.45 552.807 1104.3 552.291C1104.15 551.69 1104.3 551.368 1103.74 551.662C1103.36 551.857 1103.07 552.413 1102.65 552.647C1102.18 552.904 1101.65 553.051 1101.11 553.075Z" fill="#FABDBD"/>
<path d="M1099.7 544.038C1099.66 543.769 1099.69 543.495 1099.78 543.238C1100.02 542.838 1100.41 542.543 1100.86 542.409L1107.06 539.745C1107.72 539.441 1108.41 539.193 1109.11 539.006C1111.14 538.516 1113.41 539.006 1115.26 538.033C1115.8 537.752 1116.27 537.363 1116.64 536.892C1117.02 536.42 1117.29 535.877 1117.43 535.297C1117.64 534.463 1117.51 533.428 1116.76 532.983C1116.02 532.539 1114.98 532.922 1114.16 533.334C1111.54 534.742 1108.83 535.966 1106.03 536.998C1103.35 537.91 1100.53 538.455 1098.02 539.74C1097.57 539.952 1097.15 540.234 1096.79 540.574C1096.41 541.003 1096.1 541.484 1095.86 542.003L1094.91 543.855C1094.11 545.417 1093.3 547.269 1094.08 548.86C1094.19 549.107 1094.36 549.327 1094.56 549.504C1094.77 549.682 1095.01 549.813 1095.27 549.888C1095.65 549.943 1096.03 549.916 1096.4 549.81C1097.37 549.61 1098.99 549.605 1099.52 548.637C1100.22 547.403 1099.76 545.34 1099.7 544.038Z" fill="#FABDBD"/>
<path d="M1100.87 572.098C1101.33 571.778 1101.75 571.405 1102.12 570.986C1102.7 570.435 1103.39 570.006 1104.15 569.726C1104.9 569.446 1105.71 569.32 1106.52 569.357C1107.12 569.361 1107.71 569.541 1108.21 569.874C1108.45 570.044 1108.64 570.279 1108.75 570.552C1108.87 570.825 1108.9 571.124 1108.84 571.414C1108.72 571.71 1108.55 571.979 1108.32 572.206C1108.1 572.434 1107.83 572.614 1107.53 572.738C1105.79 573.788 1103.94 574.639 1102 575.274C1100.06 575.906 1097.99 576.052 1095.98 575.696C1095.78 575.667 1095.58 575.597 1095.41 575.49C1095.23 575.331 1095.08 575.126 1095 574.895C1094.31 573.3 1094.44 571.498 1094.58 569.774C1094.52 570.397 1098.28 569.907 1098.61 570.185C1099.1 570.591 1098.84 571.359 1099.14 571.854C1099.34 572.105 1099.64 572.271 1099.96 572.317C1100.28 572.362 1100.6 572.284 1100.87 572.098V572.098Z" fill="#FABDBD"/>
<path d="M1107.65 559.258C1110.8 559.258 1113.36 556.736 1113.36 553.625C1113.36 550.514 1110.8 547.992 1107.65 547.992C1104.5 547.992 1101.94 550.514 1101.94 553.625C1101.94 556.736 1104.5 559.258 1107.65 559.258Z" fill="#FABDBD"/>
<path d="M1095.22 547.775C1096.32 547.447 1097.47 547.363 1098.6 547.531C1098.77 547.501 1098.95 547.508 1099.12 547.549C1099.28 547.59 1099.44 547.666 1099.58 547.77C1099.72 547.875 1099.83 548.007 1099.91 548.157C1099.99 548.307 1100.04 548.473 1100.06 548.643C1100.25 549.262 1100.34 549.908 1100.32 550.556C1100.31 550.88 1100.23 551.197 1100.07 551.481C1099.91 551.765 1099.69 552.008 1099.41 552.191C1099 552.441 1098.48 552.48 1098.06 552.719C1097.77 552.902 1097.54 553.149 1097.37 553.438C1097.2 553.728 1097.1 554.053 1097.08 554.387C1097.04 555.053 1097.13 555.72 1097.33 556.356C1097.77 557.976 1098.33 559.561 1099.02 561.094C1099.73 562.69 1100.59 564.269 1100.8 566.004C1100.93 566.92 1100.83 567.853 1100.52 568.724C1100.21 569.595 1099.68 570.379 1099 571.009C1098.29 571.614 1097.41 571.977 1096.47 572.044C1095.54 572.111 1094.61 571.879 1093.82 571.381C1093.94 571.567 1094.01 571.774 1094.04 571.989C1094.07 572.204 1094.06 572.423 1094 572.632L1091.38 573.155C1091.29 573.153 1091.2 573.17 1091.11 573.204C1091.03 573.238 1090.95 573.289 1090.89 573.353C1090.83 573.417 1090.78 573.493 1090.74 573.577C1090.71 573.66 1090.7 573.75 1090.7 573.839C1090.64 574.805 1090.48 575.762 1090.23 576.697C1090.1 577.166 1089.85 577.595 1089.5 577.939C1089.16 578.283 1088.72 578.532 1088.25 578.66C1087.36 578.827 1086.49 578.388 1085.67 577.987C1083.78 577.062 1081.8 576.317 1079.76 575.763C1078.73 575.566 1077.74 575.173 1076.86 574.606C1076.3 574.167 1075.89 573.579 1075.66 572.914C1075.44 572.248 1075.41 571.533 1075.59 570.853C1075.83 570.146 1076.18 569.48 1076.63 568.879C1078.9 565.322 1081.38 561.898 1084.06 558.625C1085.85 556.471 1087.86 554.503 1090.06 552.752C1090.63 552.307 1091.19 551.885 1091.81 551.479C1092.24 551.184 1093.11 550.85 1093.38 550.406C1093.64 549.961 1093.49 549.421 1093.77 548.965C1094.11 548.426 1094.62 548.009 1095.22 547.775V547.775Z" fill="#F86D70"/>
<path d="M1115.2 556.461C1114.16 557 1112.98 557.239 1111.81 557.151C1110.65 557.112 1109.5 556.906 1108.34 556.856C1106.9 556.795 1105.23 557.112 1104.57 558.363C1104.35 558.88 1104.19 559.416 1104.09 559.965C1104.04 560.238 1103.92 560.497 1103.76 560.723C1103.59 560.948 1103.38 561.136 1103.13 561.271C1102.87 561.356 1102.6 561.403 1102.33 561.41C1099.91 561.661 1097.61 562.625 1095.75 564.179C1093.88 565.733 1092.54 567.805 1091.88 570.124C1091.3 569.547 1090.85 568.848 1090.58 568.077C1090.31 567.307 1090.22 566.486 1090.31 565.676C1089.92 567.116 1088.28 568.261 1088.62 569.718C1087.97 569.012 1087.49 568.181 1087.18 567.278C1086.88 566.375 1086.77 565.419 1086.87 564.473C1086.96 563.526 1087.25 562.609 1087.73 561.78C1088.2 560.951 1088.84 560.229 1089.61 559.659C1090.36 559.103 1091.21 558.713 1091.98 558.202C1093.06 557.481 1093.97 556.549 1094.67 555.464C1095.36 554.379 1095.82 553.165 1096.02 551.896C1096.18 550.817 1096.16 549.671 1096.67 548.704C1097.39 547.358 1098.93 546.696 1100.37 546.168C1101.39 545.761 1102.45 545.454 1103.53 545.251C1104.94 545.071 1106.37 545.103 1107.77 545.345C1110.9 545.812 1113.46 546.986 1114.65 550.005C1114.88 550.681 1115.23 551.309 1115.69 551.857C1116.06 552.167 1116.39 552.522 1116.66 552.913C1117.35 554.181 1116.33 555.777 1115.2 556.461Z" fill="#434175"/>
<path d="M780.447 619.688C780.447 619.688 827.318 598.112 844.965 605.68C862.612 613.249 904.061 611.736 904.061 611.736C904.061 611.736 977.716 608.733 986.171 611.736C994.625 614.739 1071.35 614.767 1075.18 611.736C1079.01 608.705 1122.75 606.437 1129.66 611.736C1133.9 614.967 1138.54 617.64 1143.47 619.688H780.447Z" fill="#E8EAF2"/>
<path opacity="0.3" d="M780.447 619.688C780.447 619.688 827.318 594.058 844.965 603.05C862.612 612.042 904.05 610.246 904.05 610.246C904.05 610.246 977.716 606.648 986.159 610.246C994.602 613.844 1071.33 613.844 1075.17 610.246C1079 606.648 1122.74 603.951 1129.65 610.246C1133.78 614.023 1138.43 617.206 1143.46 619.699L780.447 619.688Z" fill="#00DAFE"/>
</g>
<defs>
<linearGradient id="paint0_linear" x1="1076.47" y1="561.78" x2="1113.14" y2="571.717" gradientUnits="userSpaceOnUse">
<stop stop-color="#808080" stop-opacity="0.25"/>
<stop offset="0.54" stop-color="#808080" stop-opacity="0.12"/>
<stop offset="1" stop-color="#808080" stop-opacity="0.1"/>
</linearGradient>
<clipPath id="clip0">
<rect width="645.353" height="406.203" fill="white" transform="translate(626.858 213.785)"/>
</clipPath>
</defs>
</svg>
