<svg width="324" height="151" viewBox="0 0 324 151" fill="none" xmlns="http://www.w3.org/2000/svg">
<g filter="url(#filter0_d)">
<path d="M36.5 63.5C36.5 81.4493 36.5 69.4222 36.5 96C18.5507 96 4 81.4493 4 63.5C4 45.5507 18.5507 31 36.5 31C36.5 58.3 36.5 45.5507 36.5 63.5Z" fill="#006FF2"/>
<path d="M36.5 63.5C36.5 45.5507 36.5 57.5778 36.5 31C54.4493 31 69 45.5507 69 63.5C69 81.4493 54.4493 96 36.5 96C36.5 68.7 36.5 81.4493 36.5 63.5Z" fill="#00DAFE"/>
<path d="M36.5001 48.1889V60.3658V74.6222H28.7778C25.4641 74.6222 22.7778 71.9359 22.7778 68.6222V63.999C22.7778 62.3725 23.4382 60.8157 24.6076 59.6852L36.5001 48.1889Z" fill="#00DAFE"/>
<path d="M36.4999 48.1889V60.3658V74.6222H44.2222C47.5359 74.6222 50.2222 71.9359 50.2222 68.6222V63.9991C50.2222 62.3725 49.5618 60.8157 48.3924 59.6852L36.4999 48.1889Z" fill="#006FF2"/>
</g>
<g filter="url(#filter1_d)">
<path d="M136.938 88.3418L141.565 87.7129C142.404 87.7129 142.988 87.9974 143.317 88.5664C143.677 89.1354 143.931 89.7493 144.081 90.4082C144.261 91.0371 144.425 91.6061 144.575 92.1152C144.725 92.6243 144.8 93.1784 144.8 93.7773C144.8 94.3763 144.5 94.9902 143.901 95.6191C143.332 96.2181 142.598 96.7572 141.7 97.2363C139.783 98.2546 137.777 98.7637 135.68 98.7637C133.614 98.7637 131.742 98.5241 130.065 98.0449C128.388 97.5658 126.801 96.9069 125.304 96.0684C122.968 94.7507 120.572 92.8939 118.116 90.498C115.69 88.1022 113.759 86.0508 112.321 84.3438L104.909 75.1797C103.861 73.9219 102.917 72.9036 102.079 72.125V95.1699C102.079 96.3678 101.675 97.2214 100.866 97.7305C100.567 97.9102 100.222 98 99.8328 98H93.409C92.6004 98 92.0314 97.7604 91.702 97.2812C91.1629 96.5026 90.8934 95.7988 90.8934 95.1699V33.0879C90.8934 32.0397 91.1629 31.1263 91.702 30.3477C92.271 29.5391 93.1844 29.1348 94.4422 29.1348H114.477C132.296 29.1348 141.206 36.1725 141.206 50.248C141.206 56.7168 138.81 62.1523 134.018 66.5547C129.496 70.7174 124.165 72.7988 118.026 72.7988C116.948 72.7988 115.915 72.724 114.927 72.5742L120.452 78.4141C123.626 81.7383 126.097 83.9844 127.864 85.1523C131.039 87.2786 134.063 88.3418 136.938 88.3418ZM102.079 63.5449C105.463 64.3236 108.518 64.7129 111.243 64.7129C113.998 64.7129 116.454 64.4583 118.61 63.9492C120.766 63.4401 122.683 62.6315 124.36 61.5234C128.074 59.1276 129.93 55.5788 129.93 50.877C129.93 46.6543 128.328 43.5247 125.124 41.4883C122.429 39.7812 118.775 38.9277 114.163 38.9277H102.079V63.5449ZM168.195 32.0098C168.195 31.2311 168.434 30.5573 168.914 29.9883C169.423 29.4193 170.022 29.1348 170.711 29.1348H177C177.688 29.1348 178.272 29.4193 178.752 29.9883C179.231 30.5573 179.47 31.2311 179.47 32.0098V95.125C179.47 95.9036 179.216 96.5775 178.707 97.1465C178.227 97.7155 177.643 98 176.955 98H170.666C169.977 98 169.393 97.7155 168.914 97.1465C168.434 96.5775 168.195 95.9036 168.195 95.125V32.0098ZM199.721 32.5938C199.601 32.2943 199.541 31.9049 199.541 31.4258C199.541 30.9167 199.706 30.4076 200.036 29.8984C200.395 29.3893 200.919 29.1348 201.608 29.1348H209.289C209.888 29.1348 210.398 29.3444 210.817 29.7637C211.266 30.153 211.566 30.6172 211.715 31.1562L228.83 87.3984C228.89 87.5482 229.07 87.623 229.37 87.623C229.699 87.623 229.909 87.5332 229.998 87.3535L234.895 74.2812C240.435 58.7682 244.299 44.7077 246.485 32.0996C246.784 30.123 247.907 29.1348 249.854 29.1348H254.84C255.948 29.1348 256.772 29.4043 257.311 29.9434C257.88 30.4525 258.164 30.9466 258.164 31.4258V32.4141C258.164 36.2174 256.248 44.0488 252.414 55.9082C251.456 58.873 250.438 61.8229 249.36 64.7578C246.455 72.694 244.403 78.0846 243.205 80.9297L240.106 88.2969C238.638 91.5911 237.62 93.7324 237.051 94.7207C236.512 95.709 235.973 96.3978 235.434 96.7871C234.356 97.5957 232.664 98 230.358 98H227.977C225.701 98 224.159 97.7454 223.35 97.2363C221.972 96.3678 220.939 94.9603 220.25 93.0137L199.721 32.5938ZM278.595 32.0098C278.595 31.2311 278.835 30.5573 279.314 29.9883C279.823 29.4193 280.422 29.1348 281.111 29.1348H287.4C288.088 29.1348 288.672 29.4193 289.152 29.9883C289.631 30.5573 289.87 31.2311 289.87 32.0098V95.125C289.87 95.9036 289.616 96.5775 289.107 97.1465C288.627 97.7155 288.043 98 287.355 98H281.066C280.377 98 279.793 97.7155 279.314 97.1465C278.835 96.5775 278.595 95.9036 278.595 95.125V32.0098Z" fill="black"/>
</g>
<path d="M110.89 115.715C110.89 116.966 110.335 117.592 109.225 117.592H108.18C107.857 117.592 107.605 117.476 107.423 117.244C107.252 117.001 107.151 116.674 107.121 116.26C107.1 115.836 106.974 115.452 106.742 115.109C106.51 114.756 106.212 114.474 105.849 114.262C105.173 113.868 104.275 113.671 103.155 113.671C102.035 113.671 101.061 113.909 100.233 114.383C99.4059 114.847 98.7399 115.473 98.2354 116.26C97.2666 117.733 96.7822 119.701 96.7822 122.163C96.7822 126.593 98.2253 129.378 101.111 130.519C101.999 130.862 102.867 131.033 103.715 131.033C105.249 131.033 106.601 130.756 107.771 130.201L108.619 129.807C108.892 129.686 109.134 129.625 109.346 129.625C109.558 129.625 109.729 129.676 109.86 129.777C109.992 129.878 110.153 130.12 110.345 130.503C110.547 130.877 110.647 131.205 110.647 131.487C110.647 131.76 110.552 132.032 110.36 132.305C110.168 132.567 109.931 132.799 109.648 133.001C109.154 133.324 108.559 133.591 107.862 133.803C106.591 134.187 105.102 134.378 103.397 134.378C101.702 134.378 100.183 134.071 98.8408 133.455C97.5088 132.84 96.3887 131.987 95.4805 130.897C93.6136 128.677 92.6802 125.766 92.6802 122.163C92.6802 118.611 93.6237 115.775 95.5107 113.656C97.4382 111.477 100.092 110.387 103.473 110.387C105.329 110.387 106.974 110.8 108.407 111.628C110.062 112.576 110.89 113.939 110.89 115.715ZM116.533 125.402C116.533 124.09 116.75 122.89 117.183 121.8C117.628 120.7 118.233 119.761 119 118.984C120.604 117.36 122.628 116.547 125.07 116.547C127.804 116.547 129.924 117.36 131.427 118.984C132.88 120.549 133.607 122.698 133.607 125.433C133.607 128.076 132.784 130.236 131.14 131.911C129.535 133.556 127.512 134.378 125.07 134.378C122.496 134.378 120.428 133.536 118.864 131.851C117.31 130.206 116.533 128.056 116.533 125.402ZM121.392 121.558C121.018 122.113 120.746 122.748 120.574 123.465C120.403 124.171 120.317 124.893 120.317 125.629C120.317 126.356 120.413 127.057 120.604 127.733C120.806 128.399 121.104 128.995 121.497 129.52C122.365 130.67 123.576 131.245 125.13 131.245C126.715 131.245 127.915 130.68 128.733 129.55C129.459 128.561 129.823 127.214 129.823 125.508C129.823 122.955 128.985 121.194 127.31 120.226C126.694 119.872 125.948 119.696 125.07 119.696C124.202 119.696 123.465 119.867 122.86 120.21C122.264 120.543 121.775 120.993 121.392 121.558ZM141.278 118.016C141.278 117.289 141.626 116.926 142.323 116.926H143.155C143.72 116.926 144.104 117.138 144.305 117.562C144.588 118.167 144.83 118.964 145.032 119.953C145.94 118.298 147.292 117.239 149.089 116.774C149.654 116.623 150.355 116.547 151.193 116.547C152.04 116.547 152.822 116.729 153.539 117.092C154.255 117.445 154.82 117.935 155.234 118.561C156.001 119.701 156.385 121.381 156.385 123.601V133.001C156.385 133.284 156.294 133.521 156.112 133.712C155.93 133.904 155.663 134 155.31 134H153.826C153.443 134 153.16 133.904 152.979 133.712C152.797 133.521 152.706 133.284 152.706 133.001V123.586C152.706 121.003 151.758 119.711 149.861 119.711C148.751 119.711 147.736 120.175 146.818 121.104C145.839 122.103 145.35 123.263 145.35 124.585V133.001C145.35 133.284 145.264 133.521 145.093 133.712C144.921 133.904 144.659 134 144.305 134H142.746C142.393 134 142.126 133.904 141.944 133.712C141.763 133.521 141.672 133.284 141.672 133.001V123.707C141.672 121.679 141.606 120.266 141.475 119.469C141.344 118.661 141.278 118.177 141.278 118.016ZM169.762 131.275C171.7 131.275 172.669 130.625 172.669 129.323C172.669 128.606 172.119 128.001 171.019 127.506C170.555 127.294 170.045 127.098 169.49 126.916C168.945 126.734 168.42 126.517 167.916 126.265C167.411 126.013 166.937 125.74 166.493 125.448C166.059 125.145 165.681 124.802 165.358 124.418C164.692 123.611 164.359 122.587 164.359 121.346C164.359 119.832 164.989 118.631 166.251 117.743C167.371 116.946 168.748 116.547 170.383 116.547C172.139 116.547 173.607 116.89 174.788 117.577C175.191 117.819 175.393 118.096 175.393 118.409C175.393 118.853 175.272 119.343 175.03 119.877C174.798 120.402 174.52 120.665 174.197 120.665C173.885 120.665 173.597 120.599 173.335 120.468C173.082 120.337 172.85 120.226 172.638 120.135C172.437 120.034 172.22 119.953 171.988 119.893C171.483 119.741 171.014 119.666 170.58 119.666C170.156 119.666 169.813 119.696 169.55 119.756C169.288 119.817 169.051 119.913 168.839 120.044C168.324 120.357 168.067 120.74 168.067 121.194C168.067 121.648 168.168 121.997 168.37 122.239C168.582 122.481 168.869 122.703 169.233 122.905C169.596 123.107 170.03 123.308 170.534 123.51L172.169 124.191C173.491 124.767 174.384 125.286 174.848 125.75C175.757 126.679 176.211 127.754 176.211 128.975C176.211 130.508 175.686 131.77 174.636 132.759C173.476 133.839 171.826 134.378 169.687 134.378C167.517 134.378 165.887 133.96 164.798 133.122C164.263 132.718 163.995 132.355 163.995 132.032C163.995 131.709 164.051 131.422 164.162 131.169C164.283 130.907 164.434 130.604 164.616 130.261C164.808 129.908 165.06 129.731 165.373 129.731C165.696 129.731 166.034 129.878 166.387 130.17C166.75 130.453 167.245 130.71 167.87 130.942C168.496 131.164 169.127 131.275 169.762 131.275ZM198.928 132.971C198.928 133.657 198.615 134 197.989 134H197.308C196.703 134 196.304 133.758 196.112 133.273C195.9 132.718 195.673 131.946 195.431 130.958C195.007 132.017 194.286 132.855 193.267 133.47C192.258 134.076 190.996 134.378 189.483 134.378C187.505 134.378 186.046 133.763 185.108 132.532C184.17 131.291 183.7 129.464 183.7 127.052V117.925C183.7 117.642 183.786 117.405 183.958 117.213C184.139 117.022 184.392 116.926 184.714 116.926H186.379C187.046 116.926 187.379 117.259 187.379 117.925V126.886C187.379 129.298 187.939 130.69 189.059 131.063C189.422 131.185 189.851 131.245 190.345 131.245C190.85 131.245 191.365 131.129 191.889 130.897C192.424 130.665 192.903 130.357 193.327 129.974C194.276 129.096 194.75 128.092 194.75 126.961V117.925C194.75 117.642 194.836 117.405 195.007 117.213C195.179 117.022 195.451 116.926 195.825 116.926H197.414C197.767 116.926 198.025 117.022 198.186 117.213C198.348 117.405 198.428 117.642 198.428 117.925V127.385C198.428 129.514 198.58 131.23 198.882 132.532C198.913 132.643 198.928 132.789 198.928 132.971ZM211.064 129.837C211.064 130.554 211.317 130.912 211.821 130.912C211.983 130.912 212.19 130.867 212.442 130.776C212.906 130.604 213.189 130.519 213.29 130.519C213.522 130.519 213.703 130.665 213.834 130.958L214.304 132.032C214.364 132.184 214.395 132.325 214.395 132.456C214.395 132.688 214.203 132.971 213.819 133.304C213.052 133.939 212.048 134.257 210.807 134.257C208.547 134.257 207.417 132.749 207.417 129.731V108.146C207.417 107.874 207.497 107.642 207.659 107.45C207.82 107.258 208.012 107.163 208.234 107.163H210.262C210.494 107.163 210.686 107.258 210.837 107.45C210.989 107.642 211.064 107.874 211.064 108.146V129.837ZM230.073 119.227C230.073 119.792 229.755 120.074 229.12 120.074H224.851V129.58C224.851 130.609 225.361 131.124 226.38 131.124C227.026 131.124 227.868 130.801 228.908 130.155C229.109 130.024 229.326 129.958 229.558 129.958C229.801 129.958 229.992 130.125 230.134 130.458L230.482 131.245C230.613 131.548 230.679 131.805 230.679 132.017C230.679 132.229 230.517 132.476 230.194 132.759C229.881 133.031 229.478 133.278 228.983 133.5C227.863 134.005 226.849 134.257 225.941 134.257C225.033 134.257 224.311 134.167 223.776 133.985C223.252 133.793 222.802 133.511 222.429 133.137C221.622 132.35 221.218 131.215 221.218 129.731V120.074H219.947C219.311 120.074 218.993 119.787 218.993 119.211V118.349C218.993 118.117 219.054 117.935 219.175 117.804C219.296 117.673 219.533 117.572 219.886 117.501L221.4 117.062L221.975 113.505C222.086 112.839 222.358 112.506 222.792 112.506H224.049C224.281 112.506 224.473 112.602 224.624 112.793C224.775 112.975 224.851 113.212 224.851 113.505V116.926H229.12C229.755 116.926 230.073 117.203 230.073 117.758V119.227ZM238.668 114.004C237.982 114.004 237.396 113.767 236.912 113.293C236.428 112.829 236.185 112.243 236.185 111.537C236.185 110.851 236.428 110.266 236.912 109.781C237.376 109.317 237.961 109.085 238.668 109.085C239.748 109.085 240.504 109.579 240.938 110.568C241.069 110.861 241.135 111.184 241.135 111.537C241.135 112.243 240.893 112.829 240.408 113.293C239.924 113.767 239.344 114.004 238.668 114.004ZM240.439 129.837C240.439 130.554 240.676 130.912 241.15 130.912C241.312 130.912 241.493 130.867 241.695 130.776C242.089 130.604 242.356 130.519 242.497 130.519C242.709 130.519 242.881 130.665 243.012 130.958L243.481 132.017C243.562 132.189 243.602 132.35 243.602 132.501C243.602 132.935 243.229 133.339 242.482 133.712C241.776 134.076 241.075 134.257 240.378 134.257C239.692 134.257 239.142 134.182 238.728 134.03C238.315 133.879 237.961 133.627 237.669 133.273C237.083 132.547 236.791 131.366 236.791 129.731V117.925C236.791 117.642 236.872 117.405 237.033 117.213C237.194 117.022 237.386 116.926 237.608 116.926H239.637C239.869 116.926 240.06 117.022 240.212 117.213C240.363 117.405 240.439 117.642 240.439 117.925V129.837ZM250.275 118.016C250.275 117.289 250.623 116.926 251.319 116.926H252.152C252.717 116.926 253.1 117.138 253.302 117.562C253.585 118.167 253.827 118.964 254.029 119.953C254.937 118.298 256.289 117.239 258.085 116.774C258.65 116.623 259.352 116.547 260.189 116.547C261.037 116.547 261.819 116.729 262.535 117.092C263.252 117.445 263.817 117.935 264.231 118.561C264.998 119.701 265.381 121.381 265.381 123.601V133.001C265.381 133.284 265.29 133.521 265.109 133.712C264.927 133.904 264.66 134 264.306 134H262.823C262.439 134 262.157 133.904 261.975 133.712C261.794 133.521 261.703 133.284 261.703 133.001V123.586C261.703 121.003 260.754 119.711 258.857 119.711C257.747 119.711 256.733 120.175 255.815 121.104C254.836 122.103 254.346 123.263 254.346 124.585V133.001C254.346 133.284 254.261 133.521 254.089 133.712C253.918 133.904 253.655 134 253.302 134H251.743C251.39 134 251.122 133.904 250.941 133.712C250.759 133.521 250.668 133.284 250.668 133.001V123.707C250.668 121.679 250.603 120.266 250.471 119.469C250.34 118.661 250.275 118.177 250.275 118.016ZM278.184 132.38C279.132 131.916 280.136 131.684 281.196 131.684C282.266 131.684 283.214 131.785 284.042 131.987C284.879 132.179 285.631 132.486 286.297 132.91C287.79 133.859 288.537 135.186 288.537 136.891C288.537 138.667 287.69 140.095 285.994 141.175C284.491 142.123 282.684 142.598 280.575 142.598C278.426 142.598 276.635 142.133 275.202 141.205C273.658 140.196 272.886 138.824 272.886 137.088C272.886 134.979 274.001 132.94 276.231 130.973C277.099 130.216 278.058 129.535 279.107 128.929C277.462 128.778 276.059 128.198 274.899 127.188C273.597 126.048 272.946 124.63 272.946 122.935C272.946 120.987 273.678 119.408 275.141 118.197C276.483 117.097 278.083 116.547 279.94 116.547C281.938 116.547 283.507 117.087 284.647 118.167C285 118.5 285.283 118.878 285.495 119.302C285.495 118.374 285.374 117.415 285.131 116.426C284.899 115.427 284.783 114.832 284.783 114.64C284.783 114.448 284.819 114.297 284.889 114.186C284.97 114.065 285.061 113.974 285.162 113.914C285.313 113.823 285.485 113.777 285.676 113.777H286.978C287.816 113.777 288.234 114.943 288.234 117.274C288.234 119.141 287.861 120.861 287.114 122.436C287.135 122.658 287.145 122.95 287.145 123.313C287.145 123.677 287.064 124.101 286.902 124.585C286.741 125.069 286.524 125.523 286.252 125.947C285.989 126.361 285.681 126.744 285.328 127.098C284.985 127.451 284.617 127.779 284.223 128.082C283.84 128.384 283.451 128.662 283.058 128.914C280.848 130.317 279.526 131.195 279.092 131.548C278.658 131.891 278.355 132.168 278.184 132.38ZM277.487 125.357C277.83 125.65 278.229 125.877 278.683 126.038C279.147 126.189 279.637 126.265 280.151 126.265C280.676 126.265 281.156 126.189 281.589 126.038C282.023 125.877 282.407 125.645 282.74 125.342C283.446 124.706 283.799 123.889 283.799 122.89C283.799 121.87 283.406 121.068 282.619 120.483C281.922 119.968 281.065 119.711 280.046 119.711C278.431 119.711 277.316 120.311 276.7 121.512C276.498 121.906 276.398 122.365 276.398 122.89C276.398 123.404 276.493 123.868 276.685 124.282C276.877 124.696 277.144 125.054 277.487 125.357ZM276.761 135.181C276.387 135.604 276.201 136.074 276.201 136.588C276.201 137.103 276.327 137.542 276.579 137.905C276.831 138.269 277.164 138.571 277.578 138.813C278.375 139.268 279.374 139.495 280.575 139.495C282.472 139.495 283.794 139.025 284.541 138.087C284.783 137.774 284.904 137.381 284.904 136.906C284.904 136.432 284.753 136.028 284.45 135.695C284.158 135.362 283.789 135.105 283.345 134.923C282.609 134.621 281.65 134.469 280.469 134.469C278.653 134.469 277.417 134.706 276.761 135.181Z" fill="black"/>
<defs>
<filter id="filter0_d" x="0" y="31" width="73" height="73" filterUnits="userSpaceOnUse" color-interpolation-filters="sRGB">
<feFlood flood-opacity="0" result="BackgroundImageFix"/>
<feColorMatrix in="SourceAlpha" type="matrix" values="0 0 0 0 0 0 0 0 0 0 0 0 0 0 0 0 0 0 127 0"/>
<feOffset dy="4"/>
<feGaussianBlur stdDeviation="2"/>
<feColorMatrix type="matrix" values="0 0 0 0 0 0 0 0 0 0 0 0 0 0 0 0 0 0 0.25 0"/>
<feBlend mode="normal" in2="BackgroundImageFix" result="effect1_dropShadow"/>
<feBlend mode="normal" in="SourceGraphic" in2="effect1_dropShadow" result="shape"/>
</filter>
<filter id="filter1_d" x="86.8933" y="29.1348" width="206.977" height="77.6289" filterUnits="userSpaceOnUse" color-interpolation-filters="sRGB">
<feFlood flood-opacity="0" result="BackgroundImageFix"/>
<feColorMatrix in="SourceAlpha" type="matrix" values="0 0 0 0 0 0 0 0 0 0 0 0 0 0 0 0 0 0 127 0"/>
<feOffset dy="4"/>
<feGaussianBlur stdDeviation="2"/>
<feColorMatrix type="matrix" values="0 0 0 0 0 0 0 0 0 0 0 0 0 0 0 0 0 0 0.25 0"/>
<feBlend mode="normal" in2="BackgroundImageFix" result="effect1_dropShadow"/>
<feBlend mode="normal" in="SourceGraphic" in2="effect1_dropShadow" result="shape"/>
</filter>
</defs>
</svg>
