<svg width="528" height="545" viewBox="0 0 528 545" fill="none" xmlns="http://www.w3.org/2000/svg">
<path d="M268.29 524.304H268.153C263.04 524.304 257.864 524.152 252.771 523.851L252.847 522.565C257.916 522.865 263.066 523.016 268.154 523.016H268.291L268.29 524.304ZM283.814 523.834L283.737 522.548C288.86 522.241 294.037 521.774 299.124 521.16L299.279 522.439C294.166 523.057 288.963 523.526 283.819 523.835L283.814 523.834ZM237.304 522.472C232.184 521.86 227.017 521.084 221.948 520.165L222.178 518.896C227.221 519.81 232.362 520.583 237.457 521.196L237.304 522.472ZM314.632 520.114L314.4 518.845C319.446 517.925 324.529 516.836 329.507 515.611L329.815 516.862C324.815 518.093 319.703 519.187 314.631 520.113L314.632 520.114ZM206.76 516.926C201.753 515.7 196.718 514.303 191.796 512.775L192.179 511.544C197.079 513.065 202.086 514.454 207.068 515.675L206.76 516.926ZM344.775 512.692L344.391 511.461C349.281 509.937 354.191 508.24 358.991 506.416L359.449 507.622C354.627 509.456 349.689 511.163 344.775 512.695V512.692ZM177.084 507.711C172.262 505.885 167.427 503.883 162.713 501.762L163.242 500.586C167.932 502.697 172.742 504.686 177.542 506.505L177.084 507.711ZM373.772 501.679L373.242 500.503C377.91 498.403 382.576 496.121 387.11 493.736L387.71 494.876C383.153 497.277 378.464 499.566 373.772 501.682V501.679ZM148.734 494.95C144.162 492.55 139.608 489.978 135.197 487.307L135.864 486.207C140.253 488.864 144.784 491.423 149.333 493.813L148.734 494.95ZM401.219 487.245L400.552 486.145C404.936 483.489 409.297 480.664 413.511 477.75L414.244 478.81C410.005 481.736 405.619 484.575 401.219 487.245ZM122.155 478.865C117.909 475.931 113.699 472.83 109.642 469.651L110.442 468.636C114.478 471.801 118.667 474.885 122.892 477.805L122.155 478.865ZM426.739 469.599L425.939 468.584C429.985 465.409 433.976 462.084 437.802 458.684L438.658 459.648C434.812 463.058 430.801 466.404 426.735 469.595L426.739 469.599ZM97.709 459.699C93.848 456.279 90.042 452.699 86.397 449.055L87.308 448.144C90.935 451.768 94.722 455.332 98.563 458.735L97.709 459.699ZM449.967 448.999L449.056 448.088C452.688 444.456 456.256 440.671 459.656 436.837L460.62 437.693C457.204 441.546 453.62 445.35 449.97 448.999H449.967ZM75.747 437.751C72.323 433.892 68.975 429.882 65.796 425.833L66.809 425.033C69.973 429.061 73.309 433.051 76.709 436.891L75.747 437.751ZM470.568 425.776L469.553 424.976C472.728 420.929 475.814 416.741 478.727 412.531L479.787 413.264C476.861 417.5 473.759 421.709 470.568 425.776ZM56.576 413.352C53.641 409.112 50.799 404.732 48.132 400.334L49.232 399.664C51.887 404.042 54.714 408.4 57.632 412.619L56.576 413.352ZM488.24 400.226L487.14 399.559C489.802 395.166 492.363 390.636 494.752 386.094L495.892 386.694C493.489 391.256 490.919 395.809 488.24 400.226ZM40.489 386.832C38.089 382.275 35.798 377.586 33.68 372.897L34.854 372.366C36.962 377.032 39.241 381.697 41.629 386.23L40.489 386.832ZM502.708 372.717L501.532 372.188C503.648 367.488 505.642 362.682 507.458 357.888L508.664 358.346C506.837 363.16 504.833 367.995 502.707 372.714L502.708 372.717ZM27.729 358.581C25.895 353.761 24.186 348.824 22.65 343.906L23.88 343.521C25.409 348.414 27.109 353.327 28.933 358.121L27.729 358.581ZM513.739 343.641L512.508 343.258C514.032 338.358 515.425 333.351 516.647 328.372L517.898 328.679C516.669 333.683 515.27 338.717 513.739 343.64V343.641ZM18.474 328.948C17.24 323.948 16.144 318.841 15.215 313.765L16.483 313.533C17.408 318.583 18.499 323.665 19.726 328.638L18.474 328.948ZM521.142 313.492L519.873 313.26C520.789 308.217 521.565 303.078 522.173 297.984L523.452 298.138C522.842 303.256 522.063 308.426 521.142 313.491V313.492ZM12.882 298.414C12.263 293.302 11.791 288.1 11.482 282.95L12.768 282.872C13.078 287.995 13.548 293.172 14.168 298.258L12.882 298.414ZM524.844 282.672L523.558 282.596C523.858 277.482 524.016 272.287 524.016 267.152V266.607H525.305V267.152C525.305 272.312 525.15 277.533 524.844 282.672ZM12.289 267.426H11V267.153C11 262.082 11.149 256.953 11.444 251.907L12.73 251.983C12.437 257.004 12.288 262.108 12.288 267.154L12.289 267.426ZM523.524 251.163C523.208 246.034 522.732 240.857 522.112 235.778L523.391 235.622C524.015 240.727 524.491 245.929 524.811 251.084L523.524 251.163ZM14.095 236.593L12.815 236.441C13.425 231.321 14.198 226.154 15.115 221.084L16.384 221.313C15.471 226.358 14.701 231.499 14.095 236.593V236.593ZM519.773 220.506C518.84 215.449 517.744 210.367 516.513 205.406L517.764 205.096C519.001 210.086 520.103 215.196 521.041 220.275L519.773 220.506ZM19.595 206.197L18.343 205.891C19.566 200.891 20.96 195.851 22.487 190.925L23.718 191.306C22.199 196.206 20.812 201.217 19.596 206.197H19.595ZM512.343 190.526C510.81 185.632 509.104 180.721 507.275 175.926L508.475 175.467C510.314 180.282 512.029 185.218 513.575 190.137L512.343 190.526ZM28.75 176.667L27.544 176.211C29.369 171.387 31.368 166.551 33.486 161.836L34.662 162.365C32.554 167.056 30.565 171.868 28.75 176.667ZM501.34 161.691C499.228 157.027 496.94 152.365 494.549 147.834L495.689 147.234C498.095 151.787 500.389 156.473 502.513 161.161L501.34 161.691ZM41.429 148.454L40.287 147.854C42.679 143.293 45.248 138.737 47.923 134.313L49.023 134.98C46.366 139.383 43.81 143.916 41.429 148.454ZM486.929 134.409C484.269 130.037 481.437 125.681 478.512 121.464L479.572 120.729C482.512 124.968 485.357 129.345 488.03 133.74L486.929 134.409ZM57.419 121.994L56.358 121.261C59.284 117.022 62.382 112.811 65.565 108.744L66.58 109.538C63.419 113.586 60.333 117.776 57.419 121.994ZM469.329 109.044C466.153 105.012 462.817 101.026 459.414 97.196L460.378 96.34C463.798 100.187 467.15 104.193 470.341 108.247L469.329 109.044ZM76.475 97.662L75.51 96.807C78.926 92.947 82.51 89.139 86.147 85.491L87.06 86.401C83.435 90.032 79.874 93.82 76.475 97.662ZM448.809 85.962C445.167 82.334 441.377 78.774 437.542 75.383L438.395 74.418C442.249 77.826 446.06 81.403 449.718 85.05L448.809 85.962ZM98.298 75.796L97.442 74.832C101.289 71.414 105.297 68.064 109.354 64.874L110.154 65.887C106.119 69.061 102.127 72.395 98.298 75.796ZM425.659 65.496C421.62 62.336 417.428 59.256 413.198 56.341L413.931 55.28C418.181 58.209 422.394 61.305 426.452 64.48L425.659 65.496ZM122.574 56.708L121.84 55.648C126.076 52.713 130.454 49.869 134.856 47.197L135.525 48.297C131.146 50.956 126.789 53.786 122.574 56.707V56.708ZM400.207 47.953C395.807 45.297 391.273 42.744 386.731 40.363L387.331 39.221C391.897 41.614 396.454 44.18 400.876 46.849L400.207 47.953ZM148.954 40.689L148.354 39.549C152.909 37.149 157.596 34.849 162.285 32.732L162.816 33.906C158.15 36.016 153.487 38.298 148.956 40.689H148.954ZM372.819 33.605C368.128 31.505 363.319 29.514 358.514 27.705L358.97 26.499C363.796 28.321 368.632 30.317 373.347 32.433L372.819 33.605ZM177.059 27.981L176.6 26.781C181.422 24.944 186.359 23.233 191.274 21.695L191.659 22.925C186.765 24.45 181.853 26.153 177.056 27.981H177.059ZM343.87 22.681C338.97 21.165 333.958 19.781 328.977 18.566L329.283 17.314C334.283 18.534 339.324 19.926 344.251 21.45L343.87 22.681ZM206.537 18.761L206.227 17.51C211.233 16.272 216.341 15.173 221.408 14.243L221.641 15.511C216.6 16.436 211.518 17.53 206.541 18.762L206.537 18.761ZM313.863 15.361C308.825 14.452 303.684 13.684 298.582 13.08L298.733 11.8C303.861 12.407 309.028 13.178 314.092 14.092L313.863 15.361ZM236.914 13.178L236.758 11.898C241.867 11.276 247.069 10.798 252.221 10.486L252.299 11.772C247.173 12.085 241.999 12.557 236.914 13.172V13.178ZM283.189 11.726C278.211 11.438 273.153 11.292 268.153 11.292H267.743V10.003H268.153C273.177 10.003 278.262 10.15 283.263 10.44L283.189 11.726Z" fill="#3F3B56"/>
<path d="M527.609 430.255H374.796V544.865H527.609V430.255Z" fill="#006FF2"/>
<path d="M508.507 460.818H393.897V468.459H508.507V460.818Z" fill="white"/>
<path d="M508.507 483.74H393.897V491.381H508.507V483.74Z" fill="white"/>
<path d="M508.507 506.662H393.897V514.303H508.507V506.662Z" fill="white"/>
<path d="M114.739 0H8V80.054H114.739V0Z" fill="#E6E6E6"/>
<path d="M101.396 21.348H21.342V26.685H101.396V21.348Z" fill="white"/>
<path d="M101.396 37.358H21.342V42.695H101.396V37.358Z" fill="white"/>
<path d="M101.396 53.369H21.342V58.706H101.396V53.369Z" fill="white"/>
<path d="M160.103 41.361H53.364V121.415H160.103V41.361Z" fill="#006FF2"/>
<path d="M146.76 62.709H66.7061V68.046H146.76V62.709Z" fill="white"/>
<path d="M146.76 78.72H66.7061V84.057H146.76V78.72Z" fill="white"/>
<path d="M146.76 94.73H66.7061V100.067H146.76V94.73Z" fill="white"/>
<path d="M414 376H123V158H414V376ZM126 161V373H411V161H126Z" fill="#E6E6E6"/>
<path d="M268.409 322.818C299.011 322.818 323.818 298.011 323.818 267.409C323.818 236.807 299.011 212 268.409 212C237.807 212 213 236.807 213 267.409C213 298.011 237.807 322.818 268.409 322.818Z" fill="#006FF2"/>
<path d="M291.418 262.756H272.579V243.917C272.579 242.741 272.112 241.614 271.281 240.782C270.449 239.951 269.322 239.484 268.146 239.484V239.484C266.97 239.484 265.843 239.951 265.011 240.782C264.18 241.614 263.713 242.741 263.713 243.917V262.756H244.874C243.698 262.756 242.571 263.223 241.739 264.054C240.908 264.886 240.441 266.013 240.441 267.189V267.189C240.441 268.365 240.908 269.492 241.739 270.324C242.571 271.155 243.698 271.622 244.874 271.622H263.713V290.461C263.713 291.637 264.18 292.764 265.011 293.596C265.843 294.427 266.97 294.894 268.146 294.894V294.894C269.322 294.894 270.449 294.427 271.281 293.596C272.112 292.764 272.579 291.637 272.579 290.461V271.622H291.418C292.594 271.622 293.721 271.155 294.553 270.324C295.384 269.492 295.851 268.365 295.851 267.189V267.189C295.851 266.013 295.384 264.886 294.553 264.054C293.721 263.223 292.594 262.756 291.418 262.756V262.756Z" fill="white"/>
<path d="M106.739 411H0V491.054H106.739V411Z" fill="#E6E6E6"/>
<path d="M93.396 432.348H13.342V437.685H93.396V432.348Z" fill="white"/>
<path d="M93.396 448.358H13.342V453.695H93.396V448.358Z" fill="white"/>
<path d="M93.396 464.369H13.342V469.706H93.396V464.369Z" fill="white"/>
<path d="M265.277 418.942C351.185 418.942 420.827 349.688 420.827 264.259C420.827 178.83 351.185 109.576 265.277 109.576C179.368 109.576 109.726 178.83 109.726 264.259C109.726 349.688 179.368 418.942 265.277 418.942Z" fill="url(#paint0_linear)"/>
<path d="M265.276 416.378C349.76 416.378 418.248 348.272 418.248 264.259C418.248 180.246 349.76 112.14 265.276 112.14C180.792 112.14 112.304 180.246 112.304 264.259C112.304 348.272 180.792 416.378 265.276 416.378Z" fill="#006FF2"/>
<path d="M265.276 385.185C332.436 385.185 386.88 331.044 386.88 264.259C386.88 197.473 332.436 143.333 265.276 143.333C198.116 143.333 143.672 197.473 143.672 264.259C143.672 331.044 198.116 385.185 265.276 385.185Z" fill="#DDE1EC"/>
<path opacity="0.3" d="M268.714 164.698H261.839V271.523H268.714V164.698Z" fill="#535461"/>
<g opacity="0.1">
<path opacity="0.1" d="M369.693 261.695H272.582V270.241H369.693V261.695Z" fill="black"/>
<path opacity="0.1" d="M204.02 229.722L200.033 237.292L261.136 269.112L265.123 261.542L204.02 229.722Z" fill="black"/>
<path opacity="0.1" d="M265.276 278.787C272.396 278.787 278.167 273.048 278.167 265.968C278.167 258.888 272.396 253.149 265.276 253.149C258.157 253.149 252.385 258.888 252.385 265.968C252.385 273.048 258.157 278.787 265.276 278.787Z" fill="black"/>
</g>
<path d="M369.693 259.986H272.581V268.532H369.693V259.986Z" fill="#535461"/>
<path d="M265.151 259.842L204.048 228.022L200.061 235.593L261.164 267.413L265.151 259.842Z" fill="#535461"/>
<path d="M265.276 277.078C272.395 277.078 278.167 271.338 278.167 264.259C278.167 257.179 272.395 251.44 265.276 251.44C258.156 251.44 252.385 257.179 252.385 264.259C252.385 271.338 258.156 277.078 265.276 277.078Z" fill="#535461"/>
<g opacity="0.1">
<path opacity="0.1" d="M153.117 278.787C153.117 212 207.559 157.861 274.721 157.861C293.571 157.844 312.167 162.193 329.035 170.562C345.902 178.931 360.579 191.09 371.901 206.077C351.207 168.68 311.245 143.333 265.268 143.333C198.106 143.333 143.663 197.472 143.663 264.259C143.624 290.496 152.205 316.027 168.1 336.968C158.242 319.145 153.087 299.128 153.117 278.787V278.787Z" fill="black"/>
</g>
<g opacity="0.1">
<path opacity="0.1" d="M327.192 301.451C327.192 301.451 326.285 303.258 325.043 305.429C323.146 304.421 321.312 303.299 319.552 302.07L319.174 301.806L318.972 301.66L321.12 299.302L327.192 301.451Z" fill="black"/>
</g>
<g opacity="0.1">
<path opacity="0.1" d="M313.058 303.792C312.501 304.32 312.048 304.946 311.722 305.638C308.667 304.267 305.457 302.536 304.288 301.895L304.198 301.848C304.781 301.118 305.448 300.46 306.187 299.887C306.187 299.887 314.631 302.425 313.058 303.792Z" fill="black"/>
</g>
<g opacity="0.1">
<path opacity="0.1" d="M350.992 195.591C349.549 196.121 343.958 198.365 343.339 201.574C342.957 200.144 342.67 198.691 342.48 197.224L349.355 193.515C350.007 194.117 350.56 194.818 350.992 195.591Z" fill="black"/>
</g>
<g opacity="0.1">
<path opacity="0.1" d="M308.349 195.861C307.813 197.387 307.196 198.885 306.502 200.347C306.235 198.416 305.139 193.476 300.804 191.882C301.663 190.716 302.265 190.011 302.265 190.011L308.349 195.861Z" fill="black"/>
</g>
<g opacity="0.1">
<path opacity="0.1" d="M338.574 244.06C338.574 244.06 329.654 243.355 321.915 243.022L321.137 242.988C320.037 242.945 318.989 242.911 317.962 242.885C310.451 242.706 301.956 240.095 300.512 239.638C301.053 238.803 301.639 237.997 302.265 237.223L314.043 239.787C314.043 239.787 315.899 240.377 320.024 242.193L313.257 237.223L333.882 240.932C333.882 240.932 334.6 240.843 338.394 242.953L338.574 244.06Z" fill="black"/>
</g>
<g opacity="0.1">
<path opacity="0.1" d="M313.991 168.163C315.568 168.163 316.806 166.501 318.383 166.586C319.199 166.629 319.9 167.146 320.574 167.612C323.124 169.367 325.96 170.668 328.958 171.457C330.122 171.765 331.355 171.996 332.524 171.714C333.693 171.432 334.789 170.517 334.922 169.325C334.955 168.8 334.885 168.273 334.716 167.774C333.393 163.19 330.399 159.261 326.319 156.754C324.687 155.758 322.693 154.998 320.884 155.622C319.251 156.181 318.198 157.703 317.016 158.955C316.126 159.892 315.115 160.708 314.009 161.382C313.149 161.899 311.86 162.236 311.366 163.185C310.434 164.954 311.899 168.146 313.991 168.163Z" fill="black"/>
</g>
<path opacity="0.05" d="M354.769 206.496C354.769 206.496 353.201 210.205 353.983 211.376Z" fill="black"/>
<path opacity="0.05" d="M292.158 205.325C292.158 205.325 292.945 209.034 292.158 210.205Z" fill="black"/>
<defs>
<linearGradient id="paint0_linear" x1="265.277" y1="418.942" x2="265.277" y2="109.576" gradientUnits="userSpaceOnUse">
<stop stop-color="#808080" stop-opacity="0.25"/>
<stop offset="0.54" stop-color="#808080" stop-opacity="0.12"/>
<stop offset="1" stop-color="#808080" stop-opacity="0.1"/>
</linearGradient>
</defs>
</svg>
