<svg width="965" height="487" viewBox="0 0 965 487" fill="none" xmlns="http://www.w3.org/2000/svg">
<g clip-path="url(#clip0)">
<path opacity="0.3" d="M215.7 416.54C316.216 416.54 397.7 335.056 397.7 234.54C397.7 134.024 316.216 52.54 215.7 52.54C115.184 52.54 33.7 134.024 33.7 234.54C33.7 335.056 115.184 416.54 215.7 416.54Z" stroke="#FF9800" stroke-width="4" stroke-miterlimit="10" stroke-dasharray="12 12"/>
<path opacity="0.3" d="M695.7 380.54C796.216 380.54 877.7 299.056 877.7 198.54C877.7 98.0242 796.216 16.54 695.7 16.54C595.184 16.54 513.7 98.0242 513.7 198.54C513.7 299.056 595.184 380.54 695.7 380.54Z" stroke="#FF9800" stroke-width="4" stroke-miterlimit="10" stroke-dasharray="12 12"/>
<path d="M687.26 235.33H405.26V486.33H687.26V235.33Z" fill="url(#paint0_linear)"/>
<path d="M680.26 235.33H220.26V478.33H680.26V235.33Z" fill="white"/>
<path d="M702.27 259.33H250.27V141.33H685.77C690.146 141.33 694.343 143.068 697.437 146.163C700.532 149.257 702.27 153.454 702.27 157.83V259.33Z" fill="url(#paint1_linear)"/>
<path d="M250.26 146H681.88C686.256 146 690.453 147.738 693.547 150.833C696.642 153.927 698.38 158.124 698.38 162.5V256.29H250.26V146Z" fill="#006FF2"/>
<path opacity="0.7" d="M250.26 146H681.88C686.256 146 690.453 147.738 693.547 150.833C696.642 153.927 698.38 158.124 698.38 162.5V256.29H250.26V146Z" fill="white"/>
<path d="M249.26 13.3201L93.26 123.18V215.75V486.32H405.26V215.75V123.18L249.26 13.3201Z" fill="url(#paint2_linear)"/>
<path d="M398.26 121.33L250.26 13.3201L102.26 121.33V212.32H398.26V121.33Z" fill="#006FF2"/>
<path opacity="0.5" d="M398.26 121.33L250.26 13.3201L102.26 121.33V212.32H398.26V121.33Z" fill="white"/>
<path d="M398.26 212.33H102.26V478.33H398.26V212.33Z" fill="white"/>
<path d="M417.26 175.32L250.26 56.0701L81.26 175.32L70.26 133.38L250.26 2.37012L430.26 133.38L417.26 175.32Z" fill="url(#paint3_linear)"/>
<path d="M415.73 169.18L250.26 48.7499L84.8 169.18L77.73 131.47L250.26 5.90991L422.8 131.47L415.73 169.18Z" fill="#006FF2"/>
<path opacity="0.2" d="M415.73 169.18L250.26 48.7499L84.8 169.18L77.73 131.47L250.26 5.90991L422.8 131.47L415.73 169.18Z" fill="black"/>
<path d="M334.26 270.33H166.26V478.33H334.26V270.33Z" fill="#F2F2F2"/>
<path d="M334.26 270.33H166.26V306.33H334.26V270.33Z" fill="#006FF2"/>
<path d="M334.26 442.33H166.26V478.33H334.26V442.33Z" fill="#006FF2"/>
<path d="M531.6 403.54C531.998 403.54 532.379 403.382 532.661 403.101C532.942 402.819 533.1 402.438 533.1 402.04C533.1 401.642 532.942 401.261 532.661 400.979C532.379 400.698 531.998 400.54 531.6 400.54C531.202 400.54 530.821 400.698 530.539 400.979C530.258 401.261 530.1 401.642 530.1 402.04C530.1 402.438 530.258 402.819 530.539 403.101C530.821 403.382 531.202 403.54 531.6 403.54V403.54Z" fill="#00FF00"/>
<path d="M572.26 326.33H490.26V478.33H572.26V326.33Z" fill="#F2F2F2"/>
<path d="M670.26 294.33H593.26V350.33H670.26V294.33Z" fill="#F2F2F2"/>
<path opacity="0.2" d="M670.26 294.33H593.26V319.33H670.26V294.33Z" fill="#006FF2"/>
<path d="M713.33 52.78C699.188 38.0674 682.245 26.3326 663.5 18.2663C644.754 10.2001 624.584 5.96547 604.178 5.81172C583.771 5.65797 563.54 9.58819 544.675 17.3711C525.81 25.1539 508.692 36.6321 494.33 51.13C436.42 109.51 435.44 204.56 492.08 264.13C516.959 290.333 550.31 306.886 586.224 310.856C622.138 314.826 658.298 305.957 688.3 285.82L798.9 400.82C799.577 401.526 800.387 402.092 801.283 402.484C802.179 402.877 803.143 403.089 804.121 403.109C805.1 403.128 806.072 402.955 806.983 402.598C807.894 402.241 808.725 401.709 809.43 401.03L836.98 374.54C837.686 373.863 838.252 373.053 838.644 372.157C839.037 371.261 839.249 370.297 839.269 369.319C839.288 368.341 839.115 367.368 838.758 366.457C838.401 365.546 837.869 364.715 837.19 364.01L726.59 249.01C747.797 219.96 758.092 184.368 755.667 148.482C753.242 112.597 738.253 78.7128 713.33 52.78V52.78ZM678.88 237.7C663.282 252.704 643.585 262.746 622.28 266.556C600.975 270.366 579.018 267.773 559.187 259.104C539.356 250.436 522.54 236.081 510.867 217.856C499.194 199.63 493.188 178.353 493.607 156.714C494.027 135.075 500.854 114.046 513.224 96.2869C525.595 78.5277 542.954 64.8357 563.107 56.9423C583.259 49.0489 605.3 47.3087 626.441 51.9416C647.583 56.5744 666.875 67.3724 681.88 82.97C691.843 93.3266 699.668 105.544 704.909 118.925C710.151 132.306 712.705 146.588 712.426 160.956C712.148 175.324 709.042 189.497 703.286 202.665C697.53 215.832 689.237 227.737 678.88 237.7V237.7Z" fill="url(#paint4_linear)"/>
<path d="M521.99 128.39C509.68 128.39 509.66 147.51 521.99 147.51C534.32 147.51 534.31 128.39 521.99 128.39Z" fill="url(#paint5_linear)"/>
<path d="M607.77 67.1301C574.65 66.3801 544.5 83.0001 528.48 108.13C523.25 116.31 538.1 123.54 543.3 115.4C556.57 94.6301 581.79 81.4001 609.04 82.1301C637.62 82.8501 663.63 99.2001 677.4 121.89C682.63 130.5 696.31 122.67 691.12 114.11C674.41 86.5401 641.99 67.9001 607.77 67.1301Z" fill="url(#paint6_linear)"/>
<path d="M725.33 46.96C711.188 32.2473 694.245 20.5125 675.5 12.4463C656.754 4.38002 636.584 0.145397 616.178 -0.00835259C595.771 -0.162102 575.54 3.76812 556.675 11.551C537.81 19.3339 520.692 30.8121 506.33 45.31C448.42 103.69 447.44 198.74 504.08 258.31C528.959 284.513 562.31 301.066 598.224 305.036C634.138 309.006 670.298 300.137 700.3 280L810.9 395C811.577 395.706 812.387 396.272 813.283 396.664C814.179 397.057 815.143 397.269 816.121 397.289C817.1 397.308 818.072 397.135 818.983 396.778C819.894 396.421 820.725 395.888 821.43 395.21L848.99 368.71C849.696 368.033 850.262 367.223 850.654 366.327C851.047 365.431 851.259 364.467 851.279 363.489C851.298 362.51 851.125 361.538 850.768 360.627C850.411 359.716 849.879 358.885 849.2 358.18L738.6 243.18C759.803 214.13 770.095 178.539 767.668 142.655C765.242 106.772 750.252 72.8909 725.33 46.96V46.96ZM690.88 231.88C675.282 246.884 655.585 256.926 634.28 260.736C612.975 264.546 591.018 261.953 571.187 253.284C551.356 244.615 534.54 230.261 522.867 212.036C511.194 193.81 505.188 172.533 505.607 150.894C506.027 129.255 512.854 108.226 525.224 90.4668C537.595 72.7077 554.954 59.0157 575.107 51.1223C595.259 43.2289 617.3 41.4886 638.441 46.1215C659.583 50.7544 678.875 61.5523 693.88 77.15C703.843 87.5066 711.668 99.7242 716.909 113.105C722.151 126.486 724.705 140.768 724.426 155.136C724.148 169.504 721.042 183.677 715.286 196.845C709.53 210.012 701.237 221.917 690.88 231.88V231.88Z" fill="#006FF2"/>
<path d="M533.99 122.54C521.68 122.54 521.66 141.66 533.99 141.66C546.32 141.66 546.31 122.54 533.99 122.54Z" fill="#006FF2"/>
<path d="M619.77 61.31C586.65 60.56 556.5 77.18 540.48 102.31C535.25 110.49 550.1 117.72 555.3 109.58C568.57 88.81 593.79 75.58 621.04 76.31C649.62 77.03 675.63 93.38 689.4 116.07C694.63 124.68 708.31 116.85 703.12 108.29C686.41 80.74 653.99 62.09 619.77 61.31Z" fill="#006FF2"/>
</g>
<defs>
<linearGradient id="paint0_linear" x1="154451" y1="122304" x2="154451" y2="59303.2" gradientUnits="userSpaceOnUse">
<stop stop-color="#808080" stop-opacity="0.25"/>
<stop offset="0.54" stop-color="#808080" stop-opacity="0.12"/>
<stop offset="1" stop-color="#808080" stop-opacity="0.1"/>
</linearGradient>
<linearGradient id="paint1_linear" x1="281652" y1="60178.5" x2="281652" y2="46254.5" gradientUnits="userSpaceOnUse">
<stop stop-color="#808080" stop-opacity="0.25"/>
<stop offset="0.54" stop-color="#808080" stop-opacity="0.12"/>
<stop offset="1" stop-color="#808080" stop-opacity="0.1"/>
</linearGradient>
<linearGradient id="paint2_linear" x1="77862.4" y1="230047" x2="77862.4" y2="6318.4" gradientUnits="userSpaceOnUse">
<stop stop-color="#808080" stop-opacity="0.25"/>
<stop offset="0.54" stop-color="#808080" stop-opacity="0.12"/>
<stop offset="1" stop-color="#808080" stop-opacity="0.1"/>
</linearGradient>
<linearGradient id="paint3_linear" x1="90163.9" y1="30325.7" x2="90163.9" y2="412.263" gradientUnits="userSpaceOnUse">
<stop stop-color="#808080" stop-opacity="0.25"/>
<stop offset="0.54" stop-color="#808080" stop-opacity="0.12"/>
<stop offset="1" stop-color="#808080" stop-opacity="0.1"/>
</linearGradient>
<linearGradient id="paint4_linear" x1="644.77" y1="403.14" x2="644.77" y2="5.82002" gradientUnits="userSpaceOnUse">
<stop stop-color="#B3B3B3" stop-opacity="0.25"/>
<stop offset="0.54" stop-color="#B3B3B3" stop-opacity="0.1"/>
<stop offset="1" stop-color="#B3B3B3" stop-opacity="0.05"/>
</linearGradient>
<linearGradient id="paint5_linear" x1="521.99" y1="147.52" x2="521.99" y2="128.39" gradientUnits="userSpaceOnUse">
<stop stop-opacity="0.12"/>
<stop offset="0.55" stop-opacity="0.09"/>
<stop offset="1" stop-opacity="0.02"/>
</linearGradient>
<linearGradient id="paint6_linear" x1="125207" y1="22014.6" x2="125207" y2="18592.3" gradientUnits="userSpaceOnUse">
<stop stop-opacity="0.12"/>
<stop offset="0.55" stop-opacity="0.09"/>
<stop offset="1" stop-opacity="0.02"/>
</linearGradient>
<clipPath id="clip0">
<rect width="964.26" height="486.72" fill="white"/>
</clipPath>
</defs>
</svg>
