<svg width="140" height="140" viewBox="0 0 140 140" fill="none" xmlns="http://www.w3.org/2000/svg">
<g filter="url(#filter0_d)">
<path d="M70 66C70 102.451 70 78.0267 70 132C33.5492 132 4 102.451 4 66C4 29.5492 33.5492 0 70 0C70 55.44 70 29.5492 70 66Z" fill="#006FF2"/>
<path d="M70 66C70 29.5492 70 53.9733 70 0C106.451 0 136 29.5492 136 66C136 102.451 106.451 132 70 132C70 76.56 70 102.451 70 66Z" fill="#00DAFE"/>
<path d="M70 34.9067V59.6351V88.5867H48.1333C44.8196 88.5867 42.1333 85.9004 42.1333 82.5867V64.3901C42.1333 62.7636 42.7937 61.2067 43.9631 60.0763L70 34.9067Z" fill="#00DAFE"/>
<path d="M70 34.9067V59.6351V88.5867H91.8667C95.1804 88.5867 97.8667 85.9004 97.8667 82.5867V64.3901C97.8667 62.7636 97.2063 61.2067 96.0369 60.0763L70 34.9067Z" fill="#006FF2"/>
</g>
<defs>
<filter id="filter0_d" x="0" y="0" width="140" height="140" filterUnits="userSpaceOnUse" color-interpolation-filters="sRGB">
<feFlood flood-opacity="0" result="BackgroundImageFix"/>
<feColorMatrix in="SourceAlpha" type="matrix" values="0 0 0 0 0 0 0 0 0 0 0 0 0 0 0 0 0 0 127 0"/>
<feOffset dy="4"/>
<feGaussianBlur stdDeviation="2"/>
<feColorMatrix type="matrix" values="0 0 0 0 0 0 0 0 0 0 0 0 0 0 0 0 0 0 0.25 0"/>
<feBlend mode="normal" in2="BackgroundImageFix" result="effect1_dropShadow"/>
<feBlend mode="normal" in="SourceGraphic" in2="effect1_dropShadow" result="shape"/>
</filter>
</defs>
</svg>
