<svg width="536" height="599" viewBox="0 0 536 599" fill="none" xmlns="http://www.w3.org/2000/svg">
<path d="M42 321H505V536.699L455.922 563.185C415.659 584.914 367.162 584.914 326.899 563.185V563.185C295.454 546.215 258.589 542.319 224.291 552.34L208.935 556.827C176.922 566.181 142.9 566.181 110.886 556.827L42 536.699V321Z" fill="#A2E5F6"/>
<g clip-path="url(#clip0)">
<path opacity="0.1" d="M536 218.352C536.011 227.538 534.935 236.694 532.793 245.628C531.057 252.863 528.583 259.902 525.411 266.635C524.882 267.76 524.339 268.867 523.773 269.959C523.799 283.284 520.012 296.34 512.856 307.594C500.563 326.902 479.09 339.698 454.659 339.698H102.13C85.8871 339.714 69.9652 335.185 56.1746 326.627C44.9478 319.669 35.4181 310.303 28.2792 299.21C18.9963 284.799 14.0735 268.026 14.0998 250.899C12.6018 248.191 11.2161 245.39 9.94284 242.496C5.85019 233.185 3.05605 223.359 1.63835 213.291C0.855242 207.775 0.464165 202.211 0.468046 196.64C0.468046 165.391 12.6392 137.535 31.6684 119.446C45.8291 105.973 63.7863 97.9207 83.3163 97.9207C84.936 97.9207 86.5417 97.9814 88.138 98.0888C89.0181 96.3304 89.9309 94.5876 90.8765 92.8604C116.951 45.2445 168.117 10.4988 229.076 2.29676C238.291 1.05575 247.579 0.431923 256.877 0.429474C262.71 0.429474 268.474 0.667553 274.17 1.14371C312.49 4.30877 347.408 17.912 375.312 38.7229C376.15 39.3438 376.983 39.9787 377.807 40.6136C389.716 32.7196 403.428 28.2148 418.024 28.2148C420.515 28.2151 423.004 28.3476 425.481 28.6116C461.288 32.4162 490.55 63.3712 498.639 104.083C500.132 111.616 500.88 119.278 500.872 126.957C500.872 130.44 500.716 133.88 500.404 137.279C503.075 139.494 505.609 141.868 507.992 144.388C525.182 162.473 536 188.904 536 218.352Z" fill="#00DAFE"/>
<path opacity="0.1" d="M55.7066 326.202C57.7382 327.462 59.826 328.639 61.97 329.731L273.383 203.399L276.192 208.534L153.076 339.245H184.206L286.945 224.873L290.69 228.141L265.687 339.245H300.797L325.345 243.546H334.239L369.054 339.245H402.758L377.756 228.141L381.501 224.873L479.807 334.301C486.97 331.409 493.594 327.336 499.402 322.252L392.286 208.534L395.095 203.399L522.588 279.585C523.064 276.249 523.304 272.885 523.305 269.515C523.871 268.423 524.414 267.317 524.943 266.192C528.115 259.458 530.589 252.42 532.325 245.185C532.719 243.56 533.065 241.917 533.388 240.25L395.095 187.994V175.39L531.417 187.098C526.778 170.255 518.445 155.405 507.543 143.921L507.365 143.739L395.095 166.054V153.916L497.614 101.048C493.111 80.8584 483.369 63.2125 470.234 50.3002L381.52 149.075L377.775 145.807L404.041 29.1017C394.503 31.0135 385.436 34.7809 377.358 40.1888C376.534 39.5539 375.701 38.919 374.863 38.2981C373.019 36.9226 371.146 35.5797 369.246 34.2695L334.267 130.435H325.373L292.712 3.16972C286.486 2.0618 280.151 1.23708 273.706 0.695565C268.495 0.266088 263.225 0.0342299 257.898 -3.8147e-06L290.704 145.807L286.959 149.075L170.13 19.009C145.034 30.843 123.378 47.6813 106.826 68.0254L273.383 153.921V166.058L32.1366 118.106C31.823 118.396 31.5093 118.685 31.2004 118.979C12.1852 137.069 0 164.924 0 196.173C0 197.074 -1.42999e-07 197.975 0.0327684 198.866L273.383 175.39V187.994L20.0122 283.693C27.0547 301.3 39.5628 316.198 55.7066 326.206V326.202Z" fill="#00DAFE"/>
<path opacity="0.1" d="M387.83 339.726H346.167L334.141 226.353L333.963 224.714V224.71L332.943 215.075L374.62 214.78L375.898 214.771L375.986 215.695L387.83 339.726Z" fill="#00DAFE"/>
<path opacity="0.1" d="M334.796 225.685L334.141 226.353L222.18 339.726H165.13L306.948 193.069L333.963 224.71L334.796 225.685Z" fill="#00DAFE"/>
<path d="M505.165 319.176C498.753 325.991 491.007 331.423 482.407 335.135C473.808 338.848 464.536 340.763 455.165 340.762H102.636C79.9829 340.771 58.2159 331.988 41.9436 316.272L42.4492 316.188C93.8911 307.996 174.638 302.716 265.425 302.716C365.936 302.716 454.135 309.186 503.896 318.924C504.322 319.003 504.743 319.087 505.165 319.176Z" fill="#E8EAF2"/>
<path opacity="0.3" d="M505.165 319.414C498.753 326.229 491.007 331.661 482.408 335.373C473.808 339.086 464.536 341.001 455.165 341H102.636C79.9823 341.008 58.2151 332.223 41.9436 316.506L42.4492 316.422C93.8911 308.21 174.638 302.949 265.425 302.949C365.936 302.949 454.135 309.419 503.896 319.157C504.322 319.237 504.743 319.321 505.165 319.414Z" fill="#00DAFE"/>
<path d="M329.09 261.201C370.197 261.201 403.521 227.97 403.521 186.977C403.521 145.983 370.197 112.752 329.09 112.752C287.983 112.752 254.658 145.983 254.658 186.977C254.658 227.97 287.983 261.201 329.09 261.201Z" fill="#FFFFEB"/>
<path d="M400.947 316.725L397.141 330.697C396.427 333.32 394.867 335.636 392.702 337.287C390.537 338.938 387.887 339.833 385.162 339.833H149.228C146.503 339.833 143.853 338.938 141.688 337.287C139.523 335.636 137.963 333.32 137.249 330.697L133.443 316.725C130.129 304.55 138.798 292.119 151.438 291.554C151.747 291.554 152.055 291.531 152.374 291.531H382.039C382.353 291.531 382.662 291.531 382.976 291.554C395.601 292.119 404.27 304.55 400.947 316.725Z" fill="#3F3D56"/>
<path opacity="0.1" d="M378.093 297.889C378.093 312.981 326.731 325.217 263.375 325.217C200.019 325.217 148.657 312.981 148.657 297.889C148.657 295.695 149.738 293.566 151.779 291.531H374.971C377.007 293.566 378.093 295.695 378.093 297.889Z" fill="black"/>
<path d="M409.322 235.675C409.322 224.528 399.046 215.49 386.384 215.49C373.721 215.49 363.446 224.528 363.446 235.675C350.778 235.675 340.508 244.718 340.508 255.866C340.508 267.013 350.783 276.056 363.446 276.056C367.431 276.07 371.363 275.142 374.919 273.348C378.479 275.128 382.406 276.054 386.388 276.054C390.37 276.054 394.297 275.128 397.857 273.348C401.414 275.142 405.345 276.07 409.331 276.056C422.003 276.056 432.269 267.013 432.269 255.866C432.269 244.718 422.012 235.675 409.322 235.675Z" fill="#00DAFE"/>
<path opacity="0.1" d="M409.322 235.675C409.322 224.528 399.046 215.49 386.384 215.49C373.721 215.49 363.446 224.528 363.446 235.675C350.778 235.675 340.508 244.718 340.508 255.866C340.508 267.013 350.783 276.056 363.446 276.056C367.431 276.07 371.363 275.142 374.919 273.348C378.479 275.128 382.406 276.054 386.388 276.054C390.37 276.054 394.297 275.128 397.857 273.348C401.414 275.142 405.345 276.07 409.331 276.056C422.003 276.056 432.269 267.013 432.269 255.866C432.269 244.718 422.012 235.675 409.322 235.675Z" fill="black"/>
<path d="M355.103 133.502C355.106 130.701 354.592 127.924 353.587 125.309C358.697 123.504 363.003 119.955 365.744 115.29C368.485 110.625 369.484 105.144 368.566 99.8159C367.647 94.4874 364.87 89.6542 360.724 86.1699C356.578 82.6856 351.331 80.7746 345.91 80.7743C345.908 75.1601 343.84 69.7417 340.099 65.5465C336.358 61.3513 331.203 58.671 325.612 58.0137C320.021 57.3563 314.382 58.7678 309.765 61.9804C305.148 65.193 301.873 69.9834 300.563 75.4432C300.352 75.4432 300.141 75.4432 299.931 75.4432C299.936 69.7316 297.802 64.2239 293.948 59.9989C290.094 55.7739 284.797 53.1362 279.094 52.6023C273.392 52.0684 267.695 53.6768 263.12 57.1125C258.544 60.5483 255.42 65.5637 254.359 71.1765C250.968 68.5188 246.895 66.8662 242.607 66.4076C238.319 65.9489 233.988 66.7027 230.109 68.5828C226.23 70.4628 222.959 73.3933 220.671 77.0393C218.384 80.6853 217.171 84.8996 217.171 89.2005C212.227 89.2074 207.416 90.8042 203.454 93.7539C199.491 96.7036 196.589 100.849 195.176 105.574C193.764 110.3 193.917 115.353 195.614 119.985C197.31 124.617 200.459 128.579 204.593 131.285C204.297 132.768 204.148 134.277 204.148 135.789C200.621 135.788 197.141 136.595 193.977 138.15C190.813 139.705 188.05 141.964 185.902 144.754C183.754 147.544 182.279 150.79 181.59 154.239C180.901 157.689 181.018 161.251 181.931 164.648C182.844 168.046 184.528 171.188 186.854 173.833C189.18 176.477 192.085 178.552 195.344 179.897C198.603 181.243 202.128 181.822 205.648 181.591C209.168 181.36 212.587 180.324 215.64 178.564C219.135 180.577 223.1 181.636 227.135 181.636C231.171 181.636 235.135 180.577 238.63 178.564C242.889 181.017 247.826 182.043 252.713 181.49C257.6 180.937 262.181 178.835 265.781 175.493C266.179 175.493 266.577 175.525 266.979 175.525C271.017 175.529 274.983 174.467 278.477 172.449C283.611 175.417 289.7 176.279 295.46 174.853C299.062 177.504 303.361 179.049 307.831 179.298C312.301 179.547 316.746 178.489 320.622 176.254C324.116 178.266 328.081 179.325 332.116 179.325C336.152 179.325 340.116 178.266 343.611 176.254C346.665 178.014 350.084 179.049 353.603 179.28C357.123 179.512 360.649 178.932 363.908 177.587C367.167 176.241 370.071 174.166 372.397 171.522C374.723 168.877 376.408 165.735 377.321 162.337C378.233 158.94 378.35 155.378 377.661 151.929C376.973 148.479 375.498 145.234 373.35 142.444C371.202 139.654 368.439 137.394 365.275 135.839C362.111 134.285 358.631 133.477 355.103 133.479V133.502ZM250.122 135.794C250.121 134.807 250.055 133.822 249.926 132.844C250.516 132.568 251.096 132.279 251.658 131.952C252.576 132.488 253.532 132.956 254.518 133.353C253.384 134.086 252.316 134.915 251.325 135.831C250.928 135.803 250.525 135.794 250.122 135.794V135.794Z" fill="#00DAFE"/>
<path d="M344.632 196.672C344.55 191.248 342.332 186.074 338.456 182.267C334.581 178.46 329.36 176.326 323.92 176.326C318.48 176.326 313.258 178.46 309.383 182.267C305.508 186.074 303.289 191.248 303.208 196.672C300.029 196.671 296.893 197.398 294.042 198.799C291.191 200.199 288.701 202.235 286.766 204.749C284.83 207.263 283.501 210.188 282.88 213.296C282.26 216.405 282.365 219.614 283.187 222.675C284.01 225.737 285.528 228.568 287.623 230.951C289.719 233.334 292.337 235.204 295.274 236.416C298.21 237.628 301.387 238.15 304.559 237.941C307.73 237.733 310.811 236.799 313.562 235.213C316.71 237.03 320.283 237.986 323.92 237.986C327.557 237.986 331.129 237.03 334.277 235.213C337.028 236.796 340.107 237.727 343.277 237.933C346.446 238.139 349.62 237.616 352.555 236.404C355.489 235.191 358.104 233.322 360.198 230.94C362.292 228.559 363.808 225.729 364.63 222.669C365.452 219.61 365.558 216.403 364.938 213.297C364.319 210.19 362.991 207.267 361.058 204.754C359.125 202.241 356.638 200.205 353.789 198.804C350.941 197.403 347.808 196.673 344.632 196.672V196.672Z" fill="#00DAFE"/>
<path opacity="0.1" d="M344.632 196.672C344.55 191.248 342.332 186.074 338.456 182.267C334.581 178.46 329.36 176.326 323.92 176.326C318.48 176.326 313.258 178.46 309.383 182.267C305.508 186.074 303.289 191.248 303.208 196.672C300.029 196.671 296.893 197.398 294.042 198.799C291.191 200.199 288.701 202.235 286.766 204.749C284.83 207.263 283.501 210.188 282.88 213.296C282.26 216.405 282.365 219.614 283.187 222.675C284.01 225.737 285.528 228.568 287.623 230.951C289.719 233.334 292.337 235.204 295.274 236.416C298.21 237.628 301.387 238.15 304.559 237.941C307.73 237.733 310.811 236.799 313.562 235.213C316.71 237.03 320.283 237.986 323.92 237.986C327.557 237.986 331.129 237.03 334.277 235.213C337.028 236.796 340.107 237.727 343.277 237.933C346.446 238.139 349.62 237.616 352.555 236.404C355.489 235.191 358.104 233.322 360.198 230.94C362.292 228.559 363.808 225.729 364.63 222.669C365.452 219.61 365.558 216.403 364.938 213.297C364.319 210.19 362.991 207.267 361.058 204.754C359.125 202.241 356.638 200.205 353.789 198.804C350.941 197.403 347.808 196.673 344.632 196.672V196.672Z" fill="black"/>
<path opacity="0.1" d="M355.103 133.502C355.106 130.701 354.592 127.924 353.587 125.309C358.697 123.504 363.003 119.955 365.744 115.29C368.485 110.625 369.484 105.144 368.566 99.8159C367.647 94.4874 364.87 89.6542 360.724 86.1699C356.578 82.6856 351.331 80.7746 345.91 80.7743C345.908 75.1601 343.84 69.7417 340.099 65.5465C336.358 61.3513 331.203 58.671 325.612 58.0137C320.021 57.3563 314.382 58.7678 309.765 61.9804C305.148 65.193 301.873 69.9834 300.563 75.4432C300.352 75.4432 300.141 75.4432 299.931 75.4432C299.936 69.7316 297.802 64.2239 293.948 59.9989C290.094 55.7739 284.797 53.1362 279.094 52.6023C273.392 52.0684 267.695 53.6768 263.12 57.1125C258.544 60.5483 255.42 65.5637 254.359 71.1765C250.968 68.5188 246.895 66.8662 242.607 66.4076C238.319 65.9489 233.988 66.7027 230.109 68.5828C226.23 70.4628 222.959 73.3933 220.671 77.0393C218.384 80.6853 217.171 84.8996 217.171 89.2005C212.227 89.2074 207.416 90.8042 203.454 93.7539C199.491 96.7036 196.589 100.849 195.176 105.574C193.764 110.3 193.917 115.353 195.614 119.985C197.31 124.617 200.459 128.579 204.593 131.285C204.297 132.768 204.148 134.277 204.148 135.789C200.621 135.788 197.141 136.595 193.977 138.15C190.813 139.705 188.05 141.964 185.902 144.754C183.754 147.544 182.279 150.79 181.59 154.239C180.901 157.689 181.018 161.251 181.931 164.648C182.844 168.046 184.528 171.188 186.854 173.833C189.18 176.477 192.085 178.552 195.344 179.897C198.603 181.243 202.128 181.822 205.648 181.591C209.168 181.36 212.587 180.324 215.64 178.564C219.135 180.577 223.1 181.636 227.135 181.636C231.171 181.636 235.135 180.577 238.63 178.564C242.889 181.017 247.826 182.043 252.713 181.49C257.6 180.937 262.181 178.835 265.781 175.493C266.179 175.493 266.577 175.525 266.979 175.525C271.017 175.529 274.983 174.467 278.477 172.449C283.611 175.417 289.7 176.279 295.46 174.853C299.062 177.504 303.361 179.049 307.831 179.298C312.301 179.547 316.746 178.489 320.622 176.254C324.116 178.266 328.081 179.325 332.116 179.325C336.152 179.325 340.116 178.266 343.611 176.254C346.665 178.014 350.084 179.049 353.603 179.28C357.123 179.512 360.649 178.932 363.908 177.587C367.167 176.241 370.071 174.166 372.397 171.522C374.723 168.877 376.408 165.735 377.321 162.337C378.233 158.94 378.35 155.378 377.661 151.929C376.973 148.479 375.498 145.234 373.35 142.444C371.202 139.654 368.439 137.394 365.275 135.839C362.111 134.285 358.631 133.477 355.103 133.479V133.502ZM250.122 135.794C250.121 134.807 250.055 133.822 249.926 132.844C250.516 132.568 251.096 132.279 251.658 131.952C252.576 132.488 253.532 132.956 254.518 133.353C253.384 134.086 252.316 134.915 251.325 135.831C250.928 135.803 250.525 135.794 250.122 135.794V135.794Z" fill="black"/>
<path d="M337.652 246.216C335.864 245.507 334.052 244.788 332.142 244.545C331.95 244.545 331.758 244.508 331.562 244.494C331.562 244.298 331.562 244.106 331.585 243.915C331.688 241.581 332.413 239.172 334.052 237.487C335.69 235.801 337.97 234.971 339.037 232.982C335.135 231.842 331.096 231.237 327.03 231.185C325.996 231.185 324.895 231.185 324.029 231.773C322.967 232.459 322.508 233.757 322.157 234.98C321.08 239.032 320.355 243 319.124 246.954L318.801 247.029C314.447 247.962 308.97 247.239 306.971 243.331C307.47 241.361 308.096 239.424 308.844 237.533C311.184 231.721 314.77 226.498 318.314 221.321C320.607 217.963 322.904 214.608 325.204 211.256C321.761 210.221 318.264 209.375 314.728 208.721C313.979 208.581 313.132 208.469 312.509 208.908C312.086 209.268 311.776 209.741 311.615 210.271C308.235 218.543 304.092 227.595 302.917 236.688C302.259 236.332 301.582 236.011 300.89 235.727L290.002 231.096C289.425 230.903 288.905 230.573 288.485 230.134C287.492 228.907 288.485 226.955 289.936 226.302C291.387 225.648 293.03 225.835 294.617 225.695C296.204 225.555 297.955 224.981 298.545 223.515C299.228 221.829 297.922 219.925 296.326 219.043C294.73 218.16 292.852 217.913 291.177 217.175C289.888 216.574 288.758 215.682 287.875 214.57C286.993 213.457 286.382 212.155 286.093 210.766L283.495 210.644C286.921 207.377 290.474 204.244 294.556 201.84C296.527 200.678 298.615 199.693 300.45 198.325C302.867 196.477 304.759 194.034 305.941 191.235C307.123 188.437 307.554 185.379 307.191 182.364C306.957 180.609 306.456 178.793 307.013 177.113C307.481 175.745 308.539 174.694 309.583 173.7L318.988 164.728C313.002 163.368 306.868 162.766 300.731 162.935C299.177 162.982 297.571 163.085 296.181 163.785C293.644 165.064 292.436 167.958 291.443 170.614C290.687 172.485 290.075 174.411 289.613 176.375C288.92 179.689 289.023 183.321 287.146 186.136C285.657 188.368 283.181 189.684 280.957 191.187C274.621 195.491 269.892 201.767 267.508 209.034C267.359 209.501 267.106 210.098 266.816 210.766C261.306 211.233 255.908 212.278 250.81 214.416C244.402 217.105 238.808 221.377 233.317 225.62C227.269 230.288 220.907 235.512 218.782 242.851C216.417 250.997 220.064 259.932 225.902 266.098C230.676 271.135 236.734 274.683 242.843 277.872C246.836 279.954 247.501 279.529 251.007 276.728L260.435 269.193C263.127 267.046 265.865 264.843 267.696 261.93C270.219 257.92 270.841 252.827 273.898 249.199C278.083 244.228 286.617 243.812 291.275 248.345C292.614 249.652 293.779 251.361 295.605 251.795C296.494 252.01 297.478 251.888 298.292 252.262C299.846 252.999 300.08 255.063 300.633 256.668C302.154 260.996 307.322 263.26 311.868 262.611C316.413 261.962 320.331 259.017 323.407 255.609C324.245 254.675 325.073 253.685 326.216 253.13C327.129 252.725 328.118 252.515 329.118 252.514C332.437 252.378 335.735 253.107 338.686 254.628C341.434 256.029 343.836 258.106 346.724 259.199C352.44 261.355 358.83 259.306 364.428 256.865L337.652 246.216Z" fill="#3F3D56"/>
<path opacity="0.1" d="M337.652 246.216C335.864 245.507 334.052 244.788 332.142 244.545C331.95 244.545 331.758 244.508 331.562 244.494C331.562 244.298 331.562 244.106 331.585 243.915C331.688 241.581 332.413 239.172 334.052 237.487C335.69 235.801 337.97 234.971 339.037 232.982C335.135 231.842 331.096 231.237 327.03 231.185C325.996 231.185 324.895 231.185 324.029 231.773C322.967 232.459 322.508 233.757 322.157 234.98C321.08 239.032 320.355 243 319.124 246.954L318.801 247.029C314.447 247.962 308.97 247.239 306.971 243.331C307.47 241.361 308.096 239.424 308.844 237.533C311.184 231.721 314.77 226.498 318.314 221.321C320.607 217.963 322.904 214.608 325.204 211.256C321.761 210.221 318.264 209.375 314.728 208.721C313.979 208.581 313.132 208.469 312.509 208.908C312.086 209.268 311.776 209.741 311.615 210.271C308.235 218.543 304.092 227.595 302.917 236.688C302.259 236.332 301.582 236.011 300.89 235.727L290.002 231.096C289.425 230.903 288.905 230.573 288.485 230.134C287.492 228.907 288.485 226.955 289.936 226.302C291.387 225.648 293.03 225.835 294.617 225.695C296.204 225.555 297.955 224.981 298.545 223.515C299.228 221.829 297.922 219.925 296.326 219.043C294.73 218.16 292.852 217.913 291.177 217.175C289.888 216.574 288.758 215.682 287.875 214.57C286.993 213.457 286.382 212.155 286.093 210.766L283.495 210.644C286.921 207.377 290.474 204.244 294.556 201.84C296.527 200.678 298.615 199.693 300.45 198.325C302.867 196.477 304.759 194.034 305.941 191.235C307.123 188.437 307.554 185.379 307.191 182.364C306.957 180.609 306.456 178.793 307.013 177.113C307.481 175.745 308.539 174.694 309.583 173.7L318.988 164.728C313.002 163.368 306.868 162.766 300.731 162.935C299.177 162.982 297.571 163.085 296.181 163.785C293.644 165.064 292.436 167.958 291.443 170.614C290.687 172.485 290.075 174.411 289.613 176.375C288.92 179.689 289.023 183.321 287.146 186.136C285.657 188.368 283.181 189.684 280.957 191.187C274.621 195.491 269.892 201.767 267.508 209.034C267.359 209.501 267.106 210.098 266.816 210.766C261.306 211.233 255.908 212.278 250.81 214.416C244.402 217.105 238.808 221.377 233.317 225.62C227.269 230.288 220.907 235.512 218.782 242.851C216.417 250.997 220.064 259.932 225.902 266.098C230.676 271.135 236.734 274.683 242.843 277.872C246.836 279.954 247.501 279.529 251.007 276.728L260.435 269.193C263.127 267.046 265.865 264.843 267.696 261.93C270.219 257.92 270.841 252.827 273.898 249.199C278.083 244.228 286.617 243.812 291.275 248.345C292.614 249.652 293.779 251.361 295.605 251.795C296.494 252.01 297.478 251.888 298.292 252.262C299.846 252.999 300.08 255.063 300.633 256.668C302.154 260.996 307.322 263.26 311.868 262.611C316.413 261.962 320.331 259.017 323.407 255.609C324.245 254.675 325.073 253.685 326.216 253.13C327.129 252.725 328.118 252.515 329.118 252.514C332.437 252.378 335.735 253.107 338.686 254.628C341.434 256.029 343.836 258.106 346.724 259.199C352.44 261.355 358.83 259.306 364.428 256.865L337.652 246.216Z" fill="black"/>
<path d="M261.142 188.989C261.142 177.509 249.018 168.21 234.057 168.21C219.095 168.21 206.971 177.5 206.971 188.989C191.991 188.989 179.885 198.288 179.885 209.767C179.885 221.246 192.01 230.54 206.971 230.54C211.632 230.56 216.245 229.606 220.514 227.74C224.791 229.578 229.399 230.526 234.057 230.526C238.714 230.526 243.322 229.578 247.599 227.74C251.868 229.606 256.481 230.56 261.142 230.54C276.122 230.54 288.228 221.241 288.228 209.767C288.228 198.292 276.103 188.989 261.142 188.989Z" fill="#00DAFE"/>
<path opacity="0.1" d="M261.142 188.989C261.142 177.509 249.018 168.21 234.057 168.21C219.095 168.21 206.971 177.5 206.971 188.989C191.991 188.989 179.885 198.288 179.885 209.767C179.885 221.246 192.01 230.54 206.971 230.54C211.632 230.56 216.245 229.606 220.514 227.74C224.791 229.578 229.399 230.526 234.057 230.526C238.714 230.526 243.322 229.578 247.599 227.74C251.868 229.606 256.481 230.56 261.142 230.54C276.122 230.54 288.228 221.241 288.228 209.767C288.228 198.292 276.103 188.989 261.142 188.989Z" fill="black"/>
<path d="M319.231 306.343L303.704 299.215C302.458 298.64 301.078 297.926 300.689 296.61C300.551 295.898 300.551 295.165 300.689 294.453C301.063 290.748 300.255 287.021 298.381 283.8C297.216 281.807 295.638 280.014 294.94 277.811C293.452 273.143 296.345 268.199 296.485 263.279C296.64 258.489 294.145 253.882 290.592 250.637C289.538 249.671 288.382 248.77 287.553 247.626C285.147 244.256 286.149 239.69 287.291 235.661L287.586 235.391C287.806 235.176 287.642 234.256 287.24 232.893C291.728 231.7 295.96 229.697 299.725 226.983C300.918 226.12 302.065 225.172 303.47 224.621C305.398 223.851 307.584 223.94 309.532 223.221C313.164 221.872 315.182 218.086 316.872 214.612C320.874 206.401 324.947 197.914 325.453 188.797C322.166 186.262 318.172 184.807 314.021 184.633C313.328 184.605 312.542 184.633 312.088 185.175C311.833 185.518 311.671 185.922 311.62 186.346C310.201 192.853 307.754 199.093 304.368 204.832C303.015 207.244 301.355 209.47 299.43 211.457C297.089 213.791 294.215 215.532 291.387 217.264C289.009 218.716 285.826 220.13 283.125 221.797C281.253 216.998 279.544 212.619 279.764 211.947C282.115 204.625 282.206 196.768 280.026 189.395C279.483 187.565 278.79 185.758 278.622 183.853C278.453 181.949 278.832 180.072 278.982 178.177C279.277 174.419 278.701 170.652 278.725 166.88C278.753 161.773 279.876 156.74 280.995 151.755C277.884 151.2 274.715 151.031 271.562 151.251C270.941 151.253 270.33 151.414 269.788 151.717C269.002 152.226 268.707 153.207 268.44 154.103C266.357 161.063 262.579 167.417 260.337 174.33C258.095 181.244 257.612 189.343 261.783 195.3C263.267 197.415 265.341 199.329 265.669 201.887C265.842 203.241 265.486 204.599 265.13 205.92C264.498 208.287 274.666 233.719 275.232 236.068C275.232 236.133 275.27 236.189 275.284 236.25C274.966 236.32 274.643 236.38 274.32 236.455C273.89 243.069 271.325 249.366 267.008 254.404C266.434 252.778 266.028 251.099 265.795 249.391C265.444 246.823 265.477 244.176 264.676 241.711C263.478 238.033 260.585 235.213 258.057 232.286C253.506 227.004 249.911 220.971 247.435 214.458C245.527 215.165 243.572 215.737 241.584 216.172C240.531 216.405 236.903 216.41 236.331 217.348C235.451 218.748 239.384 225.261 240.161 226.759C242.899 232.03 247.515 236.147 250.225 241.431C251.356 243.777 252.29 246.211 253.02 248.709C254.499 253.377 255.979 258.046 257.111 262.789C255.754 264.189 254.682 265.898 253.516 267.489C249.383 273.098 243.912 277.59 237.6 280.56C236.846 280.915 236.013 281.312 235.69 282.078C235.636 282.208 235.595 282.345 235.568 282.484C232.994 280.673 230.588 278.651 228.912 276.018C228.172 274.851 227.587 273.586 226.782 272.466C224.071 268.698 219.329 267.107 215.449 264.53C213.81 263.447 212.284 262.163 210.472 261.402C208.483 260.562 206.283 260.403 204.129 260.258C202.365 260.137 195.596 258.732 194.725 260.305C193.489 262.532 197.407 265.786 198.975 266.57C201.583 267.872 204.565 268.204 207.289 269.235C209.752 270.245 212.038 271.638 214.063 273.362C214.948 274.013 215.722 274.801 216.357 275.696C217.031 276.747 217.344 277.984 217.911 279.095C219.727 282.656 223.655 284.286 227.17 286.382C226.237 286.422 225.319 286.629 224.46 286.993C221.843 288.179 220.626 291.115 218.922 293.426C217.401 295.475 215.397 297.114 213.721 299.028C212.045 300.942 210.65 303.337 210.777 305.881C210.856 307.491 211.507 309.251 210.65 310.619C212.621 311.469 215.046 312.486 217.181 312.743C219.315 313 221.628 312.594 223.224 311.161C223.718 310.635 224.249 310.143 224.811 309.69C226.164 308.789 228.018 309.041 229.464 309.779C230.911 310.516 232.104 311.67 233.429 312.617C235.321 313.953 237.476 314.871 239.752 315.309C242.028 315.748 244.371 315.698 246.626 315.161C247.562 314.937 248.905 314.746 248.615 313.85C246.634 312.927 244.947 311.476 243.742 309.657C242.536 307.838 241.859 305.721 241.785 303.542C243.259 303.262 244.782 303.386 246.19 303.903C247.599 304.419 248.84 305.308 249.781 306.474C248.479 306.53 247.618 308.276 248.376 309.34C250.856 309.291 253.287 308.65 255.467 307.47C257.646 306.291 259.51 304.608 260.903 302.562C261.925 302.144 263.036 301.991 264.134 302.116C265.231 302.241 266.279 302.641 267.18 303.278C268.08 303.915 268.805 304.769 269.287 305.76C269.768 306.752 269.991 307.848 269.933 308.948L276.702 312.281C277.765 312.804 278.893 313.341 280.078 313.261C281.262 313.182 282.47 312.23 282.381 311.053C282.278 309.704 280.653 308.327 281.543 307.319C283.134 308.028 284.351 309.429 285.985 310.04C287.619 310.652 290.025 309.835 289.936 308.098C289.864 307.52 289.639 306.971 289.285 306.506C287.455 303.725 285.022 301.39 282.165 299.672C281.955 298.146 285.442 296.47 286.5 297.609L295.076 307.034C295.743 307.845 296.533 308.547 297.417 309.116C300.483 310.885 304.312 309.116 307.851 309.116C311.68 309.116 315.599 311.291 319.161 309.905C320.097 309.545 321.034 308.663 320.767 307.702C320.556 307.011 319.859 306.651 319.231 306.343Z" fill="#3F3D56"/>
<path d="M342.403 130.734C342.405 128.405 341.977 126.096 341.14 123.923C345.389 122.42 348.969 119.468 351.248 115.588C353.526 111.708 354.357 107.151 353.593 102.719C352.83 98.2882 350.52 94.2687 347.073 91.3706C343.626 88.4724 339.263 86.8821 334.754 86.8804C334.75 82.2128 333.028 77.7091 329.917 74.2223C326.805 70.7355 322.519 68.5079 317.871 67.9613C313.222 67.4147 308.534 68.5872 304.695 71.2567C300.855 73.9261 298.131 77.9071 297.038 82.4456C296.865 82.4456 296.691 82.4456 296.513 82.4456C296.535 77.683 294.767 73.0851 291.56 69.5566C288.352 66.028 283.936 63.8245 279.181 63.3796C274.426 62.9347 269.677 64.2806 265.867 67.1526C262.057 70.0245 259.463 74.2144 258.595 78.8977C255.776 76.6876 252.389 75.3133 248.823 74.9319C245.257 74.5506 241.655 75.1775 238.429 76.7411C235.203 78.3047 232.484 80.7418 230.581 83.7739C228.679 86.806 227.671 90.3107 227.671 93.8874C223.556 93.8897 219.551 95.2162 216.252 97.6696C212.954 100.123 210.537 103.573 209.361 107.505C208.185 111.438 208.313 115.644 209.726 119.499C211.139 123.353 213.762 126.65 217.204 128.899C216.96 130.129 216.837 131.38 216.834 132.634C213.9 132.631 211.004 133.302 208.371 134.595C205.738 135.888 203.439 137.767 201.652 140.088C199.864 142.409 198.637 145.109 198.064 147.979C197.49 150.849 197.587 153.812 198.347 156.639C199.106 159.466 200.508 162.08 202.443 164.28C204.379 166.48 206.796 168.206 209.507 169.325C212.219 170.443 215.153 170.925 218.081 170.731C221.009 170.538 223.853 169.676 226.393 168.21C229.3 169.886 232.598 170.769 235.955 170.769C239.312 170.769 242.61 169.886 245.516 168.21C249.057 170.252 253.163 171.107 257.227 170.647C261.292 170.187 265.101 168.438 268.094 165.657C268.426 165.657 268.758 165.68 269.096 165.68C272.452 165.683 275.749 164.802 278.655 163.127C282.934 165.599 288.009 166.319 292.811 165.134C295.804 167.342 299.379 168.629 303.097 168.838C306.814 169.047 310.512 168.168 313.736 166.31C316.641 167.986 319.938 168.868 323.295 168.868C326.651 168.868 329.948 167.986 332.854 166.31C335.393 167.772 338.236 168.632 341.162 168.823C344.088 169.014 347.018 168.532 349.727 167.413C352.436 166.294 354.851 164.568 356.784 162.37C358.718 160.172 360.118 157.56 360.878 154.735C361.637 151.911 361.735 148.95 361.163 146.082C360.591 143.214 359.366 140.516 357.581 138.196C355.797 135.876 353.501 133.996 350.872 132.702C348.242 131.408 345.35 130.735 342.417 130.734H342.403ZM255.089 132.643C255.087 131.823 255.032 131.005 254.925 130.192C255.394 129.959 255.899 129.725 256.363 129.45C257.13 129.889 257.926 130.276 258.745 130.608C257.8 131.215 256.911 131.904 256.086 132.666C255.759 132.652 255.422 132.643 255.089 132.643V132.643Z" fill="#00DAFE"/>
<path d="M407.407 236.236C407.407 225.709 397.707 217.171 385.737 217.171C373.768 217.171 364.073 225.709 364.073 236.236C352.103 236.236 342.403 244.774 342.403 255.305C342.403 265.837 352.103 274.37 364.073 274.37C367.837 274.38 371.549 273.498 374.905 271.798C378.268 273.48 381.978 274.356 385.74 274.356C389.502 274.356 393.212 273.48 396.574 271.798C399.931 273.493 403.644 274.37 407.407 274.356C419.377 274.356 429.076 265.823 429.076 255.291C429.076 244.76 419.377 236.236 407.407 236.236Z" fill="#00DAFE"/>
<path d="M342.403 197.471C342.443 194.942 341.978 192.43 341.035 190.082C340.092 187.734 338.69 185.596 336.91 183.794C335.131 181.991 333.009 180.56 330.67 179.583C328.33 178.606 325.819 178.103 323.283 178.103C320.746 178.103 318.235 178.606 315.896 179.583C313.556 180.56 311.435 181.991 309.656 183.794C307.876 185.596 306.474 187.734 305.531 190.082C304.588 192.43 304.123 194.942 304.162 197.471C301.231 197.472 298.339 198.146 295.71 199.44C293.081 200.734 290.786 202.613 289.002 204.933C287.218 207.253 285.992 209.951 285.421 212.818C284.849 215.685 284.946 218.646 285.705 221.469C286.464 224.293 287.863 226.905 289.796 229.104C291.729 231.302 294.142 233.028 296.85 234.147C299.558 235.267 302.488 235.75 305.414 235.561C308.339 235.371 311.182 234.512 313.721 233.052C316.628 234.725 319.925 235.605 323.281 235.605C326.636 235.605 329.933 234.725 332.84 233.052C335.379 234.514 338.222 235.374 341.148 235.565C344.073 235.756 347.004 235.273 349.713 234.154C352.422 233.035 354.837 231.31 356.77 229.112C358.704 226.914 360.104 224.301 360.863 221.477C361.623 218.653 361.72 215.692 361.149 212.824C360.577 209.956 359.352 207.258 357.567 204.938C355.783 202.617 353.487 200.738 350.858 199.444C348.228 198.15 345.335 197.476 342.403 197.475V197.471Z" fill="#00DAFE"/>
<path d="M258.914 189.843C258.914 179.311 247.782 170.778 234.057 170.778C220.331 170.778 209.199 179.311 209.199 189.843C195.474 189.843 184.347 198.381 184.347 208.908C184.347 219.435 195.474 227.978 209.199 227.978C213.476 228.001 217.71 227.129 221.628 225.419C225.553 227.107 229.782 227.977 234.057 227.977C238.331 227.977 242.56 227.107 246.485 225.419C250.403 227.129 254.637 228.001 258.914 227.978C272.639 227.978 283.766 219.439 283.766 208.908C283.766 198.376 272.639 189.843 258.914 189.843Z" fill="#00DAFE"/>
<path d="M212.387 245.773C212.428 243.076 211.931 240.398 210.924 237.895C209.918 235.392 208.422 233.113 206.524 231.192C204.627 229.27 202.365 227.745 199.87 226.703C197.375 225.662 194.698 225.125 191.993 225.125C189.289 225.125 186.612 225.662 184.117 226.703C181.622 227.745 179.36 229.27 177.462 231.192C175.565 233.113 174.069 235.392 173.062 237.895C172.056 240.398 171.559 243.076 171.6 245.773C168.47 245.771 165.382 246.487 162.575 247.866C159.767 249.245 157.316 251.25 155.41 253.725C153.504 256.201 152.195 259.08 151.583 262.141C150.972 265.202 151.076 268.362 151.886 271.376C152.696 274.391 154.19 277.179 156.254 279.525C158.318 281.871 160.895 283.712 163.787 284.906C166.679 286.099 169.807 286.613 172.93 286.408C176.053 286.202 179.086 285.283 181.795 283.721C184.896 285.507 188.413 286.447 191.993 286.447C195.574 286.447 199.091 285.507 202.191 283.721C204.9 285.279 207.932 286.196 211.053 286.399C214.174 286.603 217.299 286.087 220.189 284.893C223.078 283.7 225.653 281.859 227.715 279.514C229.776 277.169 231.27 274.383 232.079 271.37C232.888 268.358 232.992 265.2 232.382 262.141C231.772 259.083 230.465 256.205 228.561 253.73C226.658 251.256 224.209 249.251 221.404 247.871C218.6 246.492 215.515 245.774 212.387 245.773V245.773Z" fill="#00DAFE"/>
<path opacity="0.1" d="M212.387 245.773C212.428 243.076 211.931 240.398 210.924 237.895C209.918 235.392 208.422 233.113 206.524 231.192C204.627 229.27 202.365 227.745 199.87 226.703C197.375 225.662 194.698 225.125 191.993 225.125C189.289 225.125 186.612 225.662 184.117 226.703C181.622 227.745 179.36 229.27 177.462 231.192C175.565 233.113 174.069 235.392 173.062 237.895C172.056 240.398 171.559 243.076 171.6 245.773C168.47 245.771 165.382 246.487 162.575 247.866C159.767 249.245 157.316 251.25 155.41 253.725C153.504 256.201 152.195 259.08 151.583 262.141C150.972 265.202 151.076 268.362 151.886 271.376C152.696 274.391 154.19 277.179 156.254 279.525C158.318 281.871 160.895 283.712 163.787 284.906C166.679 286.099 169.807 286.613 172.93 286.408C176.053 286.202 179.086 285.283 181.795 283.721C184.896 285.507 188.413 286.447 191.993 286.447C195.574 286.447 199.091 285.507 202.191 283.721C204.9 285.279 207.932 286.196 211.053 286.399C214.174 286.603 217.299 286.087 220.189 284.893C223.078 283.7 225.653 281.859 227.715 279.514C229.776 277.169 231.27 274.383 232.079 271.37C232.888 268.358 232.992 265.2 232.382 262.141C231.772 259.083 230.465 256.205 228.561 253.73C226.658 251.256 224.209 249.251 221.404 247.871C218.6 246.492 215.515 245.774 212.387 245.773V245.773Z" fill="black"/>
<path d="M211.114 246.408C211.153 243.879 210.688 241.367 209.745 239.019C208.802 236.671 207.4 234.533 205.62 232.731C203.841 230.928 201.72 229.497 199.38 228.52C197.041 227.543 194.53 227.04 191.993 227.04C189.457 227.04 186.946 227.543 184.606 228.52C182.267 229.497 180.145 230.928 178.366 232.731C176.587 234.533 175.184 236.671 174.241 239.019C173.298 241.367 172.833 243.879 172.873 246.408C169.94 246.408 167.047 247.081 164.417 248.374C161.788 249.668 159.491 251.547 157.706 253.867C155.921 256.187 154.695 258.886 154.123 261.754C153.551 264.622 153.648 267.582 154.407 270.407C155.166 273.232 156.567 275.844 158.5 278.043C160.433 280.242 162.848 281.967 165.557 283.086C168.266 284.205 171.197 284.688 174.123 284.497C177.049 284.306 179.892 283.446 182.432 281.984C185.339 283.657 188.637 284.538 191.993 284.538C195.35 284.538 198.647 283.657 201.555 281.984C204.094 283.446 206.937 284.306 209.863 284.497C212.789 284.688 215.72 284.205 218.429 283.086C221.138 281.967 223.553 280.242 225.486 278.043C227.42 275.844 228.82 273.232 229.579 270.407C230.338 267.582 230.435 264.622 229.863 261.754C229.291 258.886 228.065 256.187 226.28 253.867C224.495 251.547 222.199 249.668 219.569 248.374C216.939 247.081 214.046 246.408 211.114 246.408V246.408Z" fill="#00DAFE"/>
<path opacity="0.1" d="M271.02 91.3292C275.477 91.329 279.784 92.9352 283.148 95.8519C286.511 98.7686 288.704 102.799 289.323 107.201C289.688 104.69 289.53 102.131 288.858 99.6843C288.185 97.2374 287.014 94.9552 285.416 92.9807C283.818 91.0063 281.829 89.382 279.572 88.2097C277.316 87.0375 274.841 86.3424 272.303 86.1681C269.765 85.9938 267.218 86.3439 264.822 87.1966C262.425 88.0494 260.232 89.3863 258.378 91.1237C256.523 92.8611 255.049 94.9615 254.047 97.2934C253.044 99.6253 252.535 102.139 252.552 104.676C252.554 105.527 252.614 106.377 252.73 107.22C253.345 102.817 255.535 98.7846 258.896 95.8646C262.256 92.9446 266.562 91.3339 271.02 91.3292V91.3292Z" fill="black"/>
<path opacity="0.1" d="M308.97 124.236C313.024 126.092 316.267 129.347 318.103 133.4C319.939 137.454 320.243 142.033 318.96 146.293C320.323 144.163 321.233 141.776 321.633 139.281C322.032 136.786 321.913 134.235 321.282 131.788C320.652 129.34 319.523 127.048 317.966 125.054C316.41 123.06 314.459 121.407 312.235 120.197C310.01 118.986 307.56 118.245 305.036 118.019C302.512 117.793 299.969 118.087 297.564 118.882C295.159 119.678 292.943 120.958 291.055 122.644C289.168 124.329 287.647 126.384 286.589 128.68C286.236 129.454 285.935 130.251 285.69 131.065C288.091 127.317 291.77 124.562 296.049 123.307C300.327 122.051 304.917 122.381 308.97 124.236V124.236Z" fill="black"/>
<path opacity="0.1" d="M254.799 138.217C258.852 140.073 262.096 143.328 263.932 147.382C265.768 151.435 266.072 156.014 264.789 160.274C265.247 159.557 265.657 158.81 266.015 158.038C268.033 153.6 268.205 148.546 266.496 143.981C264.786 139.416 261.333 135.712 256.892 133.679C252.452 131.646 247.384 131.45 242.798 133.133C238.213 134.817 234.482 138.242 232.423 142.661C232.069 143.435 231.769 144.232 231.524 145.046C233.925 141.3 237.603 138.545 241.88 137.29C246.158 136.035 250.746 136.364 254.799 138.217Z" fill="black"/>
<path opacity="0.1" d="M235.559 197.261C237.567 199.018 238.87 201.44 239.228 204.079C239.586 206.719 238.974 209.399 237.507 211.625C237.894 211.292 238.259 210.933 238.597 210.551C240.534 208.35 241.514 205.472 241.322 202.55C241.13 199.628 239.782 196.902 237.574 194.971C236.481 194.015 235.21 193.283 233.834 192.817C232.457 192.351 231.002 192.159 229.551 192.254C226.621 192.445 223.887 193.79 221.951 195.991C221.61 196.374 221.298 196.782 221.015 197.209C223.037 195.465 225.623 194.51 228.297 194.519C230.97 194.528 233.55 195.502 235.559 197.261Z" fill="black"/>
<path opacity="0.1" d="M409.546 248.107C411.554 249.862 412.857 252.282 413.216 254.92C413.575 257.558 412.965 260.237 411.498 262.462C411.884 262.129 412.247 261.77 412.584 261.388C413.543 260.298 414.277 259.031 414.744 257.659C415.211 256.286 415.403 254.835 415.308 253.389C415.213 251.943 414.833 250.529 414.19 249.229C413.547 247.929 412.654 246.768 411.561 245.813C410.469 244.857 409.198 244.125 407.822 243.659C406.445 243.193 404.991 243.002 403.54 243.097C402.09 243.191 400.672 243.57 399.369 244.211C398.065 244.852 396.901 245.743 395.943 246.833C395.602 247.215 395.289 247.62 395.006 248.046C397.029 246.304 399.615 245.35 402.288 245.361C404.96 245.372 407.539 246.348 409.546 248.107Z" fill="black"/>
<path opacity="0.1" d="M192.6 247.948C194.739 246.347 197.388 245.573 200.056 245.77C202.724 245.966 205.231 247.12 207.111 249.017C206.866 248.57 206.589 248.141 206.283 247.733C204.502 245.45 201.893 243.954 199.018 243.569C196.143 243.183 193.231 243.939 190.909 245.672C188.586 247.406 187.039 249.979 186.6 252.839C186.16 255.698 186.864 258.616 188.56 260.963C188.866 261.369 189.199 261.755 189.557 262.116C188.265 259.786 187.862 257.068 188.421 254.465C188.981 251.861 190.464 249.547 192.6 247.948V247.948Z" fill="black"/>
<path opacity="0.1" d="M321.338 206.634C323.478 205.034 326.127 204.261 328.795 204.457C331.462 204.654 333.968 205.807 335.85 207.703C335.604 207.257 335.327 206.828 335.021 206.42C334.161 205.229 333.072 204.222 331.818 203.456C330.563 202.69 329.168 202.181 327.714 201.959C326.26 201.737 324.776 201.806 323.349 202.162C321.922 202.518 320.581 203.155 319.403 204.034C318.226 204.913 317.235 206.017 316.491 207.282C315.746 208.547 315.261 209.947 315.065 211.401C314.869 212.855 314.966 214.333 315.349 215.749C315.732 217.166 316.395 218.491 317.298 219.649C317.604 220.058 317.939 220.445 318.3 220.807C317.008 218.477 316.604 215.759 317.162 213.154C317.72 210.55 319.203 208.235 321.338 206.634Z" fill="black"/>
<path d="M301.26 289.253C300.034 288.319 300.188 286.064 300.188 286.064C300.188 286.064 302.327 285.355 303.554 286.302C304.78 287.25 305.258 288.683 304.626 289.495C303.994 290.308 302.487 290.205 301.26 289.253Z" fill="#00DAFE"/>
<path d="M305.473 313.994C304.247 313.061 304.401 310.806 304.401 310.806C304.401 310.806 306.541 310.096 307.767 311.044C308.993 311.992 309.471 313.425 308.839 314.237C308.207 315.049 306.7 314.947 305.473 313.994Z" fill="#00DAFE"/>
<path d="M301.26 316.328C300.034 315.395 300.188 313.14 300.188 313.14C300.188 313.14 302.327 312.43 303.554 313.378C304.78 314.326 305.258 315.759 304.626 316.571C303.994 317.383 302.487 317.281 301.26 316.328Z" fill="#00DAFE"/>
<path d="M330.284 298.122C329.057 297.189 329.212 294.934 329.212 294.934C329.212 294.934 331.351 294.224 332.578 295.172C333.804 296.12 334.282 297.553 333.65 298.365C333.018 299.177 331.51 299.075 330.284 298.122Z" fill="#00DAFE"/>
<path d="M209.658 225.933C210.617 224.719 212.869 224.897 212.869 224.897C212.869 224.897 213.553 227.039 212.588 228.253C211.624 229.467 210.187 229.929 209.377 229.289C208.567 228.65 208.693 227.147 209.658 225.933Z" fill="#00DAFE"/>
<path opacity="0.1" d="M223.762 136.065C230.226 136.065 235.465 130.84 235.465 124.394C235.465 117.949 230.226 112.724 223.762 112.724C217.299 112.724 212.059 117.949 212.059 124.394C212.059 130.84 217.299 136.065 223.762 136.065Z" fill="#00DAFE"/>
<path opacity="0.3" d="M71.8567 323.069C72.019 322.64 72.2844 322.258 72.6297 321.955C72.975 321.652 73.3895 321.438 73.8368 321.333C74.3143 321.225 74.8036 321.18 75.2927 321.197C78.2559 321.249 80.5029 322.598 83.2087 323.219C85.7927 323.83 88.7372 323.798 91.5693 323.751C93.3466 323.779 95.1225 323.638 96.8731 323.331C99.7053 322.733 101.554 321.323 103.277 319.988" fill="#00DAFE"/>
<path opacity="0.3" d="M402.351 318.401C402.513 317.972 402.779 317.589 403.124 317.287C403.469 316.984 403.884 316.77 404.331 316.665C404.809 316.557 405.298 316.512 405.787 316.529C408.75 316.58 410.997 317.93 413.703 318.55C416.287 319.162 419.232 319.129 422.064 319.083C423.841 319.11 425.617 318.97 427.368 318.663C430.176 318.065 432.049 316.655 433.771 315.32" fill="#00DAFE"/>
<path opacity="0.3" d="M428.566 328.671C428.728 328.242 428.994 327.86 429.339 327.557C429.684 327.254 430.099 327.04 430.546 326.935C431.024 326.827 431.513 326.782 432.002 326.799C434.965 326.851 437.212 328.2 439.918 328.821C442.502 329.432 445.446 329.399 448.279 329.353C450.056 329.381 451.832 329.24 453.582 328.933C456.391 328.335 458.264 326.925 459.986 325.59" fill="#00DAFE"/>
<path opacity="0.3" d="M406.564 326.36C406.641 326.233 406.746 326.125 406.871 326.044C406.995 325.963 407.137 325.912 407.285 325.894C407.461 325.862 407.64 325.849 407.819 325.856C408.9 325.856 409.719 326.244 410.707 326.426C411.717 326.572 412.739 326.624 413.759 326.58C414.406 326.587 415.052 326.547 415.693 326.458C416.53 326.314 417.327 325.996 418.033 325.525" fill="#00DAFE"/>
<path opacity="0.3" d="M411.245 321.225C411.322 321.098 411.427 320.99 411.552 320.909C411.677 320.828 411.818 320.777 411.966 320.759C412.142 320.727 412.321 320.714 412.5 320.721C413.581 320.721 414.4 321.109 415.388 321.291C416.399 321.437 417.42 321.489 418.44 321.445C419.087 321.452 419.733 321.412 420.374 321.323C421.211 321.179 422.008 320.861 422.714 320.39" fill="#00DAFE"/>
<path opacity="0.3" d="M119.137 312.879C119.22 312.75 119.331 312.641 119.461 312.56C119.591 312.479 119.738 312.429 119.891 312.412C120.074 312.384 120.259 312.373 120.443 312.379C121.567 312.379 122.423 312.734 123.449 312.902C124.503 313.034 125.566 313.081 126.627 313.042C127.3 313.048 127.972 313.011 128.64 312.93C129.5 312.8 130.327 312.505 131.074 312.062" fill="#00DAFE"/>
<path opacity="0.3" d="M105.562 313.345C105.644 313.217 105.755 313.108 105.885 313.027C106.016 312.946 106.163 312.895 106.315 312.879C106.498 312.851 106.683 312.84 106.868 312.846C107.991 312.846 108.848 313.201 109.873 313.369C110.927 313.501 111.99 313.548 113.051 313.509C113.724 313.515 114.397 313.477 115.064 313.397C115.924 313.267 116.751 312.972 117.499 312.528" fill="#00DAFE"/>
<path opacity="0.3" d="M99.4761 332.406C99.6384 331.977 99.9038 331.594 100.249 331.291C100.594 330.989 101.009 330.775 101.456 330.669C101.934 330.562 102.423 330.516 102.912 330.534C105.875 330.585 108.122 331.934 110.828 332.555C113.412 333.167 116.357 333.134 119.189 333.087C120.966 333.115 122.742 332.975 124.493 332.667C127.325 332.07 129.174 330.66 130.896 329.325" fill="#00DAFE"/>
<path d="M370.299 306.273C370.237 306.442 370.226 306.625 370.266 306.801C370.373 307.151 370.804 307.267 371.174 307.314C372.024 307.393 372.878 307.413 373.73 307.375L381.445 307.225C381.564 307.235 381.683 307.213 381.791 307.16C381.889 307.089 381.968 306.994 382.02 306.885C382.545 305.921 382.885 304.868 383.022 303.78C383.056 303.625 383.044 303.463 382.989 303.313C382.867 303.123 382.676 302.986 382.456 302.931C381.363 302.518 380.249 302.166 379.118 301.876C378.378 301.712 377.65 301.501 376.937 301.245C376 300.881 375.064 300.055 374.128 299.882C373.29 299.738 373.154 300.382 372.887 301.035C372.143 302.847 370.828 304.378 370.299 306.273Z" fill="#FABDBD"/>
<path d="M399.219 316.814C399.027 315.922 398.236 315.297 397.483 314.769C396.729 314.242 395.919 313.71 395.119 313.219C396.423 312.509 397.625 311.625 398.69 310.591C399.336 310.044 399.895 309.402 400.347 308.687C400.799 307.963 400.946 307.09 400.755 306.259C400.589 305.781 400.318 305.347 399.96 304.989C399.603 304.631 399.169 304.358 398.69 304.191C397.732 303.86 396.727 303.683 395.713 303.668C394.987 303.622 394.257 303.579 393.532 303.547C393.987 303.461 394.437 303.35 394.88 303.215C396.516 302.679 398.087 301.961 399.561 301.073C399.812 300.967 400.039 300.814 400.23 300.621C400.422 300.428 400.573 300.199 400.675 299.948C400.72 299.7 400.692 299.444 400.595 299.211C400.498 298.979 400.335 298.779 400.127 298.636C399.715 298.347 399.227 298.185 398.723 298.169C398.036 298.135 397.349 298.241 396.705 298.482C396.061 298.723 395.473 299.093 394.978 299.569C394.663 299.922 394.306 300.236 393.915 300.503C393.686 300.663 393.403 300.728 393.126 300.682C392.85 300.637 392.602 300.486 392.436 300.26C392.33 300.054 392.274 299.825 392.272 299.593L392.3 299.569C392.882 299.039 393.324 298.376 393.589 297.636C393.855 296.897 393.934 296.103 393.822 295.326C393.615 294.145 393.225 293.003 392.666 291.942C393.463 291.653 394.296 291.473 395.142 291.405C395.371 291.402 395.599 291.362 395.816 291.288C396.026 291.175 396.209 291.017 396.35 290.825C396.49 290.632 396.587 290.411 396.631 290.177C396.718 289.719 396.85 289.27 397.024 288.837C398.035 289.477 399.245 289.725 400.427 289.535C401.608 289.345 402.679 288.729 403.437 287.806C404.346 287.847 405.249 287.645 406.054 287.222C407.014 286.662 407.88 285.303 407.308 284.197C407.074 283.863 406.795 283.561 406.48 283.301C406.091 282.832 405.793 282.295 405.6 281.718C404.575 279.146 402.393 278.142 399.739 277.741C398.549 277.528 397.334 277.496 396.134 277.647C395.215 277.817 394.315 278.077 393.447 278.422L393.026 278.581C392.993 277.886 392.881 277.181 392.853 276.634C392.822 276.405 392.846 276.171 392.923 275.953C393.134 275.608 393.469 275.358 393.859 275.253L399.144 273.003C399.705 272.744 400.286 272.534 400.881 272.372C402.609 271.962 404.537 272.372 406.11 271.56C406.564 271.322 406.963 270.991 407.28 270.589C407.597 270.187 407.825 269.722 407.95 269.226C408.128 268.512 408.011 267.629 407.374 267.251C406.737 266.873 405.857 267.195 405.169 267.541C402.936 268.737 400.621 269.775 398.241 270.645C395.966 271.411 393.56 271.868 391.439 272.979C391.054 273.157 390.7 273.395 390.391 273.684C390.068 274.046 389.803 274.456 389.604 274.898L388.776 276.466C388.125 277.736 387.479 279.23 388.008 280.528C387.928 280.616 387.858 280.711 387.797 280.813C387.558 281.195 387.671 281.695 387.469 282.031C387.268 282.367 386.5 282.698 386.135 282.965C385.63 283.305 385.138 283.669 384.656 284.043C382.793 285.529 381.087 287.199 379.563 289.029C377.299 291.808 375.2 294.716 373.276 297.74C372.897 298.248 372.601 298.814 372.401 299.415C372.252 299.97 372.268 300.555 372.447 301.101C371.684 302.763 370.495 304.219 369.994 305.993L369.69 306.044C369.128 307.66 369.489 309.522 369.784 311.212C369.948 312.174 370.177 313.224 370.968 313.812C371.396 314.087 371.873 314.279 372.372 314.377C372.939 314.526 373.459 314.676 373.969 314.844H373.903C373.253 314.783 372.499 314.844 372.11 315.348C371.931 315.63 371.819 315.95 371.783 316.282L370.561 323.149C370.416 323.652 370.441 324.188 370.631 324.675C370.896 325.08 371.288 325.385 371.745 325.543C372.571 325.904 373.444 326.145 374.339 326.258C374.708 326.328 375.09 326.304 375.448 326.188C375.623 326.124 375.774 326.007 375.877 325.852C375.981 325.698 376.032 325.514 376.024 325.329C375.949 324.806 375.298 324.558 375.088 324.082C374.783 323.461 375.28 322.771 375.743 322.262C375.813 322.182 375.893 322.103 375.977 322.019C376.161 322.552 376.411 323.06 376.721 323.531C376.83 323.733 376.995 323.898 377.196 324.008C377.397 324.117 377.626 324.166 377.854 324.148C378.94 323.905 380.033 323.675 381.131 323.457L381.342 323.545C383.144 324.301 385.003 324.912 386.903 325.371C387.259 325.478 387.634 325.51 388.003 325.464C388.184 325.433 388.352 325.35 388.486 325.225C388.62 325.099 388.714 324.938 388.757 324.759C388.808 324.32 388.429 323.956 388.064 323.695C387.373 323.214 386.616 322.836 385.817 322.57L389.384 321.921C390.569 321.666 391.776 321.527 392.989 321.505C394.552 321.533 396.265 321.902 397.539 320.987C398.251 320.376 398.757 319.561 398.99 318.653C399.235 318.073 399.314 317.436 399.219 316.814ZM386.903 303.379C386.351 303.379 385.728 303.379 385.096 303.379C385.162 302.912 385.194 302.445 385.26 301.978C385.266 301.834 385.317 301.696 385.405 301.581C385.524 301.477 385.673 301.413 385.831 301.399L388.055 300.965C388.104 300.786 388.116 300.598 388.09 300.413C388.065 300.228 388.002 300.051 387.905 299.892C388.075 300.015 388.259 300.12 388.452 300.204C388.423 301.117 388.582 302.026 388.921 302.875C388.994 303.072 389.116 303.247 389.276 303.383H389.304C388.504 303.388 387.704 303.379 386.903 303.379Z" fill="url(#paint0_linear)"/>
<path d="M395.442 303.892C396.433 303.904 397.416 304.074 398.353 304.396C398.821 304.562 399.244 304.831 399.592 305.184C399.94 305.536 400.203 305.963 400.362 306.432C400.547 307.253 400.402 308.114 399.959 308.831C399.513 309.53 398.965 310.159 398.335 310.699C397.158 311.873 395.791 312.839 394.29 313.556C393.55 313.878 392.769 314.097 392.048 314.452C390.508 315.208 389.323 316.52 388.186 317.804C387.053 318.959 386.091 320.268 385.325 321.692C385.269 321.8 385.208 321.926 385.091 321.963C384.981 321.98 384.868 321.957 384.773 321.898L381.496 320.352C381.4 320.329 381.312 320.281 381.24 320.212C381.169 320.144 381.117 320.057 381.091 319.962C381.064 319.867 381.063 319.767 381.088 319.671C381.114 319.576 381.164 319.488 381.234 319.419C382.835 316.422 385.035 313.784 387.699 311.67C386.559 312.285 385.289 312.62 383.994 312.647C382.698 312.673 381.415 312.391 380.251 311.824C379.788 311.62 379.388 311.298 379.09 310.89C378.51 309.998 378.865 308.813 379.305 307.842C379.702 306.982 380.153 306.149 380.658 305.349C381.861 303.435 384.797 303.608 386.819 303.603C389.684 303.618 392.558 303.715 395.442 303.892Z" fill="#434175"/>
<path opacity="0.1" d="M390.915 310.61C390.371 310.67 389.846 310.845 389.375 311.123C390.185 310.577 392.038 310.717 392.989 310.624C394.202 310.58 395.401 310.353 396.546 309.952C394.656 310.033 392.773 310.253 390.915 310.61V310.61Z" fill="black"/>
<path d="M375.856 322.304C375.387 322.808 374.919 323.489 375.21 324.101C375.434 324.568 376.071 324.811 376.146 325.329C376.155 325.512 376.104 325.692 376.002 325.844C375.9 325.997 375.752 326.112 375.579 326.174C375.231 326.292 374.859 326.318 374.498 326.248C373.624 326.14 372.771 325.904 371.965 325.548C371.517 325.396 371.134 325.097 370.879 324.699C370.696 324.218 370.673 323.69 370.814 323.195L372.022 316.366C372.054 316.034 372.165 315.714 372.345 315.432C372.728 314.928 373.463 314.872 374.095 314.933C374.805 314.999 375.504 315.156 376.174 315.399C376.64 315.527 377.053 315.802 377.349 316.184C377.588 316.67 377.668 317.218 377.578 317.752C377.522 318.588 377.662 319.802 377.353 320.581C377.101 321.216 376.305 321.8 375.856 322.304Z" fill="#F86D70"/>
<path d="M384.136 322.215C385.485 322.397 386.769 322.9 387.881 323.681C388.237 323.938 388.607 324.297 388.555 324.731C388.516 324.908 388.425 325.069 388.293 325.193C388.161 325.317 387.995 325.398 387.816 325.427C387.456 325.473 387.09 325.441 386.744 325.333C384.884 324.895 383.063 324.305 381.3 323.569C380.83 323.416 380.407 323.148 380.068 322.789C379.904 322.607 379.806 322.375 379.789 322.13C379.773 321.885 379.84 321.642 379.979 321.44C380.321 321.043 380.963 321.057 381.384 320.721C381.674 320.478 381.852 320.054 382.217 319.984C382.486 319.97 382.75 320.062 382.952 320.24C383.266 320.455 384.071 320.796 384.235 321.174C384.244 321.524 384.211 321.873 384.136 322.215V322.215Z" fill="#F86D70"/>
<path d="M370.013 306.292C372.265 305.904 374.526 305.517 376.806 305.358C378.491 305.237 380.316 305.283 381.665 306.292C382.067 306.591 382.409 306.964 382.788 307.291C384.061 308.392 385.705 308.943 387.277 309.55C390.769 310.911 394.081 312.69 397.141 314.849C397.876 315.362 398.648 315.978 398.835 316.856C398.916 317.472 398.831 318.099 398.587 318.672C398.367 319.574 397.877 320.387 397.183 321.006C395.956 321.907 394.257 321.548 392.731 321.529C391.547 321.553 390.368 321.692 389.211 321.944C385.438 322.64 381.669 323.345 377.929 324.19C377.705 324.21 377.48 324.163 377.284 324.055C377.087 323.947 376.927 323.782 376.824 323.583C376.082 322.407 375.683 321.047 375.673 319.657C375.664 318.273 375.846 316.894 376.211 315.558C374.928 315.217 373.898 314.881 372.616 314.54C372.132 314.443 371.671 314.254 371.258 313.985C370.491 313.411 370.266 312.37 370.107 311.422C369.802 309.723 369.461 307.893 370.013 306.292Z" fill="#434175"/>
<path opacity="0.1" d="M392.052 317.271C391.213 316.648 390.241 316.228 389.211 316.044C388.599 315.868 387.972 315.749 387.338 315.689C386.348 315.69 385.361 315.787 384.389 315.978C382.01 316.308 379.589 316.149 377.274 315.511" fill="black"/>
<path d="M408.512 262.751C408.512 262.751 398.175 308.5 398.714 309.816C399.252 311.133 402.594 317.752 396.509 338.703C396.46 339.158 396.24 339.577 395.891 339.875C395.543 340.172 395.094 340.326 394.636 340.305C392.928 340.305 386.992 338.573 386.992 338.573C386.757 338.329 386.586 338.03 386.496 337.704C386.406 337.378 386.4 337.035 386.477 336.705C386.688 335.473 388.818 315.357 396.42 308.668L405.867 262.382C405.867 262.382 407.131 261.425 408.512 262.751Z" fill="#AE6E79"/>
<path d="M406.054 259.549L408.989 260.048C409.292 260.098 409.573 260.236 409.798 260.445C410.022 260.653 410.181 260.923 410.253 261.22C410.454 262.088 410.328 263.199 408.38 263.237C405.197 263.297 405.862 262.392 405.862 262.392C405.862 262.392 404.294 262.392 404.195 261.178C404.179 260.94 404.218 260.701 404.31 260.481C404.401 260.26 404.542 260.064 404.722 259.906C404.901 259.749 405.115 259.634 405.346 259.572C405.577 259.511 405.819 259.502 406.054 259.549V259.549Z" fill="#AE6E79"/>
<path d="M393.892 284.827C393.363 284.819 392.842 284.704 392.359 284.489C391.876 284.274 391.442 283.963 391.083 283.576C390.942 283.41 390.772 283.269 390.582 283.161C390.407 283.097 390.218 283.076 390.032 283.1C389.847 283.124 389.67 283.191 389.515 283.296C388.452 283.903 387.989 285.247 388.111 286.456C388.317 287.664 388.827 288.8 389.595 289.757C390.164 290.556 390.79 291.314 391.467 292.026C391.832 291.562 392.286 291.175 392.802 290.888C393.317 290.6 393.885 290.417 394.473 290.35C395.526 290.233 396.495 289.416 397.281 288.716C397.862 288.184 398.218 288.31 398.026 287.549C397.785 286.802 397.456 286.086 397.047 285.415C396.831 285.021 396.662 284.602 396.542 284.169C396.415 283.665 396.542 283.394 396.074 283.642C395.76 283.805 395.521 284.272 395.17 284.468C394.778 284.684 394.34 284.807 393.892 284.827Z" fill="#FABDBD"/>
<path d="M392.717 277.241C392.688 277.015 392.713 276.785 392.787 276.569C392.99 276.234 393.31 275.986 393.686 275.874L398.835 273.637C399.383 273.382 399.951 273.174 400.535 273.017C402.22 272.606 404.107 273.017 405.647 272.2C406.091 271.964 406.481 271.637 406.792 271.242C407.102 270.846 407.326 270.39 407.449 269.903C407.622 269.203 407.51 268.334 406.892 267.961C406.274 267.587 405.413 267.91 404.734 268.255C402.557 269.437 400.3 270.465 397.979 271.331C395.755 272.097 393.41 272.554 391.327 273.633C390.95 273.811 390.604 274.048 390.302 274.333C389.987 274.693 389.726 275.097 389.529 275.533L388.743 277.087C388.073 278.399 387.404 279.954 388.055 281.289C388.146 281.496 388.281 281.681 388.452 281.83C388.623 281.979 388.824 282.089 389.042 282.152C389.355 282.198 389.675 282.175 389.979 282.087C390.784 281.919 392.127 281.914 392.572 281.102C393.152 280.066 392.773 278.334 392.717 277.241Z" fill="#FABDBD"/>
<path d="M393.691 300.797C394.073 300.528 394.422 300.215 394.73 299.864C395.214 299.401 395.787 299.041 396.415 298.805C397.043 298.57 397.712 298.465 398.381 298.496C398.882 298.499 399.371 298.65 399.786 298.93C399.989 299.072 400.147 299.27 400.24 299.499C400.334 299.728 400.36 299.98 400.315 300.223C400.216 300.471 400.069 300.697 399.881 300.888C399.694 301.079 399.471 301.23 399.224 301.334C397.78 302.216 396.239 302.93 394.632 303.463C393.019 303.994 391.299 304.116 389.628 303.818C389.461 303.793 389.302 303.734 389.159 303.645C389.004 303.511 388.886 303.339 388.818 303.145C388.247 301.806 388.35 300.293 388.471 298.846C388.42 299.369 391.542 298.958 391.818 299.191C392.226 299.532 392.006 300.176 392.258 300.592C392.425 300.803 392.667 300.942 392.933 300.98C393.2 301.019 393.471 300.953 393.691 300.797V300.797Z" fill="#FABDBD"/>
<path d="M399.322 290.018C401.941 290.018 404.064 287.901 404.064 285.289C404.064 282.678 401.941 280.56 399.322 280.56C396.703 280.56 394.58 282.678 394.58 285.289C394.58 287.901 396.703 290.018 399.322 290.018Z" fill="#FABDBD"/>
<path d="M389 280.378C389.91 280.103 390.869 280.033 391.809 280.173C391.951 280.149 392.096 280.154 392.235 280.188C392.375 280.223 392.506 280.286 392.619 280.374C392.733 280.462 392.827 280.573 392.895 280.699C392.964 280.825 393.005 280.964 393.017 281.107C393.176 281.627 393.25 282.169 393.237 282.713C393.229 282.984 393.156 283.25 393.025 283.489C392.894 283.728 392.708 283.932 392.483 284.085C392.137 284.295 391.711 284.328 391.355 284.528C391.119 284.682 390.923 284.889 390.783 285.132C390.642 285.376 390.561 285.649 390.545 285.929C390.513 286.488 390.583 287.048 390.751 287.581C391.114 288.942 391.583 290.272 392.155 291.559C392.745 292.899 393.462 294.224 393.635 295.681C393.743 296.45 393.663 297.233 393.402 297.965C393.141 298.696 392.707 299.354 392.137 299.882C391.55 300.39 390.815 300.695 390.04 300.752C389.266 300.808 388.493 300.613 387.839 300.195C387.933 300.351 387.994 300.525 388.019 300.705C388.044 300.886 388.032 301.07 387.984 301.245L385.808 301.684C385.732 301.683 385.658 301.697 385.588 301.725C385.518 301.754 385.455 301.797 385.402 301.85C385.35 301.904 385.309 301.968 385.282 302.038C385.255 302.108 385.243 302.183 385.246 302.258C385.193 303.069 385.062 303.873 384.853 304.658C384.747 305.052 384.54 305.411 384.251 305.7C383.963 305.989 383.604 306.198 383.21 306.306C382.47 306.446 381.744 306.077 381.07 305.741C379.497 304.964 377.852 304.339 376.16 303.874C375.301 303.708 374.482 303.378 373.749 302.903C373.288 302.534 372.944 302.04 372.757 301.482C372.571 300.923 372.549 300.322 372.696 299.752C372.895 299.158 373.185 298.599 373.557 298.094C375.445 295.109 377.505 292.234 379.727 289.486C381.218 287.678 382.89 286.027 384.717 284.556C385.185 284.183 385.653 283.828 386.163 283.487C386.524 283.24 387.25 282.96 387.47 282.586C387.69 282.213 387.558 281.76 387.793 281.377C388.078 280.925 388.501 280.575 389 280.378V280.378Z" fill="#F86D70"/>
<path d="M405.59 287.67C404.727 288.123 403.754 288.323 402.782 288.249C401.817 288.216 400.862 288.044 399.898 288.002C398.704 287.95 397.314 288.216 396.762 289.267C396.585 289.7 396.453 290.151 396.368 290.611C396.323 290.841 396.227 291.058 396.089 291.248C395.951 291.437 395.773 291.594 395.568 291.708C395.355 291.779 395.132 291.819 394.908 291.825C392.892 292.035 390.986 292.845 389.439 294.149C387.891 295.454 386.772 297.193 386.229 299.14C385.743 298.656 385.374 298.068 385.148 297.422C384.922 296.775 384.845 296.086 384.923 295.405C384.6 296.615 383.233 297.576 383.518 298.799C382.982 298.207 382.575 297.509 382.324 296.751C382.073 295.992 381.984 295.19 382.061 294.396C382.139 293.601 382.382 292.831 382.775 292.135C383.167 291.439 383.701 290.833 384.342 290.354C384.96 289.888 385.667 289.561 386.308 289.131C387.203 288.526 387.962 287.744 388.54 286.833C389.117 285.922 389.5 284.903 389.665 283.838C389.801 282.932 389.782 281.97 390.208 281.158C390.798 280.028 392.08 279.473 393.274 279.029C394.124 278.687 395.005 278.429 395.905 278.259C397.076 278.108 398.262 278.135 399.425 278.338C402.019 278.731 404.149 279.716 405.141 282.25C405.328 282.818 405.62 283.345 406.002 283.805C406.308 284.065 406.578 284.363 406.807 284.692C407.379 285.756 406.531 287.096 405.59 287.67Z" fill="#434175"/>
<path d="M127.563 340.748C127.563 340.748 166.492 322.635 181.149 328.989C195.806 335.342 230.232 334.072 230.232 334.072C230.232 334.072 291.406 331.552 298.428 334.072C305.45 336.593 369.17 336.617 372.354 334.072C375.537 331.528 411.868 329.624 417.607 334.072C421.124 336.784 424.979 339.028 429.076 340.748H127.563Z" fill="#E8EAF2"/>
<path opacity="0.3" d="M127.563 340.748C127.563 340.748 166.492 319.232 181.149 326.781C195.806 334.329 230.222 332.821 230.222 332.821C230.222 332.821 291.406 329.801 298.418 332.821C305.431 335.842 369.161 335.842 372.344 332.821C375.528 329.801 411.859 327.537 417.598 332.821C421.027 335.992 424.888 338.664 429.067 340.757L127.563 340.748Z" fill="#00DAFE"/>
</g>
<path d="M40 362H505V561.202L458.842 583.374C416.035 603.936 366.088 603.363 323.765 581.824V581.824C293.364 566.352 258.65 561.53 225.183 568.129L194.405 574.198C170.613 578.889 146.167 579.214 122.259 575.158L40 561.202V362Z" fill="#A2E5F6" fill-opacity="0.5"/>
<path d="M506 404H41V579.5L62.542 589.512C81.5305 598.336 103.08 599.958 123.175 594.073V594.073C134.694 590.7 146.533 588.538 158.5 587.621L234.529 581.796C254.398 580.274 274.383 581.73 293.822 586.115L341.401 596.85C344.796 597.615 348.243 598.128 351.713 598.382V598.382C393.383 601.435 434.245 585.756 463.178 555.613L506 511V404Z" fill="#A2E5F6" fill-opacity="0.5"/>
<defs>
<linearGradient id="paint0_linear" x1="373.429" y1="292.136" x2="403.925" y2="300.313" gradientUnits="userSpaceOnUse">
<stop stop-color="#808080" stop-opacity="0.25"/>
<stop offset="0.54" stop-color="#808080" stop-opacity="0.12"/>
<stop offset="1" stop-color="#808080" stop-opacity="0.1"/>
</linearGradient>
<clipPath id="clip0">
<rect width="536" height="341" fill="white"/>
</clipPath>
</defs>
</svg>
