<svg width="338" height="285" viewBox="0 0 338 285" fill="none" xmlns="http://www.w3.org/2000/svg">
<path fill-rule="evenodd" clip-rule="evenodd" d="M1.31633 142.935C-3.66751 106.459 5.21088 64.2046 32.9172 39.9218C59.7802 16.3783 101.403 31.9094 136.378 24.5619C165.903 18.3595 191.296 -2.98111 221.281 0.350861C255.249 4.12537 289.795 17.4273 311.253 43.9939C333.183 71.1454 341.827 108.467 336.447 142.935C331.446 174.975 307.45 199.84 283.508 221.744C263.422 240.12 237.206 246.646 211.949 256.834C184.273 267.998 158.278 289.714 128.968 284.084C98.6063 278.252 79.2516 250.279 58.5284 227.365C35.1491 201.513 6.03221 177.449 1.31633 142.935Z" fill="#A2E5F6" fill-opacity="0.4"/>
<g clip-path="url(#clip0)">
<path d="M252.655 74.2575V56.1078H268.77V89.7477L252.655 74.2575Z" fill="url(#paint0_linear)"/>
<path d="M254.567 75.5149V59.6612H266.585V89.7477L254.567 75.5149Z" fill="#006FF2"/>
<path d="M281.88 38.0673C290.177 38.0673 296.903 31.3365 296.903 23.0337C296.903 14.7308 290.177 8 281.88 8C273.584 8 266.858 14.7308 266.858 23.0337C266.858 31.3365 273.584 38.0673 281.88 38.0673Z" fill="url(#paint1_linear)"/>
<path d="M281.88 35.0606C288.518 35.0606 293.898 29.676 293.898 23.0337C293.898 16.3914 288.518 11.0067 281.88 11.0067C275.243 11.0067 269.862 16.3914 269.862 23.0337C269.862 29.676 275.243 35.0606 281.88 35.0606Z" fill="#FF9800"/>
<path d="M153.366 91.497C155.584 88.9585 157.231 85.9731 158.197 82.7427C159.162 79.5122 159.424 76.112 158.963 72.7717C158.502 69.4315 157.331 66.2292 155.527 63.3812C153.723 60.5333 151.329 58.106 148.507 56.2636C149.966 54.0034 150.74 51.3691 150.736 48.6784C150.736 41.0686 144.708 34.8994 137.273 34.8994C131.149 34.8994 125.987 39.0896 124.356 44.8188C120.841 38.8737 114.463 34.8994 107.179 34.8994C96.0976 34.8994 87.1168 44.0918 87.1168 55.4326C87.1143 57.8485 87.5301 60.2465 88.3459 62.5203C87.939 62.4875 87.5265 62.4574 87.1168 62.4574C78.2235 62.4574 71.0017 69.8376 71.0017 78.9398C71.0017 79.5002 71.029 80.055 71.0836 80.6044C67.4658 82.2302 64.3978 84.8728 62.2526 88.2109C60.1075 91.5489 58.9775 95.4387 59 99.4075C59 110.71 67.9535 119.875 78.9964 119.875C80.1569 119.874 81.315 119.769 82.4571 119.564C82.397 120.244 82.3615 120.93 82.3615 121.633C82.3615 134.316 92.4075 144.593 104.8 144.593C109.382 144.592 113.849 143.159 117.577 140.493C120.577 143.131 124.433 144.588 128.426 144.593C137.683 144.593 145.189 136.912 145.189 127.436C145.189 127.026 145.156 126.616 145.129 126.219H145.189C155.104 126.219 163.139 117.995 163.139 107.848C163.155 104.49 162.252 101.192 160.53 98.3097C158.807 95.4277 156.33 93.0719 153.366 91.497Z" fill="url(#paint2_linear)"/>
<path d="M150.774 91.3877C152.856 89.0049 154.403 86.2025 155.31 83.17C156.216 80.1374 156.462 76.9454 156.029 73.8098C155.597 70.6742 154.496 67.6681 152.803 64.9947C151.109 62.3213 148.862 60.0429 146.213 58.3136C147.58 56.196 148.307 53.728 148.305 51.2068C148.305 44.0644 142.648 38.2723 135.667 38.2723C129.931 38.2723 125.075 42.2057 123.542 47.5823C121.899 44.7605 119.548 42.4172 116.721 40.7843C113.895 39.1514 110.691 38.2855 107.427 38.2723C97.0262 38.2723 88.5945 46.9017 88.5945 57.5455C88.5917 59.8132 88.9817 62.0642 89.7471 64.1986C89.3647 64.1685 88.9823 64.1385 88.5945 64.1385C80.2364 64.1357 73.4763 71.0594 73.4763 79.6149C73.4763 80.1425 73.5036 80.6618 73.5528 81.1757C70.1551 82.7003 67.2733 85.1801 65.258 88.3136C63.2427 91.447 62.1807 95.0989 62.2012 98.8252C62.2012 109.436 70.6056 118.036 80.9712 118.036C82.0602 118.034 83.147 117.936 84.2188 117.743C84.1642 118.383 84.1286 119.03 84.1286 119.684C84.1286 131.588 93.5574 141.239 105.19 141.239C109.489 141.245 113.682 139.907 117.184 137.413C120.003 139.881 123.621 141.24 127.366 141.239C136.055 141.239 143.102 134.029 143.102 125.134C143.102 124.749 143.072 124.372 143.044 123.992H143.102C152.408 123.992 159.952 116.27 159.952 106.747C159.968 103.592 159.121 100.493 157.504 97.7862C155.886 95.0788 153.559 92.8661 150.774 91.3877Z" fill="#00897B"/>
<path d="M117.547 66.7871H112.655V188.563H117.547V66.7871Z" fill="url(#paint3_linear)"/>
<path d="M116.506 68.4982H114.045V188.563H116.506V68.4982Z" fill="#795548"/>
<path d="M134.015 82.0561L113.822 103.879L115.628 105.552L135.821 83.7294L134.015 82.0561Z" fill="#795548"/>
<path d="M94.5209 106.93L93.0536 108.907L113.99 124.468L115.458 122.49L94.5209 106.93Z" fill="#795548"/>
<path d="M122.641 105.036C119.338 101.518 117.496 96.8738 117.49 92.0464C117.49 85.0927 121.267 78.9972 126.943 75.5613C125.666 73.6965 124.982 71.4888 124.982 69.228C124.982 62.862 130.319 57.7013 136.904 57.7013C142.329 57.7013 146.898 61.2055 148.343 65.9999C149.969 63.4407 152.218 61.3367 154.878 59.8851C157.539 58.4336 160.524 57.6822 163.554 57.7013C173.368 57.7013 181.308 65.3931 181.308 74.8807C181.308 76.9071 180.938 78.9163 180.216 80.8094C180.576 80.7821 180.937 80.7575 181.308 80.7575C189.186 80.7575 195.569 86.9295 195.569 94.5447C195.568 95.0095 195.544 95.4739 195.495 95.936C201.794 98.5601 206.205 104.615 206.205 111.667C206.205 121.124 198.284 128.789 188.495 128.789C187.467 128.783 186.442 128.692 185.43 128.515C185.482 129.087 185.515 129.661 185.515 130.246C185.515 140.857 176.619 149.459 165.644 149.459C161.621 149.466 157.688 148.275 154.344 146.036C151.635 148.259 148.238 149.469 144.735 149.459C136.541 149.459 129.89 143.032 129.89 135.106C129.89 134.761 129.917 134.425 129.942 134.086H129.89C121.112 134.086 113.994 127.203 113.994 118.716C113.994 112.752 117.514 107.583 122.641 105.036Z" fill="url(#paint4_linear)"/>
<path d="M124.255 104.973C121.098 101.603 119.34 97.1576 119.339 92.5384C119.339 85.8826 122.955 80.0495 128.388 76.7613C127.159 74.9746 126.501 72.8567 126.501 70.6877C126.501 64.5949 131.611 59.653 137.912 59.653C143.102 59.653 147.472 63.0068 148.862 67.5962C150.418 65.1504 152.568 63.1395 155.112 61.7517C157.656 60.3639 160.51 59.6447 163.407 59.6612C172.8 59.6612 180.412 67.0222 180.412 76.1025C180.414 78.0426 180.062 79.9667 179.372 81.7798C179.716 81.7552 180.06 81.7279 180.412 81.7279C187.951 81.7279 194.069 87.6375 194.069 94.9247C194.069 95.3693 194.047 95.8136 194.001 96.2558C200.029 98.7678 204.252 104.563 204.252 111.311C204.252 120.362 196.664 127.712 187.301 127.712C186.318 127.706 185.338 127.618 184.37 127.449C184.419 127.996 184.449 128.543 184.449 129.106C184.449 139.263 175.933 147.496 165.431 147.496C161.575 147.504 157.805 146.362 154.601 144.216C152.009 146.345 148.757 147.505 145.404 147.496C137.557 147.496 131.201 141.346 131.201 133.758C131.201 133.43 131.229 133.107 131.253 132.782H131.201C122.797 132.782 115.985 126.195 115.985 118.071C115.971 112.358 119.339 107.411 124.255 104.973Z" fill="#009688"/>
<path d="M159.187 85.7377H153.623V187.945H159.187V85.7377Z" fill="url(#paint5_linear)"/>
<path d="M158.034 85.7377H154.959V187.945H158.034V85.7377Z" fill="#795548"/>
<path d="M139.667 96.6551L137.471 98.8096L155.708 117.427L157.904 115.273L139.667 96.6551Z" fill="#795548"/>
<path d="M174.83 117.809L155.924 131.086L157.691 133.606L176.597 120.329L174.83 117.809Z" fill="#795548"/>
<path d="M281.118 103.669H143.946C140.813 103.669 138.275 105.079 138.275 106.823V207.598H286.797V106.823C286.797 105.079 284.251 103.669 281.118 103.669Z" fill="url(#paint6_linear)"/>
<path d="M212.099 46.0051L140.54 99.197V203.755H284.087V102.991L212.099 46.0051Z" fill="white"/>
<path d="M212.241 109.931C221.042 109.931 228.176 102.791 228.176 93.9844C228.176 85.1773 221.042 78.0378 212.241 78.0378C203.441 78.0378 196.306 85.1773 196.306 93.9844C196.306 102.791 203.441 109.931 212.241 109.931Z" fill="url(#paint7_linear)"/>
<path d="M182.365 124.738H154.197V152.927H182.365V124.738Z" fill="url(#paint8_linear)"/>
<path d="M269.717 124.738H241.549V152.927H269.717V124.738Z" fill="url(#paint9_linear)"/>
<path d="M126.738 125.727L122.922 104.369L212.413 35.5389L301 105.743L298.542 124.907L212.4 59.858L126.738 125.727Z" fill="url(#paint10_linear)"/>
<path d="M126.913 121.439L124.288 106.681L212.391 37.8815L299.634 106.686L296.993 121.43L212.378 54.6973L126.913 121.439Z" fill="#006FF2"/>
<path d="M229.315 156.628H194.886V203.755H229.315V156.628Z" fill="url(#paint11_linear)"/>
<path d="M228.318 157.626H195.88V203.755H228.318V157.626Z" fill="#006FF2"/>
<path d="M181.655 125.733H155.478V134.988H181.655V125.733Z" fill="#006FF2"/>
<path opacity="0.2" d="M181.655 134.988H155.478V151.93H181.655V134.988Z" fill="#006FF2"/>
<path d="M268.723 125.733H242.546V134.988H268.723V125.733Z" fill="#006FF2"/>
<path opacity="0.2" d="M268.723 134.988H242.546V151.93H268.723V134.988Z" fill="#006FF2"/>
<path d="M212.099 108.365C214.006 108.365 215.894 107.989 217.656 107.258C219.417 106.527 221.018 105.456 222.365 104.106C223.713 102.756 224.782 101.154 225.51 99.3903C226.239 97.6268 226.613 95.7369 226.611 93.8286H197.587C197.586 95.7369 197.96 97.6268 198.688 99.3903C199.417 101.154 200.485 102.756 201.833 104.106C203.181 105.456 204.781 106.527 206.543 107.258C208.304 107.989 210.192 108.365 212.099 108.365Z" fill="#006FF2"/>
<path opacity="0.2" d="M212.099 108.223C215.948 108.223 219.639 106.693 222.361 103.969C225.082 101.246 226.611 97.5517 226.611 93.7001H197.587C197.587 97.5517 199.116 101.246 201.838 103.969C204.559 106.693 208.25 108.223 212.099 108.223Z" fill="black"/>
<path opacity="0.2" d="M212.099 79.3197C208.253 79.3197 204.564 80.8479 201.843 83.5684C199.121 86.289 197.591 89.9793 197.587 93.8286H226.611C226.607 89.9793 225.077 86.289 222.356 83.5684C219.635 80.8479 215.946 79.3197 212.099 79.3197Z" fill="#006FF2"/>
<path opacity="0.2" d="M212.099 79.3197C208.253 79.3197 204.564 80.8479 201.843 83.5684C199.121 86.289 197.591 89.9793 197.587 93.8286H226.611C226.607 89.9793 225.077 86.289 222.356 83.5684C219.635 80.8479 215.946 79.3197 212.099 79.3197Z" fill="#006FF2"/>
<path d="M220.777 183.965C222.662 183.965 224.191 182.435 224.191 180.548C224.191 178.661 222.662 177.132 220.777 177.132C218.891 177.132 217.362 178.661 217.362 180.548C217.362 182.435 218.891 183.965 220.777 183.965Z" fill="url(#paint12_linear)"/>
<path d="M220.777 183.112C222.192 183.112 223.339 181.964 223.339 180.548C223.339 179.132 222.192 177.984 220.777 177.984C219.362 177.984 218.215 179.132 218.215 180.548C218.215 181.964 219.362 183.112 220.777 183.112Z" fill="#263238"/>
<path d="M232.442 197.063H190.617V210.73H232.442V197.063Z" fill="url(#paint13_linear)"/>
<path d="M231.587 198.201H191.469V209.875H231.587V198.201Z" fill="white"/>
<path d="M151.465 165.545C152.487 164.374 153.246 162.998 153.691 161.51C154.135 160.021 154.256 158.454 154.043 156.914C153.831 155.375 153.291 153.899 152.46 152.587C151.629 151.274 150.526 150.155 149.226 149.306C149.898 148.264 150.255 147.05 150.253 145.81C150.291 144.296 149.773 142.821 148.798 141.663C147.823 140.505 146.458 139.745 144.961 139.526C143.464 139.306 141.938 139.644 140.673 140.474C139.407 141.304 138.489 142.569 138.092 144.03C137.285 142.643 136.129 141.491 134.74 140.689C133.35 139.887 131.776 139.462 130.171 139.457C125.064 139.457 120.923 143.694 120.923 148.923C120.92 150.041 121.111 151.151 121.488 152.203C121.3 152.189 121.114 152.173 120.923 152.173C116.826 152.173 113.499 155.573 113.499 159.769C113.499 160.029 113.499 160.283 113.537 160.537C111.869 161.286 110.454 162.504 109.464 164.043C108.474 165.581 107.953 167.375 107.963 169.205C107.963 174.415 112.09 178.638 117.181 178.638C117.716 178.637 118.25 178.588 118.776 178.493C118.749 178.807 118.732 179.124 118.732 179.447C118.732 185.293 123.376 190.033 129.076 190.033C131.188 190.034 133.246 189.374 134.965 188.147C136.349 189.362 138.126 190.032 139.966 190.033C144.233 190.033 147.693 186.48 147.693 182.125C147.693 181.937 147.68 181.751 147.666 181.565H147.693C152.263 181.565 155.967 177.774 155.967 173.092C155.976 171.542 155.561 170.02 154.768 168.69C153.974 167.36 152.832 166.272 151.465 165.545Z" fill="url(#paint14_linear)"/>
<path d="M150.269 165.495C151.228 164.397 151.941 163.105 152.358 161.708C152.776 160.31 152.889 158.839 152.69 157.394C152.49 155.949 151.983 154.563 151.203 153.331C150.422 152.099 149.387 151.049 148.166 150.251C148.797 149.274 149.132 148.135 149.13 146.971C149.166 145.55 148.68 144.165 147.765 143.078C146.85 141.991 145.568 141.277 144.163 141.072C142.757 140.866 141.325 141.183 140.137 141.962C138.949 142.742 138.088 143.929 137.716 145.301C136.958 144.001 135.874 142.921 134.572 142.168C133.269 141.415 131.793 141.016 130.289 141.01C125.495 141.01 121.609 144.987 121.609 149.893C121.608 150.939 121.788 151.976 122.141 152.96C121.966 152.96 121.789 152.933 121.609 152.933C117.76 152.933 114.641 156.125 114.641 160.064C114.641 160.307 114.641 160.548 114.676 160.783C113.11 161.486 111.782 162.629 110.853 164.073C109.924 165.517 109.434 167.2 109.443 168.918C109.443 173.808 113.316 177.774 118.096 177.774C118.598 177.774 119.099 177.729 119.593 177.64C119.568 177.935 119.552 178.233 119.552 178.534C119.552 184.022 123.898 188.47 129.259 188.47C131.241 188.47 133.174 187.851 134.788 186.698C136.086 187.839 137.755 188.468 139.483 188.47C143.49 188.47 146.735 185.146 146.735 181.046C146.735 180.868 146.721 180.693 146.707 180.518H146.735C151.023 180.518 154.503 176.965 154.503 172.57C154.509 171.116 154.118 169.689 153.371 168.442C152.625 167.195 151.552 166.176 150.269 165.495Z" fill="#00897B"/>
<path d="M134.954 154.157H132.698V210.29H134.954V154.157Z" fill="url(#paint15_linear)"/>
<path d="M134.473 154.945H133.34V210.29H134.473V154.945Z" fill="#795548"/>
<path d="M142.548 161.184L133.239 171.244L134.071 172.015L143.38 161.955L142.548 161.184Z" fill="#795548"/>
<path d="M124.339 172.665L123.663 173.576L133.314 180.748L133.989 179.838L124.339 172.665Z" fill="#795548"/>
<path d="M137.306 171.788C135.782 170.166 134.933 168.025 134.932 165.799C134.942 164.262 135.35 162.755 136.116 161.423C136.882 160.091 137.98 158.981 139.302 158.2C138.711 157.34 138.393 156.32 138.393 155.275C138.393 152.34 140.851 149.962 143.888 149.962C145.062 149.948 146.208 150.313 147.158 151.002C148.108 151.691 148.811 152.668 149.163 153.788C149.912 152.608 150.948 151.638 152.175 150.969C153.401 150.3 154.777 149.953 156.174 149.962C160.697 149.962 164.368 153.515 164.368 157.888C164.369 158.823 164.199 159.749 163.866 160.622C164.032 160.622 164.199 160.597 164.368 160.597C167.998 160.597 170.943 163.443 170.943 166.952C170.943 167.167 170.932 167.381 170.91 167.595C172.357 168.179 173.599 169.18 174.477 170.471C175.356 171.762 175.832 173.285 175.846 174.846C175.846 179.206 172.191 182.74 167.681 182.74C167.208 182.74 166.736 182.7 166.269 182.62C166.294 182.894 166.308 183.148 166.308 183.418C166.308 188.308 162.211 192.275 157.147 192.275C155.29 192.28 153.473 191.731 151.93 190.697C150.678 191.719 149.111 192.272 147.497 192.264C143.716 192.264 140.655 189.301 140.655 185.646C140.655 185.488 140.655 185.332 140.679 185.176H140.655C136.607 185.176 133.326 182.002 133.326 178.091C133.336 176.773 133.714 175.485 134.417 174.371C135.12 173.257 136.121 172.362 137.306 171.788Z" fill="url(#paint16_linear)"/>
<path d="M138.046 171.758C136.586 170.203 135.774 168.151 135.774 166.018C135.782 164.548 136.17 163.106 136.901 161.831C137.632 160.556 138.681 159.493 139.944 158.744C139.378 157.921 139.074 156.945 139.073 155.945C139.073 153.135 141.428 150.858 144.334 150.858C145.456 150.847 146.552 151.196 147.461 151.855C148.369 152.514 149.043 153.448 149.381 154.518C150.099 153.389 151.091 152.461 152.265 151.821C153.438 151.181 154.755 150.85 156.092 150.858C160.422 150.858 163.931 154.25 163.931 158.438C163.932 159.332 163.769 160.218 163.451 161.054C163.609 161.054 163.767 161.029 163.931 161.029C167.406 161.029 170.213 163.763 170.213 167.114C170.213 167.319 170.202 167.524 170.181 167.729C171.566 168.288 172.755 169.246 173.596 170.481C174.437 171.717 174.893 173.174 174.906 174.669C174.906 178.84 171.407 182.224 167.092 182.224C166.634 182.224 166.177 182.186 165.726 182.109C165.75 182.361 165.764 182.615 165.764 182.872C165.764 187.554 161.839 191.345 156.996 191.345C155.219 191.35 153.481 190.825 152.003 189.836C150.808 190.816 149.31 191.35 147.764 191.345C144.148 191.345 141.209 188.511 141.209 185.012C141.209 184.862 141.209 184.711 141.234 184.564H141.209C137.336 184.564 134.195 181.527 134.195 177.782C134.209 176.518 134.578 175.283 135.259 174.218C135.94 173.153 136.905 172.301 138.046 171.758Z" fill="#009688"/>
<path d="M154.148 162.891H151.583V210.003H154.148V162.891Z" fill="url(#paint17_linear)"/>
<path d="M153.618 162.891H152.2V210.003H153.618V162.891Z" fill="#795548"/>
<path d="M145.15 167.925L144.138 168.918L152.546 177.501L153.558 176.507L145.15 167.925Z" fill="#795548"/>
<path d="M161.361 177.672L152.646 183.792L153.461 184.954L162.176 178.833L161.361 177.672Z" fill="#795548"/>
<path d="M83.3694 145.698L101.823 164.891L122.701 145.698" stroke="#37474F" stroke-miterlimit="10"/>
<path d="M77.5433 135.978H65.162V212.513H77.5433V135.978Z" fill="url(#paint18_linear)"/>
<path d="M76.571 137.434H66.1317V209.839H76.571V137.434Z" fill="#F5F5F5"/>
<path d="M136.298 139.137H62.0045V152.501H136.298V139.137Z" fill="url(#paint19_linear)"/>
<path d="M62.9769 140.594V151.041H135.328V140.594H62.9769Z" fill="#F5F5F5"/>
<path d="M71.4742 147.884C72.681 147.884 73.6593 146.905 73.6593 145.698C73.6593 144.49 72.681 143.511 71.4742 143.511C70.2674 143.511 69.2891 144.49 69.2891 145.698C69.2891 146.905 70.2674 147.884 71.4742 147.884Z" fill="url(#paint20_linear)"/>
<path d="M129.986 147.884C131.193 147.884 132.171 146.905 132.171 145.698C132.171 144.49 131.193 143.511 129.986 143.511C128.779 143.511 127.801 144.49 127.801 145.698C127.801 146.905 128.779 147.884 129.986 147.884Z" fill="url(#paint21_linear)"/>
<path d="M71.4742 147.398C72.4125 147.398 73.1731 146.636 73.1731 145.697C73.1731 144.759 72.4125 143.997 71.4742 143.997C70.5359 143.997 69.7753 144.759 69.7753 145.697C69.7753 146.636 70.5359 147.398 71.4742 147.398Z" fill="#E6E6E6"/>
<path d="M129.986 147.398C130.924 147.398 131.685 146.636 131.685 145.697C131.685 144.759 130.924 143.997 129.986 143.997C129.047 143.997 128.287 144.759 128.287 145.697C128.287 146.636 129.047 147.398 129.986 147.398Z" fill="#E6E6E6"/>
<path d="M126.588 163.675H79.7284V195.503H126.588V163.675Z" fill="url(#paint22_linear)"/>
<path d="M126.222 164.041H80.0917V194.655H126.222V164.041Z" fill="#006FF2"/>
<path d="M117.968 168.899H85.4343V171.815H117.968V168.899Z" fill="white"/>
<path d="M114.447 174.609H91.3832V177.525H114.447V174.609Z" fill="white"/>
<path d="M116.389 180.319H88.4688V183.235H116.389V180.319Z" fill="white"/>
<path d="M118.331 186.029H85.7975V188.945H118.331V186.029Z" fill="white"/>
<path d="M259.958 174.319C259.03 173.255 258.341 172.004 257.937 170.651C257.533 169.298 257.424 167.873 257.617 166.474C257.81 165.075 258.301 163.734 259.056 162.541C259.812 161.348 260.814 160.331 261.996 159.559C261.384 158.611 261.06 157.507 261.062 156.38C261.025 155.002 261.495 153.659 262.381 152.605C263.268 151.55 264.51 150.858 265.872 150.658C267.235 150.459 268.623 150.766 269.774 151.523C270.925 152.279 271.759 153.431 272.118 154.761C272.852 153.501 273.903 152.454 275.166 151.725C276.429 150.995 277.86 150.609 279.318 150.604C283.962 150.604 287.726 154.458 287.726 159.209C287.727 160.221 287.553 161.227 287.212 162.18C287.381 162.18 287.553 162.153 287.726 162.153C291.454 162.153 294.475 165.244 294.475 169.06C294.475 169.295 294.475 169.527 294.439 169.757C295.956 170.438 297.243 171.545 298.143 172.944C299.043 174.343 299.518 175.973 299.509 177.637C299.509 182.374 295.756 186.215 291.129 186.215C290.642 186.214 290.157 186.17 289.678 186.083C289.703 186.357 289.719 186.657 289.719 186.95C289.719 192.266 285.51 196.574 280.315 196.574C278.395 196.575 276.522 195.976 274.959 194.86C273.7 195.965 272.083 196.574 270.409 196.574C266.53 196.574 263.384 193.354 263.384 189.383C263.384 189.21 263.383 189.041 263.408 188.871H263.384C259.229 188.871 255.861 185.425 255.861 181.171C255.855 179.764 256.233 178.382 256.956 177.174C257.678 175.966 258.716 174.979 259.958 174.319Z" fill="url(#paint23_linear)"/>
<path d="M261.045 174.275C260.173 173.277 259.526 172.102 259.146 170.832C258.766 169.561 258.664 168.224 258.845 166.91C259.026 165.596 259.487 164.337 260.197 163.216C260.906 162.096 261.848 161.142 262.957 160.417C262.383 159.529 262.078 158.493 262.081 157.435C262.047 156.142 262.488 154.882 263.32 153.893C264.153 152.904 265.318 152.254 266.597 152.067C267.875 151.88 269.178 152.168 270.258 152.877C271.339 153.586 272.122 154.667 272.46 155.915C273.149 154.731 274.135 153.749 275.32 153.064C276.505 152.379 277.849 152.017 279.217 152.012C283.587 152.012 287.108 155.628 287.108 160.089C287.109 161.039 286.946 161.982 286.625 162.877C286.786 162.877 286.944 162.852 287.108 162.852C290.607 162.852 293.442 165.755 293.442 169.336C293.442 169.557 293.442 169.776 293.41 169.989C294.834 170.628 296.041 171.667 296.886 172.98C297.731 174.294 298.176 175.824 298.168 177.386C298.168 181.833 294.647 185.436 290.301 185.436C289.843 185.435 289.386 185.394 288.936 185.313C288.96 185.586 288.974 185.859 288.974 186.133C288.974 191.121 285.021 195.166 280.146 195.166C278.344 195.167 276.587 194.604 275.12 193.557C273.94 194.593 272.424 195.165 270.854 195.166C267.213 195.166 264.26 192.146 264.26 188.418C264.26 188.256 264.26 188.098 264.285 187.939H264.26C260.36 187.939 257.2 184.703 257.2 180.712C257.193 179.39 257.548 178.092 258.226 176.957C258.904 175.822 259.879 174.895 261.045 174.275Z" fill="#00897B"/>
<path d="M277.019 163.965H274.967V215H277.019V163.965Z" fill="url(#paint24_linear)"/>
<path d="M276.437 164.681H275.404V215H276.437V164.681Z" fill="#795548"/>
<path d="M268.069 170.386L267.311 171.088L275.774 180.233L276.531 179.531L268.069 170.386Z" fill="#795548"/>
<path d="M284.62 180.782L275.845 187.304L276.46 188.134L285.236 181.611L284.62 180.782Z" fill="#795548"/>
<path d="M272.829 179.993C274.213 178.519 274.985 176.572 274.986 174.548C274.98 173.151 274.612 171.779 273.918 170.567C273.224 169.354 272.227 168.342 271.026 167.63C271.562 166.847 271.847 165.92 271.845 164.971C271.845 162.303 269.608 160.138 266.85 160.138C265.784 160.127 264.743 160.459 263.88 161.085C263.017 161.711 262.377 162.598 262.056 163.615C261.375 162.542 260.432 161.661 259.317 161.053C258.202 160.445 256.951 160.13 255.681 160.138C251.568 160.138 248.235 163.361 248.235 167.338C248.235 168.187 248.389 169.029 248.691 169.822C248.541 169.822 248.388 169.801 248.235 169.801C244.936 169.801 242.259 172.386 242.259 175.579C242.259 175.773 242.269 175.968 242.289 176.161C240.973 176.692 239.844 177.602 239.045 178.776C238.246 179.95 237.814 181.334 237.801 182.754C237.801 186.718 241.125 189.929 245.223 189.929C245.653 189.929 246.082 189.892 246.506 189.82C246.484 190.058 246.471 190.301 246.471 190.544C246.471 194.992 250.199 198.597 254.799 198.597C256.487 198.601 258.138 198.101 259.54 197.162C260.677 198.102 262.106 198.616 263.58 198.613C267.016 198.613 269.802 195.921 269.802 192.6C269.802 192.455 269.802 192.326 269.78 192.173H269.802C273.481 192.173 276.464 189.29 276.464 185.731C276.455 184.53 276.11 183.355 275.467 182.341C274.824 181.327 273.91 180.514 272.829 179.993Z" fill="url(#paint25_linear)"/>
<path d="M272.157 179.969C273.486 178.559 274.228 176.695 274.232 174.756C274.225 173.42 273.872 172.109 273.207 170.95C272.543 169.792 271.59 168.825 270.441 168.144C270.957 167.396 271.233 166.508 271.233 165.599C271.233 163.046 269.092 160.974 266.451 160.974C265.43 160.964 264.434 161.282 263.607 161.881C262.781 162.481 262.169 163.33 261.862 164.304C261.21 163.277 260.308 162.433 259.241 161.851C258.173 161.268 256.976 160.967 255.76 160.974C251.824 160.974 248.634 164.06 248.634 167.865C248.634 168.678 248.782 169.484 249.071 170.243C248.926 170.243 248.782 170.222 248.634 170.222C245.474 170.222 242.914 172.698 242.914 175.751C242.915 175.934 242.925 176.116 242.945 176.298C241.685 176.806 240.605 177.677 239.84 178.8C239.075 179.923 238.66 181.248 238.648 182.607C238.648 186.4 241.827 189.476 245.75 189.476C246.162 189.475 246.573 189.441 246.979 189.372C246.957 189.601 246.946 189.831 246.946 190.066C246.946 194.322 250.516 197.774 254.916 197.774C256.531 197.78 258.112 197.304 259.456 196.407C260.543 197.297 261.905 197.78 263.31 197.774C266.587 197.774 269.264 195.197 269.264 192.018C269.264 191.881 269.264 191.744 269.242 191.61H269.264C272.785 191.61 275.642 188.85 275.642 185.444C275.63 184.297 275.297 183.176 274.681 182.208C274.065 181.241 273.19 180.465 272.157 179.969Z" fill="#009688"/>
<path d="M259.852 171.908H257.519V214.743H259.852V171.908Z" fill="url(#paint26_linear)"/>
<path d="M259.289 171.908H258V214.743H259.289V171.908Z" fill="#795548"/>
<path d="M265.698 176.484L258.055 184.286L258.976 185.189L266.618 177.387L265.698 176.484Z" fill="#795548"/>
<path d="M250.962 185.354L250.221 186.41L258.145 191.975L258.885 190.919L250.962 185.354Z" fill="#795548"/>
</g>
<defs>
<linearGradient id="paint0_linear" x1="252.655" y1="72.9291" x2="268.77" y2="72.9291" gradientUnits="userSpaceOnUse">
<stop stop-color="#808080" stop-opacity="0.25"/>
<stop offset="0.54" stop-color="#808080" stop-opacity="0.12"/>
<stop offset="1" stop-color="#808080" stop-opacity="0.1"/>
</linearGradient>
<linearGradient id="paint1_linear" x1="24783.7" y1="3315.41" x2="24783.7" y2="8" gradientUnits="userSpaceOnUse">
<stop stop-color="#808080" stop-opacity="0.25"/>
<stop offset="0.54" stop-color="#808080" stop-opacity="0.12"/>
<stop offset="1" stop-color="#808080" stop-opacity="0.1"/>
</linearGradient>
<linearGradient id="paint2_linear" x1="36262.1" y1="61433.8" x2="36262.1" y2="17412.6" gradientUnits="userSpaceOnUse">
<stop stop-color="#808080" stop-opacity="0.25"/>
<stop offset="0.54" stop-color="#808080" stop-opacity="0.12"/>
<stop offset="1" stop-color="#808080" stop-opacity="0.1"/>
</linearGradient>
<linearGradient id="paint3_linear" x1="1117.45" y1="80509.2" x2="1117.45" y2="26257" gradientUnits="userSpaceOnUse">
<stop stop-color="#808080" stop-opacity="0.25"/>
<stop offset="0.54" stop-color="#808080" stop-opacity="0.12"/>
<stop offset="1" stop-color="#808080" stop-opacity="0.1"/>
</linearGradient>
<linearGradient id="paint4_linear" x1="48725" y1="53050.6" x2="48725" y2="22242.9" gradientUnits="userSpaceOnUse">
<stop stop-color="#808080" stop-opacity="0.25"/>
<stop offset="0.54" stop-color="#808080" stop-opacity="0.12"/>
<stop offset="1" stop-color="#808080" stop-opacity="0.1"/>
</linearGradient>
<linearGradient id="paint5_linear" x1="2137.73" y1="67371.8" x2="2137.73" y2="29153.4" gradientUnits="userSpaceOnUse">
<stop stop-color="#808080" stop-opacity="0.25"/>
<stop offset="0.54" stop-color="#808080" stop-opacity="0.12"/>
<stop offset="1" stop-color="#808080" stop-opacity="0.1"/>
</linearGradient>
<linearGradient id="paint6_linear" x1="106937" y1="82230.6" x2="106937" y2="42714.6" gradientUnits="userSpaceOnUse">
<stop stop-color="#808080" stop-opacity="0.25"/>
<stop offset="0.54" stop-color="#808080" stop-opacity="0.12"/>
<stop offset="1" stop-color="#808080" stop-opacity="0.1"/>
</linearGradient>
<linearGradient id="paint7_linear" x1="18076.5" y1="11971.3" x2="18076.5" y2="8250.04" gradientUnits="userSpaceOnUse">
<stop stop-color="#808080" stop-opacity="0.25"/>
<stop offset="0.54" stop-color="#808080" stop-opacity="0.12"/>
<stop offset="1" stop-color="#808080" stop-opacity="0.1"/>
</linearGradient>
<linearGradient id="paint8_linear" x1="11424.2" y1="15071.1" x2="11424.2" y2="12163.9" gradientUnits="userSpaceOnUse">
<stop stop-color="#808080" stop-opacity="0.25"/>
<stop offset="0.54" stop-color="#808080" stop-opacity="0.12"/>
<stop offset="1" stop-color="#808080" stop-opacity="0.1"/>
</linearGradient>
<linearGradient id="paint9_linear" x1="20520.2" y1="15071.1" x2="20520.2" y2="12163.9" gradientUnits="userSpaceOnUse">
<stop stop-color="#808080" stop-opacity="0.25"/>
<stop offset="0.54" stop-color="#808080" stop-opacity="0.12"/>
<stop offset="1" stop-color="#808080" stop-opacity="0.1"/>
</linearGradient>
<linearGradient id="paint10_linear" x1="99848.1" y1="38879.7" x2="99848.1" y2="9122.02" gradientUnits="userSpaceOnUse">
<stop stop-color="#808080" stop-opacity="0.25"/>
<stop offset="0.54" stop-color="#808080" stop-opacity="0.12"/>
<stop offset="1" stop-color="#808080" stop-opacity="0.1"/>
</linearGradient>
<linearGradient id="paint11_linear" x1="19493" y1="33906.7" x2="19493" y2="25781.6" gradientUnits="userSpaceOnUse">
<stop stop-color="#808080" stop-opacity="0.25"/>
<stop offset="0.54" stop-color="#808080" stop-opacity="0.12"/>
<stop offset="1" stop-color="#808080" stop-opacity="0.1"/>
</linearGradient>
<linearGradient id="paint12_linear" x1="4261.78" y1="4576.25" x2="4261.78" y2="4405.42" gradientUnits="userSpaceOnUse">
<stop stop-color="#808080" stop-opacity="0.25"/>
<stop offset="0.54" stop-color="#808080" stop-opacity="0.12"/>
<stop offset="1" stop-color="#808080" stop-opacity="0.1"/>
</linearGradient>
<linearGradient id="paint13_linear" x1="23547.7" y1="10333.6" x2="23547.7" y2="9650.25" gradientUnits="userSpaceOnUse">
<stop stop-color="#808080" stop-opacity="0.25"/>
<stop offset="0.54" stop-color="#808080" stop-opacity="0.12"/>
<stop offset="1" stop-color="#808080" stop-opacity="0.1"/>
</linearGradient>
<linearGradient id="paint14_linear" x1="20469" y1="36853.6" x2="20469" y2="27497.5" gradientUnits="userSpaceOnUse">
<stop stop-color="#808080" stop-opacity="0.25"/>
<stop offset="0.54" stop-color="#808080" stop-opacity="0.12"/>
<stop offset="1" stop-color="#808080" stop-opacity="0.1"/>
</linearGradient>
<linearGradient id="paint15_linear" x1="750.755" y1="41696.5" x2="750.755" y2="30169" gradientUnits="userSpaceOnUse">
<stop stop-color="#808080" stop-opacity="0.25"/>
<stop offset="0.54" stop-color="#808080" stop-opacity="0.12"/>
<stop offset="1" stop-color="#808080" stop-opacity="0.1"/>
</linearGradient>
<linearGradient id="paint16_linear" x1="21686.8" y1="31213" x2="21686.8" y2="24664.6" gradientUnits="userSpaceOnUse">
<stop stop-color="#808080" stop-opacity="0.25"/>
<stop offset="0.54" stop-color="#808080" stop-opacity="0.12"/>
<stop offset="1" stop-color="#808080" stop-opacity="0.1"/>
</linearGradient>
<linearGradient id="paint17_linear" x1="1032.97" y1="34980.7" x2="1032.97" y2="26859.8" gradientUnits="userSpaceOnUse">
<stop stop-color="#808080" stop-opacity="0.25"/>
<stop offset="0.54" stop-color="#808080" stop-opacity="0.12"/>
<stop offset="1" stop-color="#808080" stop-opacity="0.1"/>
</linearGradient>
<linearGradient id="paint18_linear" x1="625.046" y1="57399.5" x2="625.046" y2="35969.7" gradientUnits="userSpaceOnUse">
<stop stop-color="#808080" stop-opacity="0.25"/>
<stop offset="0.54" stop-color="#808080" stop-opacity="0.12"/>
<stop offset="1" stop-color="#808080" stop-opacity="0.1"/>
</linearGradient>
<linearGradient id="paint19_linear" x1="10983.1" y1="7203.66" x2="10983.1" y2="6550.44" gradientUnits="userSpaceOnUse">
<stop stop-color="#808080" stop-opacity="0.25"/>
<stop offset="0.54" stop-color="#808080" stop-opacity="0.12"/>
<stop offset="1" stop-color="#808080" stop-opacity="0.1"/>
</linearGradient>
<linearGradient id="paint20_linear" x1="268.876" y1="2381.66" x2="268.876" y2="2311.69" gradientUnits="userSpaceOnUse">
<stop stop-color="#808080" stop-opacity="0.25"/>
<stop offset="0.54" stop-color="#808080" stop-opacity="0.12"/>
<stop offset="1" stop-color="#808080" stop-opacity="0.1"/>
</linearGradient>
<linearGradient id="paint21_linear" x1="1263.57" y1="2381.66" x2="1263.57" y2="2311.69" gradientUnits="userSpaceOnUse">
<stop stop-color="#808080" stop-opacity="0.25"/>
<stop offset="0.54" stop-color="#808080" stop-opacity="0.12"/>
<stop offset="1" stop-color="#808080" stop-opacity="0.1"/>
</linearGradient>
<linearGradient id="paint22_linear" x1="3635.9" y1="20143.8" x2="11674.6" y2="20143.8" gradientUnits="userSpaceOnUse">
<stop stop-color="#808080" stop-opacity="0.25"/>
<stop offset="0.54" stop-color="#808080" stop-opacity="0.12"/>
<stop offset="1" stop-color="#808080" stop-opacity="0.1"/>
</linearGradient>
<linearGradient id="paint23_linear" x1="-21668.8" y1="34627" x2="-21668.8" y2="26894.4" gradientUnits="userSpaceOnUse">
<stop stop-color="#808080" stop-opacity="0.25"/>
<stop offset="0.54" stop-color="#808080" stop-opacity="0.12"/>
<stop offset="1" stop-color="#808080" stop-opacity="0.1"/>
</linearGradient>
<linearGradient id="paint24_linear" x1="-840.828" y1="41858.6" x2="-840.828" y2="32329.9" gradientUnits="userSpaceOnUse">
<stop stop-color="#808080" stop-opacity="0.25"/>
<stop offset="0.54" stop-color="#808080" stop-opacity="0.12"/>
<stop offset="1" stop-color="#808080" stop-opacity="0.1"/>
</linearGradient>
<linearGradient id="paint25_linear" x1="-22065" y1="29299.6" x2="-22065" y2="23885.7" gradientUnits="userSpaceOnUse">
<stop stop-color="#808080" stop-opacity="0.25"/>
<stop offset="0.54" stop-color="#808080" stop-opacity="0.12"/>
<stop offset="1" stop-color="#808080" stop-opacity="0.1"/>
</linearGradient>
<linearGradient id="paint26_linear" x1="-1113.74" y1="35124.3" x2="-1113.74" y2="28411.6" gradientUnits="userSpaceOnUse">
<stop stop-color="#808080" stop-opacity="0.25"/>
<stop offset="0.54" stop-color="#808080" stop-opacity="0.12"/>
<stop offset="1" stop-color="#808080" stop-opacity="0.1"/>
</linearGradient>
<clipPath id="clip0">
<rect width="242" height="207" fill="white" transform="translate(59 8)"/>
</clipPath>
</defs>
</svg>
