<svg width="860" height="768" viewBox="0 0 860 768" fill="none" xmlns="http://www.w3.org/2000/svg">
<g clip-path="url(#clip0)">
<path d="M431.399 10.7463L161.697 176.717C161.697 176.717 161.697 519.031 431.399 705.748C701.101 519.031 701.101 176.717 701.101 176.717L431.399 10.7463Z" fill="#3F3D56"/>
<path opacity="0.04" d="M433.009 10.7463L428.399 13.5834V702.51C429.93 703.593 431.461 704.676 433.009 705.748C702.712 519.031 702.711 176.717 702.711 176.717L433.009 10.7463Z" fill="#006FF2"/>
<g opacity="0.7">
<path opacity="0.7" d="M366.106 347.068L416.949 393.674L479.977 302.75L505.399 323.935L416.949 436.044L344.921 355.542L366.106 347.068Z" fill="url(#paint0_linear)"/>
</g>
<path d="M378.106 349.868L419.349 387.674L477.777 301.75L498.399 318.935L419.349 422.044L360.921 356.742L378.106 349.868Z" fill="#006FF2"/>
<path opacity="0.5" d="M165.29 47.9563C164.463 47.5962 163.797 46.9447 163.42 46.1258C163.042 45.3069 162.979 44.3778 163.242 43.5153C163.285 43.383 163.312 43.2462 163.322 43.1077V43.1077C163.346 42.7126 163.242 42.3201 163.026 41.9886C162.809 41.6571 162.492 41.4041 162.121 41.2671C161.749 41.13 161.343 41.1163 160.964 41.2279C160.584 41.3395 160.25 41.5704 160.012 41.8865V41.8865C159.93 41.9987 159.861 42.1201 159.808 42.2483C159.448 43.0751 158.796 43.7406 157.977 44.1181C157.158 44.4956 156.229 44.5589 155.367 44.2958C155.234 44.2533 155.098 44.2264 154.959 44.2159C154.564 44.1919 154.172 44.2957 153.84 44.5121C153.509 44.7285 153.256 45.046 153.119 45.4174C152.981 45.7888 152.968 46.1945 153.079 46.5744C153.191 46.9542 153.422 47.288 153.738 47.5264V47.5264C153.85 47.6083 153.972 47.6768 154.1 47.7303C154.927 48.0903 155.592 48.7418 155.97 49.5607C156.347 50.3796 156.41 51.3088 156.147 52.1713C156.105 52.3035 156.078 52.4403 156.067 52.5788V52.5788C156.043 52.974 156.147 53.3664 156.364 53.6979C156.58 54.0295 156.897 54.2825 157.269 54.4195C157.64 54.5565 158.046 54.5702 158.426 54.4587C158.806 54.3471 159.139 54.1161 159.378 53.8V53.8C159.46 53.6878 159.528 53.5664 159.582 53.4382C159.942 52.6115 160.593 51.946 161.412 51.5684C162.231 51.1909 163.16 51.1276 164.023 51.3907C164.155 51.4333 164.292 51.4601 164.43 51.4706V51.4706C164.825 51.4947 165.218 51.3908 165.549 51.1744C165.881 50.958 166.134 50.6406 166.271 50.2692C166.408 49.8977 166.422 49.492 166.31 49.1122C166.199 48.7323 165.968 48.3985 165.651 48.1602V48.1602C165.539 48.0782 165.418 48.0098 165.29 47.9563V47.9563Z" fill="#4D8AF0"/>
<path opacity="0.5" d="M19.2896 372.956C18.4629 372.596 17.7974 371.945 17.4199 371.126C17.0423 370.307 16.9791 369.378 17.2422 368.515C17.2847 368.383 17.3115 368.246 17.3221 368.108V368.108C17.3461 367.713 17.2423 367.32 17.0259 366.989C16.8095 366.657 16.492 366.404 16.1206 366.267C15.7492 366.13 15.3435 366.116 14.9636 366.228C14.5838 366.339 14.25 366.57 14.0116 366.887V366.887C13.9297 366.999 13.8612 367.12 13.8077 367.248C13.4477 368.075 12.7962 368.741 11.9773 369.118C11.1584 369.496 10.2292 369.559 9.36671 369.296C9.23448 369.253 9.09769 369.226 8.95918 369.216V369.216C8.56401 369.192 8.17159 369.296 7.84007 369.512C7.50854 369.729 7.25553 370.046 7.11851 370.417C6.98149 370.789 6.96775 371.195 7.07932 371.574C7.1909 371.954 7.42186 372.288 7.73799 372.526C7.85014 372.608 7.97159 372.677 8.09979 372.73C8.92652 373.09 9.59201 373.742 9.96955 374.561C10.3471 375.38 10.4103 376.309 10.1473 377.171C10.1047 377.304 10.0779 377.44 10.0674 377.579V377.579C10.0433 377.974 10.1472 378.366 10.3636 378.698C10.58 379.029 10.8974 379.282 11.2688 379.419C11.6403 379.556 12.046 379.57 12.4258 379.459C12.8057 379.347 13.1395 379.116 13.3778 378.8C13.4598 378.688 13.5282 378.566 13.5817 378.438C13.9418 377.611 14.5933 376.946 15.4122 376.568C16.2311 376.191 17.1602 376.128 18.0227 376.391C18.1549 376.433 18.2917 376.46 18.4302 376.471V376.471C18.8254 376.495 19.2178 376.391 19.5494 376.174C19.8809 375.958 20.1339 375.641 20.2709 375.269C20.4079 374.898 20.4217 374.492 20.3101 374.112C20.1985 373.732 19.9676 373.399 19.6514 373.16C19.5393 373.078 19.4178 373.01 19.2896 372.956V372.956Z" fill="#4D8AF0"/>
<path opacity="0.5" d="M748.399 260C751.713 260 754.399 257.314 754.399 254C754.399 250.686 751.713 248 748.399 248C745.085 248 742.399 250.686 742.399 254C742.399 257.314 745.085 260 748.399 260Z" fill="#F55F44"/>
<path opacity="0.5" d="M121.399 689C124.713 689 127.399 686.314 127.399 683C127.399 679.686 124.713 677 121.399 677C118.085 677 115.399 679.686 115.399 683C115.399 686.314 118.085 689 121.399 689Z" fill="#F55F44"/>
<path opacity="0.5" d="M850.399 491C853.713 491 856.399 488.314 856.399 485C856.399 481.686 853.713 479 850.399 479C847.085 479 844.399 481.686 844.399 485C844.399 488.314 847.085 491 850.399 491Z" fill="#F55F44"/>
<path opacity="0.5" d="M704.29 76.9563C703.463 76.5962 702.797 75.9447 702.42 75.1258C702.042 74.3069 701.979 73.3778 702.242 72.5153C702.285 72.383 702.312 72.2463 702.322 72.1077V72.1077C702.346 71.7126 702.242 71.3202 702.026 70.9886C701.809 70.6571 701.492 70.4041 701.121 70.2671C700.749 70.1301 700.343 70.1163 699.964 70.2279C699.584 70.3395 699.25 70.5704 699.012 70.8865C698.93 70.9987 698.861 71.1201 698.808 71.2483C698.448 72.0751 697.796 72.7406 696.977 73.1181C696.158 73.4957 695.229 73.5589 694.367 73.2958C694.235 73.2533 694.098 73.2264 693.959 73.2159V73.2159C693.564 73.1919 693.172 73.2957 692.84 73.5121C692.509 73.7285 692.256 74.046 692.119 74.4174C691.981 74.7888 691.968 75.1945 692.079 75.5744C692.191 75.9542 692.422 76.288 692.738 76.5264V76.5264C692.85 76.6083 692.972 76.6768 693.1 76.7303C693.927 77.0903 694.592 77.7418 694.97 78.5607C695.347 79.3796 695.41 80.3088 695.147 81.1713C695.105 81.3035 695.078 81.4403 695.067 81.5788V81.5788C695.043 81.974 695.147 82.3664 695.364 82.6979C695.58 83.0295 695.897 83.2825 696.269 83.4195C696.64 83.5565 697.046 83.5702 697.426 83.4587C697.806 83.3471 698.139 83.1161 698.378 82.8V82.8C698.46 82.6878 698.528 82.5664 698.582 82.4382C698.942 81.6115 699.593 80.946 700.412 80.5684C701.231 80.1909 702.16 80.1276 703.023 80.3907C703.155 80.4333 703.292 80.4601 703.43 80.4706V80.4706C703.825 80.4947 704.218 80.3908 704.549 80.1744C704.881 79.958 705.134 79.6406 705.271 79.2692C705.408 78.8977 705.422 78.492 705.31 78.1122C705.199 77.7323 704.968 77.3985 704.651 77.1602C704.539 77.0782 704.418 77.0098 704.29 76.9563V76.9563Z" fill="#4D8AF0"/>
<path opacity="0.5" d="M804.29 704.956C803.463 704.596 802.797 703.945 802.42 703.126C802.042 702.307 801.979 701.378 802.242 700.515C802.285 700.383 802.312 700.246 802.322 700.108V700.108C802.346 699.713 802.242 699.32 802.026 698.989C801.809 698.657 801.492 698.404 801.121 698.267C800.749 698.13 800.343 698.116 799.964 698.228C799.584 698.34 799.25 698.571 799.012 698.887C798.93 698.999 798.861 699.12 798.808 699.248C798.448 700.075 797.796 700.741 796.977 701.118C796.158 701.496 795.229 701.559 794.367 701.296C794.235 701.253 794.098 701.227 793.959 701.216V701.216C793.564 701.192 793.172 701.296 792.84 701.512C792.509 701.729 792.256 702.046 792.119 702.417C791.981 702.789 791.968 703.195 792.079 703.574C792.191 703.954 792.422 704.288 792.738 704.526V704.526C792.85 704.608 792.972 704.677 793.1 704.73C793.927 705.09 794.592 705.742 794.97 706.561C795.347 707.38 795.41 708.309 795.147 709.171C795.105 709.304 795.078 709.44 795.067 709.579V709.579C795.043 709.974 795.147 710.367 795.364 710.698C795.58 711.03 795.897 711.283 796.269 711.42C796.64 711.557 797.046 711.57 797.426 711.459C797.806 711.347 798.139 711.116 798.378 710.8V710.8C798.46 710.688 798.528 710.567 798.582 710.438C798.942 709.612 799.593 708.946 800.412 708.569C801.231 708.191 802.16 708.128 803.023 708.391C803.155 708.433 803.292 708.46 803.43 708.471V708.471C803.825 708.495 804.218 708.391 804.549 708.174C804.881 707.958 805.134 707.641 805.271 707.269C805.408 706.898 805.422 706.492 805.31 706.112C805.199 705.732 804.968 705.399 804.651 705.16C804.539 705.078 804.418 705.01 804.29 704.956V704.956Z" fill="#4D8AF0"/>
<path opacity="0.5" d="M12.2896 182.956C11.4629 182.596 10.7974 181.945 10.4199 181.126C10.0423 180.307 9.97908 179.378 10.2422 178.515C10.2847 178.383 10.3115 178.246 10.3221 178.108V178.108C10.3461 177.713 10.2423 177.32 10.0259 176.989C9.80946 176.657 9.49204 176.404 9.1206 176.267C8.74916 176.13 8.34347 176.116 7.96362 176.228C7.58376 176.339 7.24996 176.57 7.01162 176.887C6.92966 176.999 6.86122 177.12 6.80772 177.248C6.44766 178.075 5.79616 178.741 4.97726 179.118C4.15836 179.496 3.22922 179.559 2.36671 179.296C2.23448 179.253 2.09769 179.226 1.95918 179.216V179.216C1.56401 179.192 1.17159 179.296 0.840067 179.512C0.508541 179.729 0.255528 180.046 0.11851 180.417C-0.0185091 180.789 -0.0322499 181.195 0.079325 181.574C0.1909 181.954 0.42186 182.288 0.737986 182.526V182.526C0.850145 182.608 0.971586 182.677 1.09979 182.73C1.92652 183.09 2.59201 183.742 2.96955 184.561C3.3471 185.38 3.41034 186.309 3.14726 187.171C3.10469 187.304 3.07787 187.44 3.06736 187.579V187.579C3.04331 187.974 3.14717 188.366 3.36357 188.698C3.57996 189.029 3.89739 189.282 4.26882 189.419C4.64026 189.557 5.04595 189.57 5.42581 189.459C5.80566 189.347 6.13948 189.116 6.37782 188.8V188.8C6.45977 188.688 6.52822 188.566 6.58172 188.438C6.94178 187.611 7.59326 186.946 8.41216 186.568C9.23107 186.191 10.1602 186.128 11.0227 186.391C11.1549 186.433 11.2917 186.46 11.4302 186.471V186.471C11.8254 186.495 12.2178 186.391 12.5494 186.174C12.8809 185.958 13.1339 185.641 13.2709 185.269C13.4079 184.898 13.4217 184.492 13.3101 184.112C13.1985 183.732 12.9676 183.399 12.6514 183.16C12.5393 183.078 12.4178 183.01 12.2896 182.956V182.956Z" fill="#4D8AF0"/>
<path opacity="0.5" d="M79.3992 290C82.7129 290 85.3992 287.314 85.3992 284C85.3992 280.686 82.7129 278 79.3992 278C76.0855 278 73.3992 280.686 73.3992 284C73.3992 287.314 76.0855 290 79.3992 290Z" fill="#47E6B1"/>
<path opacity="0.5" d="M853.399 338C856.713 338 859.399 335.314 859.399 332C859.399 328.686 856.713 326 853.399 326C850.085 326 847.399 328.686 847.399 332C847.399 335.314 850.085 338 853.399 338Z" fill="#47E6B1"/>
<g opacity="0.5">
<path opacity="0.5" d="M586.399 0H583.399V17H586.399V0Z" fill="#47E6B1"/>
<path opacity="0.5" d="M593.399 10V7L576.399 7V10H593.399Z" fill="#47E6B1"/>
</g>
<g opacity="0.5">
<path opacity="0.5" d="M597.399 666H594.399V683H597.399V666Z" fill="#47E6B1"/>
<path opacity="0.5" d="M604.399 676V673H587.399V676H604.399Z" fill="#47E6B1"/>
</g>
<g opacity="0.5">
<path opacity="0.5" d="M29.3992 702H26.3992V719H29.3992V702Z" fill="#47E6B1"/>
<path opacity="0.5" d="M36.3992 712V709H19.3992V712H36.3992Z" fill="#47E6B1"/>
</g>
<g opacity="0.5">
<path opacity="0.5" d="M712.399 396H709.399V413H712.399V396Z" fill="#47E6B1"/>
<path opacity="0.5" d="M719.399 406V403H702.399V406H719.399Z" fill="#47E6B1"/>
</g>
<path opacity="0.5" d="M795.606 123.018L802.049 128.924L811.177 115.5L814.399 118.185L802.049 134.294L792.921 124.092L795.606 123.018Z" fill="#47E6B1"/>
</g>
<defs>
<linearGradient id="paint0_linear" x1="344.921" y1="369.397" x2="505.399" y2="369.397" gradientUnits="userSpaceOnUse">
<stop stop-color="#808080" stop-opacity="0.25"/>
<stop offset="0.53514" stop-color="#808080" stop-opacity="0.12"/>
<stop offset="1" stop-color="#808080" stop-opacity="0.1"/>
</linearGradient>
<clipPath id="clip0">
<rect width="859.399" height="767.784" fill="white"/>
</clipPath>
</defs>
</svg>
