<svg width="373" height="283" viewBox="0 0 373 283" fill="none" xmlns="http://www.w3.org/2000/svg">
<path fill-rule="evenodd" clip-rule="evenodd" d="M183.132 279.87C151.221 275.018 131.539 252.246 103.957 238.873C73.2853 224.003 30.5962 221.654 12.7157 197.249C-6.15439 171.493 -1.36505 138.855 9.9433 110.554C21.3577 81.987 45.9797 58.4606 75.7533 39.4846C107.109 19.5006 142.679 -2.15967 183.132 0.173187C222.891 2.46606 247.271 33.0282 279.516 51.2354C311.744 69.4325 362.511 76.5633 371.731 106.666C381.019 136.991 336.784 160.321 321.783 189.234C308.318 215.184 316.133 248.926 288.571 266.944C260.667 285.184 218.926 285.313 183.132 279.87Z" fill="#A2E5F6" fill-opacity="0.5"/>
<g clip-path="url(#clip0)">
<path d="M325 209.988H50V212H325V209.988Z" fill="#85848B"/>
<path d="M267.871 174.464C267.871 176.011 258.861 180.523 248.158 180.523C237.455 180.523 229.115 176.011 229.115 174.464C229.115 172.916 237.79 173.414 248.504 173.414C259.217 173.414 267.871 172.913 267.871 174.464Z" fill="#504F60"/>
<path opacity="0.2" d="M267.871 174.464C267.871 176.011 258.861 180.523 248.158 180.523C237.455 180.523 229.115 176.011 229.115 174.464" fill="black"/>
<path d="M160.083 146.066C161.82 146.289 163.623 146.431 165.287 145.89C165.549 145.809 165.837 145.628 165.811 145.366C165.792 145.27 165.752 145.181 165.693 145.103C165.066 144.162 164.539 143.157 164.121 142.105C164.104 142.05 164.07 142.002 164.024 141.969C163.97 141.949 163.91 141.949 163.856 141.969C163.089 142.171 162.426 142.667 161.663 142.879C161.275 142.986 160.869 143.016 160.468 142.968C160.123 142.929 159.651 142.643 159.337 142.68C159.515 143.826 159.95 144.896 160.083 146.066Z" fill="#006FF2"/>
<path d="M192.937 143.162C194.082 142.375 195.269 141.549 195.945 140.335C195.993 140.262 196.021 140.178 196.026 140.091C196.014 140.005 195.981 139.924 195.929 139.855C195.285 138.83 194.456 137.934 193.484 137.213C192.977 137.572 192.519 137.995 192.122 138.472C191.834 138.777 191.037 139.259 191.029 139.723C191.029 139.986 191.333 140.29 191.475 140.51C191.666 140.794 191.847 141.082 192.02 141.376C192.119 141.52 193.028 143.105 192.937 143.162Z" fill="#006FF2"/>
<path d="M166.893 149.578C166.913 149.849 166.839 150.118 166.683 150.339C166.561 150.462 166.41 150.552 166.243 150.601C163.814 151.472 161.003 150.386 158.579 151.244C158.082 151.42 157.61 151.674 157.11 151.842C156.513 152.022 155.897 152.131 155.275 152.167C154.419 152.249 153.557 152.301 152.697 152.325C152.044 152.371 151.388 152.314 150.753 152.154C150.436 152.073 150.139 151.926 149.882 151.722C149.625 151.518 149.414 151.262 149.262 150.971C149.131 150.71 149.104 150.409 149.189 150.129C149.227 150.033 149.281 149.945 149.349 149.867C149.513 149.682 149.706 149.526 149.92 149.403L150.813 148.826C151.232 148.529 151.688 148.287 152.168 148.107C152.522 147.991 152.896 147.942 153.255 147.845C154.51 147.477 155.469 146.481 156.36 145.523L157.576 144.225C157.69 144.082 157.834 143.966 157.998 143.886C158.166 143.83 158.346 143.813 158.522 143.836C159.703 143.921 160.843 144.304 161.836 144.949C162.09 145.139 162.364 145.301 162.654 145.431C163.366 145.709 164.281 145.5 164.938 145.148C165.25 144.98 165.182 144.886 165.313 144.587C165.444 144.288 165.764 144.096 166.041 144.369C166.125 144.463 166.185 144.577 166.214 144.699C166.476 145.565 166.377 146.496 166.377 147.404C166.369 147.546 166.387 147.688 166.429 147.824C166.496 147.96 166.576 148.09 166.668 148.212C166.686 148.244 166.703 148.277 166.717 148.311C166.878 148.713 166.938 149.148 166.893 149.578Z" fill="#514E7F"/>
<path d="M166.893 149.578C166.913 149.849 166.839 150.118 166.683 150.339C166.561 150.462 166.41 150.553 166.243 150.601C163.814 151.472 161.003 150.386 158.579 151.244C158.082 151.42 157.61 151.674 157.11 151.842C156.513 152.022 155.897 152.131 155.275 152.167C154.419 152.249 153.557 152.301 152.697 152.325C152.044 152.371 151.388 152.314 150.753 152.154C150.436 152.073 150.139 151.926 149.882 151.722C149.625 151.518 149.414 151.262 149.262 150.971C149.131 150.71 149.104 150.409 149.189 150.129C149.227 150.033 149.281 149.945 149.349 149.867C149.49 150.163 149.592 150.557 149.682 150.698C149.802 150.908 149.966 151.09 150.162 151.232C150.358 151.373 150.582 151.471 150.819 151.52C151.173 151.541 151.529 151.496 151.867 151.386C154.068 150.84 156.407 150.832 158.522 150.006C159.248 149.72 159.939 149.34 160.702 149.167C161.464 148.993 162.274 149.041 163.06 148.975C164.302 148.875 165.504 148.5 166.728 148.304C166.886 148.709 166.943 149.146 166.893 149.578Z" fill="#464353"/>
<path d="M198.499 143.002C198.384 143.926 197.8 144.72 197.158 145.395C196.516 146.069 195.79 146.675 195.279 147.451C194.65 148.414 194.367 149.607 193.55 150.42C193.236 150.716 192.883 150.968 192.502 151.168C192.074 151.421 191.622 151.629 191.152 151.79C189.931 152.181 188.616 152.091 187.34 151.997C186.926 151.993 186.516 151.914 186.13 151.763C185.954 151.674 185.786 151.571 185.627 151.454C185.307 151.257 185.038 150.987 184.841 150.667C184.744 150.493 184.717 150.289 184.765 150.095C184.838 149.882 184.963 149.691 185.129 149.539C185.416 149.24 185.724 148.962 186.051 148.708C186.5 148.418 186.904 148.064 187.251 147.658C187.464 147.337 187.621 146.983 187.715 146.609C187.9 145.955 188.014 145.282 188.053 144.602C188.051 144.151 188.098 143.701 188.192 143.259C188.386 142.567 188.899 141.948 188.841 141.232C188.818 141.129 188.827 141.022 188.868 140.925C188.929 140.849 189.014 140.796 189.109 140.775C189.509 140.616 189.931 140.517 190.361 140.484C190.577 140.469 190.793 140.502 190.994 140.581C191.195 140.66 191.376 140.783 191.524 140.941C191.703 141.156 191.821 141.465 192.083 141.549C192.212 141.585 192.349 141.59 192.481 141.565C193.125 141.499 193.807 141.418 194.315 141.001C194.55 140.79 194.739 140.533 194.869 140.245C195 139.957 195.07 139.646 195.075 139.33C195.075 139.091 194.967 138.842 195.337 138.805C195.614 138.769 195.835 139.068 195.976 139.251C196.487 139.936 197.011 140.652 197.202 141.486C197.277 141.457 197.356 141.442 197.435 141.442C197.599 141.44 197.76 141.478 197.906 141.553C198.051 141.627 198.177 141.736 198.271 141.869C198.48 142.208 198.561 142.609 198.499 143.002Z" fill="#514E7F"/>
<path d="M198.499 143.002C198.384 143.926 197.8 144.72 197.158 145.395C196.516 146.069 195.79 146.675 195.279 147.451C194.65 148.414 194.367 149.607 193.55 150.42C193.236 150.716 192.883 150.968 192.502 151.168C192.074 151.421 191.622 151.629 191.152 151.79C189.931 152.181 188.616 152.091 187.34 151.997C186.926 151.993 186.516 151.914 186.13 151.763C185.954 151.674 185.786 151.571 185.627 151.454C185.307 151.257 185.038 150.987 184.841 150.667C185.086 150.549 185.354 150.484 185.627 150.478C186.193 150.51 186.607 151.045 187.149 151.21C187.922 151.443 188.692 150.898 189.476 150.712C189.986 150.591 190.524 150.622 191.029 150.449C191.451 150.286 191.84 150.05 192.179 149.752C192.645 149.419 193.059 149.019 193.408 148.566C193.699 148.113 193.94 147.63 194.129 147.126C194.543 146.16 195.03 145.227 195.586 144.335C195.668 144.194 195.767 144.063 195.882 143.947C196.005 143.834 196.144 143.755 196.283 143.655C196.807 143.259 197.024 142.606 197.207 141.966C197.257 141.772 197.326 141.583 197.414 141.402C197.578 141.401 197.739 141.439 197.885 141.513C198.03 141.588 198.156 141.696 198.25 141.83C198.476 142.176 198.564 142.594 198.499 143.002Z" fill="#464353"/>
<path d="M143.558 61.2197C144.211 61.709 144.747 62.3359 145.13 63.0559C145.497 63.7746 147.612 69.3513 147.489 70.1618C148.178 69.4667 150.895 69.3539 151.592 68.6588C151.882 68.3677 153.452 66.9145 153.688 66.5761C153.924 66.2377 155.674 65.5269 155.865 65.1701C156.58 63.8874 150.792 59.0268 151.534 57.7599C151.575 57.7017 151.596 57.6318 151.594 57.5605C151.577 57.5007 151.544 57.447 151.497 57.4058C151.023 56.9205 150.394 56.6189 149.823 56.2595C149.252 55.9001 148.702 55.3991 148.547 54.7381C148.002 54.9891 147.502 55.3276 147.067 55.7401C146.005 56.6512 144.961 57.5807 143.936 58.5285C143.535 58.9009 142.759 59.3967 142.573 59.9292C142.353 60.501 143.176 60.9076 143.558 61.2197Z" fill="#A1616A"/>
<path d="M152.928 59.1554C152.04 59.7528 151.21 60.4326 150.449 61.1857C149.731 61.8965 149.05 62.7202 148.877 63.7143C148.804 64.1052 148.814 64.5012 148.754 64.8973C148.492 66.6155 147.009 67.8745 146.354 69.4825C146.164 69.9788 146.025 70.4928 145.937 71.017C145.753 72.0106 145.653 73.0179 145.636 74.0283C145.62 75.0067 146.579 75.6808 146.93 76.5937C147.282 77.5065 147.376 78.4456 147.554 79.382C147.889 81.15 148.505 82.855 149.126 84.5495C150.418 88.1221 154.605 97.998 155.896 101.573C159.855 100.579 170.393 98.2945 173.899 96.1986C175.068 95.5009 165.79 87.629 167.04 87.086C167.111 87.0749 167.179 87.0473 167.238 87.0054C167.297 86.9635 167.345 86.9084 167.379 86.8446C167.413 86.7807 167.432 86.7098 167.434 86.6374C167.436 86.5651 167.421 86.4932 167.391 86.4276C166.141 80.9559 162.232 76.4599 160.458 71.1324C159.842 69.2831 158.737 67.704 157.898 65.9466C157.138 64.3544 156.732 62.5943 155.823 61.0807C155.652 60.7689 155.427 60.4893 155.16 60.2545C154.933 60.0804 154.688 59.9317 154.429 59.8112C153.91 59.5594 153.428 59.4098 152.928 59.1554Z" fill="#514E7F"/>
<path d="M143.768 60.5981C147.19 60.5981 149.965 57.8207 149.965 54.3945C149.965 50.9684 147.19 48.1909 143.768 48.1909C140.346 48.1909 137.571 50.9684 137.571 54.3945C137.571 57.8207 140.346 60.5981 143.768 60.5981Z" fill="#A1616A"/>
<path d="M150.072 57.3088C150.381 57.0236 150.769 56.8389 151.185 56.7789C151.6 56.719 152.025 56.7867 152.401 56.973C152.82 57.1907 153.187 57.6314 153.093 58.0931L156.166 58.1403C156.655 58.1269 157.145 58.1718 157.623 58.2741C158.105 58.379 158.535 58.649 158.839 59.0374C158.875 59.0872 158.917 59.1476 158.98 59.1554C159.031 59.1562 159.081 59.1396 159.122 59.1082C159.595 58.8708 160.127 58.7795 160.652 58.8459C162.313 58.9534 163.848 59.785 165.151 60.8237C165.385 60.9853 165.568 61.2124 165.675 61.4769C165.782 61.8257 165.654 62.2638 165.937 62.513C165.937 65.3984 166.927 68.0949 167.587 70.9068C167.705 71.4079 168.185 71.8512 168.517 72.2446C168.929 72.6808 169.264 73.1826 169.51 73.7293C170.071 75.1877 169.298 76.9032 169.843 78.3669C170.074 78.986 170.519 79.4948 170.891 80.0326C171.382 80.6535 171.692 81.3977 171.787 82.1835C171.811 82.535 171.766 82.8891 171.787 83.2327C171.822 83.7054 171.91 84.1725 172.049 84.6256C172.273 85.472 172.507 86.3175 172.752 87.1621C173.15 88.5261 173.669 89.9977 174.89 90.7243C171.942 91.2253 168.834 91.7158 166.026 90.6902C165.634 90.5564 165.262 90.3702 164.92 90.1367C163.906 89.4127 163.416 88.1746 162.979 87.0047C162.491 85.6932 161.996 84.358 161.896 82.9626C161.897 82.5187 161.835 82.077 161.71 81.651C161.425 80.8903 160.662 80.4313 159.971 80.009C159.19 79.5805 158.482 79.0297 157.875 78.3774C157.573 78.0489 157.342 77.6619 157.196 77.2405C157.05 76.8191 156.992 76.3722 157.026 75.9274C157.078 75.4946 157.248 75.0776 157.264 74.6421C157.28 74.2067 157.086 73.7083 156.669 73.5929C154.524 72.9424 153.499 70.398 153.022 68.2051C152.816 67.0717 152.724 65.9206 152.747 64.7688L152.718 62.5313C152.422 62.2616 152.184 61.9344 152.018 61.5696C151.852 61.2047 151.763 60.81 151.754 60.4093C151.783 60.1755 151.778 59.9388 151.741 59.7063C151.637 59.422 151.469 59.166 151.248 58.9587C150.775 58.4719 150.378 57.9155 150.072 57.3088Z" fill="#464353"/>
<path d="M143.472 64.4015C143.401 65.094 143.558 65.8049 143.404 66.4843C143.344 66.7466 143.239 67.0089 143.163 67.2528C142.93 68.2307 143.031 69.2582 143.448 70.1723C143.865 71.0775 144.364 71.9424 144.939 72.7561C145.134 73.0338 145.294 73.3342 145.416 73.6505C145.515 73.9827 145.577 74.325 145.599 74.6709C145.751 76.06 145.995 77.4375 146.328 78.7944C146.621 79.9696 149.954 90.016 150.73 90.9472C150.87 91.1533 151.084 91.2986 151.327 91.3538C151.502 91.3604 151.677 91.3244 151.835 91.2488L153.407 90.6455C153.541 90.6046 153.665 90.5367 153.772 90.4462C153.919 90.2738 153.999 90.0539 153.997 89.8271C154.11 88.547 150.769 78.4298 150.344 77.2206C149.061 73.5692 147.352 70.049 146.516 66.2692C146.283 65.2199 146.16 63.6041 145.392 62.7674C145.075 62.4211 145.183 62.568 144.803 62.749C144.611 62.8324 144.425 62.9297 144.247 63.0402C144.025 63.1949 143.84 63.3975 143.706 63.633C143.572 63.8685 143.492 64.1311 143.472 64.4015Z" fill="#464353"/>
<path d="M148.243 71.3291C148.665 73.5614 149.1 75.7884 149.532 78.0206L155.684 76.4074C155.734 75.7621 155.391 75.1641 155.16 74.5713C154.599 73.1627 154.586 71.5941 154.133 70.1461C153.79 69.0444 153.192 68.0319 152.87 66.9223C152.684 66.2771 152.59 65.6108 152.406 64.9576C152.21 64.3162 151.968 63.6895 151.683 63.0821C151.338 62.2013 150.888 61.3655 150.342 60.5928C149.556 60.8866 148.717 61.2276 148.269 61.9385C148.04 62.339 147.908 62.7886 147.887 63.25C147.779 64.6324 148.28 66.0226 148.115 67.3971C147.945 68.7061 147.988 70.034 148.243 71.3291Z" fill="#006FF2"/>
<path d="M155.786 101.022C156.132 102.334 155.632 103.714 155.223 105.012C154.608 106.968 154.188 108.98 153.971 111.019C153.944 111.538 153.84 112.05 153.661 112.538C153.468 112.976 153.137 113.346 152.912 113.763C152.294 114.859 152.31 116.197 152.443 117.451C152.532 118.277 152.666 119.101 152.831 119.914C153.033 120.908 153.282 121.947 152.991 122.917C153.478 122.81 153.808 123.442 153.777 123.938C153.745 124.433 153.586 124.987 153.824 125.415C154.427 125.635 154.432 126.464 154.413 127.106C154.423 128.221 154.564 129.33 154.833 130.412C155.744 134.801 156.712 139.178 157.736 143.543C159.95 144.23 162.536 144.946 164.648 143.994C165.041 143.818 165.434 143.537 165.523 143.112C165.546 142.883 165.517 142.652 165.439 142.436L164.438 138.79C164.194 137.908 163.951 136.998 164.079 136.093C164.176 135.419 164.469 134.692 164.139 134.097C164.027 133.892 163.848 133.732 163.717 133.538C163.193 132.77 163.468 131.741 163.51 130.81C163.527 130.601 163.513 130.391 163.469 130.186C163.397 129.947 163.296 129.717 163.17 129.501C162.343 127.894 161.945 126.099 162.017 124.292C162.048 124.061 162.017 123.826 161.925 123.612C161.862 123.524 161.805 123.431 161.755 123.334C161.716 123.166 161.735 122.989 161.81 122.833C161.51 122.605 161.239 122.341 161.003 122.046C161.148 121.956 161.271 121.834 161.362 121.689C161.454 121.544 161.511 121.38 161.529 121.21C161.548 121.039 161.528 120.867 161.47 120.706C161.413 120.544 161.319 120.398 161.197 120.279C161.304 120.257 161.403 120.206 161.482 120.132C161.562 120.057 161.62 119.962 161.649 119.857C161.678 119.752 161.677 119.641 161.647 119.536C161.617 119.431 161.558 119.337 161.477 119.263C161.349 119.174 161.179 119.135 161.087 119.001C160.945 118.807 161.061 118.537 161.176 118.33L161.786 117.225C162.242 116.404 162.344 115.389 162.834 114.602C163.537 113.456 163.995 112.178 164.448 110.914L166.212 106.043L167.399 107.074C167.794 107.376 168.125 107.754 168.373 108.186C168.542 108.613 168.649 109.062 168.69 109.519C169.125 112.163 170.786 114.455 171.402 117.06C171.538 117.64 171.63 118.248 171.963 118.744C172.082 118.896 172.189 119.058 172.282 119.227C172.369 119.485 172.414 119.755 172.416 120.027C172.471 120.559 172.64 121.074 172.911 121.536C173.182 121.998 173.55 122.395 173.988 122.702C174.572 123.104 175.298 123.379 175.615 124.014C175.679 124.21 175.767 124.398 175.877 124.573C176.16 124.914 176.771 124.953 176.891 125.38C176.959 125.619 176.834 125.905 176.967 126.115C177.043 126.212 177.144 126.287 177.258 126.333L178.964 127.185C180.871 128.14 181.846 130.333 183.253 131.93C183.739 132.451 184.169 133.02 184.537 133.63C185.145 134.719 185.425 136.085 186.452 136.778C186.728 136.921 186.979 137.108 187.196 137.331C187.518 137.756 187.4 138.352 187.429 138.887C187.458 139.422 187.867 140.059 188.375 139.897C188.197 140.545 188.197 141.229 188.375 141.877C190.607 141.762 192.735 140.899 194.417 139.427C194.915 138.992 195.394 138.436 195.4 137.775C195.407 137.66 195.382 137.547 195.326 137.447C195.225 137.318 195.093 137.217 194.941 137.155C193.345 136.29 192.866 134.283 192.059 132.654C191.354 131.217 190.311 129.979 189.439 128.644C187.542 125.771 186.248 122.296 183.379 120.399C182.747 119.982 182.014 119.612 181.696 118.922C181.521 118.537 181.5 118.096 181.361 117.697C181.222 117.299 180.89 116.91 180.465 116.91C180.701 116.333 180.654 115.63 180.669 115.006C180.686 114.729 180.654 114.451 180.575 114.185C180.466 113.899 180.325 113.626 180.153 113.372C179.405 112.103 179.03 110.648 179.074 109.175C179.095 108.417 179.228 107.635 179 106.911C178.885 106.547 178.683 106.214 178.545 105.862C178.335 105.225 178.225 104.56 178.217 103.889L178.06 101.369C178.036 100.529 177.927 99.6943 177.735 98.8768C177.211 96.9199 176.687 88.7228 174.892 87.7995C173.097 86.8761 170.013 93.1847 167.993 93.308C167.1 93.3452 166.217 93.5158 165.373 93.8142C164.029 94.3178 162.903 95.2569 161.805 96.175L158.089 99.2991C157.303 99.947 156.654 100.566 155.786 101.022Z" fill="#464353"/>
<path d="M137.954 47.5063C138.771 46.3888 140.176 45.796 141.559 45.7462C142.943 45.6964 144.305 46.1318 145.544 46.7482C145.91 46.9565 146.301 47.1169 146.708 47.2256C147.363 47.3594 148.091 47.181 148.683 47.4879C149.469 47.905 149.621 48.9673 149.553 49.8487C149.485 50.7301 149.32 51.7085 149.789 52.4718C149.955 52.6895 150.107 52.9182 150.242 53.1564C150.444 53.6102 150.326 54.1348 150.206 54.6148C149.899 54.3525 149.726 53.9565 149.454 53.6522C149.181 53.3479 148.707 53.1433 148.369 53.3715C148.031 53.5997 148.036 54.0142 148.018 54.3866C147.999 54.7591 147.905 55.205 147.554 55.3257C147.407 55.3591 147.254 55.3477 147.114 55.293C146.974 55.2383 146.853 55.1428 146.768 55.0188C146.168 54.2843 146.409 53.1118 145.814 52.3721C145.476 51.9524 144.913 51.7478 144.601 51.3071C144.355 50.9609 144.292 50.5202 144.077 50.1477C143.862 49.7753 143.362 49.5025 143.029 49.7595C142.916 49.8681 142.821 49.9949 142.749 50.1346C142.541 50.4322 142.24 50.651 141.893 50.7557C141.545 50.8604 141.173 50.8449 140.836 50.7117C140.578 50.5533 140.3 50.4324 140.008 50.3523C139.817 50.3428 139.628 50.3868 139.46 50.4795C139.293 50.5722 139.155 50.7099 139.062 50.877C138.874 51.2107 138.783 51.5906 138.8 51.9734C138.8 52.498 138.895 53.0567 138.596 53.4764C138.482 53.6344 138.34 53.7697 138.177 53.8751C137.739 54.1558 137.129 54.3447 136.725 54.0247C136.588 53.8971 136.487 53.7365 136.43 53.5583C136.373 53.3801 136.363 53.1902 136.4 53.0069C136.479 52.6418 136.582 52.2825 136.709 51.9314C136.94 51.1183 136.639 50.2028 136.89 49.4369C137.154 48.7471 137.512 48.0973 137.954 47.5063Z" fill="#464353"/>
<path d="M141.274 66.0122C141.234 66.2033 141.254 66.402 141.331 66.5814C141.409 66.7035 141.515 66.8052 141.64 66.8778C142.522 67.4273 143.524 67.7524 144.559 67.8247C144.7 67.8271 144.838 67.8631 144.963 67.9296C145.209 68.0923 145.225 68.4543 145.133 68.7428C145.011 69.015 144.947 69.31 144.947 69.6084C145.023 70.1566 145.673 70.3953 146.22 70.4767C146.988 70.5737 147.829 70.5239 148.437 70.0438C148.849 69.6679 149.163 69.1969 149.351 68.672C150.855 65.2121 151.382 61.3877 152.904 57.9383C153.02 57.7131 153.097 57.4702 153.132 57.2196C153.148 57.0941 153.131 56.9667 153.081 56.8504C153.031 56.7342 152.951 56.6334 152.849 56.5586C152.566 56.3828 152.126 56.4825 151.935 56.2071C151.841 56.068 151.851 55.8792 151.767 55.7323C151.592 55.4201 151.13 55.47 150.816 55.289C150.57 55.1578 150.399 54.8876 150.124 54.8352C149.989 54.8275 149.854 54.8515 149.73 54.9053C149.606 54.959 149.496 55.041 149.409 55.1447C148.516 55.9789 148.047 57.1619 147.549 58.2793C146.789 59.9922 145.899 61.6443 144.887 63.2212C145.005 63.0376 144.321 61.6473 144.054 61.587C143.585 61.4926 142.985 62.3162 142.73 62.6231C141.933 63.5912 141.428 64.7668 141.274 66.0122Z" fill="#006FF2"/>
<path opacity="0.1" d="M150.792 55.5329C150.604 55.536 150.419 55.5815 150.251 55.666C150.083 55.7504 149.935 55.8717 149.82 56.0208C149.54 56.3854 149.485 56.868 149.414 57.3323C149.176 58.8033 148.651 60.2131 147.871 61.4821" fill="black"/>
<path opacity="0.1" d="M152.129 56.5795C151.869 56.5853 151.615 56.6588 151.392 56.7926C151.169 56.9264 150.985 57.1161 150.858 57.3428C150.685 57.7554 150.577 58.1927 150.538 58.6387C150.314 59.6274 149.88 60.5567 149.268 61.364" fill="black"/>
<path d="M214.398 107.861V104.603C214.397 102.205 213.445 99.9049 211.751 98.2093C210.057 96.5137 207.759 95.5612 205.364 95.5612H76.8507C74.4552 95.5612 72.1577 96.5137 70.4636 98.2093C68.7695 99.9049 67.8173 102.205 67.8167 104.603V110.61L214.398 107.861Z" fill="#33323D"/>
<path d="M112.602 91.742C112.602 91.742 112.235 114.526 116.27 122.023C120.305 129.52 122.034 162.133 122.034 162.133C122.034 162.133 164.333 166.513 193.809 156.886C223.285 147.26 286.005 143.322 286.005 143.322L275.436 72.0033C275.436 72.0033 223.22 68.651 193.516 82.834C163.812 97.017 112.602 91.742 112.602 91.742Z" fill="#8DD070"/>
<path opacity="0.1" d="M112.602 91.742C112.602 91.742 112.235 114.526 116.27 122.023C120.305 129.52 122.034 162.133 122.034 162.133C122.034 162.133 164.333 166.513 193.809 156.886C223.285 147.26 286.005 143.322 286.005 143.322L275.436 72.0033C275.436 72.0033 223.22 68.651 193.516 82.834C163.812 97.017 112.602 91.742 112.602 91.742Z" fill="black"/>
<path d="M121.964 100.065C121.964 100.065 120.64 118.865 123.96 124.872C127.28 130.878 127.434 157.694 127.434 157.694C127.434 157.694 165.502 159.462 192.58 150.234C219.659 141.006 276.562 135.02 276.562 135.02L270.096 76.696C270.096 76.696 223.013 76.2107 195.533 89.2003C168.054 102.19 121.964 100.065 121.964 100.065Z" fill="#8DD070"/>
<path opacity="0.1" d="M195.115 139.555C200.531 138.88 203.749 128.905 202.302 117.274C200.855 105.644 195.292 96.764 189.875 97.4394C184.459 98.1148 181.241 108.09 182.688 119.72C184.135 131.35 189.699 140.231 195.115 139.555Z" fill="black"/>
<path opacity="0.2" d="M246.809 37.2605C246.809 37.2605 196.081 50.1136 172.159 72.7377C148.238 95.3619 97.8796 106.075 97.8796 106.075C97.8796 106.075 104.514 127.87 110.65 133.766C116.786 139.663 128.425 170.175 128.425 170.175C128.425 170.175 170.024 161.346 195.124 143.12C220.225 124.895 278.724 101.878 278.724 101.878L246.809 37.2605Z" fill="black"/>
<path d="M97.1172 102.811C97.1172 102.811 103.749 124.609 109.88 130.506C116.011 136.403 127.654 166.912 127.654 166.912C127.654 166.912 169.259 158.085 194.362 139.86C219.465 121.635 277.959 98.625 277.959 98.625L246.043 34C246.043 34 195.318 46.8531 171.397 69.4772C147.475 92.1014 97.1172 102.811 97.1172 102.811Z" fill="#8DD070"/>
<path opacity="0.1" d="M97.1172 102.811C97.1172 102.811 103.749 124.609 109.88 130.506C116.011 136.403 127.654 166.912 127.654 166.912C127.654 166.912 169.259 158.085 194.362 139.86C219.465 121.635 277.959 98.625 277.959 98.625L246.043 34C246.043 34 195.318 46.8531 171.397 69.4772C147.475 92.1014 97.1172 102.811 97.1172 102.811Z" fill="black"/>
<path d="M108.57 107.858C108.57 107.858 113.074 126.159 118.075 130.855C123.077 135.55 131.438 161.02 131.438 161.02C131.438 161.02 168.208 151.005 191.152 133.903C214.097 116.8 266.425 93.6463 266.425 93.6463L242.396 40.1039C242.396 40.1039 197.438 54.1033 175.264 74.9096C153.09 95.7159 108.57 107.858 108.57 107.858Z" fill="#8DD070"/>
<path opacity="0.1" d="M190.304 122.969C195.252 120.663 195.257 110.18 190.315 99.5554C185.374 88.9309 177.356 82.1882 172.408 84.4949C167.46 86.8017 167.455 97.2846 172.397 107.909C177.339 118.533 185.356 125.276 190.304 122.969Z" fill="black"/>
<path opacity="0.1" d="M217.867 111.058V201.555C217.867 202.583 217.665 203.6 217.272 204.55C216.879 205.499 216.303 206.362 215.577 207.089C214.851 207.815 213.989 208.392 213.04 208.785C212.092 209.178 211.075 209.38 210.049 209.38H75.6376C73.5652 209.379 71.5779 208.554 70.1128 207.087C68.6476 205.619 67.8245 203.63 67.8245 201.555V101.935C71.6761 103.368 71.6761 103.368 75.6376 103.247H210.049C212.119 103.247 214.106 104.069 215.571 105.534C217.037 106.998 217.863 108.985 217.867 111.058Z" fill="black"/>
<path d="M217.867 112.21V202.706C217.866 204.782 217.042 206.772 215.576 208.239C214.11 209.707 212.122 210.531 210.049 210.531H75.6376C73.5652 210.53 71.5779 209.706 70.1128 208.238C68.6476 206.771 67.8245 204.781 67.8245 202.706V103.084C71.6761 104.514 71.6761 104.514 75.6376 104.396H210.049C212.12 104.396 214.107 105.219 215.572 106.684C217.038 108.149 217.863 110.136 217.867 112.21Z" fill="#504F60"/>
<path opacity="0.1" d="M217.484 145.667V174.608H189.449C185.65 174.557 182.023 173.01 179.354 170.302C176.685 167.593 175.189 163.942 175.189 160.138C175.189 156.333 176.685 152.682 179.354 149.974C182.023 147.266 185.65 145.719 189.449 145.667H217.484Z" fill="black"/>
<path d="M217.867 144.896V173.842H189.832C186.032 173.791 182.405 172.244 179.737 169.536C177.068 166.827 175.571 163.176 175.571 159.372C175.571 155.567 177.068 151.916 179.737 149.208C182.405 146.5 186.032 144.953 189.832 144.901L217.867 144.896Z" fill="#33323D"/>
<path opacity="0.1" d="M191.176 165.781C194.289 165.781 196.812 163.255 196.812 160.139C196.812 157.023 194.289 154.497 191.176 154.497C188.063 154.497 185.54 157.023 185.54 160.139C185.54 163.255 188.063 165.781 191.176 165.781Z" fill="black"/>
<path d="M191.559 165.015C194.671 165.015 197.194 162.489 197.194 159.373C197.194 156.257 194.671 153.731 191.559 153.731C188.446 153.731 185.923 156.257 185.923 159.373C185.923 162.489 188.446 165.015 191.559 165.015Z" fill="#006FF2"/>
<path d="M266.53 144.647C266.753 147.063 264.926 149.408 265.458 151.774C265.574 152.28 265.791 152.758 265.87 153.269C266.09 154.675 265.254 156.005 264.455 157.18L257.59 167.263C257.315 167.707 256.986 168.114 256.61 168.475C255.3 169.645 253.33 169.524 251.606 169.873C250.394 170.12 249.25 170.626 248.252 171.358C248.21 171.394 248.184 171.444 248.178 171.499C248.172 171.553 248.188 171.608 248.221 171.652C248.506 172.04 248.883 172.351 249.319 172.556C249.755 172.761 250.235 172.853 250.715 172.824C250.896 173.063 250.715 173.412 250.453 173.582C250.084 173.845 249.578 173.908 249.505 174.532C249.479 174.75 249.523 174.97 249.63 175.161C249.907 175.585 250.337 175.885 250.83 175.998C253.207 176.725 255.774 175.447 257.554 173.708C259.333 171.969 260.609 169.774 262.354 168.003C263.32 167.025 264.418 166.185 265.414 165.236C267.4 163.342 268.943 161.039 270.434 158.733C270.882 158.038 271.333 157.324 271.521 156.519C271.71 155.714 271.621 154.901 271.833 154.122C272.111 153.099 272.858 152.285 273.478 151.428C274.697 149.749 275.509 147.695 275.349 145.628C275.189 143.561 273.908 141.518 271.959 140.815C271.355 140.572 270.688 140.531 270.059 140.699C269.26 140.946 268.671 141.607 268.126 142.239L266.816 143.747C266.489 144.078 266.231 144.47 266.056 144.901C265.972 145.118 265.952 145.354 265.998 145.581C266.045 145.809 266.156 146.018 266.318 146.184" fill="#FBBEBE"/>
<path opacity="0.05" d="M266.53 144.647C266.753 147.063 264.926 149.408 265.458 151.774C265.574 152.28 265.791 152.758 265.87 153.269C266.09 154.675 265.254 156.005 264.455 157.18L257.59 167.263C257.315 167.707 256.986 168.114 256.61 168.475C255.3 169.645 253.33 169.524 251.606 169.873C250.394 170.12 249.25 170.626 248.252 171.358C248.21 171.394 248.184 171.444 248.178 171.499C248.172 171.553 248.188 171.608 248.221 171.652C248.506 172.04 248.883 172.351 249.319 172.556C249.755 172.761 250.235 172.853 250.715 172.824C250.896 173.063 250.715 173.412 250.453 173.582C250.084 173.845 249.578 173.908 249.505 174.532C249.479 174.75 249.523 174.97 249.63 175.161C249.907 175.585 250.337 175.885 250.83 175.998C253.207 176.725 255.774 175.447 257.554 173.708C259.333 171.969 260.609 169.774 262.354 168.003C263.32 167.025 264.418 166.185 265.414 165.236C267.4 163.342 268.943 161.039 270.434 158.733C270.882 158.038 271.333 157.324 271.521 156.519C271.71 155.714 271.621 154.901 271.833 154.122C272.111 153.099 272.858 152.285 273.478 151.428C274.697 149.749 275.509 147.695 275.349 145.628C275.189 143.561 273.908 141.518 271.959 140.815C271.355 140.572 270.688 140.531 270.059 140.699C269.26 140.946 268.671 141.607 268.126 142.239L266.816 143.747C266.489 144.078 266.231 144.47 266.056 144.901C265.972 145.118 265.952 145.354 265.998 145.581C266.045 145.809 266.156 146.018 266.318 146.184" fill="black"/>
<path d="M271.726 206.84C270.227 207.756 268.359 207.811 266.616 207.598C266.336 207.564 266.003 207.543 265.83 207.761C265.568 208.076 265.877 208.548 266.197 208.792C267.225 209.565 268.432 210.062 269.705 210.237C270.842 210.399 271.99 210.475 273.138 210.466C276.282 210.521 279.426 210.573 282.52 210.122C282.704 210.108 282.882 210.056 283.044 209.97C283.244 209.83 283.383 209.618 283.432 209.38C283.644 208.572 283.236 207.706 282.617 207.145C281.999 206.583 281.205 206.271 280.43 205.97L277.705 204.907C277.065 204.658 276.041 203.997 275.347 204.049C274.042 204.144 272.808 206.206 271.726 206.84Z" fill="#3F3D56"/>
<path opacity="0.05" d="M271.726 206.84C270.227 207.756 268.359 207.811 266.616 207.598C266.336 207.564 266.003 207.543 265.83 207.761C265.568 208.076 265.877 208.548 266.197 208.792C267.225 209.565 268.432 210.062 269.705 210.237C270.842 210.399 271.99 210.475 273.138 210.466C276.282 210.521 279.426 210.573 282.52 210.122C282.704 210.108 282.882 210.056 283.044 209.97C283.244 209.83 283.383 209.618 283.432 209.38C283.644 208.572 283.236 207.706 282.617 207.145C281.999 206.583 281.205 206.271 280.43 205.97L277.705 204.907C277.065 204.658 276.041 203.997 275.347 204.049C274.042 204.144 272.808 206.206 271.726 206.84Z" fill="black"/>
<path d="M273.636 170.626C272.501 172.137 271.327 173.881 271.608 175.752C271.76 176.759 272.323 177.648 272.737 178.579C273.298 179.844 273.591 181.202 273.879 182.556C274.304 184.534 274.731 186.517 274.99 188.526C275.286 190.795 273.895 197.361 273.767 199.645C273.735 200.196 273.67 200.792 273.287 201.188C273.138 201.345 272.939 201.471 272.871 201.676C272.831 201.873 272.863 202.078 272.962 202.253C273.602 203.695 274.909 204.771 276.368 205.385C277.828 205.998 281.347 207.058 282.937 207.113C283.147 207.136 283.359 207.108 283.555 207.032C283.767 206.903 283.933 206.711 284.032 206.484C285.172 204.301 284.077 196.542 284.092 194.079C284.108 192.025 284.593 189.984 284.504 187.933C284.43 186.286 283.98 184.675 283.83 183.033C283.568 180.342 284.061 177.638 284.556 174.978C284.933 172.937 285.313 170.896 285.798 168.882C286.094 167.651 286.437 166.411 287.108 165.343C287.632 164.496 288.368 163.788 288.979 162.982C290.673 160.758 291.426 157.956 291.075 155.181C291.038 154.919 287.145 156.17 286.802 156.32C285.401 156.913 284.113 157.743 282.992 158.772C282.091 159.633 281.381 160.782 280.592 161.744C279.476 163.107 278.374 164.478 277.285 165.86C276.043 167.439 274.827 169.028 273.636 170.626Z" fill="#464353"/>
<path opacity="0.05" d="M273.636 170.534C272.501 172.045 271.327 173.792 271.608 175.66C271.76 176.67 272.323 177.559 272.737 178.49C273.298 179.752 273.591 181.113 273.879 182.464C274.304 184.445 274.731 186.428 274.99 188.434C275.286 190.706 273.895 197.269 273.767 199.553C273.735 200.104 273.67 200.702 273.287 201.098C273.138 201.253 272.939 201.379 272.871 201.584C272.83 201.781 272.863 201.986 272.962 202.161C273.602 203.606 274.909 204.679 276.368 205.309C277.828 205.938 281.347 206.486 282.937 206.539C283.147 206.562 283.359 206.534 283.555 206.457C283.767 206.33 283.934 206.139 284.032 205.912C285.172 203.729 284.077 196.469 284.092 194.003C284.108 191.947 284.593 189.908 284.504 187.855C284.43 186.207 283.98 184.597 283.83 182.957C283.568 180.263 284.061 177.559 284.556 174.899C284.933 172.861 285.313 170.82 285.798 168.803C286.094 167.573 286.437 166.332 287.108 165.265C287.632 164.417 288.368 163.709 288.979 162.904C290.674 160.68 291.427 157.878 291.075 155.103C291.038 154.84 287.145 156.092 286.802 156.241C285.402 156.837 284.113 157.667 282.992 158.696C282.091 159.554 281.381 160.703 280.592 161.666C279.476 163.028 278.374 164.401 277.285 165.784C276.043 167.351 274.827 168.934 273.636 170.534Z" fill="black"/>
<path d="M261.012 137.35C264.524 137.35 267.371 134.499 267.371 130.983C267.371 127.467 264.524 124.617 261.012 124.617C257.5 124.617 254.653 127.467 254.653 130.983C254.653 134.499 257.5 137.35 261.012 137.35Z" fill="#FBBEBE"/>
<path d="M266.74 130.716C267.327 131.654 268.097 132.464 269.004 133.098C269.911 133.731 270.937 134.176 272.019 134.404L271.54 136.148C270.712 139.144 269.781 142.313 267.471 144.39C267.733 143.375 267.397 142.292 266.826 141.41C266.255 140.529 265.453 139.836 264.667 139.152L261.007 135.978C260.901 135.892 260.812 135.787 260.745 135.668C260.654 135.444 260.654 135.194 260.745 134.97C261.211 133.517 262.542 132.61 263.627 131.629C264.171 131.121 264.657 130.555 265.076 129.939C265.807 128.895 266.26 129.945 266.74 130.716Z" fill="#FBBEBE"/>
<path d="M252.636 124.583L252.491 123.387C253.495 123.649 254.449 122.794 255.091 121.91C255.733 121.026 256.327 119.985 257.305 119.615C258.491 119.169 259.749 119.877 260.884 120.475C262.154 121.181 263.548 121.635 264.989 121.813C265.219 121.821 265.447 121.858 265.668 121.923C266.407 122.186 266.758 123.114 266.865 123.956C266.973 124.798 266.944 125.693 267.308 126.443C267.57 127.012 268.057 127.434 268.356 127.996C269.142 129.501 268.382 131.56 269.202 133.037L267.164 131.167C266.978 130.997 266.716 130.818 266.509 130.962C266.347 131.078 266.333 131.327 266.268 131.526C266.071 132.109 265.343 132.282 264.816 132.051C264.29 131.82 263.905 131.319 263.506 130.863C262.605 129.798 261.531 128.861 260.273 128.408C259.722 128.201 259.133 128.115 258.546 128.153C257.959 128.192 257.386 128.356 256.867 128.633C255.916 129.171 255.219 130.425 254.053 130.469C252.455 130.53 251.789 127.55 251.05 126.372C251.321 126.168 251.511 125.876 251.588 125.546C251.664 125.216 251.623 124.87 251.47 124.567C251.577 124.523 252.612 124.399 252.636 124.583Z" fill="#464353"/>
<path d="M173.983 87.364C173.472 87.819 173 88.3156 172.571 88.8487C172.139 89.3892 171.909 90.0637 171.921 90.7557C171.923 90.9564 171.987 91.1515 172.104 91.3144C172.164 91.3924 172.247 91.4497 172.341 91.4784C172.435 91.5071 172.535 91.5057 172.628 91.4744C172.734 91.4207 172.824 91.3413 172.89 91.2436C173.167 90.9104 173.461 90.5918 173.771 90.2888C173.883 90.176 174.033 90.0579 174.185 90.0999C174.253 90.1241 174.314 90.1646 174.363 90.218C174.539 90.3705 174.667 90.571 174.732 90.795C174.824 91.1964 174.591 91.5977 174.326 91.9125C174.062 92.2272 173.75 92.5289 173.642 92.925C173.602 93.0296 173.602 93.1456 173.642 93.2502C173.693 93.3259 173.764 93.3859 173.847 93.4234C174.222 93.6302 174.638 93.7519 175.065 93.78C175.493 93.8081 175.921 93.7419 176.32 93.586C176.844 93.3735 177.31 93.0089 177.85 92.8201C178.084 92.756 178.31 92.6681 178.526 92.5577C178.681 92.4549 178.813 92.3224 178.916 92.168C179.019 92.0135 179.09 91.8402 179.126 91.658C179.194 91.294 179.208 90.9217 179.165 90.5537C179.1 89.1287 178.795 87.725 178.264 86.4014C178.233 86.316 178.181 86.2401 178.112 86.181C178.033 86.1329 177.942 86.1084 177.85 86.1102C177.179 86.0394 176.079 85.6958 175.432 85.945C175.205 86.0692 175.01 86.2432 174.861 86.4538C174.74 86.5876 173.983 87.1883 173.983 87.364Z" fill="#A1616A"/>
<path d="M173.771 86.7713C173.771 86.1312 172.985 84.5862 174.234 84.4839C174.234 83.7993 173.268 83.3744 173.448 82.6478C173.506 82.4064 173.71 82.2097 173.734 81.9631C173.813 81.2628 172.55 80.8824 172.759 80.2109C172.838 79.9486 173.116 79.7965 173.176 79.5368C173.317 78.9309 172.235 78.6607 172.214 78.039C172.214 77.8292 172.332 77.6324 172.322 77.4226C172.322 77.1603 172.094 76.9609 171.968 76.7327C171.641 76.1478 171.8 75.2428 171.203 74.9411C171.599 74.9752 171.727 74.3877 171.565 74.0283C171.402 73.6689 171.069 73.3568 171.067 72.9581C171.086 72.8136 171.086 72.6671 171.067 72.5227C170.957 72.1397 170.331 72.1082 170.226 71.7357C170.212 71.5928 170.208 71.4491 170.213 71.3055C170.171 71.0091 169.867 70.8203 169.581 70.7363C169.285 70.6859 168.999 70.5838 168.738 70.4347C168.554 70.2957 168.342 70.0648 168.145 70.1724C168.072 70.217 168.035 70.3009 167.98 70.3639C167.745 70.6393 167.294 70.5186 166.998 70.3166C166.123 69.7212 165.688 68.6536 165.502 67.6122C165.316 66.5709 165.321 65.4954 165.088 64.4645C165.017 64.1433 164.922 63.8276 164.805 63.5202C164.705 63.2579 164.386 62.8461 164.365 62.5812C164.317 61.9779 165.565 62.3897 166.039 62.45C166.499 62.495 166.954 62.5828 167.399 62.7123C167.873 62.8916 168.337 63.0956 168.79 63.3235C170.682 64.1603 172.966 64.2626 174.486 65.6685C174.986 66.1302 175.408 66.7361 176.058 66.946C176.356 67.0032 176.65 67.0794 176.938 67.1742C177.659 67.5126 177.772 68.47 178.165 69.1625C178.288 69.3454 178.396 69.5384 178.487 69.7396C178.563 69.9768 178.598 70.2251 178.592 70.474L178.647 72.2918C178.736 75.3372 178.825 78.3905 178.5 81.4175C178.395 82.4169 178.238 83.4452 178.534 84.4052C178.613 84.6675 178.723 84.9141 178.796 85.179C178.861 85.4897 178.894 85.806 178.896 86.1234L178.938 87.3011C178.952 87.3927 178.932 87.4864 178.88 87.5634C178.836 87.599 178.785 87.6244 178.73 87.6375C178.675 87.6507 178.618 87.6514 178.563 87.6395C176.925 87.4926 175.269 86.5693 173.724 87.128" fill="#464353"/>
<path d="M248.501 177.268C259.203 177.268 267.879 176.012 267.879 174.464C267.879 172.915 259.203 171.66 248.501 171.66C237.799 171.66 229.123 172.915 229.123 174.464C229.123 176.012 237.799 177.268 248.501 177.268Z" fill="#504F60"/>
<path d="M265.173 174.6C264.832 173.139 264.62 171.856 264.62 171.856C264.62 171.856 264.698 170.267 263.986 169.073V168.674V165.737C264.189 165.203 264.437 164.688 264.727 164.197C265.251 163.274 264.727 159.89 264.727 159.89C264.727 159.89 262.77 155.118 263.244 152.091C263.719 149.064 259.225 138.651 259.225 138.651C259.253 137.646 259.394 136.648 259.647 135.676C259.695 135.472 259.714 135.262 259.705 135.052C259.705 135.026 259.705 135.002 259.705 134.976C259.705 134.949 259.705 134.991 259.705 134.999C259.636 133.003 258.059 129.263 258.059 129.263L258.271 122.133C258.271 122.133 259.277 117.936 257.637 112.283C257.063 110.313 256.697 108.737 256.463 107.52C256.437 107.383 256.411 107.258 256.39 107.124C259.767 106.599 262.348 106.179 262.348 106.179C262.348 106.179 260.388 97.9718 259.065 96.5344C257.742 95.0969 256.684 90.5826 256.684 90.5826C256.684 90.5826 255.994 84.7882 257.108 83.0937C258.222 81.3992 258.379 78.4771 258.379 78.4771C258.379 78.4771 260.918 76.6409 261.237 75.8094C261.557 74.9779 262.084 73.1417 262.084 72.1685C262.084 71.1954 261.767 70.3324 261.871 69.8078C261.976 69.2831 261.13 67.3447 261.554 66.4214C261.664 66.1377 261.721 65.8363 261.722 65.5321C261.723 65.5234 261.723 65.5146 261.722 65.5059C261.726 64.6979 261.651 63.8914 261.499 63.0979C260.765 62.477 259.908 62.0185 258.984 61.7523L258.929 61.5319L258.785 60.9548C258.705 60.9016 258.621 60.8526 258.536 60.8079V60.5981L258.512 59.764L258.911 57.8911C259.697 54.6332 255.35 54.1479 255.35 54.1479C255.086 53.6482 254.648 53.2634 254.119 53.0672C253.246 52.7603 253.974 57.9671 254.381 58.3134C254.687 58.5757 255.636 60.1968 256.094 60.9994L256.167 61.1306C256.096 61.1952 256.029 61.2654 255.968 61.3404L256.133 62.471L256.16 62.6441C255.871 63.0023 255.638 63.4009 255.465 63.8271C255.465 63.8271 256.251 64.698 256.102 65.6633C255.953 66.6286 256.346 67.8536 256.364 67.9191C256.317 67.864 255.759 67.2607 255.201 67.4076C254.643 67.5545 253.084 68.0241 253.084 68.0241C253.084 68.0241 251.92 68.2287 252.036 68.4857C252.151 68.7428 251.249 69.8707 251.249 69.8707L248.121 66.9014C248.09 66.8122 248.056 66.723 248.029 66.6391C247.902 66.2109 247.814 65.7719 247.767 65.3275C248.108 65.2464 248.443 65.1403 248.768 65.0101C249.097 64.8971 249.394 64.7064 249.633 64.454C249.95 64.0789 250.01 63.5701 250.139 63.1031C250.385 62.1903 250.925 61.3798 251.299 60.5115C251.934 59.0444 252.138 57.4268 251.889 55.8477C251.841 55.3611 251.676 54.8932 251.409 54.4837C250.898 53.7807 249.971 53.4948 249.298 52.9334C248.624 52.3721 248.189 51.5144 247.403 51.0973C246.693 50.7169 245.831 50.7615 245.029 50.8927C243.463 51.1512 241.959 51.6991 240.594 52.5085C240.138 52.7708 239.635 53.0935 239.111 52.9964C238.66 52.9151 238.325 52.5557 238.042 52.2095C238.045 52.1951 238.049 52.1811 238.055 52.1675C238.042 52.1547 238.031 52.1407 238.021 52.1255C237.689 52.8622 237.523 53.6626 237.533 54.4706C237.533 54.5965 237.533 54.7329 237.549 54.8457V54.9768C237.549 55.0136 237.549 55.0503 237.549 55.0844C237.549 55.1403 237.541 55.1959 237.525 55.2496C237.459 55.4101 237.359 55.5542 237.232 55.6719C237.136 55.7813 237.048 55.8979 236.97 56.0208C236.97 55.9788 236.996 55.9369 237.012 55.8923C236.812 56.1844 236.699 56.5274 236.687 56.8812C236.672 57.1388 236.757 57.3922 236.923 57.5894C237.08 57.7419 237.251 57.879 237.434 57.9986C237.371 58.3449 237.34 58.696 237.339 59.0479C237.345 60.0909 237.62 61.1148 238.137 62.0205C238.654 62.9262 239.395 63.6831 240.29 64.218C240.326 64.3045 240.36 64.3937 240.394 64.4803C240.795 65.5295 241.097 66.7624 240.963 67.8903C240.963 67.9716 240.939 68.0555 240.926 68.1369C240.913 68.2182 240.848 68.2234 240.814 68.268C240.814 68.268 235.644 68.3205 234.428 67.2188C233.213 66.1171 231.358 69.9127 231.358 69.9127C231.358 69.9127 229.505 70.272 229.133 69.9127C228.761 69.5533 226.594 69.8628 226.594 69.8628C225.707 69.0724 224.551 68.6504 223.364 68.6825C222.644 68.135 221.85 67.6933 221.006 67.3709L220.948 67.3499C220.575 67.2139 220.177 67.1637 219.782 67.203C219.782 67.203 217.241 65.1046 216.499 63.9714C215.758 62.8382 212.228 58.6544 212.213 58.636V58.4341L212.173 57.8255C212.069 57.842 211.963 57.8507 211.856 57.8517C211.838 57.7914 211.812 57.7206 211.786 57.6393C211.582 57.0457 211.332 56.4694 211.036 55.9159C211.036 55.9159 211.036 55.1473 211.259 54.9532C211.482 54.7591 211.167 51.9393 211.167 51.9393C211.167 51.9393 208.877 46.5803 206.826 50.5805C206.826 50.5805 202.948 53.1695 206.202 56.1861C206.202 56.1861 207.512 56.8156 207.685 57.314C207.806 57.6366 208.246 58.5416 208.542 59.1502L208.676 59.4125L208.639 59.4439L208.686 59.9476L208.707 60.1417C208.094 60.4906 207.677 60.8368 207.78 61.0965C207.96 61.5409 208.084 62.0062 208.149 62.4815C208.149 62.4815 212.65 68.1264 213.232 70.537C213.232 70.537 225.303 77.719 229.272 78.2305L228.57 81.811C228.468 82.7826 228.415 83.7588 228.413 84.7357C228.465 85.5043 227.936 88.993 227.936 88.993C227.936 88.993 227.247 94.1238 226.665 94.8425C226.083 95.5612 226.188 98.6381 226.188 98.6381C226.051 100.111 225.788 101.57 225.402 102.998C224.821 104.947 225.242 107.36 225.242 107.36C225.242 107.36 223.233 111.976 228.049 108.847C228.049 108.847 230.407 108.7 233.137 108.606C233.137 108.695 233.137 108.787 233.137 108.868C233.137 109.22 233.137 109.6 233.118 109.999C233.082 112.643 233.066 116.294 233.187 119.043C233.399 123.917 234.882 133.562 234.882 133.562V138.417C234.786 138.873 234.739 139.337 234.74 139.802C234.709 141.511 235.163 143.193 236.05 144.652L236.422 147.884C236.422 147.884 237.292 150.014 237.308 151.294C237.305 151.397 237.292 151.5 237.271 151.601C237.237 151.764 237.223 151.93 237.229 152.097C237.18 153.566 238.063 157.08 238.063 157.08C238.063 157.08 238.115 160.619 238.644 160.826C239.098 161.002 238.039 162.864 237.725 163.399C237.716 163.367 237.71 163.333 237.706 163.3L237.641 163.405C237.532 163.691 237.476 163.995 237.476 164.302C237.446 164.543 237.485 164.789 237.589 165.009C237.693 165.229 237.857 165.415 238.063 165.545C239.069 166.162 239.608 166.673 238.754 166.878C238.44 166.927 238.129 166.992 237.822 167.074C237.822 167.035 237.79 166.993 237.777 166.956C237.656 167.003 237.556 167.091 237.492 167.204C237.429 167.316 237.406 167.448 237.429 167.575C237.437 167.992 237.543 168.4 237.74 168.766C238.587 170.665 239.173 171.389 239.173 171.389L239.58 171.345C239.52 171.5 239.44 171.647 239.344 171.783C239.189 172.003 238.984 172.183 238.746 172.307C238.525 172.44 238.277 172.525 238.021 172.557C237.734 172.566 237.452 172.636 237.194 172.761C236.935 172.887 236.707 173.066 236.522 173.286C235.998 173.97 235.663 174.902 236.705 175.72L240.491 177.032C240.491 177.032 247.005 177.879 246.659 176.415C246.313 174.952 246.104 173.671 246.104 173.671C246.132 172.778 245.952 171.89 245.58 171.077C245.511 170.945 245.434 170.817 245.349 170.694L245.58 170.671C245.58 170.671 246.056 167.436 246.691 166.823C246.837 166.681 246.871 166.56 246.837 166.487C246.903 166.311 246.735 166.209 246.523 166.148L246.476 166.277C246.268 166.232 246.057 166.208 245.844 166.206C245.844 166.206 245.632 164.514 246.321 163.898C246.377 163.828 246.417 163.747 246.44 163.66C246.463 163.573 246.468 163.483 246.455 163.394C246.46 163.162 246.435 162.93 246.381 162.704C246.375 162.719 246.367 162.733 246.358 162.746C246.012 161.209 244.838 158.767 244.838 158.767C244.838 158.767 244.786 157.23 245.21 156.614C245.635 155.997 245.155 148.251 245.155 148.251C245.155 148.251 245.315 144.508 244.838 142.764C244.361 141.019 245.42 138.965 245.42 138.965C245.42 138.965 245.42 138.926 245.42 138.855V138.829L245.36 138.239C245.358 138.251 245.358 138.263 245.36 138.276C245.252 137.284 245.05 135.487 244.901 134.658C244.689 133.478 244.956 127.838 244.956 127.838L245.907 125.425L247.602 129.583L249.402 135.123C249.402 135.123 250.293 136.292 250.314 137.483C250.314 137.541 250.314 137.599 250.314 137.657C250.3 137.779 250.293 137.903 250.293 138.026C250.261 138.726 250.453 139.418 250.841 140.002C250.841 140.002 251.318 142.625 252.059 143.283C252.801 143.941 252.801 145.232 252.801 145.232C252.801 145.232 253.699 149.03 254.111 149.691C254.467 150.253 254.485 151.79 254.483 152.27C254.483 152.356 254.483 152.406 254.483 152.406C254.483 152.406 254.608 153.765 254.603 154.903C254.603 155.045 254.603 155.181 254.603 155.31C254.604 155.3 254.604 155.291 254.603 155.281C254.603 155.592 254.566 155.902 254.493 156.204L254.477 156.257C254.477 156.191 254.477 156.128 254.496 156.065C254.312 156.838 254.224 157.631 254.234 158.426C254.21 159.79 254.417 161.406 255.243 162.361C256.673 164.003 257.572 163.798 257.572 163.798C257.572 163.798 256.885 165.849 256.036 166.261C256.004 166.276 255.974 166.296 255.947 166.319C255.947 166.277 255.932 166.238 255.926 166.198C255.832 166.301 255.76 166.422 255.714 166.554C255.669 166.685 255.652 166.825 255.664 166.964C255.604 167.867 256.173 169.325 256.712 170.004C256.913 170.201 257.158 170.345 257.428 170.424C257.385 170.454 257.34 170.481 257.294 170.505C257.2 170.557 257.103 170.604 257.003 170.644C256.865 170.703 256.72 170.741 256.571 170.757C256.284 170.765 256.001 170.834 255.743 170.96C255.484 171.085 255.256 171.265 255.072 171.486C254.548 172.168 254.213 173.1 255.256 173.918L259.042 175.23C259.042 175.23 265.513 176.061 265.173 174.6Z" fill="url(#paint0_linear)"/>
<path d="M240.305 177.024L236.637 175.712C235.626 174.894 235.948 173.963 236.459 173.278C236.635 173.06 236.855 172.881 237.106 172.756C237.356 172.63 237.631 172.559 237.911 172.549C238.159 172.517 238.398 172.432 238.61 172.299C238.843 172.173 239.042 171.993 239.192 171.775C239.46 171.35 239.604 170.858 239.608 170.356C239.608 170.356 243.633 169.175 244.733 170.356C244.93 170.569 245.094 170.811 245.221 171.072C245.586 171.887 245.765 172.773 245.745 173.666C245.745 173.666 245.949 174.946 246.282 176.41C246.615 177.874 240.305 177.024 240.305 177.024Z" fill="#2D293D"/>
<path d="M258.237 175.214L254.569 173.902C253.558 173.084 253.88 172.153 254.391 171.471C254.566 171.252 254.786 171.073 255.036 170.947C255.286 170.821 255.56 170.751 255.84 170.742C255.985 170.727 256.126 170.689 256.259 170.629C256.356 170.588 256.451 170.541 256.542 170.49C257.567 169.926 257.54 168.541 257.54 168.541C257.54 168.541 261.562 167.36 262.665 168.541C262.813 168.701 262.942 168.877 263.051 169.065C263.74 170.259 263.664 171.851 263.664 171.851C263.664 171.851 263.868 173.134 264.188 174.595C264.507 176.056 258.237 175.214 258.237 175.214Z" fill="#2D293D"/>
<path opacity="0.1" d="M244.736 170.353C244.932 170.567 245.097 170.808 245.223 171.069L239.197 171.77C239.465 171.345 239.609 170.853 239.614 170.351C239.614 170.351 243.636 169.173 244.736 170.353Z" fill="black"/>
<path opacity="0.1" d="M263.056 169.071V170.201C262.118 171.746 257.582 171.408 256.264 170.634C256.361 170.593 256.456 170.547 256.547 170.495C257.572 169.931 257.546 168.546 257.546 168.546C257.546 168.546 261.567 167.366 262.671 168.546C262.818 168.706 262.947 168.882 263.056 169.071Z" fill="black"/>
<path d="M263.771 164.197C263.491 164.69 263.251 165.205 263.056 165.737V169.789C262.029 171.481 256.702 170.917 255.981 169.994C255.261 169.071 254.509 166.668 255.319 166.251C256.128 165.834 256.804 163.788 256.804 163.788C256.804 163.788 255.932 163.992 254.548 162.35C253.165 160.708 253.576 157.067 253.833 156.196C254.09 155.326 253.833 152.401 253.833 152.401C253.833 152.401 253.885 150.347 253.477 149.681C253.068 149.014 252.195 145.221 252.195 145.221C252.195 145.221 252.195 143.939 251.477 143.273C250.76 142.606 250.298 139.988 250.298 139.988C249.879 139.334 249.698 138.555 249.788 137.782C249.939 136.5 248.915 135.115 248.915 135.115L247.173 129.572L245.532 125.417L244.61 127.828C244.61 127.828 244.348 133.47 244.56 134.648C244.773 135.826 245.084 138.958 245.084 138.958C245.084 138.958 244.06 141.009 244.521 142.753C244.982 144.498 244.815 148.246 244.815 148.246C244.815 148.246 245.276 155.989 244.864 156.606C244.453 157.222 244.505 158.762 244.505 158.762C244.505 158.762 246.601 163.274 245.941 163.89C245.281 164.506 245.48 166.198 245.48 166.198C245.48 166.198 246.913 166.198 246.3 166.815C245.687 167.431 245.223 170.663 245.223 170.663L239.027 171.389C239.027 171.389 238.461 170.673 237.641 168.766C236.821 166.859 237.793 167.074 238.618 166.867C239.443 166.66 238.922 166.151 237.947 165.535C236.973 164.918 237.539 163.533 237.539 163.533C237.539 163.533 239.024 161.02 238.511 160.816C237.997 160.611 237.947 157.07 237.947 157.07C237.947 157.07 236.923 152.873 237.18 151.735C237.436 150.596 236.36 147.889 236.36 147.889L236.001 144.658C234.904 142.824 234.504 140.656 234.874 138.551V133.567C234.874 133.567 233.438 123.925 233.234 119.051C233.103 115.929 233.139 111.67 233.181 109.012C233.208 107.523 233.234 106.534 233.234 106.534L255.368 104.225C255.368 104.225 255.347 105.248 255.769 107.517C255.997 108.734 256.351 110.311 256.906 112.281C258.494 117.923 257.522 122.128 257.522 122.128L257.315 129.26C257.315 129.26 259.262 134.029 258.853 135.671C258.606 136.646 258.467 137.645 258.439 138.651C258.439 138.651 262.794 149.064 262.333 152.091C261.871 155.118 263.766 159.89 263.766 159.89C263.766 159.89 264.285 163.274 263.771 164.197Z" fill="#464353"/>
<path opacity="0.05" d="M251.116 137.473L257.855 136.573C257.855 136.573 254.037 140.474 251.116 137.473Z" fill="black"/>
<path opacity="0.1" d="M256.88 129.981C256.88 129.981 257.111 132.368 255.651 133.265C255.651 133.265 258.264 132.856 256.88 129.981Z" fill="black"/>
<path opacity="0.1" d="M256.466 122.39C256.466 122.39 250.833 127.033 248.784 126.647C246.735 126.262 256.466 122.39 256.466 122.39Z" fill="black"/>
<path opacity="0.1" d="M242.763 139.65C242.763 139.65 238.484 140.623 238.356 142.344C238.228 144.065 242.763 139.65 242.763 139.65Z" fill="black"/>
<path opacity="0.05" d="M243.704 161.044C243.704 161.044 237.659 162.172 239.375 162.94C241.092 163.709 243.911 164.325 243.911 164.325C243.911 164.325 245.863 164.428 243.704 161.044Z" fill="black"/>
<g opacity="0.05">
<path opacity="0.05" d="M238.154 164.163C238.002 164.068 237.874 163.94 237.778 163.788C237.682 163.636 237.622 163.465 237.602 163.287L237.539 163.394C237.539 163.394 236.975 164.779 237.95 165.393C238.06 165.464 238.167 165.535 238.264 165.603C238.445 165.569 238.639 165.542 238.825 165.495C239.65 165.291 239.129 164.779 238.154 164.163Z" fill="black"/>
<path opacity="0.05" d="M245.941 163.751C246.109 163.599 246.104 163.205 246.002 162.702C245.74 163.098 245.664 163.717 245.658 164.186C245.722 164.023 245.818 163.875 245.941 163.751Z" fill="black"/>
<path opacity="0.05" d="M245.011 138.231C244.789 138.838 244.651 139.472 244.602 140.117C244.719 139.672 244.876 139.238 245.071 138.821L245.011 138.231Z" fill="black"/>
<path opacity="0.05" d="M258.856 135.54C258.896 135.355 258.914 135.167 258.911 134.978C258.835 135.361 258.782 135.715 258.743 136.028C258.777 135.868 258.814 135.715 258.856 135.54Z" fill="black"/>
<path opacity="0.05" d="M244.867 156.469C244.951 156.343 244.998 155.918 245.019 155.328C244.829 155.785 244.729 156.274 244.723 156.768C244.759 156.663 244.807 156.563 244.867 156.469Z" fill="black"/>
<path opacity="0.05" d="M246.125 166.143C245.807 167.172 245.571 168.225 245.42 169.291L239.223 170.007C239.223 170.007 238.658 169.291 237.837 167.384C237.771 167.237 237.713 167.086 237.662 166.933C237.29 167.103 237.138 167.489 237.63 168.614C238.451 170.513 239.019 171.237 239.019 171.237L245.216 170.518C245.216 170.518 245.677 167.287 246.29 166.67C246.604 166.374 246.41 166.219 246.125 166.143Z" fill="black"/>
<path opacity="0.05" d="M237.95 156.931C237.95 156.931 238 160.469 238.513 160.674C238.775 160.089 238.946 159.533 238.715 159.441C238.191 159.237 238.152 155.695 238.152 155.695C238.152 155.695 237.127 151.498 237.384 150.36C237.641 149.222 236.564 146.515 236.564 146.515L236.205 143.283C235.109 141.449 234.709 139.281 235.078 137.176V132.193C235.078 132.193 233.643 122.55 233.438 117.676C233.307 114.555 233.344 110.295 233.386 107.638C233.386 107.158 233.402 106.733 233.409 106.374L233.234 106.392C233.234 106.392 233.205 107.378 233.181 108.871C233.14 111.528 233.1 115.788 233.234 118.907C233.438 123.78 234.871 133.425 234.871 133.425V138.409C234.504 140.514 234.904 142.68 236.001 144.513L236.357 147.745C236.357 147.745 237.434 150.462 237.177 151.593C236.92 152.723 237.95 156.931 237.95 156.931Z" fill="black"/>
<path opacity="0.05" d="M256.191 168.625C255.688 167.895 255.352 167.063 255.209 166.188C254.577 166.76 255.303 168.979 255.995 169.86C256.71 170.783 262.039 171.347 263.069 169.653V168.677C261.672 170.049 256.867 169.498 256.191 168.625Z" fill="black"/>
<path opacity="0.05" d="M263.978 162.828C263.697 163.32 263.457 163.835 263.26 164.367V165.094C263.378 164.832 263.543 164.48 263.784 164.066C263.946 163.662 264.023 163.229 264.009 162.793C264.009 162.793 263.986 162.817 263.978 162.828Z" fill="black"/>
<path opacity="0.05" d="M256.505 163.638C256.7 163.243 256.869 162.836 257.011 162.418C257.011 162.418 256.139 162.623 254.755 160.981C253.749 159.787 253.692 157.532 253.836 156.057C253.574 156.931 253.167 160.572 254.551 162.214C255.455 163.287 256.139 163.57 256.505 163.638Z" fill="black"/>
<path opacity="0.05" d="M253.833 152.262C253.923 153.273 253.957 154.287 253.935 155.302C253.961 155.142 253.996 154.983 254.04 154.827C254.302 153.954 254.04 151.032 254.04 151.032C254.04 151.032 254.092 148.978 253.681 148.311C253.27 147.645 252.413 143.847 252.413 143.847C252.413 143.847 252.413 142.564 251.695 141.898C250.977 141.232 250.516 138.614 250.516 138.614C250.092 137.961 249.907 137.182 249.992 136.408C250.147 135.125 249.122 133.74 249.122 133.74L247.38 128.2L245.74 124.045L244.815 126.459C244.815 126.459 244.815 126.763 244.783 127.245L245.533 125.286L247.173 129.433L248.915 134.973C248.915 134.973 249.94 136.358 249.785 137.641C249.7 138.415 249.885 139.194 250.309 139.847C250.309 139.847 250.77 142.47 251.488 143.131C252.206 143.792 252.203 145.08 252.203 145.08C252.203 145.08 253.076 148.875 253.485 149.539C253.893 150.203 253.833 152.262 253.833 152.262Z" fill="black"/>
</g>
<path d="M258.135 57.8832L257.75 59.7561L257.774 60.5902L257.789 61.204L255.651 61.4244L255.413 60.9811C254.97 60.1784 254.051 58.5468 253.754 58.295C253.359 57.9645 252.654 52.7551 253.492 53.0646C254.009 53.2642 254.432 53.6483 254.682 54.1427C254.682 54.1427 258.892 54.6253 258.135 57.8832Z" fill="#FFCDD3"/>
<path opacity="0.1" d="M257.789 61.204L255.651 61.4244L255.413 60.9811C255.701 60.6533 256.093 60.4355 256.523 60.3647C256.953 60.2939 257.394 60.3746 257.771 60.5929L257.789 61.204Z" fill="black"/>
<path d="M258.329 62.2191L255.51 62.8723L255.45 62.4526L255.29 61.322C255.29 61.322 256.406 59.8321 258.02 60.9496L258.161 61.524L258.329 62.2191Z" fill="#006FF2"/>
<path d="M212.661 58.0878L209.65 59.7036L209.388 59.137C209.103 58.5364 208.676 57.6314 208.558 57.3009C208.38 56.8025 207.125 56.173 207.125 56.173C203.98 53.159 207.727 50.5674 207.727 50.5674C209.713 46.5672 211.919 51.9262 211.919 51.9262C211.919 51.9262 212.228 54.7512 212.011 54.9401C211.794 55.129 211.794 55.9028 211.794 55.9028C212.08 56.4572 212.323 57.0334 212.519 57.6261C212.611 57.9121 212.661 58.0878 212.661 58.0878Z" fill="#FFCDD3"/>
<path opacity="0.1" d="M212.661 58.0878L209.65 59.7036L209.388 59.137C209.813 58.7803 211.319 57.5632 211.814 57.613C212.051 57.6425 212.29 57.6487 212.527 57.6314C212.611 57.912 212.661 58.0878 212.661 58.0878Z" fill="black"/>
<path d="M212.967 58.998L209.585 60.6663L209.517 59.9397L209.469 59.436C209.469 59.436 211.429 57.7547 212.008 57.8202C212.301 57.8627 212.599 57.8627 212.891 57.8202L212.931 58.4288L212.967 58.998Z" fill="#006FF2"/>
<path d="M249.937 70.3245C249.937 70.3245 235.191 71.9902 237.947 71.0931C239.865 70.4662 240.628 69.2569 240.788 67.8929C240.919 66.7571 240.625 65.5321 240.24 64.4829C239.893 63.5521 239.454 62.6584 238.93 61.8152C238.93 61.8152 250.196 55.609 247.946 61.2513C247.599 62.1047 247.383 63.0059 247.306 63.9242C247.239 64.8367 247.337 65.754 247.597 66.6312C248.022 68.0547 248.832 69.3328 249.937 70.3245Z" fill="#FFCDD3"/>
<path opacity="0.1" d="M247.938 61.2433C247.591 62.0967 247.375 62.998 247.298 63.9163C246.237 64.8107 245.074 64.7504 243.578 64.7504C242.43 64.7504 241.157 65.0284 240.24 64.475C239.893 63.5442 239.454 62.6505 238.93 61.8073C238.93 61.8073 250.194 55.6011 247.938 61.2433Z" fill="black"/>
<path d="M243.379 65.1439C246.746 65.1439 249.476 62.4111 249.476 59.04C249.476 55.6689 246.746 52.936 243.379 52.936C240.011 52.936 237.282 55.6689 237.282 59.04C237.282 62.4111 240.011 65.1439 243.379 65.1439Z" fill="#FFCDD3"/>
<path opacity="0.1" d="M249.937 70.3245C249.937 70.3245 235.191 71.9901 237.947 71.093C239.865 70.4661 240.628 69.2569 240.788 67.8929C241.521 67.1059 242.996 66.521 243.932 66.2167C244.796 65.9256 245.73 65.91 246.604 66.1721C246.948 66.2758 247.275 66.4277 247.576 66.6233C248.006 68.052 248.823 69.3332 249.937 70.3245Z" fill="black"/>
<path opacity="0.1" d="M258.329 62.2192L255.51 62.8723L255.45 62.4526C255.751 62.0375 256.174 61.7257 256.659 61.5595C257.144 61.3933 257.669 61.381 258.161 61.5241L258.329 62.2192Z" fill="black"/>
<path opacity="0.1" d="M212.967 58.998L209.585 60.6663L209.517 59.9397C210.612 59.35 211.751 58.844 212.923 58.4262L212.967 58.998Z" fill="black"/>
<path opacity="0.1" d="M255.769 107.522C250.055 108.435 241.933 109.6 240.643 109.206C239.572 108.881 236.155 108.915 233.181 109.018C233.208 107.528 233.234 106.539 233.234 106.539L255.368 104.23C255.368 104.23 255.347 105.253 255.769 107.522Z" fill="black"/>
<path d="M261.465 106.179C261.465 106.179 242.661 109.411 240.643 108.803C238.626 108.194 228.263 108.852 228.263 108.852C223.6 111.982 225.546 107.365 225.546 107.365C225.546 107.365 225.138 104.954 225.701 103.005C226.079 101.575 226.338 100.115 226.474 98.6407C226.474 98.6407 226.372 95.5612 226.935 94.8424C227.498 94.1237 228.167 88.9956 228.167 88.9956C228.167 88.9956 228.677 85.5069 228.628 84.7383C228.578 83.9698 228.78 81.8136 228.78 81.8136L229.448 78.2226C225.604 77.7111 213.921 70.5291 213.921 70.5291C213.358 68.1184 209.003 62.4762 209.003 62.4762C208.94 62.0017 208.819 61.5367 208.644 61.0912C208.338 60.2702 212.949 58.6281 212.949 58.6281C212.949 58.6281 216.381 62.8251 217.099 63.9635C217.817 65.1019 220.275 67.1951 220.275 67.1951C220.657 67.1558 221.042 67.2061 221.401 67.342L221.462 67.3604C222.285 67.6841 223.058 68.1259 223.754 68.6719C224.91 68.6445 226.031 69.0677 226.88 69.8523C226.88 69.8523 228.976 69.5428 229.34 69.9021C229.705 70.2615 231.491 69.9021 231.491 69.9021C231.491 69.9021 233.284 66.1065 234.463 67.2082C235.642 68.3099 240.643 68.2575 240.643 68.2575C241.309 67.3709 242.931 66.7361 243.945 66.4213C244.81 66.1314 245.743 66.1158 246.617 66.3767C246.994 66.4894 247.349 66.6669 247.665 66.9013L250.707 69.8759C250.707 69.8759 251.577 68.7454 251.475 68.4909C251.373 68.2365 252.499 68.0293 252.499 68.0293C252.499 68.0293 253.985 67.5676 254.548 67.4128C255.112 67.2581 255.628 67.8692 255.675 67.9243C255.657 67.8588 255.271 66.6128 255.413 65.6685C255.554 64.7242 254.797 63.8323 254.797 63.8323C256.589 59.4203 260.637 63.1136 260.637 63.1136C260.637 63.1136 261.099 65.5242 260.69 66.4475C260.281 67.3709 261.099 69.3198 260.996 69.8339C260.894 70.3481 261.203 71.2189 261.203 72.1947C261.203 73.1705 260.679 75.0145 260.383 75.8356C260.087 76.6566 257.616 78.5032 257.616 78.5032C257.616 78.5032 257.462 81.428 256.385 83.1199C255.308 84.8118 255.984 90.5983 255.984 90.5983C255.984 90.5983 257.009 95.1126 258.29 96.5501C259.571 97.9875 261.465 106.179 261.465 106.179Z" fill="#3F3D56"/>
<path opacity="0.1" d="M234.054 72.4256C234.054 72.4256 233.491 70.7337 232.977 70.5894C232.467 70.4017 231.971 70.1791 231.491 69.9232L231.822 69.291C231.822 69.291 233.745 69.8156 234.054 70.3848C234.363 70.9541 234.054 72.4256 234.054 72.4256Z" fill="black"/>
<path opacity="0.1" d="M223.754 68.6824C223.652 69.2071 219.09 69.6556 219.09 69.6556L221.396 67.342L221.454 67.363C222.281 67.6885 223.056 68.133 223.754 68.6824Z" fill="black"/>
<path d="M210.559 62.0513C210.785 62.0513 210.968 61.868 210.968 61.642C210.968 61.4161 210.785 61.2328 210.559 61.2328C210.334 61.2328 210.151 61.4161 210.151 61.642C210.151 61.868 210.334 62.0513 210.559 62.0513Z" fill="#575988"/>
<path d="M211.083 62.8723C211.309 62.8723 211.492 62.6891 211.492 62.4631C211.492 62.2371 211.309 62.0539 211.083 62.0539C210.858 62.0539 210.675 62.2371 210.675 62.4631C210.675 62.6891 210.858 62.8723 211.083 62.8723Z" fill="#575988"/>
<path d="M211.597 63.6304C211.823 63.6304 212.006 63.4472 212.006 63.2212C212.006 62.9952 211.823 62.812 211.597 62.812C211.371 62.812 211.188 62.9952 211.188 63.2212C211.188 63.4472 211.371 63.6304 211.597 63.6304Z" fill="#575988"/>
<path d="M212.134 64.4488C212.36 64.4488 212.543 64.2656 212.543 64.0396C212.543 63.8136 212.36 63.6304 212.134 63.6304C211.908 63.6304 211.725 63.8136 211.725 64.0396C211.725 64.2656 211.908 64.4488 212.134 64.4488Z" fill="#575988"/>
<path d="M260.433 64.3281C260.617 64.3281 260.766 64.179 260.766 63.995C260.766 63.811 260.617 63.6619 260.433 63.6619C260.249 63.6619 260.1 63.811 260.1 63.995C260.1 64.179 260.249 64.3281 260.433 64.3281Z" fill="#575988"/>
<path d="M260.485 65.0862C260.669 65.0862 260.818 64.937 260.818 64.7531C260.818 64.5691 260.669 64.4199 260.485 64.4199C260.302 64.4199 260.153 64.5691 260.153 64.7531C260.153 64.937 260.302 65.0862 260.485 65.0862Z" fill="#575988"/>
<path d="M260.53 65.8417C260.714 65.8417 260.863 65.6925 260.863 65.5085C260.863 65.3246 260.714 65.1754 260.53 65.1754C260.346 65.1754 260.197 65.3246 260.197 65.5085C260.197 65.6925 260.346 65.8417 260.53 65.8417Z" fill="#575988"/>
<path opacity="0.1" d="M234.072 86.3279C234.022 86.2676 245.574 100.87 254.54 92.4319C254.548 92.4345 240.381 94.3572 234.072 86.3279Z" fill="black"/>
<path opacity="0.1" d="M227.443 93.9191C227.443 93.9191 234.355 94.108 235.078 96.0989V98.1712C234.881 98.2805 234.66 98.3378 234.435 98.3378C234.21 98.3378 233.989 98.2805 233.792 98.1712C233.095 97.7934 228.916 95.6687 227.443 96.6917V93.9191Z" fill="black"/>
<path d="M227.572 93.9191C227.572 93.9191 234.182 94.1001 234.874 95.9992V97.9718C234.686 98.0765 234.474 98.1315 234.258 98.1315C234.043 98.1315 233.831 98.0765 233.643 97.9718C232.977 97.6151 228.981 95.5874 227.572 96.5632V93.9191Z" fill="#3F3D56"/>
<path opacity="0.1" d="M231.216 78.8941C231.922 80.5305 232.822 82.0761 233.897 83.4976C235.065 85.0689 236.481 86.4394 238.089 87.5555C238.089 87.5555 231.332 79.8437 231.216 78.8941Z" fill="black"/>
<path opacity="0.1" d="M228.955 70.8544C228.955 70.8544 230.108 75.8382 233.079 77.5301L228.955 70.8544Z" fill="black"/>
<path opacity="0.1" d="M227.187 71.358C227.158 71.2662 226.162 75.2926 231.017 77.5301C231.017 77.5301 228.955 76.8298 227.187 71.358Z" fill="black"/>
<path opacity="0.1" d="M257.367 68.0161C257.291 68.0161 259.762 69.59 260.436 70.3245C260.436 70.3245 258.827 67.9112 257.367 68.0161Z" fill="black"/>
<path d="M241.731 64.5721C241.732 64.7052 241.76 64.8367 241.814 64.9583C241.869 65.0799 241.948 65.1889 242.046 65.2784C242.145 65.3678 242.261 65.4359 242.387 65.4782C242.513 65.5205 242.646 65.5362 242.779 65.5242C244.636 65.6397 246.573 65.721 248.281 64.9996C248.601 64.8851 248.889 64.6943 249.119 64.4435C249.423 64.0684 249.484 63.5595 249.607 63.0926C249.848 62.1798 250.361 61.3693 250.731 60.501C251.356 59.0341 251.565 57.4232 251.336 55.8451C251.288 55.3613 251.128 54.8953 250.87 54.4837C250.377 53.7781 249.478 53.4921 248.826 52.9308C248.174 52.3695 247.754 51.5117 246.992 51.0946C246.305 50.7117 245.464 50.7589 244.692 50.89C243.171 51.1485 241.714 51.6961 240.4 52.5032C239.957 52.7656 239.472 53.0882 238.964 52.9911C238.519 52.9072 238.194 52.5321 237.916 52.1806C237.559 53.02 237.409 53.9333 237.478 54.843C237.498 54.9765 237.493 55.1124 237.465 55.2444C237.401 55.4039 237.304 55.5479 237.18 55.6667C236.721 56.1913 236.436 57.0438 236.889 57.5842C237.085 57.8176 237.389 57.9461 237.581 58.1848C237.924 58.6124 237.809 59.2341 237.801 59.7797C237.782 59.9702 237.83 60.1613 237.937 60.32C238.036 60.4125 238.157 60.4778 238.289 60.5095C238.421 60.5412 238.559 60.5383 238.689 60.501C238.948 60.4228 239.221 60.3969 239.491 60.425C239.775 60.5174 240.02 60.702 240.188 60.9496C241.034 62.0539 241.369 63.2553 241.731 64.5721Z" fill="#2D293D"/>
<g opacity="0.1">
<path opacity="0.1" d="M249.337 63.9792C249.107 64.23 248.819 64.4208 248.498 64.5353C246.78 65.2514 244.846 65.1701 242.996 65.06C242.798 65.0619 242.601 65.0179 242.422 64.9314C242.139 64.7662 242.032 64.4199 241.946 64.1052C241.584 62.7936 241.251 61.5896 240.392 60.4958C240.226 60.2435 239.981 60.0541 239.695 59.9581C239.425 59.9326 239.153 59.9584 238.893 60.0341C238.763 60.0717 238.626 60.0751 238.494 60.0438C238.362 60.0126 238.241 59.9478 238.141 59.8558C238.034 59.6971 237.986 59.5059 238.005 59.3154C238.005 58.7646 238.128 58.1481 237.785 57.7206C237.594 57.4819 237.29 57.3533 237.093 57.1173C236.965 56.9432 236.886 56.7376 236.866 56.5224C236.845 56.3071 236.883 56.0903 236.975 55.8949C236.648 56.4195 236.509 57.0779 236.889 57.5291C237.085 57.7625 237.389 57.8911 237.58 58.1298C237.924 58.56 237.808 59.179 237.801 59.7246C237.78 59.9148 237.828 60.1061 237.934 60.265C238.034 60.3579 238.155 60.4234 238.288 60.4552C238.42 60.4869 238.558 60.4837 238.689 60.446C238.948 60.3677 239.221 60.3418 239.491 60.3699C239.775 60.4624 240.02 60.6469 240.187 60.8945C241.044 61.9883 241.38 63.1897 241.741 64.5065C241.784 64.8305 241.945 65.127 242.194 65.338C242.374 65.4247 242.572 65.4678 242.771 65.4639C244.629 65.5793 246.565 65.6633 248.273 64.9393C248.594 64.8256 248.882 64.6346 249.112 64.3832C249.227 64.2354 249.316 64.0685 249.374 63.8901C249.376 63.9242 249.358 63.953 249.337 63.9792Z" fill="black"/>
<path opacity="0.1" d="M237.478 55.0844C237.561 54.9949 237.624 54.8896 237.664 54.7749C237.688 54.6421 237.688 54.5063 237.664 54.3735C237.613 53.6257 237.71 52.8751 237.95 52.1649L237.916 52.1255C237.557 52.9637 237.407 53.8764 237.478 54.7854C237.486 54.8849 237.486 54.9849 237.478 55.0844Z" fill="black"/>
</g>
<path opacity="0.1" d="M240.643 68.2706C240.643 68.2706 248.26 69.2831 248.944 68.1368L240.643 68.2706Z" fill="black"/>
<path opacity="0.1" d="M255.45 65.1151C255.45 65.1151 259.684 65.115 260.614 66.7099L255.45 65.1151Z" fill="black"/>
<path d="M279.138 206.801C277.882 207.925 276.25 208.536 274.566 208.511C274.136 208.511 273.541 208.593 273.539 209.023C273.549 209.149 273.593 209.27 273.665 209.374C274.196 210.262 275.036 210.922 276.023 211.229C276.94 211.507 277.92 211.46 278.876 211.41L281.666 211.266C282.19 211.237 282.714 211.211 283.238 211.145C283.762 211.079 284.334 210.972 284.881 210.883C286.227 210.691 287.587 210.628 288.945 210.694C289.307 210.707 289.731 210.694 289.946 210.431C290.161 210.169 290.051 209.668 289.969 209.275C289.802 208.464 289.969 207.614 289.815 206.801C289.553 205.374 288.319 204.28 286.967 203.764C285.709 203.286 283.482 202.738 282.293 203.535C281.038 204.372 280.27 205.77 279.138 206.801Z" fill="#3F3D56"/>
<path d="M281.91 158.993C282.156 160.165 283.291 161.062 283.322 162.258C283.351 163.218 282.667 164.024 282.175 164.845C281.71 165.695 281.319 166.583 281.003 167.499C280.076 169.885 278.925 172.177 277.566 174.346C276.911 175.395 276.177 176.515 276.326 177.735C276.431 178.305 276.632 178.853 276.921 179.356L278.886 183.264C279.317 184.044 279.654 184.873 279.89 185.732C280.06 186.475 280.076 187.243 280.175 187.999C280.485 190.396 281.609 192.81 280.943 195.134C280.885 195.333 280.681 195.574 280.521 195.435C281.171 196.65 281.692 197.872 281.643 199.249C281.616 199.971 281.396 200.723 281.661 201.395C281.774 201.676 281.97 201.938 281.968 202.239C281.968 202.439 281.876 202.625 281.855 202.819C281.8 203.373 282.308 203.834 282.835 204.01C283.361 204.186 283.935 204.173 284.467 204.333C285.489 204.64 286.22 205.521 287.087 206.132C287.977 206.746 289.025 207.087 290.106 207.116C290.26 207.132 290.415 207.101 290.551 207.027C290.628 206.959 290.69 206.876 290.732 206.783C290.775 206.69 290.797 206.589 290.797 206.486C290.845 205.996 290.771 205.502 290.583 205.048C290.395 204.593 290.097 204.192 289.718 203.879C289.551 203.775 289.413 203.63 289.317 203.459C289.268 203.308 289.255 203.147 289.28 202.99C289.438 200.84 289.4 198.68 289.165 196.537C289.059 195.858 289.025 195.169 289.063 194.483C289.118 193.911 289.291 193.345 289.228 192.775C289.165 192.206 288.874 191.687 288.704 191.139C288.4 190.163 288.484 189.114 288.442 188.093C288.389 186.32 287.983 184.578 287.58 182.847C287.42 182.168 287.244 181.457 286.765 180.953C286.356 180.526 285.696 180.116 285.85 179.547C285.936 179.337 286.064 179.147 286.225 178.988C286.415 178.75 286.554 178.475 286.634 178.181C286.714 177.887 286.734 177.58 286.692 177.278C286.864 177.322 287.046 177.305 287.207 177.229C287.368 177.154 287.498 177.025 287.575 176.864C290.766 175.355 293.339 172.339 294.486 168.994C294.554 168.746 294.658 168.509 294.795 168.292C295.092 167.877 295.605 167.699 296.061 167.47C297.492 166.749 298.479 165.398 299.386 164.076C299.91 163.31 300.434 162.518 300.67 161.616C300.794 161.032 300.853 160.437 300.845 159.84L300.927 156.758C300.944 156.555 300.925 156.35 300.869 156.154C300.791 155.971 300.678 155.806 300.536 155.667C299.665 154.744 298.52 154.126 297.271 153.904C296.433 153.754 295.576 153.783 294.727 153.712C293.082 153.576 291.457 153.064 289.812 153.188C287.226 153.379 284.923 155.173 283.705 157.466C283.278 158.274 282.827 158.977 281.91 158.993Z" fill="#464353"/>
<path d="M267.552 138.952C267.587 139.428 267.522 139.906 267.363 140.356C267.161 140.786 266.656 141.122 266.213 140.946C266.347 140.644 265.993 140.301 265.663 140.337C265.5 140.375 265.349 140.451 265.223 140.56C265.097 140.669 264.998 140.807 264.937 140.962C264.718 141.402 264.645 141.901 264.727 142.386C264.832 142.989 265.181 143.569 265.089 144.175C265.016 144.679 264.646 145.18 264.843 145.646C264.97 145.86 265.13 146.052 265.317 146.216C265.576 146.535 265.702 146.941 265.671 147.351C265.639 147.761 265.451 148.143 265.147 148.419L270.104 148.519C269.923 149.348 270.295 150.195 270.72 150.932C271.908 152.958 273.55 154.682 275.516 155.966C277.481 157.251 279.717 158.063 282.049 158.337C281.923 158.411 281.815 158.511 281.732 158.632C281.65 158.753 281.595 158.89 281.573 159.034C281.55 159.179 281.559 159.326 281.6 159.467C281.641 159.607 281.713 159.736 281.81 159.845C282.214 160.247 282.898 160.197 283.403 159.937C283.909 159.677 284.305 159.247 284.766 158.914C285.58 158.337 286.573 158.069 287.567 158.159C288.188 158.219 288.79 158.421 289.414 158.452C291.248 158.549 292.82 157.227 294.586 156.687C295.872 156.291 297.332 156.291 298.411 155.486C298.878 155.139 299.26 154.57 299.124 154.009C299.011 153.686 298.833 153.391 298.6 153.141C297.979 152.335 297.612 151.367 297.167 150.452C296.284 148.639 295.069 147.009 293.585 145.646C292.465 144.666 291.278 143.765 290.032 142.95C289.731 142.727 289.41 142.533 289.073 142.37C288.638 142.179 288.156 142.087 287.763 141.846C287.182 141.478 286.846 140.83 286.398 140.308C285.416 139.16 283.906 138.632 282.696 137.73C281.884 137.124 281.166 136.327 280.196 136.035C279.725 135.891 279.224 135.881 278.753 135.739C277.681 135.414 276.9 134.462 275.85 134.076C275.019 133.772 274.102 133.85 273.23 133.743C272.246 133.621 271.307 133.263 270.492 132.699C270.229 132.485 269.935 132.313 269.619 132.19C268.291 131.786 268.183 134.262 268.047 135.12C267.871 136.395 267.552 137.662 267.552 138.952Z" fill="#006FF2"/>
<path d="M268.846 147.257C269.069 149.675 267.245 152.018 267.777 154.387C267.89 154.89 268.107 155.37 268.186 155.882C268.409 157.285 267.57 158.615 266.771 159.79L259.906 169.876C259.631 170.319 259.302 170.726 258.926 171.088C257.616 172.255 255.646 172.137 253.922 172.483C252.711 172.732 251.567 173.239 250.568 173.968C250.523 174.003 250.494 174.054 250.486 174.11C250.478 174.167 250.493 174.224 250.526 174.27C250.811 174.658 251.188 174.968 251.623 175.173C252.059 175.378 252.538 175.47 253.018 175.442C253.199 175.678 253.018 176.03 252.769 176.2C252.402 176.462 251.894 176.523 251.821 177.15C251.796 177.368 251.84 177.588 251.947 177.779C252.224 178.202 252.654 178.501 253.147 178.613C255.523 179.343 258.091 178.063 259.87 176.323C261.649 174.584 262.925 172.389 264.67 170.621C265.637 169.64 266.734 168.803 267.73 167.853C269.716 165.957 271.262 163.657 272.75 161.351C273.198 160.656 273.651 159.942 273.837 159.137C274.023 158.332 273.937 157.516 274.149 156.737C274.427 155.716 275.174 154.901 275.795 154.046C277.013 152.367 277.828 150.313 277.665 148.243C277.503 146.174 276.224 144.133 274.275 143.43C273.67 143.189 273.005 143.149 272.375 143.314C271.576 143.561 270.987 144.222 270.442 144.857L269.132 146.363C268.813 146.696 268.563 147.089 268.396 147.519C268.311 147.736 268.291 147.973 268.337 148.201C268.384 148.429 268.495 148.638 268.658 148.805" fill="#FBBEBE"/>
<path d="M272.326 137.336C271.424 137.389 270.431 137.478 269.795 138.123C269.528 138.42 269.312 138.758 269.155 139.125C268.537 140.387 267.934 141.707 267.89 143.112C267.853 144.235 268.178 145.334 268.348 146.444C268.49 147.367 268.131 148.309 268.063 149.243C269.182 148.899 270.659 148.432 271.673 147.852C272.365 147.456 273.033 147.005 273.788 146.753C274.864 146.394 276.67 147.016 277.694 147.514C277.749 146.795 277.209 145.541 277.267 144.82C277.275 144.516 277.329 144.216 277.427 143.928C277.58 143.624 277.762 143.335 277.969 143.065C278.359 142.431 278.539 141.688 278.482 140.945C278.425 140.202 278.134 139.496 277.652 138.929C276.743 137.906 275.32 137.523 273.963 137.355C273.108 137.256 272.247 137.226 271.388 137.266" fill="#006FF2"/>
</g>
<defs>
<linearGradient id="paint0_linear" x1="235.036" y1="177.268" x2="235.036" y2="49.088" gradientUnits="userSpaceOnUse">
<stop stop-color="#808080" stop-opacity="0.25"/>
<stop offset="0.54" stop-color="#808080" stop-opacity="0.12"/>
<stop offset="1" stop-color="#808080" stop-opacity="0.1"/>
</linearGradient>
<clipPath id="clip0">
<rect width="275" height="178" fill="white" transform="translate(50 34)"/>
</clipPath>
</defs>
</svg>
